<?xml version="1.0" standalone="no"?>
<!DOCTYPE svg PUBLIC "-//W3C//DTD SVG 1.1//EN" "http://www.w3.org/Graphics/SVG/1.1/DTD/svg11.dtd" >
<svg xmlns="http://www.w3.org/2000/svg" xmlns:xlink="http://www.w3.org/1999/xlink" version="1.1">
<metadata>
Created by FontForge 20170731 at Wed Jun  6 23:24:30 2018
 By Aleksey,,,
(c) 2017, Forgotten Shapes GbR. All rights reserved.
</metadata>
<defs>
<font id="GerstnerProgrammFSL-Bold" horiz-adv-x="644" >
  <font-face 
    font-family="Gerstner Programm FSL"
    font-weight="700"
    font-stretch="normal"
    units-per-em="1000"
    panose-1="2 1 8 4 1 1 1 1 1 4"
    ascent="741"
    descent="-259"
    x-height="482"
    cap-height="706"
    bbox="-445 -258 1543 1054"
    underline-thickness="50"
    underline-position="-225"
    unicode-range="U+000D-FEFF"
  />
<missing-glyph horiz-adv-x="561" 
d="M56 0v706h449v-706h-449zM109 53h343v600h-343v-600z" />
    <glyph glyph-name="f_f" unicode="ff" horiz-adv-x="700" 
d="M451 0v377h-201v-377h-140v377h-101v105h101v86q0 63 40.5 105t109.5 42q65 0 90 -5v-105q-22 2 -48 2q-52 0 -52 -75v-50h201v86q0 63 40.5 105t109.5 42q65 0 90 -5v-105q-22 2 -48 2q-52 0 -52 -75v-50h100v-105h-100v-377h-140z" />
    <glyph glyph-name="f_f_i" unicode="ffi" horiz-adv-x="946" 
d="M451 0v377h-201v-377h-140v377h-101v105h101v86q0 63 40.5 105t109.5 42q65 0 90 -5v-105q-22 2 -48 2q-52 0 -52 -75v-50h201v86q0 63 40.5 105t109.5 42q65 0 90 -5v-105q-22 2 -48 2q-52 0 -52 -75v-50h100v-105h-100v-377h-140zM751 0v482h140v-482h-140zM751 562
v144h140v-144h-140z" />
    <glyph glyph-name="f_f_l" unicode="ffl" horiz-adv-x="946" 
d="M451 0v377h-201v-377h-140v377h-101v105h101v86q0 63 40.5 105t109.5 42q65 0 90 -5v-105q-22 2 -48 2q-52 0 -52 -75v-50h201v86q0 63 40.5 105t109.5 42q65 0 90 -5v-105q-22 2 -48 2q-52 0 -52 -75v-50h100v-105h-100v-377h-140zM751 0v706h140v-706h-140z" />
    <glyph glyph-name="f_i" unicode="fi" horiz-adv-x="605" 
d="M110 0v377h-101v105h101v86q0 63 40.5 105t109.5 42q65 0 90 -5v-105q-22 2 -48 2q-52 0 -52 -75v-50h100v-105h-100v-377h-140zM410 0v482h140v-482h-140zM410 562v144h140v-144h-140z" />
    <glyph glyph-name="f_l" unicode="fl" horiz-adv-x="605" 
d="M110 0v377h-101v105h101v86q0 63 40.5 105t109.5 42q65 0 90 -5v-105q-22 2 -48 2q-52 0 -52 -75v-50h100v-105h-100v-377h-140zM410 0v706h140v-706h-140z" />
    <glyph glyph-name=".notdef" horiz-adv-x="561" 
d="M56 0v706h449v-706h-449zM109 53h343v600h-343v-600z" />
    <glyph glyph-name=".null" horiz-adv-x="0" 
 />
    <glyph glyph-name="nonmarkingreturn" unicode="&#xd;" horiz-adv-x="220" 
 />
    <glyph glyph-name="null" horiz-adv-x="0" 
 />
    <glyph glyph-name="null" horiz-adv-x="0" 
 />
    <glyph glyph-name="space" unicode=" " horiz-adv-x="220" 
 />
    <glyph glyph-name="exclam" unicode="!" horiz-adv-x="290" 
d="M66 0v158h158v-158h-158zM80 198l-15 508h160l-15 -508h-130z" />
    <glyph glyph-name="quotedbl" unicode="&#x22;" horiz-adv-x="392" 
d="M59 380v326h97v-326h-97zM237 380v326h96v-326h-96z" />
    <glyph glyph-name="numbersign" unicode="#" 
d="M116 0l29 208h-118v97h132l14 97h-119v96h132l30 208h108l-30 -208h97l30 208h108l-30 -208h119v-96h-132l-14 -97h119v-97h-133l-30 -208h-107l29 208h-97l-30 -208h-107zM267 305h97l14 97h-97z" />
    <glyph glyph-name="dollar" unicode="$" 
d="M291 -98v83q-105 9 -178.5 68t-96.5 171l160 35q0 -126 115 -147v188q-44 10 -67.5 16t-58 18t-53 26t-38 35.5t-27.5 51.5t-8 68q0 88 74 143t178 64v82h64v-83q118 -9 179 -68.5t75 -141.5l-154 -34q-13 100 -100 117v-167l56 -13q25 -6 39.5 -10.5t45 -15t49.5 -24.5
t40 -34t31.5 -48.5t10.5 -63.5q0 -95 -73.5 -160t-198.5 -73v-83h-64zM355 286v-176q49 6 79 32.5t30 60.5q0 36 -24.5 53t-76.5 28zM291 441v155q-93 -12 -93 -81q0 -24 15.5 -40t32 -22t45.5 -12z" />
    <glyph glyph-name="percent" unicode="%" horiz-adv-x="850" 
d="M210 396q34 0 53.5 37t19.5 86t-19.5 86t-53.5 37t-53.5 -37t-19.5 -86t19.5 -86t53.5 -37zM210 323q-79 0 -123.5 59.5t-44.5 136.5q0 78 44.5 137t123.5 59t123.5 -59t44.5 -137q0 -77 -44.5 -136.5t-123.5 -59.5zM123 0l504 706h103l-503 -706h-104zM639 64
q34 0 53.5 37t19.5 86t-19.5 86t-53.5 37t-53.5 -37t-19.5 -86t19.5 -86t53.5 -37zM639 -9q-79 0 -123.5 59.5t-44.5 136.5q0 78 44.5 137t123.5 59t123.5 -59t44.5 -137q0 -77 -44.5 -136.5t-123.5 -59.5z" />
    <glyph glyph-name="ampersand" unicode="&#x26;" horiz-adv-x="714" 
d="M394 0v345h-93q-45 0 -77.5 -33t-32.5 -78q0 -60 36 -91t93 -31q16 0 33 3v-115q-42 -11 -77 -11q-104 0 -171.5 67.5t-67.5 177.5q0 64 32 110.5t88 70.5q-80 39 -80 125q0 79 62.5 131t170.5 52t170.5 -52t62.5 -131v-70h157v-125h-157v-345h-149zM394 470v70
q0 28 -21.5 46.5t-61.5 18.5q-42 0 -63.5 -18t-21.5 -47q0 -70 85 -70h83z" />
    <glyph glyph-name="quotesingle" unicode="'" horiz-adv-x="214" 
d="M59 380v326h96v-326h-96z" />
    <glyph glyph-name="parenleft" unicode="(" horiz-adv-x="328" 
d="M167 241q0 -66 14 -130.5t42.5 -129t49 -103.5t57.5 -101h-116q-182 256 -182 464q0 206 182 465h116q-38 -65 -57.5 -102t-49 -102.5t-43 -130t-13.5 -130.5z" />
    <glyph glyph-name="parenright" unicode=")" horiz-adv-x="329" 
d="M161 241q0 66 -13.5 130.5t-43 130t-49 102.5t-57.5 102h116q182 -259 182 -465q0 -208 -182 -464h-116q37 62 57.5 101t49 103.5t42.5 129t14 130.5z" />
    <glyph glyph-name="asterisk" unicode="*" horiz-adv-x="432" 
d="M71 409l76 90l-119 30l32 99l110 -45l-9 123h104l-9 -119l114 47l32 -99l-115 -28l79 -94l-84 -61l-63 100l-64 -104z" />
    <glyph glyph-name="plus" unicode="+" 
d="M270 0v256h-249v107h249v258h107v-258h246v-107h-246v-256h-107z" />
    <glyph glyph-name="comma" unicode="," horiz-adv-x="266" 
d="M-11 -168l90 326h143l-122 -326h-111z" />
    <glyph glyph-name="hyphen" unicode="-" horiz-adv-x="449" 
d="M56 263v123h337v-123h-337z" />
    <glyph glyph-name="period" unicode="." horiz-adv-x="268" 
d="M55 0v158h158v-158h-158z" />
    <glyph glyph-name="slash" unicode="/" horiz-adv-x="448" 
d="M21 0l266 706h142l-266 -706h-142z" />
    <glyph glyph-name="zero" unicode="0" horiz-adv-x="667" 
d="M333 108q47 0 77.5 38.5t42 91t11.5 115.5q0 102 -31.5 173.5t-99.5 71.5q-46 0 -76.5 -38t-42 -90.5t-11.5 -116.5q0 -63 11.5 -115.5t42 -91t76.5 -38.5zM333 -17q-73 0 -130.5 32.5t-91 86.5t-51 118t-17.5 133q0 70 17.5 134t51 118t91 86t130.5 32q74 0 131.5 -32
t91.5 -86t51 -118t17 -134q0 -69 -17 -133t-51 -118t-91.5 -86.5t-131.5 -32.5z" />
    <glyph glyph-name="one" unicode="1" horiz-adv-x="390" 
d="M157 0v485h-136v126h64q48 0 66 20t18 75h148v-706h-160z" />
    <glyph glyph-name="two" unicode="2" horiz-adv-x="625" 
d="M38 0v133q35 17 78 42t96.5 64t96 80t72 91t29.5 95q0 42 -26 67.5t-64 25.5q-52 0 -81 -34.5t-29 -119.5l-160 37q0 64 24 113t64.5 76t86 40t95.5 13q105 0 177.5 -60t72.5 -158q0 -114 -94 -216t-220 -164h326v-125h-544z" />
    <glyph glyph-name="three" unicode="3" horiz-adv-x="625" 
d="M33 233l160 35q0 -74 29.5 -117t86.5 -43q56 0 84.5 29.5t28.5 71.5q0 97 -133 97h-86v125h88q56 0 85 26t29 62q0 38 -24.5 58.5t-69.5 20.5q-107 0 -107 -135l-160 35q0 87 71.5 156t195.5 69q110 0 182.5 -50.5t72.5 -153.5q0 -50 -34.5 -92t-99.5 -57
q78 -9 114 -56.5t36 -110.5q0 -86 -75 -153t-198 -67q-50 0 -95 13t-85 41t-65.5 78.5t-30.5 117.5z" />
    <glyph glyph-name="four" unicode="4" horiz-adv-x="638" 
d="M21 166v117l283 423h186v-415h125v-125h-125v-166h-150v166h-319zM188 291h152v247z" />
    <glyph glyph-name="five" unicode="5" horiz-adv-x="608" 
d="M40 183l145 36q7 -50 38 -80.5t83 -30.5q47 0 79 37t32 89q0 56 -27 95.5t-87 39.5q-39 0 -71 -26.5t-38 -59.5l-149 31l51 392h445v-125h-323l-18 -142q16 22 53 38.5t84 16.5q114 0 172 -72.5t58 -187.5q0 -114 -74 -182.5t-187 -68.5q-115 0 -180.5 55.5t-85.5 144.5z
" />
    <glyph glyph-name="six" unicode="6" horiz-adv-x="629" 
d="M578 543l-152 -33q-14 49 -37 68.5t-57 19.5q-111 0 -133 -181q10 25 51.5 46t88.5 21q117 0 181.5 -71t64.5 -176q0 -81 -40 -141t-96.5 -86.5t-117.5 -26.5q-77 0 -134 28t-89.5 78t-48 111.5t-15.5 136.5q0 77 16 143.5t49.5 122t93 88t139.5 32.5q77 0 142.5 -45
t93.5 -135zM322 108q46 0 79.5 33t33.5 93q0 59 -33.5 92t-79.5 33t-79.5 -33t-33.5 -92q0 -60 33.5 -93t79.5 -33z" />
    <glyph glyph-name="seven" unicode="7" horiz-adv-x="577" 
d="M247 0h-173q43 115 167.5 332t150.5 249h-371v125h540v-119q-38 -48 -152 -258.5t-162 -328.5z" />
    <glyph glyph-name="eight" unicode="8" horiz-adv-x="632" 
d="M181 377q-115 43 -115 156q0 30 15 62t44 61.5t79 48t112 18.5t112 -18.5t79 -48t44 -61.5t15 -62q0 -113 -115 -156q73 -25 106.5 -66.5t33.5 -110.5q0 -88 -76.5 -152.5t-198.5 -64.5t-198.5 64t-76.5 153q0 69 33.5 110.5t106.5 66.5zM191 209q0 -45 34.5 -73
t90.5 -28t90.5 28t34.5 73q0 13 -3 25t-13.5 32t-38.5 32t-70 12t-70 -12t-38.5 -32t-13.5 -32t-3 -25zM216 517q0 -36 25 -58t75 -22t75 22t25 58q0 34 -25.5 57.5t-74.5 23.5t-74.5 -23.5t-25.5 -57.5z" />
    <glyph glyph-name="nine" unicode="9" horiz-adv-x="629" 
d="M43 172l157 36q8 -51 34.5 -75.5t62.5 -24.5q46 0 76.5 33.5t42 74.5t14.5 89q-9 -24 -50 -44t-88 -20q-116 0 -180.5 72.5t-64.5 175.5q0 105 77 169.5t176 64.5q76 0 132.5 -28t89 -78t48 -111.5t15.5 -135.5q0 -77 -16 -143.5t-49.5 -122.5t-93 -88.5t-139.5 -32.5
q-78 0 -149.5 50.5t-94.5 138.5zM305 364q42 0 75.5 33t33.5 84q0 52 -33.5 84.5t-75.5 32.5t-75 -33t-33 -84t33.5 -84t74.5 -33z" />
    <glyph glyph-name="colon" unicode=":" horiz-adv-x="268" 
d="M55 0v158h158v-158h-158zM55 324v158h158v-158h-158z" />
    <glyph glyph-name="semicolon" unicode=";" horiz-adv-x="287" 
d="M2 -168l90 326h143l-122 -326h-111zM67 324v158h158v-158h-158z" />
    <glyph glyph-name="less" unicode="&#x3c;" 
d="M7 301v84l598 245v-104l-451 -183l451 -183v-104z" />
    <glyph glyph-name="equal" unicode="=" 
d="M21 184v103h602v-103h-602zM21 361v103h602v-103h-602z" />
    <glyph glyph-name="greater" unicode="&#x3e;" 
d="M39 56v104l451 183l-451 183v104l598 -245v-84z" />
    <glyph glyph-name="question" unicode="?" horiz-adv-x="583" 
d="M202 198v233q32 -5 74 -5q124 0 124 86q0 38 -29.5 62t-74.5 24q-57 0 -90 -32.5t-33 -91.5l-150 36q7 84 79 148.5t194 64.5q108 0 181.5 -55t73.5 -156q0 -81 -54 -135.5t-136 -60.5v-118h-159zM202 0v158h158v-158h-158z" />
    <glyph glyph-name="at" unicode="@" horiz-adv-x="790" 
d="M365 223q50 0 85.5 49.5t35.5 104.5q0 39 -21.5 63.5t-54.5 24.5q-56 0 -89 -47t-33 -103q0 -40 21 -66t56 -26zM411 649q-121 0 -207 -86.5t-86 -209.5t86 -209.5t207 -86.5t206 69l44 -49q-103 -94 -250 -94q-154 0 -264.5 107.5t-110.5 262.5t110.5 262.5t264.5 107.5
q156 0 250 -86t94 -219q0 -119 -63.5 -202t-168.5 -83q-30 0 -50 16.5t-22 41.5q-35 -58 -109 -58q-69 0 -111.5 51t-42.5 132q0 97 59.5 168t154.5 71q36 0 68 -16.5t48 -52.5l16 53h81l-65 -266q-8 -30 -8 -43q0 -22 17 -22q50 0 82 58.5t32 151.5q0 102 -70 166.5
t-192 64.5z" />
    <glyph glyph-name="A" unicode="A" horiz-adv-x="744" 
d="M-3 0l285 706h180l285 -706h-165l-71 190h-279l-70 -190h-165zM277 310h190l-95 255z" />
    <glyph glyph-name="B" unicode="B" horiz-adv-x="717" 
d="M70 0v706h355q113 0 172 -55.5t59 -137.5q0 -53 -39.5 -94.5t-84.5 -47.5q70 -4 111.5 -51.5t41.5 -106.5q0 -109 -82.5 -161t-220.5 -52h-312zM230 125h164q131 0 131 91q0 85 -109 85h-186v-176zM230 426h161q48 0 76 21t28 57q0 38 -24.5 57.5t-67.5 19.5h-173v-155z
" />
    <glyph glyph-name="C" unicode="C" horiz-adv-x="764" 
d="M591 285l156 -32q-19 -72 -57.5 -126.5t-87.5 -84.5t-100 -44.5t-105 -14.5q-96 0 -177.5 44t-133 129.5t-51.5 196.5q0 163 104.5 266.5t262.5 103.5q246 0 337 -237l-155 -37q-57 149 -182 149q-89 0 -148 -69t-59 -176q0 -109 60 -177t142 -68q62 0 116 43t78 134z
" />
    <glyph glyph-name="D" unicode="D" horiz-adv-x="759" 
d="M230 125h104q108 0 169 61t61 167t-61 167t-169 61h-104v-456zM70 0v706h284q163 0 266.5 -95.5t103.5 -257.5t-103.5 -257.5t-266.5 -95.5h-284z" />
    <glyph glyph-name="E" unicode="E" horiz-adv-x="646" 
d="M70 0v706h524v-125h-364v-157h350v-125h-350v-174h371v-125h-531z" />
    <glyph glyph-name="F" unicode="F" horiz-adv-x="623" 
d="M70 0v706h525v-125h-365v-157h343v-125h-343v-299h-160z" />
    <glyph glyph-name="G" unicode="G" horiz-adv-x="781" 
d="M580 0v67q-67 -84 -197 -84q-87 0 -165 42.5t-130.5 129t-52.5 198.5q0 163 104.5 266.5t262.5 103.5q230 0 324 -205l-156 -38q-59 118 -168 118q-89 0 -148 -69t-59 -176q0 -109 60 -177t142 -68q65 0 119.5 41.5t63.5 137.5h-220v125h370v-412h-150z" />
    <glyph glyph-name="H" unicode="H" horiz-adv-x="767" 
d="M70 0v706h160v-282h307v282h160v-706h-160v299h-307v-299h-160z" />
    <glyph glyph-name="I" unicode="I" horiz-adv-x="300" 
d="M70 0v706h160v-706h-160z" />
    <glyph glyph-name="J" unicode="J" horiz-adv-x="611" 
d="M11 234l156 33q0 -85 32 -122t82 -37q49 0 77 25.5t28 75.5v497h160v-497q0 -109 -71 -167.5t-192 -58.5q-117 0 -194.5 63.5t-77.5 187.5z" />
    <glyph glyph-name="K" unicode="K" horiz-adv-x="721" 
d="M70 0v706h160v-283l282 283h195l-339 -330l382 -376h-205l-315 318v-318h-160z" />
    <glyph glyph-name="L" unicode="L" horiz-adv-x="593" 
d="M70 0v706h160v-581h351v-125h-511z" />
    <glyph glyph-name="M" unicode="M" horiz-adv-x="950" 
d="M70 0v706h232l173 -551l173 551h232v-706h-145v547l-171 -547h-178l-171 547v-547h-145z" />
    <glyph glyph-name="N" unicode="N" horiz-adv-x="801" 
d="M70 0v706h211l310 -552v552h140v-706h-212l-309 549v-549h-140z" />
    <glyph glyph-name="O" unicode="O" horiz-adv-x="809" 
d="M406 108q101 0 154.5 71.5t53.5 171.5q0 64 -21.5 118.5t-70 91.5t-116.5 37q-103 0 -157 -73t-54 -174t54 -172t157 -71zM406 -17q-94 0 -167 31t-116.5 84t-65.5 117t-22 136q0 71 22 135.5t65.5 118.5t117 86t166.5 32q92 0 164.5 -32t116 -85.5t65.5 -118.5t22 -136
q0 -72 -22 -136t-65.5 -117t-116 -84t-164.5 -31z" />
    <glyph glyph-name="P" unicode="P" horiz-adv-x="680" 
d="M70 0v706h363q36 0 71 -8.5t72.5 -29.5t60.5 -65t23 -106t-23 -106t-60.5 -65t-72.5 -29.5t-71 -8.5h-203v-288h-160zM230 413h176q46 0 71.5 18.5t25.5 65.5t-25.5 65.5t-71.5 18.5h-176v-168z" />
    <glyph glyph-name="Q" unicode="Q" horiz-adv-x="816" 
d="M715 -46l-87 92q-90 -63 -222 -63q-94 0 -167 31t-116.5 84t-65.5 117t-22 136q0 71 22 135.5t65.5 118.5t117 86t166.5 32q92 0 164.5 -32t116 -85.5t65.5 -118.5t22 -136q0 -113 -52 -202l94 -99zM406 108q101 0 154.5 71.5t53.5 171.5q0 64 -21.5 118.5t-70 91.5
t-116.5 37q-103 0 -157 -73t-54 -174t54 -172t157 -71z" />
    <glyph glyph-name="R" unicode="R" horiz-adv-x="712" 
d="M70 0v706h337q101 0 171 -47.5t70 -137.5q0 -77 -35.5 -117t-74.5 -48q54 -15 82 -45.5t28 -89.5v-110q0 -69 41 -111h-170q-27 29 -27 92v98q0 44 -19.5 70t-58.5 26h-189v-286h-155zM225 411h167q101 0 101 90q0 80 -100 80h-168v-170z" />
    <glyph glyph-name="S" unicode="S" horiz-adv-x="684" 
d="M23 223l159 35q0 -74 44.5 -112t121.5 -38q63 0 103 28.5t40 65.5q0 36 -25 53.5t-79 30.5l-111 23q-33 7 -48.5 11t-44.5 13t-44 17.5t-35.5 24.5t-30.5 34.5t-17.5 45.5t-7.5 60q0 96 86 152t205 56q75 0 131 -18.5t88.5 -51t50 -67t25.5 -75.5l-153 -34q-8 59 -45 90
t-97 31t-97 -21t-37 -62q0 -18 8 -31t23.5 -21t27 -11.5t30.5 -7.5l140 -30q31 -7 51.5 -12.5t55.5 -21.5t56.5 -35t38.5 -52.5t17 -75.5q0 -101 -82.5 -167.5t-227.5 -66.5q-264 0 -320 240z" />
    <glyph glyph-name="T" unicode="T" horiz-adv-x="616" 
d="M228 0v581h-218v125h596v-125h-218v-581h-160z" />
    <glyph glyph-name="U" unicode="U" horiz-adv-x="746" 
d="M63 261v445h160v-445q0 -77 41.5 -115t108.5 -38t108.5 38t41.5 115v445h160v-445q0 -137 -87 -207.5t-223 -70.5t-223 70.5t-87 207.5z" />
    <glyph glyph-name="V" unicode="V" horiz-adv-x="726" 
d="M280 0l-283 706h157l209 -536l209 536h157l-283 -706h-166z" />
    <glyph glyph-name="W" unicode="W" horiz-adv-x="1050" 
d="M205 0l-201 706h154l142 -546l131 546h188l131 -546l142 546h154l-201 -706h-194l-126 564l-126 -564h-194z" />
    <glyph glyph-name="X" unicode="X" horiz-adv-x="718" 
d="M-21 0l290 373l-252 333h183l167 -233l161 233h179l-257 -332l286 -374h-186l-195 271l-192 -271h-184z" />
    <glyph glyph-name="Y" unicode="Y" horiz-adv-x="735" 
d="M291 0v320l-294 386h185l187 -270l186 270h181l-290 -386v-320h-155z" />
    <glyph glyph-name="Z" unicode="Z" horiz-adv-x="656" 
d="M30 0v130l378 446h-362v130h558v-130l-391 -446h417v-130h-600z" />
    <glyph glyph-name="bracketleft" unicode="[" horiz-adv-x="355" 
d="M70 -223v929h265v-98h-135v-733h136v-98h-266z" />
    <glyph glyph-name="backslash" unicode="\" horiz-adv-x="448" 
d="M285 0l-266 706h142l266 -706h-142z" />
    <glyph glyph-name="bracketright" unicode="]" horiz-adv-x="355" 
d="M19 -223v98h136v733h-135v98h265v-929h-266z" />
    <glyph glyph-name="asciicircum" unicode="^" 
d="M85 324l195 382h91l187 -382h-118l-116 245l-122 -245h-117z" />
    <glyph glyph-name="underscore" unicode="_" horiz-adv-x="520" 
d="M0 -125v53h520v-53h-520z" />
    <glyph glyph-name="grave" unicode="`" horiz-adv-x="315" 
d="M158 540l-108 185h133l82 -185h-107z" />
    <glyph glyph-name="a" unicode="a" horiz-adv-x="539" 
d="M494 0h-139q0 4 -4 29l-4 25q-42 -66 -144 -66q-77 0 -125 44t-48 103q0 42 14.5 71.5t44 46.5t60.5 25.5t78 15.5q1 0 36 5t37 5q33 5 44 13.5t11 24.5q0 26 -22.5 39t-56.5 13q-94 0 -95 -85l-134 31q12 81 82 120q61 34 147 34q92 0 151.5 -43t59.5 -132v-181
q0 -28 0.5 -52t1.5 -39t2.5 -25t2 -15.5t0.5 -6.5zM170 146q0 -22 19.5 -40t46.5 -18q23 0 46 7t44 30.5t21 60.5v36l-7 -1q-4 0 -14 -1.5t-14 -2.5q-2 0 -8 -1t-16.5 -3t-22.5 -4q-22 -4 -35.5 -7.5t-29 -10t-23 -18t-7.5 -27.5z" />
    <glyph glyph-name="b" unicode="b" horiz-adv-x="590" 
d="M55 0v706h140v-268q54 56 136 56q57 0 101 -20.5t67 -49t37.5 -66.5t18.5 -65.5t4 -52.5t-4 -52.5t-18.5 -65t-38 -66t-67 -48.5t-101.5 -20q-38 0 -81 18.5t-62 47.5v-54h-132zM304 93q54 0 84.5 41t30.5 106t-30.5 107t-84.5 42q-39 0 -74.5 -35.5t-35.5 -113.5
q0 -77 35.5 -112t74.5 -35z" />
    <glyph glyph-name="c" unicode="c" horiz-adv-x="541" 
d="M378 203l140 -27q-4 -30 -20.5 -61t-44.5 -60.5t-73.5 -48t-100.5 -18.5q-114 0 -181.5 75.5t-67.5 177.5t67.5 177.5t181.5 75.5q99 0 160.5 -55.5t76.5 -120.5l-140 -29q-20 100 -97 100q-55 0 -82 -44.5t-27 -103.5t27 -103.5t82 -44.5q27 0 46 10.5t29.5 30t15 34
t8.5 35.5z" />
    <glyph glyph-name="d" unicode="d" horiz-adv-x="597" 
d="M410 0v54q-19 -29 -62 -47.5t-82 -18.5q-57 0 -101.5 20t-69 49t-40 66t-20 65t-4.5 52t4.5 52.5t20 65.5t39.5 66t68.5 49.5t102.5 20.5q82 0 136 -56v268h140v-706h-132zM290 93q41 0 76.5 35t35.5 112t-35 113t-74 36q-36 0 -62.5 -17.5t-38 -43.5t-16.5 -47.5
t-5 -39.5q0 -14 2.5 -30t10.5 -38t20 -39t34.5 -29t51.5 -12z" />
    <glyph glyph-name="e" unicode="e" horiz-adv-x="544" 
d="M375 171l125 -32q-13 -57 -74 -104t-142 -47q-123 0 -188 74t-65 178q0 105 65 179.5t177 74.5q101 0 170.5 -69.5t69.5 -177.5q0 -29 -2 -47h-340q2 -53 30 -82.5t72 -29.5q81 0 102 83zM171 301h204q0 39 -26.5 66t-75.5 27q-47 0 -74.5 -25.5t-27.5 -67.5z" />
    <glyph glyph-name="f" unicode="f" horiz-adv-x="359" 
d="M110 0v377h-101v105h101v86q0 63 40.5 105t109.5 42q65 0 90 -5v-105q-22 2 -48 2q-52 0 -52 -75v-50h100v-105h-100v-377h-140z" />
    <glyph glyph-name="g" unicode="g" horiz-adv-x="597" 
d="M50 -68l140 29q5 -18 11 -32t18 -28.5t31.5 -22.5t46.5 -8q31 0 53.5 14t32.5 35t14.5 39.5t4.5 34.5v62q-24 -24 -62 -39.5t-74 -15.5q-58 0 -102.5 19t-68.5 46.5t-39.5 62.5t-20 62t-4.5 51t4.5 52t20 65.5t39.5 66t68.5 49t102.5 20.5q39 0 82 -18.5t62 -47.5v54h132
v-493q0 -97 -64.5 -160.5t-180.5 -63.5q-104 0 -167 51t-80 116zM290 105q41 0 76.5 35t35.5 107t-35.5 107t-76.5 35q-35 0 -60.5 -17.5t-37 -44t-16.5 -46.5t-5 -34q0 -20 4.5 -41.5t16 -45.5t37 -39.5t61.5 -15.5z" />
    <glyph glyph-name="h" unicode="h" horiz-adv-x="562" 
d="M55 0v706h136v-282q9 23 46.5 46.5t101.5 23.5q99 0 143 -72q30 -48 30 -114v-308h-140v307q0 27 -13 49q-21 33 -63 33q-36 0 -62 -21q-40 -30 -40 -99v-269h-139z" />
    <glyph glyph-name="i" unicode="i" horiz-adv-x="250" 
d="M55 0v482h140v-482h-140zM55 562v144h140v-144h-140z" />
    <glyph glyph-name="j" unicode="j" horiz-adv-x="254" 
d="M-52 -226v112q17 -4 37 -4q45 0 59.5 14.5t14.5 40.5v545h140v-566q0 -73 -35 -110t-130 -37q-48 0 -86 5zM59 562v144h140v-144h-140z" />
    <glyph glyph-name="k" unicode="k" horiz-adv-x="562" 
d="M55 0v706h140v-399l180 175h178l-243 -216l275 -266h-179l-211 203v-203h-140z" />
    <glyph glyph-name="l" unicode="l" horiz-adv-x="250" 
d="M55 0v706h140v-706h-140z" />
    <glyph glyph-name="m" unicode="m" horiz-adv-x="813" 
d="M55 0v482h136v-58q29 70 130 70q67 0 107 -39q13 -11 27 -32q36 71 131 71q94 0 140 -62q37 -49 37 -124v-308h-140v309q0 15 -4 31t-19 32.5t-39 16.5q-17 0 -34.5 -10t-27.5 -26q-20 -31 -20 -83v-270h-139v309q0 15 -4 31t-18.5 32.5t-38.5 16.5q-39 0 -65 -36
q-19 -29 -19 -84v-269h-140z" />
    <glyph glyph-name="n" unicode="n" horiz-adv-x="558" 
d="M55 0v482h136v-58q9 23 45.5 46.5t99.5 23.5q98 0 142 -72q30 -50 30 -114v-308h-140v307q0 27 -13 49q-21 33 -61 33q-35 0 -61 -21q-38 -28 -38 -99v-269h-140z" />
    <glyph glyph-name="o" unicode="o" horiz-adv-x="563" 
d="M282 93q53 0 82 45t29 102t-29 103t-82 46t-82.5 -46t-29.5 -103q0 -56 29.5 -101.5t82.5 -45.5zM282 -12q-116 0 -184 76t-68 176t68.5 177t183.5 77t183 -77t68 -177t-68 -176t-183 -76z" />
    <glyph glyph-name="p" unicode="p" horiz-adv-x="597" 
d="M55 -223v705h132v-54q19 29 62 47.5t82 18.5q57 0 101.5 -20t69 -49t40 -66t20 -65t4.5 -52t-4.5 -52.5t-20 -65.5t-40 -66t-69 -49.5t-102.5 -20.5q-81 0 -135 56v-267h-140zM304 93q36 0 62.5 17.5t38 43.5t16.5 47.5t5 39.5t-5 39.5t-16.5 47.5t-37 43.5t-60.5 17.5
q-42 0 -77.5 -35t-35.5 -112q0 -78 35.5 -113.5t74.5 -35.5z" />
    <glyph glyph-name="q" unicode="q" horiz-adv-x="590" 
d="M396 -223v267q-54 -56 -136 -56q-57 0 -101 20.5t-67 49t-37.5 66.5t-18.5 65.5t-4 52.5t4 52.5t18.5 65t38 66t67 48.5t101.5 20q38 0 81 -18.5t62 -47.5v54h131v-705h-139zM287 93q39 0 74.5 35.5t35.5 113.5q0 77 -35.5 112t-74.5 35q-54 0 -84.5 -41t-30.5 -106
t30.5 -107t84.5 -42z" />
    <glyph glyph-name="r" unicode="r" horiz-adv-x="367" 
d="M55 0v482h136v-59q40 71 130 71q23 0 34 -1v-123q-7 2 -40 2q-68 0 -99 -44q-21 -28 -21 -77v-251h-140z" />
    <glyph glyph-name="s" unicode="s" horiz-adv-x="512" 
d="M25 146l134 30q9 -45 30.5 -66.5t62.5 -21.5q39 0 64 14t25 40q0 25 -17.5 34.5t-68.5 18.5l-26 4q-92 14 -141 47t-49 105q0 21 11.5 43.5t35 46t69.5 38.5t107 15q70 0 127.5 -37.5t76.5 -104.5l-121 -31q-12 40 -31 56.5t-60 16.5q-35 0 -58 -10.5t-23 -31.5
q0 -7 2 -13t7 -11t9.5 -8.5t12.5 -6t13.5 -4.5t15 -4t14.5 -2.5t14.5 -2t12.5 -1.5l26 -4q28 -5 49.5 -10t48 -16t43.5 -25.5t29 -37.5t12 -53q0 -79 -64 -122t-166 -43q-88 0 -149.5 42.5t-77.5 115.5z" />
    <glyph glyph-name="t" unicode="t" horiz-adv-x="364" 
d="M102 105v272h-93v105h93v159h140v-159h94v-105h-94v-212q0 -59 47 -59q34 0 47 3v-111q-38 -6 -76 -6q-158 0 -158 113z" />
    <glyph glyph-name="u" unicode="u" horiz-adv-x="558" 
d="M50 174v308h140v-307q0 -27 13 -49q21 -33 61 -33q35 0 61 21q38 28 38 99v269h140v-482h-136v58q-9 -23 -45.5 -46.5t-99.5 -23.5q-98 0 -142 72q-30 50 -30 114z" />
    <glyph glyph-name="v" unicode="v" horiz-adv-x="530" 
d="M183 0l-178 482h143l119 -333l119 333h139l-178 -482h-164z" />
    <glyph glyph-name="w" unicode="w" horiz-adv-x="794" 
d="M156 0l-151 482h138l89 -315l90 315h150l90 -316l89 316h138l-151 -482h-153l-88 311l-88 -311h-153z" />
    <glyph glyph-name="x" unicode="x" horiz-adv-x="511" 
d="M-3 0l179 251l-164 231h157l92 -136l89 136h156l-170 -232l174 -250h-156l-96 151l-103 -151h-158z" />
    <glyph glyph-name="y" unicode="y" horiz-adv-x="518" 
d="M39 -224v112q34 -6 42 -6q67 0 80 37l34 88l-190 475h148l115 -321l107 321h141l-235 -617q-37 -96 -161 -96q-55 0 -81 7z" />
    <glyph glyph-name="z" unicode="z" horiz-adv-x="491" 
d="M24 0v106l253 268h-233v108h411v-100l-254 -273h261v-109h-438z" />
    <glyph glyph-name="braceleft" unicode="{" horiz-adv-x="348" 
d="M337 -169v-54q-60 0 -89.5 2t-62.5 13.5t-53 34.5q-16 17 -23.5 42.5t-8.5 45t-1 59.5v70q0 75 -5 93q-15 61 -74 79v52q59 18 74 79q5 18 5 93v69q0 40 1 59.5t8.5 45t23.5 42.5q29 33 73 41.5t132 8.5v-54q-23 -6 -34.5 -10t-26.5 -12.5t-24 -21.5t-15 -32
q-8 -24 -8 -92v-45q0 -95 -14 -126q-22 -54 -92 -71q69 -16 92 -71q14 -31 14 -126v-46q0 -68 8 -92q6 -19 15 -32t24 -21.5t26.5 -12.5t34.5 -10z" />
    <glyph glyph-name="bar" unicode="|" horiz-adv-x="263" 
d="M70 -223v929h123v-929h-123z" />
    <glyph glyph-name="braceright" unicode="}" horiz-adv-x="348" 
d="M11 -223v54q23 6 34.5 10t26.5 12.5t24 21.5t15 32q8 24 8 92v46q0 95 14 126q23 55 92 71q-70 17 -92 71q-14 31 -14 126v45q0 68 -8 92q-6 19 -15 32t-24 21.5t-26.5 12.5t-34.5 10v54q60 0 89.5 -2t62.5 -13.5t53 -34.5q16 -17 23.5 -42.5t8.5 -45t1 -59.5v-69
q0 -75 5 -93q15 -61 74 -79v-52q-59 -18 -74 -79q-5 -18 -5 -93v-70q0 -40 -1 -59.5t-8.5 -45t-23.5 -42.5q-29 -33 -73 -41.5t-132 -8.5z" />
    <glyph glyph-name="asciitilde" unicode="~" 
d="M73 240l-48 11q20 92 67.5 139t110.5 47q42 0 82.5 -15t67 -33t59 -33t60.5 -15q88 0 107 89l48 -11q-20 -92 -67.5 -139t-110.5 -47q-42 0 -82.5 15t-67 33t-59 33t-60.5 15q-88 0 -107 -89z" />
    <glyph glyph-name="uni00A0" unicode="&#xa0;" horiz-adv-x="220" 
 />
    <glyph glyph-name="exclamdown" unicode="&#xa1;" horiz-adv-x="290" 
d="M66 548v158h158v-158h-158zM65 0l15 508h130l15 -508h-160z" />
    <glyph glyph-name="cent" unicode="&#xa2;" 
d="M245 -98v92q-108 25 -173.5 117t-65.5 243q0 139 65.5 233t173.5 125v92h66v-80q4 0 12.5 0.5t13.5 0.5q4 0 12 -0.5t13 -0.5v80h66v-90q166 -45 210 -228l-134 -36q-20 90 -76 129v-443q61 46 77 150l138 -32q-20 -104 -76.5 -169t-138.5 -89v-94h-66v82q-11 -1 -29 -1
q-15 0 -22 1v-82h-66zM362 106v496q-18 2 -25 2q-14 0 -26 -3v-495q14 -2 22 -2q22 0 29 2zM245 136v433q-78 -68 -78 -215q0 -154 78 -218z" />
    <glyph glyph-name="sterling" unicode="&#xa3;" 
d="M47 0l120 321h-120v125h166l33 88q14 36 24.5 58t29 48t40.5 40.5t56 24.5t78 10q50 0 91 -9v-129q-26 9 -80 9q-59 0 -87 -74l-25 -66h155v-125h-200l-74 -196h344v-125h-551z" />
    <glyph glyph-name="currency" unicode="&#xa4;" 
d="M11 128l73 81q-41 67 -41 151q0 79 40 151l-70 80l90 95l76 -80q68 43 144 43q75 0 144 -43l75 80l92 -95l-73 -80q41 -73 41 -151t-41 -152l72 -82l-92 -95l-76 82q-75 -42 -142 -42q-76 0 -144 43l-77 -81zM324 195q61 0 108 45t47 120t-47.5 120t-108.5 45t-108.5 -45
t-47.5 -120t47.5 -120t109.5 -45z" />
    <glyph glyph-name="yen" unicode="&#xa5;" 
d="M245 0v202h-218v66h218v51h-218v66h172l-208 321h181l151 -270l150 270h181l-209 -321h173v-66h-218v-51h218v-66h-218v-202h-155z" />
    <glyph glyph-name="brokenbar" unicode="&#xa6;" horiz-adv-x="269" 
d="M73 -223v389h123v-389h-123zM73 317v389h123v-389h-123z" />
    <glyph glyph-name="section" unicode="&#xa7;" horiz-adv-x="483" 
d="M134 -201v105q22 -2 48 -2q30 0 52 14t22 44q0 11 -6 22t-12 18.5t-23.5 26t-27.5 29.5l-70 79q-89 98 -89 180q0 90 93 139q-18 21 -29 50t-11 51q0 70 54 119t124 49q65 0 90 -5v-105q-22 2 -48 2q-30 0 -52 -14t-22 -44q0 -11 6 -22t12 -18.5t23.5 -26t27.5 -29.5
l70 -79q89 -98 89 -180q0 -93 -94 -139q18 -21 29.5 -50.5t11.5 -50.5q0 -71 -54 -119.5t-124 -48.5q-65 0 -90 5zM221 215l56 -59q20 0 32.5 12t12.5 32q0 23 -12.5 44.5t-47.5 57.5l-57 59q-20 0 -32 -12t-12 -32q0 -23 12.5 -44.5t47.5 -57.5z" />
    <glyph glyph-name="dieresis" unicode="&#xa8;" horiz-adv-x="434" 
d="M50 563v145h145v-145h-145zM239 563v145h145v-145h-145z" />
    <glyph glyph-name="copyright" unicode="&#xa9;" horiz-adv-x="812" 
d="M509 315l120 -24q-11 -78 -67.5 -133.5t-155.5 -55.5t-169 74t-70 178q0 107 71.5 179.5t167.5 72.5q89 0 143.5 -47t74.5 -120l-119 -29q-19 77 -99 77q-49 0 -81.5 -37.5t-32.5 -95.5q0 -57 32.5 -95t81.5 -38t75 26t28 68zM68 353q0 -140 99 -239t239 -99t239 99
t99 239t-99 239t-239 99t-239 -99t-99 -239zM36 353q0 153 108.5 261.5t261.5 108.5t261.5 -108.5t108.5 -261.5t-108.5 -261.5t-261.5 -108.5t-261.5 108.5t-108.5 261.5z" />
    <glyph glyph-name="ordfeminine" unicode="&#xaa;" horiz-adv-x="397" 
d="M344 388h-92q-5 35 -5 36q-29 -44 -95 -44q-51 0 -83 29.5t-32 67.5q0 53 32 73.5t98 32.5q1 0 24 3t25 3q22 4 29 9.5t7 15.5q0 35 -52 35q-62 0 -63 -56l-89 20q10 55 55 79q40 23 97 23q53 0 91 -22q49 -29 49 -94v-120q0 -75 4 -91zM247 511v25q-7 0 -24 -5h-4
l-25 -4q-64 -10 -64 -42q0 -15 12.5 -27t30.5 -12q27 0 50.5 14.5t23.5 50.5z" />
    <glyph glyph-name="guillemotleft" unicode="&#xab;" horiz-adv-x="462" 
d="M40 261v112l174 109v-112l-103 -53l103 -53v-112zM229 261v112l174 109v-112l-103 -53l103 -53v-112z" />
    <glyph glyph-name="logicalnot" unicode="&#xac;" 
d="M36 281v107h548v-321h-107v214h-441z" />
    <glyph glyph-name="uni00AD" unicode="&#xad;" horiz-adv-x="449" 
d="M56 263v123h337v-123h-337z" />
    <glyph glyph-name="registered" unicode="&#xae;" horiz-adv-x="490" 
d="M151 461v259h96q46 0 61 -6q39 -16 39 -59q0 -49 -58 -62q20 -8 28.5 -20t13.5 -37q6 -43 19 -75h-44q-5 9 -8 21t-5 32t-3 24q-5 27 -20 35t-46 8h-35v-120h-38zM190 612h61q58 0 58 41q0 18 -13 28q-12 10 -55 10h-51v-79zM62 589q0 -76 53.5 -129.5t129.5 -53.5
t129.5 53.5t53.5 129.5t-53.5 129.5t-129.5 53.5t-129.5 -53.5t-53.5 -129.5zM30 589q0 89 63 152t152 63t152 -63t63 -152t-63 -152t-152 -63t-152 63t-63 152z" />
    <glyph glyph-name="overscore" unicode="&#xaf;" horiz-adv-x="440" 
d="M50 605v101h340v-101h-340z" />
    <glyph glyph-name="degree" unicode="&#xb0;" horiz-adv-x="404" 
d="M202 465q36 0 61 25t25 61t-25 61t-61 25t-61 -25t-25 -61t25 -61t61 -25zM202 379q-71 0 -121.5 50.5t-50.5 121.5t50.5 121.5t121.5 50.5t121.5 -50.5t50.5 -121.5t-50.5 -121.5t-121.5 -50.5z" />
    <glyph glyph-name="plusminus" unicode="&#xb1;" 
d="M40 361v107h230v203h107v-203h227v-107h-227v-203h-107v203h-230zM40 0v107h564v-107h-564z" />
    <glyph glyph-name="twosuperior" unicode="&#xb2;" horiz-adv-x="360" 
d="M30 502v76q26 12 69.5 38.5t74.5 57.5q52 50 52 95q0 19 -12 31t-29 12q-26 0 -40 -17.5t-14 -61.5l-95 22q0 68 44.5 99t104.5 31q56 0 96 -32t40 -84q0 -32 -15 -62.5t-27.5 -44.5t-38.5 -40q-7 -7 -35 -23.5t-44 -22.5h166v-74h-297z" />
    <glyph glyph-name="threesuperior" unicode="&#xb3;" horiz-adv-x="360" 
d="M28 621l93 22q0 -34 14.5 -55.5t42.5 -21.5t41 14t13 34q0 51 -67 51h-40v65h37q29 0 45 12t16 29q0 18 -11.5 29.5t-32.5 11.5q-51 0 -53 -64l-94 21q2 47 41.5 81.5t105.5 34.5q59 0 99 -29.5t40 -86.5q0 -9 -4 -22t-20.5 -29t-42.5 -20q75 -12 75 -95q0 -44 -40.5 -77
t-107.5 -33q-59 0 -101.5 30t-48.5 98z" />
    <glyph glyph-name="acute" unicode="&#xb4;" horiz-adv-x="315" 
d="M50 540l82 185h133l-108 -185h-107z" />
    <glyph glyph-name="mu" unicode="&#xb5;" horiz-adv-x="583" 
d="M65 -223v705h140v-307q0 -34 20 -58t54 -24q46 0 72.5 35t26.5 85v269h140v-482h-136v58q-8 -21 -43 -45.5t-80 -24.5q-28 0 -54 12v-223h-140z" />
    <glyph glyph-name="paragraph" unicode="&#xb6;" horiz-adv-x="549" 
d="M178 -223v513q-67 18 -110.5 75t-43.5 129q0 88 62 150t150 62h264v-78h-36v-851h-84v851h-118v-851h-84z" />
    <glyph glyph-name="middot" unicode="&#xb7;" horiz-adv-x="248" 
d="M44 359q0 33 23.5 56.5t56.5 23.5t56.5 -23.5t23.5 -56.5t-23.5 -56.5t-56.5 -23.5t-56.5 23.5t-23.5 56.5z" />
    <glyph glyph-name="cedilla" unicode="&#xb8;" horiz-adv-x="263" 
d="M50 -247v64h46q19 0 31 13t12 33q0 15 -12.5 26.5t-30.5 11.5h-46v109h65v-45q43 -3 70.5 -30.5t27.5 -71.5q0 -50 -31 -80t-77 -30h-55z" />
    <glyph glyph-name="onesuperior" unicode="&#xb9;" horiz-adv-x="360" 
d="M153 502v250h-74v74h39q24 0 32.5 10.5t8.5 39.5h89v-374h-95z" />
    <glyph glyph-name="ordmasculine" unicode="&#xba;" horiz-adv-x="397" 
d="M199 450q35 0 54 30t19 67q0 38 -19 68t-54 30t-54.5 -30t-19.5 -68q0 -37 19.5 -67t54.5 -30zM199 380q-76 0 -121.5 50t-45.5 117t45.5 117.5t121.5 50.5t121 -50.5t45 -117.5t-45 -117t-121 -50z" />
    <glyph glyph-name="guillemotright" unicode="&#xbb;" horiz-adv-x="462" 
d="M59 152v112l103 53l-103 53v112l174 -109v-112zM248 152v112l103 53l-103 53v112l174 -109v-112z" />
    <glyph glyph-name="onequarter" unicode="&#xbc;" horiz-adv-x="850" 
d="M120 332v250h-74v74h39q24 0 32.5 10.5t8.5 39.5h89v-374h-95zM92 0l504 706h103l-503 -706h-104zM480 85v67l151 222h107v-215h71v-74h-71v-85h-88v85h-170zM580 159h70v114z" />
    <glyph glyph-name="onehalf" unicode="&#xbd;" horiz-adv-x="850" 
d="M123 332v250h-74v74h39q24 0 32.5 10.5t8.5 39.5h89v-374h-95zM95 0l504 706h103l-503 -706h-104zM499 0v76q26 12 69.5 38.5t74.5 57.5q52 50 52 95q0 19 -12 31t-29 12q-26 0 -40 -17.5t-14 -61.5l-95 22q0 68 44.5 99t104.5 31q56 0 96 -32t40 -84q0 -32 -15 -62.5
t-27.5 -44.5t-38.5 -40q-7 -7 -35 -23.5t-44 -22.5h166v-74h-297z" />
    <glyph glyph-name="threequarters" unicode="&#xbe;" horiz-adv-x="850" 
d="M23 451l93 22q0 -34 14.5 -55.5t42.5 -21.5t41 14t13 34q0 51 -67 51h-40v65h37q29 0 45 12t16 29q0 18 -11.5 29.5t-32.5 11.5q-51 0 -53 -64l-94 21q2 47 41.5 81.5t105.5 34.5q59 0 99 -29.5t40 -86.5q0 -9 -4 -22t-20.5 -29t-42.5 -20q75 -12 75 -95q0 -44 -40.5 -77
t-107.5 -33q-59 0 -101.5 30t-48.5 98zM117 0l504 706h103l-503 -706h-104zM505 85v67l151 222h107v-215h71v-74h-71v-85h-88v85h-170zM605 159h70v114z" />
    <glyph glyph-name="questiondown" unicode="&#xbf;" horiz-adv-x="583" 
d="M222 390v118h159v-233q-32 5 -74 5q-124 0 -124 -86q0 -38 29.5 -62t74.5 -24q57 0 90 32.5t33 91.5l150 -36q-7 -84 -79 -148.5t-194 -64.5q-108 0 -181.5 55t-73.5 156q0 80 54 135t136 61zM223 548v158h158v-158h-158z" />
    <glyph glyph-name="Agrave" unicode="&#xc0;" horiz-adv-x="744" 
d="M-3 0l285 706h180l285 -706h-165l-71 190h-279l-70 -190h-165zM277 310h190l-95 255zM323 764l-108 185h133l82 -185h-107z" />
    <glyph glyph-name="Aacute" unicode="&#xc1;" horiz-adv-x="744" 
d="M-3 0l285 706h180l285 -706h-165l-71 190h-279l-70 -190h-165zM277 310h190l-95 255zM319 764l82 185h133l-108 -185h-107z" />
    <glyph glyph-name="Acircumflex" unicode="&#xc2;" horiz-adv-x="744" 
d="M-3 0l285 706h180l285 -706h-165l-71 190h-279l-70 -190h-165zM277 310h190l-95 255zM177 764l135 185h120l135 -185h-118l-77 113l-77 -113h-118z" />
    <glyph glyph-name="Atilde" unicode="&#xc3;" horiz-adv-x="744" 
d="M-3 0l285 706h180l285 -706h-165l-71 190h-279l-70 -190h-165zM277 310h190l-95 255zM202 800v107q16 16 46 27.5t54 11.5q28 0 74 -14q6 -2 20.5 -8t27 -9t26.5 -3q56 0 92 45v-107q-16 -16 -46 -27.5t-54 -11.5q-28 0 -74 14q-6 2 -20.5 8t-27 9t-26.5 3q-56 0 -92 -45
z" />
    <glyph glyph-name="Adieresis" unicode="&#xc4;" horiz-adv-x="744" 
d="M-3 0l285 706h180l285 -706h-165l-71 190h-279l-70 -190h-165zM277 310h190l-95 255zM205 787v145h145v-145h-145zM394 787v145h145v-145h-145z" />
    <glyph glyph-name="Aring" unicode="&#xc5;" horiz-adv-x="744" 
d="M-3 0l288 713q-17 26 -17 58q0 43 31 74.5t75 31.5t75 -31.5t31 -74.5q0 -31 -21 -61l288 -710h-165l-71 190h-279l-70 -190h-165zM277 310h190l-95 255zM374 722q20 0 34.5 14.5t14.5 34.5t-14.5 34.5t-34.5 14.5t-34.5 -14.5t-14.5 -34.5t14.5 -34.5t34.5 -14.5z" />
    <glyph glyph-name="AE" unicode="&#xc6;" horiz-adv-x="1017" 
d="M-18 0l462 706h521v-125h-304v-157h290v-125h-290v-174h311v-125h-471v205h-210l-126 -205h-183zM370 334h131v213z" />
    <glyph glyph-name="Ccedilla" unicode="&#xc7;" horiz-adv-x="764" 
d="M358 -247v64h46q19 0 31 13t12 33q0 15 -12.5 26.5t-30.5 11.5h-46v84q-137 15 -230 114t-93 254q0 163 104.5 266.5t262.5 103.5q246 0 337 -237l-155 -37q-57 149 -182 149q-89 0 -148 -69t-59 -176q0 -109 60 -177t142 -68q62 0 116 43t78 134l156 -32
q-35 -131 -124.5 -196.5t-199.5 -72.5v-19q43 -3 70.5 -30.5t27.5 -71.5q0 -50 -31 -80t-77 -30h-55z" />
    <glyph glyph-name="Egrave" unicode="&#xc8;" horiz-adv-x="646" 
d="M70 0v706h524v-125h-364v-157h350v-125h-350v-174h371v-125h-531zM283 764l-108 185h133l82 -185h-107z" />
    <glyph glyph-name="Eacute" unicode="&#xc9;" horiz-adv-x="646" 
d="M70 0v706h524v-125h-364v-157h350v-125h-350v-174h371v-125h-531zM279 764l82 185h133l-108 -185h-107z" />
    <glyph glyph-name="Ecircumflex" unicode="&#xca;" horiz-adv-x="646" 
d="M70 0v706h524v-125h-364v-157h350v-125h-350v-174h371v-125h-531zM137 764l135 185h120l135 -185h-118l-77 113l-77 -113h-118z" />
    <glyph glyph-name="Edieresis" unicode="&#xcb;" horiz-adv-x="646" 
d="M70 0v706h524v-125h-364v-157h350v-125h-350v-174h371v-125h-531zM165 787v145h145v-145h-145zM354 787v145h145v-145h-145z" />
    <glyph glyph-name="Igrave" unicode="&#xcc;" horiz-adv-x="300" 
d="M70 0v706h160v-706h-160zM101 764l-108 185h133l82 -185h-107z" />
    <glyph glyph-name="Iacute" unicode="&#xcd;" horiz-adv-x="300" 
d="M70 0v706h160v-706h-160zM97 764l82 185h133l-108 -185h-107z" />
    <glyph glyph-name="Icircumflex" unicode="&#xce;" horiz-adv-x="300" 
d="M-22 764l108 185h128l108 -185h-110l-62 113l-62 -113h-110zM70 0v706h160v-706h-160z" />
    <glyph glyph-name="Idieresis" unicode="&#xcf;" horiz-adv-x="300" 
d="M70 0v706h160v-706h-160zM-17 787v145h145v-145h-145zM172 787v145h145v-145h-145z" />
    <glyph glyph-name="Eth" unicode="&#xd0;" horiz-adv-x="777" 
d="M87 0v341h-67v79h67v286h284q163 0 266.5 -95.5t103.5 -257.5t-103.5 -257.5t-266.5 -95.5h-284zM247 125h104q108 0 169 61t61 167t-61 167t-169 61h-104v-161h192v-79h-192v-216z" />
    <glyph glyph-name="Ntilde" unicode="&#xd1;" horiz-adv-x="801" 
d="M70 0v706h211l310 -552v552h140v-706h-212l-309 549v-549h-140zM230 800v107q16 16 46 27.5t54 11.5q28 0 74 -14q6 -2 20.5 -8t27 -9t26.5 -3q56 0 92 45v-107q-16 -16 -46 -27.5t-54 -11.5q-28 0 -74 14q-6 2 -20.5 8t-27 9t-26.5 3q-56 0 -92 -45z" />
    <glyph glyph-name="Ograve" unicode="&#xd2;" horiz-adv-x="809" 
d="M406 108q101 0 154.5 71.5t53.5 171.5q0 64 -21.5 118.5t-70 91.5t-116.5 37q-103 0 -157 -73t-54 -174t54 -172t157 -71zM406 -17q-94 0 -167 31t-116.5 84t-65.5 117t-22 136q0 71 22 135.5t65.5 118.5t117 86t166.5 32q92 0 164.5 -32t116 -85.5t65.5 -118.5t22 -136
q0 -72 -22 -136t-65.5 -117t-116 -84t-164.5 -31zM357 764l-108 185h133l82 -185h-107z" />
    <glyph glyph-name="Oacute" unicode="&#xd3;" horiz-adv-x="809" 
d="M406 108q101 0 154.5 71.5t53.5 171.5q0 64 -21.5 118.5t-70 91.5t-116.5 37q-103 0 -157 -73t-54 -174t54 -172t157 -71zM406 -17q-94 0 -167 31t-116.5 84t-65.5 117t-22 136q0 71 22 135.5t65.5 118.5t117 86t166.5 32q92 0 164.5 -32t116 -85.5t65.5 -118.5t22 -136
q0 -72 -22 -136t-65.5 -117t-116 -84t-164.5 -31zM353 764l82 185h133l-108 -185h-107z" />
    <glyph glyph-name="Ocircumflex" unicode="&#xd4;" horiz-adv-x="809" 
d="M406 108q101 0 154.5 71.5t53.5 171.5q0 64 -21.5 118.5t-70 91.5t-116.5 37q-103 0 -157 -73t-54 -174t54 -172t157 -71zM406 -17q-94 0 -167 31t-116.5 84t-65.5 117t-22 136q0 71 22 135.5t65.5 118.5t117 86t166.5 32q92 0 164.5 -32t116 -85.5t65.5 -118.5t22 -136
q0 -72 -22 -136t-65.5 -117t-116 -84t-164.5 -31zM211 764l135 185h120l135 -185h-118l-77 113l-77 -113h-118z" />
    <glyph glyph-name="Otilde" unicode="&#xd5;" horiz-adv-x="809" 
d="M406 108q101 0 154.5 71.5t53.5 171.5q0 64 -21.5 118.5t-70 91.5t-116.5 37q-103 0 -157 -73t-54 -174t54 -172t157 -71zM406 -17q-94 0 -167 31t-116.5 84t-65.5 117t-22 136q0 71 22 135.5t65.5 118.5t117 86t166.5 32q92 0 164.5 -32t116 -85.5t65.5 -118.5t22 -136
q0 -72 -22 -136t-65.5 -117t-116 -84t-164.5 -31zM236 800v107q16 16 46 27.5t54 11.5q28 0 74 -14q6 -2 20.5 -8t27 -9t26.5 -3q56 0 92 45v-107q-16 -16 -46 -27.5t-54 -11.5q-28 0 -74 14q-6 2 -20.5 8t-27 9t-26.5 3q-56 0 -92 -45z" />
    <glyph glyph-name="Odieresis" unicode="&#xd6;" horiz-adv-x="809" 
d="M406 108q101 0 154.5 71.5t53.5 171.5q0 64 -21.5 118.5t-70 91.5t-116.5 37q-103 0 -157 -73t-54 -174t54 -172t157 -71zM406 -17q-94 0 -167 31t-116.5 84t-65.5 117t-22 136q0 71 22 135.5t65.5 118.5t117 86t166.5 32q92 0 164.5 -32t116 -85.5t65.5 -118.5t22 -136
q0 -72 -22 -136t-65.5 -117t-116 -84t-164.5 -31zM239 787v145h145v-145h-145zM428 787v145h145v-145h-145z" />
    <glyph glyph-name="multiply" unicode="&#xd7;" 
d="M28 93l218 218l-217 217l76 76l217 -217l218 218l75 -76l-218 -218l219 -218l-76 -76l-218 219l-218 -218z" />
    <glyph glyph-name="Oslash" unicode="&#xd8;" horiz-adv-x="811" 
d="M668 706h107l-89 -100q89 -105 89 -255q0 -72 -22 -136t-65.5 -117t-116 -84t-164.5 -31q-134 0 -223 62l-40 -45h-108l88 98q-88 101 -88 253q0 71 22 135.5t65.5 118.5t117 86t166.5 32q130 0 220 -63zM407 108q101 0 154.5 71.5t53.5 171.5q0 80 -32 140l-305 -341
q51 -42 129 -42zM196 351q0 -78 31 -137l305 341q-51 43 -125 43q-103 0 -157 -73t-54 -174z" />
    <glyph glyph-name="Ugrave" unicode="&#xd9;" horiz-adv-x="746" 
d="M63 261v445h160v-445q0 -77 41.5 -115t108.5 -38t108.5 38t41.5 115v445h160v-445q0 -137 -87 -207.5t-223 -70.5t-223 70.5t-87 207.5zM324 764l-108 185h133l82 -185h-107z" />
    <glyph glyph-name="Uacute" unicode="&#xda;" horiz-adv-x="746" 
d="M63 261v445h160v-445q0 -77 41.5 -115t108.5 -38t108.5 38t41.5 115v445h160v-445q0 -137 -87 -207.5t-223 -70.5t-223 70.5t-87 207.5zM320 764l82 185h133l-108 -185h-107z" />
    <glyph glyph-name="Ucircumflex" unicode="&#xdb;" horiz-adv-x="746" 
d="M63 261v445h160v-445q0 -77 41.5 -115t108.5 -38t108.5 38t41.5 115v445h160v-445q0 -137 -87 -207.5t-223 -70.5t-223 70.5t-87 207.5zM178 764l135 185h120l135 -185h-118l-77 113l-77 -113h-118z" />
    <glyph glyph-name="Udieresis" unicode="&#xdc;" horiz-adv-x="746" 
d="M63 261v445h160v-445q0 -77 41.5 -115t108.5 -38t108.5 38t41.5 115v445h160v-445q0 -137 -87 -207.5t-223 -70.5t-223 70.5t-87 207.5zM206 787v145h145v-145h-145zM395 787v145h145v-145h-145z" />
    <glyph glyph-name="Yacute" unicode="&#xdd;" horiz-adv-x="735" 
d="M291 0v320l-294 386h185l187 -270l186 270h181l-290 -386v-320h-155zM313 764l82 185h133l-108 -185h-107z" />
    <glyph glyph-name="Thorn" unicode="&#xde;" horiz-adv-x="682" 
d="M70 0v706h160v-103h203q36 0 71 -8.5t72.5 -29.5t60.5 -65t23 -106t-23 -106t-60.5 -65t-72.5 -29.5t-71 -8.5h-203v-185h-160zM230 310h176q46 0 71.5 18.5t25.5 65.5t-25.5 65.5t-71.5 18.5h-176v-168z" />
    <glyph glyph-name="germandbls" unicode="&#xdf;" horiz-adv-x="584" 
d="M55 0v482q0 241 226 241q118 0 175 -54.5t57 -122.5q0 -48 -19.5 -76t-58.5 -46q118 -49 118 -184q0 -110 -71 -179.5t-182 -69.5q-34 0 -68 9v125q22 -9 50 -9q58 0 91.5 38.5t33.5 88.5q0 47 -30.5 82.5t-84.5 35.5h-60v117h49q41 0 63.5 18t22.5 50q0 63 -86 63
q-40 0 -63 -25.5t-23 -75.5v-508h-140z" />
    <glyph glyph-name="agrave" unicode="&#xe0;" horiz-adv-x="539" 
d="M494 0h-139q0 4 -4 29l-4 25q-42 -66 -144 -66q-77 0 -125 44t-48 103q0 42 14.5 71.5t44 46.5t60.5 25.5t78 15.5q1 0 36 5t37 5q33 5 44 13.5t11 24.5q0 26 -22.5 39t-56.5 13q-94 0 -95 -85l-134 31q12 81 82 120q61 34 147 34q92 0 151.5 -43t59.5 -132v-181
q0 -28 0.5 -52t1.5 -39t2.5 -25t2 -15.5t0.5 -6.5zM170 146q0 -22 19.5 -40t46.5 -18q23 0 46 7t44 30.5t21 60.5v36l-7 -1q-4 0 -14 -1.5t-14 -2.5q-2 0 -8 -1t-16.5 -3t-22.5 -4q-22 -4 -35.5 -7.5t-29 -10t-23 -18t-7.5 -27.5zM225 540l-108 185h133l82 -185h-107z" />
    <glyph glyph-name="aacute" unicode="&#xe1;" horiz-adv-x="539" 
d="M494 0h-139q0 4 -4 29l-4 25q-42 -66 -144 -66q-77 0 -125 44t-48 103q0 42 14.5 71.5t44 46.5t60.5 25.5t78 15.5q1 0 36 5t37 5q33 5 44 13.5t11 24.5q0 26 -22.5 39t-56.5 13q-94 0 -95 -85l-134 31q12 81 82 120q61 34 147 34q92 0 151.5 -43t59.5 -132v-181
q0 -28 0.5 -52t1.5 -39t2.5 -25t2 -15.5t0.5 -6.5zM170 146q0 -22 19.5 -40t46.5 -18q23 0 46 7t44 30.5t21 60.5v36l-7 -1q-4 0 -14 -1.5t-14 -2.5q-2 0 -8 -1t-16.5 -3t-22.5 -4q-22 -4 -35.5 -7.5t-29 -10t-23 -18t-7.5 -27.5zM213 540l82 185h133l-108 -185h-107z" />
    <glyph glyph-name="acircumflex" unicode="&#xe2;" horiz-adv-x="539" 
d="M494 0h-139q0 4 -4 29l-4 25q-42 -66 -144 -66q-77 0 -125 44t-48 103q0 42 14.5 71.5t44 46.5t60.5 25.5t78 15.5q1 0 36 5t37 5q33 5 44 13.5t11 24.5q0 26 -22.5 39t-56.5 13q-94 0 -95 -85l-134 31q12 81 82 120q61 34 147 34q92 0 151.5 -43t59.5 -132v-181
q0 -28 0.5 -52t1.5 -39t2.5 -25t2 -15.5t0.5 -6.5zM170 146q0 -22 19.5 -40t46.5 -18q23 0 46 7t44 30.5t21 60.5v36l-7 -1q-4 0 -14 -1.5t-14 -2.5q-2 0 -8 -1t-16.5 -3t-22.5 -4q-22 -4 -35.5 -7.5t-29 -10t-23 -18t-7.5 -27.5zM76 540l135 185h120l135 -185h-118l-77 113
l-77 -113h-118z" />
    <glyph glyph-name="atilde" unicode="&#xe3;" horiz-adv-x="539" 
d="M494 0h-139q0 4 -4 29l-4 25q-42 -66 -144 -66q-77 0 -125 44t-48 103q0 42 14.5 71.5t44 46.5t60.5 25.5t78 15.5q1 0 36 5t37 5q33 5 44 13.5t11 24.5q0 26 -22.5 39t-56.5 13q-94 0 -95 -85l-134 31q12 81 82 120q61 34 147 34q92 0 151.5 -43t59.5 -132v-181
q0 -28 0.5 -52t1.5 -39t2.5 -25t2 -15.5t0.5 -6.5zM170 146q0 -22 19.5 -40t46.5 -18q23 0 46 7t44 30.5t21 60.5v36l-7 -1q-4 0 -14 -1.5t-14 -2.5q-2 0 -8 -1t-16.5 -3t-22.5 -4q-22 -4 -35.5 -7.5t-29 -10t-23 -18t-7.5 -27.5zM101 576v107q16 16 46 27.5t54 11.5
q28 0 74 -14q6 -2 20.5 -8t27 -9t26.5 -3q56 0 92 45v-107q-16 -16 -46 -27.5t-54 -11.5q-28 0 -74 14q-6 2 -20.5 8t-27 9t-26.5 3q-56 0 -92 -45z" />
    <glyph glyph-name="adieresis" unicode="&#xe4;" horiz-adv-x="539" 
d="M494 0h-139q0 4 -4 29l-4 25q-42 -66 -144 -66q-77 0 -125 44t-48 103q0 42 14.5 71.5t44 46.5t60.5 25.5t78 15.5q1 0 36 5t37 5q33 5 44 13.5t11 24.5q0 26 -22.5 39t-56.5 13q-94 0 -95 -85l-134 31q12 81 82 120q61 34 147 34q92 0 151.5 -43t59.5 -132v-181
q0 -28 0.5 -52t1.5 -39t2.5 -25t2 -15.5t0.5 -6.5zM170 146q0 -22 19.5 -40t46.5 -18q23 0 46 7t44 30.5t21 60.5v36l-7 -1q-4 0 -14 -1.5t-14 -2.5q-2 0 -8 -1t-16.5 -3t-22.5 -4q-22 -4 -35.5 -7.5t-29 -10t-23 -18t-7.5 -27.5zM104 563v145h145v-145h-145zM293 563v145
h145v-145h-145z" />
    <glyph glyph-name="aring" unicode="&#xe5;" horiz-adv-x="539" 
d="M494 0h-139q0 4 -4 29l-4 25q-42 -66 -144 -66q-77 0 -125 44t-48 103q0 42 14.5 71.5t44 46.5t60.5 25.5t78 15.5q1 0 36 5t37 5q33 5 44 13.5t11 24.5q0 26 -22.5 39t-56.5 13q-94 0 -95 -85l-134 31q12 81 82 120q61 34 147 34q92 0 151.5 -43t59.5 -132v-181
q0 -28 0.5 -52t1.5 -39t2.5 -25t2 -15.5t0.5 -6.5zM170 146q0 -22 19.5 -40t46.5 -18q23 0 46 7t44 30.5t21 60.5v36l-7 -1q-4 0 -14 -1.5t-14 -2.5q-2 0 -8 -1t-16.5 -3t-22.5 -4q-22 -4 -35.5 -7.5t-29 -10t-23 -18t-7.5 -27.5zM271 587q20 0 34.5 14.5t14.5 34.5
t-14.5 34.5t-34.5 14.5t-34.5 -14.5t-14.5 -34.5t14.5 -34.5t34.5 -14.5zM271 530q-43 0 -74.5 31t-31.5 75t31.5 75t74.5 31t74.5 -31t31.5 -75t-31.5 -75t-74.5 -31z" />
    <glyph glyph-name="ae" unicode="&#xe6;" horiz-adv-x="860" 
d="M181 309l-134 31q12 81 82 120q61 34 147 34q106 0 161 -51q62 51 152 51q101 0 170.5 -69.5t69.5 -177.5q0 -29 -2 -47h-340v-8q0 -43 23.5 -73.5t78.5 -30.5q81 0 102 83l125 -32q-13 -67 -78 -108.5t-145 -41.5q-124 0 -180 93q-29 -49 -76 -71.5t-134 -22.5
q-77 0 -125 44t-48 103q0 38 13 66.5t38 46t51.5 29t63.5 16.5t64.5 6.5t62.5 1.5h32v24q0 31 -23.5 50t-55.5 19q-94 0 -95 -85zM347 186v14h-46q-70 0 -100.5 -10t-30.5 -44q0 -28 19 -42.5t48 -14.5q44 0 77 26.5t33 70.5zM487 301h204q0 37 -27 65t-75 28
q-47 0 -74.5 -26.5t-27.5 -66.5z" />
    <glyph glyph-name="ccedilla" unicode="&#xe7;" horiz-adv-x="542" 
d="M247 -247v64h46q19 0 31 13t12 33q0 15 -12.5 26.5t-30.5 11.5h-46v89q-100 11 -158 84.5t-58 166.5q0 102 67.5 177.5t181.5 75.5q99 0 160.5 -55.5t76.5 -120.5l-140 -29q-20 100 -97 100q-55 0 -82 -44.5t-27 -103.5t27 -103.5t82 -44.5q27 0 46 10.5t29.5 30t15 34
t8.5 35.5l140 -27q-4 -27 -18.5 -55.5t-38.5 -57t-63.5 -48.5t-86.5 -25v-25q43 -3 70.5 -30.5t27.5 -71.5q0 -50 -31 -80t-77 -30h-55z" />
    <glyph glyph-name="egrave" unicode="&#xe8;" horiz-adv-x="544" 
d="M375 171l125 -32q-13 -57 -74 -104t-142 -47q-123 0 -188 74t-65 178q0 105 65 179.5t177 74.5q101 0 170.5 -69.5t69.5 -177.5q0 -29 -2 -47h-340q2 -53 30 -82.5t72 -29.5q81 0 102 83zM171 301h204q0 39 -26.5 66t-75.5 27q-47 0 -74.5 -25.5t-27.5 -67.5zM224 540
l-108 185h133l82 -185h-107z" />
    <glyph glyph-name="eacute" unicode="&#xe9;" horiz-adv-x="544" 
d="M375 171l125 -32q-13 -57 -74 -104t-142 -47q-123 0 -188 74t-65 178q0 105 65 179.5t177 74.5q101 0 170.5 -69.5t69.5 -177.5q0 -29 -2 -47h-340q2 -53 30 -82.5t72 -29.5q81 0 102 83zM171 301h204q0 39 -26.5 66t-75.5 27q-47 0 -74.5 -25.5t-27.5 -67.5zM212 540
l82 185h133l-108 -185h-107z" />
    <glyph glyph-name="ecircumflex" unicode="&#xea;" horiz-adv-x="544" 
d="M375 171l125 -32q-13 -57 -74 -104t-142 -47q-123 0 -188 74t-65 178q0 105 65 179.5t177 74.5q101 0 170.5 -69.5t69.5 -177.5q0 -29 -2 -47h-340q2 -53 30 -82.5t72 -29.5q81 0 102 83zM171 301h204q0 39 -26.5 66t-75.5 27q-47 0 -74.5 -25.5t-27.5 -67.5zM75 540
l135 185h120l135 -185h-118l-77 113l-77 -113h-118z" />
    <glyph glyph-name="edieresis" unicode="&#xeb;" horiz-adv-x="544" 
d="M375 171l125 -32q-13 -57 -74 -104t-142 -47q-123 0 -188 74t-65 178q0 105 65 179.5t177 74.5q101 0 170.5 -69.5t69.5 -177.5q0 -29 -2 -47h-340q2 -53 30 -82.5t72 -29.5q81 0 102 83zM171 301h204q0 39 -26.5 66t-75.5 27q-47 0 -74.5 -25.5t-27.5 -67.5zM103 563
v145h145v-145h-145zM292 563v145h145v-145h-145z" />
    <glyph glyph-name="igrave" unicode="&#xec;" horiz-adv-x="250" 
d="M55 0v482h140v-482h-140zM79 540l-108 185h133l82 -185h-107z" />
    <glyph glyph-name="iacute" unicode="&#xed;" horiz-adv-x="250" 
d="M55 0v482h140v-482h-140zM67 540l82 185h133l-108 -185h-107z" />
    <glyph glyph-name="icircumflex" unicode="&#xee;" horiz-adv-x="250" 
d="M-47 540l108 185h128l108 -185h-110l-62 113l-62 -113h-110zM55 0v482h140v-482h-140z" />
    <glyph glyph-name="idieresis" unicode="&#xef;" horiz-adv-x="250" 
d="M55 0v482h140v-482h-140zM-42 563v145h145v-145h-145zM147 563v145h145v-145h-145z" />
    <glyph glyph-name="eth" unicode="&#xf0;" horiz-adv-x="578" 
d="M168 523l-15 51l127 38q-16 19 -55 60l117 51q31 -31 62 -74l106 32l15 -51l-89 -27q106 -160 106 -336q0 -279 -256 -279q-65 0 -114.5 21t-75 50t-41.5 67t-20 64.5t-4 49.5q0 24 4.5 52.5t20 65.5t39.5 66t68.5 49.5t102.5 20.5q80 0 122 -56q-25 60 -73 129zM293 93
q39 0 74 35t35 112t-35 113t-74 36q-36 0 -62.5 -17.5t-38 -44t-16.5 -48t-5 -39.5q0 -17 5 -38.5t16.5 -47.5t38 -43.5t62.5 -17.5z" />
    <glyph glyph-name="ntilde" unicode="&#xf1;" horiz-adv-x="558" 
d="M55 0v482h136v-58q9 23 45.5 46.5t99.5 23.5q98 0 142 -72q30 -50 30 -114v-308h-140v307q0 27 -13 49q-21 33 -61 33q-35 0 -61 -21q-38 -28 -38 -99v-269h-140zM112 576v107q16 16 46 27.5t54 11.5q28 0 74 -14q6 -2 20.5 -8t27 -9t26.5 -3q56 0 92 45v-107
q-16 -16 -46 -27.5t-54 -11.5q-28 0 -74 14q-6 2 -20.5 8t-27 9t-26.5 3q-56 0 -92 -45z" />
    <glyph glyph-name="ograve" unicode="&#xf2;" horiz-adv-x="563" 
d="M282 93q53 0 82 45t29 102t-29 103t-82 46t-82.5 -46t-29.5 -103q0 -56 29.5 -101.5t82.5 -45.5zM282 -12q-116 0 -184 76t-68 176t68.5 177t183.5 77t183 -77t68 -177t-68 -176t-183 -76zM231 540l-108 185h133l82 -185h-107z" />
    <glyph glyph-name="oacute" unicode="&#xf3;" horiz-adv-x="563" 
d="M282 93q53 0 82 45t29 102t-29 103t-82 46t-82.5 -46t-29.5 -103q0 -56 29.5 -101.5t82.5 -45.5zM282 -12q-116 0 -184 76t-68 176t68.5 177t183.5 77t183 -77t68 -177t-68 -176t-183 -76zM219 540l82 185h133l-108 -185h-107z" />
    <glyph glyph-name="ocircumflex" unicode="&#xf4;" horiz-adv-x="563" 
d="M282 93q53 0 82 45t29 102t-29 103t-82 46t-82.5 -46t-29.5 -103q0 -56 29.5 -101.5t82.5 -45.5zM282 -12q-116 0 -184 76t-68 176t68.5 177t183.5 77t183 -77t68 -177t-68 -176t-183 -76zM82 540l135 185h120l135 -185h-118l-77 113l-77 -113h-118z" />
    <glyph glyph-name="otilde" unicode="&#xf5;" horiz-adv-x="563" 
d="M282 93q53 0 82 45t29 102t-29 103t-82 46t-82.5 -46t-29.5 -103q0 -56 29.5 -101.5t82.5 -45.5zM282 -12q-116 0 -184 76t-68 176t68.5 177t183.5 77t183 -77t68 -177t-68 -176t-183 -76zM107 576v107q16 16 46 27.5t54 11.5q28 0 74 -14q6 -2 20.5 -8t27 -9t26.5 -3
q56 0 92 45v-107q-16 -16 -46 -27.5t-54 -11.5q-28 0 -74 14q-6 2 -20.5 8t-27 9t-26.5 3q-56 0 -92 -45z" />
    <glyph glyph-name="odieresis" unicode="&#xf6;" horiz-adv-x="563" 
d="M282 93q53 0 82 45t29 102t-29 103t-82 46t-82.5 -46t-29.5 -103q0 -56 29.5 -101.5t82.5 -45.5zM282 -12q-116 0 -184 76t-68 176t68.5 177t183.5 77t183 -77t68 -177t-68 -176t-183 -76zM110 563v145h145v-145h-145zM299 563v145h145v-145h-145z" />
    <glyph glyph-name="divide" unicode="&#xf7;" 
d="M242 96q0 34 23 57.5t57 23.5t57.5 -23.5t23.5 -57.5t-23.5 -57t-57.5 -23t-57 23t-23 57zM21 256v107h602v-107h-602zM242 521q0 34 23 57.5t57 23.5t57.5 -23.5t23.5 -57.5t-23.5 -57t-57.5 -23t-57 23t-23 57z" />
    <glyph glyph-name="oslash" unicode="&#xf8;" horiz-adv-x="567" 
d="M17 0l71 78q-56 71 -56 162q0 100 68.5 177t183.5 77q81 0 142 -42l27 30h97l-71 -79q56 -71 56 -163q0 -100 -68 -176t-183 -76q-84 0 -143 41l-27 -29h-97zM181 181l166 184q-27 24 -63 24q-53 0 -82.5 -46t-29.5 -103q0 -30 9 -59zM386 300l-166 -183q27 -24 64 -24
q53 0 82 45t29 102q0 30 -9 60z" />
    <glyph glyph-name="ugrave" unicode="&#xf9;" horiz-adv-x="558" 
d="M50 174v308h140v-307q0 -27 13 -49q21 -33 61 -33q35 0 61 21q38 28 38 99v269h140v-482h-136v58q-9 -23 -45.5 -46.5t-99.5 -23.5q-98 0 -142 72q-30 50 -30 114zM232 540l-108 185h133l82 -185h-107z" />
    <glyph glyph-name="uacute" unicode="&#xfa;" horiz-adv-x="558" 
d="M50 174v308h140v-307q0 -27 13 -49q21 -33 61 -33q35 0 61 21q38 28 38 99v269h140v-482h-136v58q-9 -23 -45.5 -46.5t-99.5 -23.5q-98 0 -142 72q-30 50 -30 114zM220 540l82 185h133l-108 -185h-107z" />
    <glyph glyph-name="ucircumflex" unicode="&#xfb;" horiz-adv-x="558" 
d="M50 174v308h140v-307q0 -27 13 -49q21 -33 61 -33q35 0 61 21q38 28 38 99v269h140v-482h-136v58q-9 -23 -45.5 -46.5t-99.5 -23.5q-98 0 -142 72q-30 50 -30 114zM83 540l135 185h120l135 -185h-118l-77 113l-77 -113h-118z" />
    <glyph glyph-name="udieresis" unicode="&#xfc;" horiz-adv-x="558" 
d="M50 174v308h140v-307q0 -27 13 -49q21 -33 61 -33q35 0 61 21q38 28 38 99v269h140v-482h-136v58q-9 -23 -45.5 -46.5t-99.5 -23.5q-98 0 -142 72q-30 50 -30 114zM111 563v145h145v-145h-145zM300 563v145h145v-145h-145z" />
    <glyph glyph-name="yacute" unicode="&#xfd;" horiz-adv-x="518" 
d="M39 -224v112q34 -6 42 -6q67 0 80 37l34 88l-190 475h148l115 -321l107 321h141l-235 -617q-37 -96 -161 -96q-55 0 -81 7zM204 540l82 185h133l-108 -185h-107z" />
    <glyph glyph-name="thorn" unicode="&#xfe;" horiz-adv-x="597" 
d="M55 -223v929h132v-278q19 29 62 47.5t82 18.5q57 0 101.5 -20t69 -49t40 -66t20 -65t4.5 -52t-4.5 -52.5t-20 -65.5t-40 -66t-69 -49.5t-102.5 -20.5q-81 0 -135 56v-267h-140zM304 93q36 0 62.5 17.5t38 43.5t16.5 47.5t5 39.5t-5 39.5t-16.5 47.5t-37 43.5t-60.5 17.5
q-42 0 -77.5 -35t-35.5 -112q0 -78 35.5 -113.5t74.5 -35.5z" />
    <glyph glyph-name="ydieresis" unicode="&#xff;" horiz-adv-x="518" 
d="M39 -224v112q34 -6 42 -6q67 0 80 37l34 88l-190 475h148l115 -321l107 321h141l-235 -617q-37 -96 -161 -96q-55 0 -81 7zM95 563v145h145v-145h-145zM284 563v145h145v-145h-145z" />
    <glyph glyph-name="Amacron" unicode="&#x100;" horiz-adv-x="744" 
d="M-3 0l285 706h180l285 -706h-165l-71 190h-279l-70 -190h-165zM277 310h190l-95 255zM202 829v101h340v-101h-340z" />
    <glyph glyph-name="amacron" unicode="&#x101;" horiz-adv-x="539" 
d="M494 0h-139q0 4 -4 29l-4 25q-42 -66 -144 -66q-77 0 -125 44t-48 103q0 42 14.5 71.5t44 46.5t60.5 25.5t78 15.5q1 0 36 5t37 5q33 5 44 13.5t11 24.5q0 26 -22.5 39t-56.5 13q-94 0 -95 -85l-134 31q12 81 82 120q61 34 147 34q92 0 151.5 -43t59.5 -132v-181
q0 -28 0.5 -52t1.5 -39t2.5 -25t2 -15.5t0.5 -6.5zM170 146q0 -22 19.5 -40t46.5 -18q23 0 46 7t44 30.5t21 60.5v36l-7 -1q-4 0 -14 -1.5t-14 -2.5q-2 0 -8 -1t-16.5 -3t-22.5 -4q-22 -4 -35.5 -7.5t-29 -10t-23 -18t-7.5 -27.5zM101 605v101h340v-101h-340z" />
    <glyph glyph-name="Abreve" unicode="&#x102;" horiz-adv-x="744" 
d="M-3 0l285 706h180l285 -706h-165l-71 190h-279l-70 -190h-165zM277 310h190l-95 255zM206 930v19h100v-19q0 -39 16.5 -63.5t49.5 -24.5q34 0 50.5 24.5t16.5 63.5v19h100v-19q0 -80 -46.5 -128t-120.5 -48q-75 0 -120.5 48t-45.5 128z" />
    <glyph glyph-name="abreve" unicode="&#x103;" horiz-adv-x="539" 
d="M494 0h-139q0 4 -4 29l-4 25q-42 -66 -144 -66q-77 0 -125 44t-48 103q0 42 14.5 71.5t44 46.5t60.5 25.5t78 15.5q1 0 36 5t37 5q33 5 44 13.5t11 24.5q0 26 -22.5 39t-56.5 13q-94 0 -95 -85l-134 31q12 81 82 120q61 34 147 34q92 0 151.5 -43t59.5 -132v-181
q0 -28 0.5 -52t1.5 -39t2.5 -25t2 -15.5t0.5 -6.5zM170 146q0 -22 19.5 -40t46.5 -18q23 0 46 7t44 30.5t21 60.5v36l-7 -1q-4 0 -14 -1.5t-14 -2.5q-2 0 -8 -1t-16.5 -3t-22.5 -4q-22 -4 -35.5 -7.5t-29 -10t-23 -18t-7.5 -27.5zM105 706v19h100v-19q0 -39 16.5 -63.5
t49.5 -24.5q34 0 50.5 24.5t16.5 63.5v19h100v-19q0 -80 -46.5 -128t-120.5 -48q-75 0 -120.5 48t-45.5 128z" />
    <glyph glyph-name="Aogonek" unicode="&#x104;" horiz-adv-x="744" 
d="M616 -91q0 -39 24 -65.5t57 -26.5h46v-64h-46q-64 0 -109.5 46t-45.5 110q0 59 36 100l-67 181h-279l-70 -190h-165l285 706h180l285 -706h-51q-34 0 -57 -26.5t-23 -64.5zM277 310h190l-95 255z" />
    <glyph glyph-name="aogonek" unicode="&#x105;" horiz-adv-x="539" 
d="M383 -91q0 -39 24 -65.5t57 -26.5h46v-64h-46q-64 0 -109.5 46t-45.5 110q0 63 43 108q-5 25 -5 37q-42 -66 -144 -66q-77 0 -125 44t-48 103q0 42 14.5 71.5t44 46.5t60.5 25.5t78 15.5q1 0 36 5t37 5q33 5 44 13.5t11 24.5q0 26 -22.5 39t-56.5 13q-94 0 -95 -85
l-134 31q12 81 82 120q61 34 147 34q92 0 151.5 -43t59.5 -132v-181q0 -28 0.5 -52t1.5 -39t2.5 -25t2 -15.5t0.5 -6.5h-30q-33 0 -57 -26.5t-24 -64.5zM170 146q0 -22 19.5 -40t46.5 -18q23 0 46 7t44 30.5t21 60.5v36l-7 -1q-3 0 -13.5 -1.5t-15.5 -2.5l-6 -1l-40 -7
q-22 -4 -35.5 -7.5t-29 -10t-23 -18t-7.5 -27.5z" />
    <glyph glyph-name="Cacute" unicode="&#x106;" horiz-adv-x="764" 
d="M591 285l156 -32q-19 -72 -57.5 -126.5t-87.5 -84.5t-100 -44.5t-105 -14.5q-96 0 -177.5 44t-133 129.5t-51.5 196.5q0 163 104.5 266.5t262.5 103.5q246 0 337 -237l-155 -37q-57 149 -182 149q-89 0 -148 -69t-59 -176q0 -109 60 -177t142 -68q62 0 116 43t78 134z
M349 764l82 185h133l-108 -185h-107z" />
    <glyph glyph-name="cacute" unicode="&#x107;" horiz-adv-x="541" 
d="M378 203l140 -27q-4 -30 -20.5 -61t-44.5 -60.5t-73.5 -48t-100.5 -18.5q-114 0 -181.5 75.5t-67.5 177.5t67.5 177.5t181.5 75.5q99 0 160.5 -55.5t76.5 -120.5l-140 -29q-20 100 -97 100q-55 0 -82 -44.5t-27 -103.5t27 -103.5t82 -44.5q27 0 46 10.5t29.5 30t15 34
t8.5 35.5zM216 540l82 185h133l-108 -185h-107z" />
    <glyph glyph-name="Ccircumflex" unicode="&#x108;" horiz-adv-x="764" 
d="M591 285l156 -32q-19 -72 -57.5 -126.5t-87.5 -84.5t-100 -44.5t-105 -14.5q-96 0 -177.5 44t-133 129.5t-51.5 196.5q0 163 104.5 266.5t262.5 103.5q246 0 337 -237l-155 -37q-57 149 -182 149q-89 0 -148 -69t-59 -176q0 -109 60 -177t142 -68q62 0 116 43t78 134z
M207 764l135 185h120l135 -185h-118l-77 113l-77 -113h-118z" />
    <glyph glyph-name="ccircumflex" unicode="&#x109;" horiz-adv-x="541" 
d="M378 203l140 -27q-4 -30 -20.5 -61t-44.5 -60.5t-73.5 -48t-100.5 -18.5q-114 0 -181.5 75.5t-67.5 177.5t67.5 177.5t181.5 75.5q99 0 160.5 -55.5t76.5 -120.5l-140 -29q-20 100 -97 100q-55 0 -82 -44.5t-27 -103.5t27 -103.5t82 -44.5q27 0 46 10.5t29.5 30t15 34
t8.5 35.5zM79 540l135 185h120l135 -185h-118l-77 113l-77 -113h-118z" />
    <glyph glyph-name="Cdotaccent" unicode="&#x10a;" horiz-adv-x="764" 
d="M591 285l156 -32q-19 -72 -57.5 -126.5t-87.5 -84.5t-100 -44.5t-105 -14.5q-96 0 -177.5 44t-133 129.5t-51.5 196.5q0 163 104.5 266.5t262.5 103.5q246 0 337 -237l-155 -37q-57 149 -182 149q-89 0 -148 -69t-59 -176q0 -109 60 -177t142 -68q62 0 116 43t78 134z
M332 787v145h140v-145h-140z" />
    <glyph glyph-name="cdotaccent" unicode="&#x10b;" horiz-adv-x="541" 
d="M378 203l140 -27q-4 -30 -20.5 -61t-44.5 -60.5t-73.5 -48t-100.5 -18.5q-114 0 -181.5 75.5t-67.5 177.5t67.5 177.5t181.5 75.5q99 0 160.5 -55.5t76.5 -120.5l-140 -29q-20 100 -97 100q-55 0 -82 -44.5t-27 -103.5t27 -103.5t82 -44.5q27 0 46 10.5t29.5 30t15 34
t8.5 35.5zM204 563v145h140v-145h-140z" />
    <glyph glyph-name="Ccaron" unicode="&#x10c;" horiz-adv-x="764" 
d="M591 285l156 -32q-19 -72 -57.5 -126.5t-87.5 -84.5t-100 -44.5t-105 -14.5q-96 0 -177.5 44t-133 129.5t-51.5 196.5q0 163 104.5 266.5t262.5 103.5q246 0 337 -237l-155 -37q-57 149 -182 149q-89 0 -148 -69t-59 -176q0 -109 60 -177t142 -68q62 0 116 43t78 134z
M342 764l-135 185h118l77 -113l77 113h118l-135 -185h-120z" />
    <glyph glyph-name="ccaron" unicode="&#x10d;" horiz-adv-x="541" 
d="M378 203l140 -27q-4 -30 -20.5 -61t-44.5 -60.5t-73.5 -48t-100.5 -18.5q-114 0 -181.5 75.5t-67.5 177.5t67.5 177.5t181.5 75.5q99 0 160.5 -55.5t76.5 -120.5l-140 -29q-20 100 -97 100q-55 0 -82 -44.5t-27 -103.5t27 -103.5t82 -44.5q27 0 46 10.5t29.5 30t15 34
t8.5 35.5zM214 540l-135 185h118l77 -113l77 113h118l-135 -185h-120z" />
    <glyph glyph-name="Dcaron" unicode="&#x10e;" horiz-adv-x="759" 
d="M230 125h104q108 0 169 61t61 167t-61 167t-169 61h-104v-456zM70 0v706h284q163 0 266.5 -95.5t103.5 -257.5t-103.5 -257.5t-266.5 -95.5h-284zM292 764l-135 185h118l77 -113l77 113h118l-135 -185h-120z" />
    <glyph glyph-name="dcaron" unicode="&#x10f;" horiz-adv-x="617" 
d="M410 0v54q-19 -29 -62 -47.5t-82 -18.5q-57 0 -101.5 20t-69 49t-40 66t-20 65t-4.5 52t4.5 52.5t20 65.5t39.5 66t68.5 49.5t102.5 20.5q82 0 136 -56v268h140v-706h-132zM290 93q41 0 76.5 35t35.5 112t-35 113t-74 36q-36 0 -62.5 -17.5t-38 -43.5t-16.5 -47.5
t-5 -39.5q0 -14 2.5 -30t10.5 -38t20 -39t34.5 -29t51.5 -12zM587 522l34 185h125l-84 -185h-75z" />
    <glyph glyph-name="Dcroat" unicode="&#x110;" horiz-adv-x="777" 
d="M87 0v341h-67v79h67v286h284q163 0 266.5 -95.5t103.5 -257.5t-103.5 -257.5t-266.5 -95.5h-284zM247 125h104q108 0 169 61t61 167t-61 167t-169 61h-104v-161h192v-79h-192v-216z" />
    <glyph glyph-name="dslash" unicode="&#x111;" horiz-adv-x="597" 
d="M278 554v79h124v73h140v-73h72v-79h-72v-554h-132v54q-19 -29 -62 -47.5t-82 -18.5q-57 0 -101.5 20t-69 49t-40 66t-20 65t-4.5 52t4.5 52.5t20 65.5t39.5 66t68.5 49.5t102.5 20.5q82 0 136 -56v116h-124zM290 93q41 0 76.5 35t35.5 112t-35 113t-74 36
q-36 0 -62.5 -17.5t-38 -43.5t-16.5 -47.5t-5 -39.5q0 -14 2.5 -30t10.5 -38t20 -39t34.5 -29t51.5 -12z" />
    <glyph glyph-name="Emacron" unicode="&#x112;" horiz-adv-x="646" 
d="M70 0v706h524v-125h-364v-157h350v-125h-350v-174h371v-125h-531zM162 829v101h340v-101h-340z" />
    <glyph glyph-name="emacron" unicode="&#x113;" horiz-adv-x="544" 
d="M375 171l125 -32q-13 -57 -74 -104t-142 -47q-123 0 -188 74t-65 178q0 105 65 179.5t177 74.5q101 0 170.5 -69.5t69.5 -177.5q0 -29 -2 -47h-340q2 -53 30 -82.5t72 -29.5q81 0 102 83zM171 301h204q0 39 -26.5 66t-75.5 27q-47 0 -74.5 -25.5t-27.5 -67.5zM100 605
v101h340v-101h-340z" />
    <glyph glyph-name="Ebreve" unicode="&#x114;" horiz-adv-x="646" 
d="M70 0v706h524v-125h-364v-157h350v-125h-350v-174h371v-125h-531zM166 930v19h100v-19q0 -39 16.5 -63.5t49.5 -24.5q34 0 50.5 24.5t16.5 63.5v19h100v-19q0 -80 -46.5 -128t-120.5 -48q-75 0 -120.5 48t-45.5 128z" />
    <glyph glyph-name="ebreve" unicode="&#x115;" horiz-adv-x="544" 
d="M375 171l125 -32q-13 -57 -74 -104t-142 -47q-123 0 -188 74t-65 178q0 105 65 179.5t177 74.5q101 0 170.5 -69.5t69.5 -177.5q0 -29 -2 -47h-340q2 -53 30 -82.5t72 -29.5q81 0 102 83zM171 301h204q0 39 -26.5 66t-75.5 27q-47 0 -74.5 -25.5t-27.5 -67.5zM104 706v19
h100v-19q0 -39 16.5 -63.5t49.5 -24.5q34 0 50.5 24.5t16.5 63.5v19h100v-19q0 -80 -46.5 -128t-120.5 -48q-75 0 -120.5 48t-45.5 128z" />
    <glyph glyph-name="Edotaccent" unicode="&#x116;" horiz-adv-x="646" 
d="M70 0v706h524v-125h-364v-157h350v-125h-350v-174h371v-125h-531zM262 787v145h140v-145h-140z" />
    <glyph glyph-name="edotaccent" unicode="&#x117;" horiz-adv-x="544" 
d="M375 171l125 -32q-13 -57 -74 -104t-142 -47q-123 0 -188 74t-65 178q0 105 65 179.5t177 74.5q101 0 170.5 -69.5t69.5 -177.5q0 -29 -2 -47h-340q2 -53 30 -82.5t72 -29.5q81 0 102 83zM171 301h204q0 39 -26.5 66t-75.5 27q-47 0 -74.5 -25.5t-27.5 -67.5zM200 563
v145h140v-145h-140z" />
    <glyph glyph-name="Eogonek" unicode="&#x118;" horiz-adv-x="646" 
d="M70 0v706h524v-125h-364v-157h350v-125h-350v-174h371v-125h-54q-33 -2 -55 -27.5t-22 -63.5q0 -39 24 -65.5t57 -26.5h46v-64h-46q-64 0 -109.5 46t-45.5 110q0 53 29 91h-355z" />
    <glyph glyph-name="eogonek" unicode="&#x119;" horiz-adv-x="544" 
d="M371 -247h-46q-64 0 -109.5 46t-45.5 110q0 50 29 91q-82 23 -125 90t-43 150q0 105 65 179.5t177 74.5q101 0 170.5 -69.5t69.5 -177.5q0 -29 -2 -47h-340q2 -53 30 -82.5t72 -29.5q81 0 102 83l125 -32q-13 -57 -74 -104t-142 -47q-40 -25 -40 -79q0 -39 24 -65.5
t57 -26.5h46v-64zM171 301h204q0 39 -26.5 66t-75.5 27q-47 0 -74.5 -25.5t-27.5 -67.5z" />
    <glyph glyph-name="Ecaron" unicode="&#x11a;" horiz-adv-x="646" 
d="M70 0v706h524v-125h-364v-157h350v-125h-350v-174h371v-125h-531zM272 764l-135 185h118l77 -113l77 113h118l-135 -185h-120z" />
    <glyph glyph-name="ecaron" unicode="&#x11b;" horiz-adv-x="544" 
d="M375 171l125 -32q-13 -57 -74 -104t-142 -47q-123 0 -188 74t-65 178q0 105 65 179.5t177 74.5q101 0 170.5 -69.5t69.5 -177.5q0 -29 -2 -47h-340q2 -53 30 -82.5t72 -29.5q81 0 102 83zM171 301h204q0 39 -26.5 66t-75.5 27q-47 0 -74.5 -25.5t-27.5 -67.5zM210 540
l-135 185h118l77 -113l77 113h118l-135 -185h-120z" />
    <glyph glyph-name="Gcircumflex" unicode="&#x11c;" horiz-adv-x="781" 
d="M580 0v67q-67 -84 -197 -84q-87 0 -165 42.5t-130.5 129t-52.5 198.5q0 163 104.5 266.5t262.5 103.5q230 0 324 -205l-156 -38q-59 118 -168 118q-89 0 -148 -69t-59 -176q0 -109 60 -177t142 -68q65 0 119.5 41.5t63.5 137.5h-220v125h370v-412h-150zM207 764l135 185
h120l135 -185h-118l-77 113l-77 -113h-118z" />
    <glyph glyph-name="gcircumflex" unicode="&#x11d;" horiz-adv-x="597" 
d="M50 -68l140 29q5 -18 11 -32t18 -28.5t31.5 -22.5t46.5 -8q31 0 53.5 14t32.5 35t14.5 39.5t4.5 34.5v62q-24 -24 -62 -39.5t-74 -15.5q-58 0 -102.5 19t-68.5 46.5t-39.5 62.5t-20 62t-4.5 51t4.5 52t20 65.5t39.5 66t68.5 49t102.5 20.5q39 0 82 -18.5t62 -47.5v54h132
v-493q0 -97 -64.5 -160.5t-180.5 -63.5q-104 0 -167 51t-80 116zM290 105q41 0 76.5 35t35.5 107t-35.5 107t-76.5 35q-35 0 -60.5 -17.5t-37 -44t-16.5 -46.5t-5 -34q0 -20 4.5 -41.5t16 -45.5t37 -39.5t61.5 -15.5zM89 541l135 185h120l135 -185h-118l-77 113l-77 -113
h-118z" />
    <glyph glyph-name="Gbreve" unicode="&#x11e;" horiz-adv-x="781" 
d="M580 0v67q-67 -84 -197 -84q-87 0 -165 42.5t-130.5 129t-52.5 198.5q0 163 104.5 266.5t262.5 103.5q230 0 324 -205l-156 -38q-59 118 -168 118q-89 0 -148 -69t-59 -176q0 -109 60 -177t142 -68q65 0 119.5 41.5t63.5 137.5h-220v125h370v-412h-150zM236 930v19h100
v-19q0 -39 16.5 -63.5t49.5 -24.5q34 0 50.5 24.5t16.5 63.5v19h100v-19q0 -80 -46.5 -128t-120.5 -48q-75 0 -120.5 48t-45.5 128z" />
    <glyph glyph-name="gbreve" unicode="&#x11f;" horiz-adv-x="597" 
d="M50 -68l140 29q5 -18 11 -32t18 -28.5t31.5 -22.5t46.5 -8q31 0 53.5 14t32.5 35t14.5 39.5t4.5 34.5v62q-24 -24 -62 -39.5t-74 -15.5q-58 0 -102.5 19t-68.5 46.5t-39.5 62.5t-20 62t-4.5 51t4.5 52t20 65.5t39.5 66t68.5 49t102.5 20.5q39 0 82 -18.5t62 -47.5v54h132
v-493q0 -97 -64.5 -160.5t-180.5 -63.5q-104 0 -167 51t-80 116zM290 105q41 0 76.5 35t35.5 107t-35.5 107t-76.5 35q-35 0 -60.5 -17.5t-37 -44t-16.5 -46.5t-5 -34q0 -20 4.5 -41.5t16 -45.5t37 -39.5t61.5 -15.5zM118 707v19h100v-19q0 -39 16.5 -63.5t49.5 -24.5
q34 0 50.5 24.5t16.5 63.5v19h100v-19q0 -80 -46.5 -128t-120.5 -48q-75 0 -120.5 48t-45.5 128z" />
    <glyph glyph-name="Gdotaccent" unicode="&#x120;" horiz-adv-x="781" 
d="M580 0v67q-67 -84 -197 -84q-87 0 -165 42.5t-130.5 129t-52.5 198.5q0 163 104.5 266.5t262.5 103.5q230 0 324 -205l-156 -38q-59 118 -168 118q-89 0 -148 -69t-59 -176q0 -109 60 -177t142 -68q65 0 119.5 41.5t63.5 137.5h-220v125h370v-412h-150zM332 787v145h140
v-145h-140z" />
    <glyph glyph-name="gdotaccent" unicode="&#x121;" horiz-adv-x="597" 
d="M50 -68l140 29q5 -18 11 -32t18 -28.5t31.5 -22.5t46.5 -8q31 0 53.5 14t32.5 35t14.5 39.5t4.5 34.5v62q-24 -24 -62 -39.5t-74 -15.5q-58 0 -102.5 19t-68.5 46.5t-39.5 62.5t-20 62t-4.5 51t4.5 52t20 65.5t39.5 66t68.5 49t102.5 20.5q39 0 82 -18.5t62 -47.5v54h132
v-493q0 -97 -64.5 -160.5t-180.5 -63.5q-104 0 -167 51t-80 116zM290 105q41 0 76.5 35t35.5 107t-35.5 107t-76.5 35q-35 0 -60.5 -17.5t-37 -44t-16.5 -46.5t-5 -34q0 -20 4.5 -41.5t16 -45.5t37 -39.5t61.5 -15.5zM214 564v145h140v-145h-140z" />
    <glyph glyph-name="uni0122" unicode="&#x122;" horiz-adv-x="781" 
d="M580 0v67q-67 -84 -197 -84q-87 0 -165 42.5t-130.5 129t-52.5 198.5q0 163 104.5 266.5t262.5 103.5q230 0 324 -205l-156 -38q-59 118 -168 118q-89 0 -148 -69t-59 -176q0 -109 60 -177t142 -68q65 0 119.5 41.5t63.5 137.5h-220v125h370v-412h-150zM294 -235l34 185
h125l-84 -185h-75z" />
    <glyph glyph-name="uni0123" unicode="&#x123;" horiz-adv-x="597" 
d="M50 -68l140 29q5 -18 11 -32t18 -28.5t31.5 -22.5t46.5 -8q31 0 53.5 14t32.5 35t14.5 39.5t4.5 34.5v62q-24 -24 -62 -39.5t-74 -15.5q-58 0 -102.5 19t-68.5 46.5t-39.5 62.5t-20 62t-4.5 51t4.5 52t20 65.5t39.5 66t68.5 49t102.5 20.5q39 0 82 -18.5t62 -47.5v54h132
v-493q0 -97 -64.5 -160.5t-180.5 -63.5q-104 0 -167 51t-80 116zM290 105q41 0 76.5 35t35.5 107t-35.5 107t-76.5 35q-35 0 -60.5 -17.5t-37 -44t-16.5 -46.5t-5 -34q0 -20 4.5 -41.5t16 -45.5t37 -39.5t61.5 -15.5zM240 538l84 185h75l-34 -185h-125z" />
    <glyph glyph-name="Hcircumflex" unicode="&#x124;" horiz-adv-x="767" 
d="M70 0v706h160v-282h307v282h160v-706h-160v299h-307v-299h-160zM188 764l135 185h120l135 -185h-118l-77 113l-77 -113h-118z" />
    <glyph glyph-name="hcircumflex" unicode="&#x125;" horiz-adv-x="562" 
d="M55 0v706h136v-282q9 23 46.5 46.5t101.5 23.5q99 0 143 -72q30 -48 30 -114v-308h-140v307q0 27 -13 49q-21 33 -63 33q-36 0 -62 -21q-40 -30 -40 -99v-269h-139zM-71 764l135 185h120l135 -185h-118l-77 113l-77 -113h-118z" />
    <glyph glyph-name="Hbar" unicode="&#x126;" horiz-adv-x="795" 
d="M16 519v79h68v108h160v-108h307v108h160v-108h68v-79h-68v-519h-160v299h-307v-299h-160v519h-68zM244 424h307v95h-307v-95z" />
    <glyph glyph-name="hbar" unicode="&#x127;" horiz-adv-x="562" 
d="M-2 554v79h57v73h136v-73h123v-79h-123v-130q9 23 46.5 46.5t101.5 23.5q99 0 143 -72q30 -48 30 -114v-308h-140v307q0 27 -13 49q-21 33 -63 33q-36 0 -62 -21q-40 -30 -40 -99v-269h-139v554h-57z" />
    <glyph glyph-name="Itilde" unicode="&#x128;" horiz-adv-x="300" 
d="M70 0v706h160v-706h-160zM-20 800v107q16 16 46 27.5t54 11.5q28 0 74 -14q6 -2 20.5 -8t27 -9t26.5 -3q56 0 92 45v-107q-16 -16 -46 -27.5t-54 -11.5q-28 0 -74 14q-6 2 -20.5 8t-27 9t-26.5 3q-56 0 -92 -45z" />
    <glyph glyph-name="itilde" unicode="&#x129;" horiz-adv-x="250" 
d="M55 0v482h140v-482h-140zM-45 576v107q16 16 46 27.5t54 11.5q28 0 74 -14q6 -2 20.5 -8t27 -9t26.5 -3q56 0 92 45v-107q-16 -16 -46 -27.5t-54 -11.5q-28 0 -74 14q-6 2 -20.5 8t-27 9t-26.5 3q-56 0 -92 -45z" />
    <glyph glyph-name="Imacron" unicode="&#x12a;" horiz-adv-x="300" 
d="M70 0v706h160v-706h-160zM-20 829v101h340v-101h-340z" />
    <glyph glyph-name="imacron" unicode="&#x12b;" horiz-adv-x="250" 
d="M55 0v482h140v-482h-140zM-45 605v101h340v-101h-340z" />
    <glyph glyph-name="Ibreve" unicode="&#x12c;" horiz-adv-x="300" 
d="M70 0v706h160v-706h-160zM-16 930v19h100v-19q0 -39 16.5 -63.5t49.5 -24.5q34 0 50.5 24.5t16.5 63.5v19h100v-19q0 -80 -46.5 -128t-120.5 -48q-75 0 -120.5 48t-45.5 128z" />
    <glyph glyph-name="ibreve" unicode="&#x12d;" horiz-adv-x="250" 
d="M55 0v482h140v-482h-140zM-41 706v19h100v-19q0 -39 16.5 -63.5t49.5 -24.5q34 0 50.5 24.5t16.5 63.5v19h100v-19q0 -80 -46.5 -128t-120.5 -48q-75 0 -120.5 48t-45.5 128z" />
    <glyph glyph-name="Iogonek" unicode="&#x12e;" horiz-adv-x="300" 
d="M70 0v706h160v-706h-4q-33 -2 -55 -27.5t-22 -63.5q0 -39 24 -65.5t57 -26.5h46v-64h-46q-64 0 -109.5 46t-45.5 110q0 53 29 91h-34z" />
    <glyph glyph-name="iogonek" unicode="&#x12f;" horiz-adv-x="250" 
d="M55 0v482h140v-482h-4q-33 -2 -55 -27.5t-22 -63.5q0 -39 24 -65.5t57 -26.5h46v-64h-46q-64 0 -109.5 46t-45.5 110q0 53 29 91h-14zM55 562v144h140v-144h-140z" />
    <glyph glyph-name="Idot" unicode="&#x130;" horiz-adv-x="300" 
d="M70 0v706h160v-706h-160zM80 787v145h140v-145h-140z" />
    <glyph glyph-name="dotlessi" unicode="&#x131;" horiz-adv-x="250" 
d="M55 0v482h140v-482h-140z" />
    <glyph glyph-name="IJ" unicode="&#x132;" horiz-adv-x="910" 
d="M70 0v706h160v-706h-160zM310 234l156 33q0 -85 32 -122t82 -37q49 0 77 25.5t28 75.5v497h160v-497q0 -109 -71 -167.5t-192 -58.5q-117 0 -194.5 63.5t-77.5 187.5z" />
    <glyph glyph-name="ij" unicode="&#x133;" horiz-adv-x="506" 
d="M55 0v482h140v-482h-140zM55 562v144h140v-144h-140zM200 -226v112q17 -4 37 -4q45 0 59.5 14.5t14.5 40.5v545h140v-566q0 -73 -35 -110t-130 -37q-48 0 -86 5zM311 562v144h140v-144h-140z" />
    <glyph glyph-name="Jcircumflex" unicode="&#x134;" horiz-adv-x="611" 
d="M11 234l156 33q0 -85 32 -122t82 -37q49 0 77 25.5t28 75.5v497h160v-497q0 -109 -71 -167.5t-192 -58.5q-117 0 -194.5 63.5t-77.5 187.5zM271 764l135 185h120l135 -185h-118l-77 113l-77 -113h-118z" />
    <glyph glyph-name="jcircumflex" unicode="&#x135;" horiz-adv-x="254" 
d="M-46 540l108 185h128l108 -185h-110l-62 113l-62 -113h-110zM-52 -226v112q17 -4 37 -4q45 0 59.5 14.5t14.5 40.5v545h140v-566q0 -73 -35 -110t-130 -37q-48 0 -86 5z" />
    <glyph glyph-name="uni0136" unicode="&#x136;" horiz-adv-x="721" 
d="M70 0v706h160v-283l282 283h195l-339 -330l382 -376h-205l-315 318v-318h-160zM281 -235l34 185h125l-84 -185h-75z" />
    <glyph glyph-name="uni0137" unicode="&#x137;" horiz-adv-x="562" 
d="M55 0v706h140v-399l180 175h178l-243 -216l275 -266h-179l-211 203v-203h-140zM182 -235l34 185h125l-84 -185h-75z" />
    <glyph glyph-name="kgreenlandic" unicode="&#x138;" horiz-adv-x="561" 
d="M55 0v482h140v-183l180 183h178l-243 -224l275 -258h-179l-211 195v-195h-140z" />
    <glyph glyph-name="Lacute" unicode="&#x139;" horiz-adv-x="593" 
d="M70 0v706h160v-581h351v-125h-511zM97 764l82 185h133l-108 -185h-107z" />
    <glyph glyph-name="lacute" unicode="&#x13a;" horiz-adv-x="250" 
d="M55 0v706h140v-706h-140zM67 764l82 185h133l-108 -185h-107z" />
    <glyph glyph-name="uni013B" unicode="&#x13b;" horiz-adv-x="593" 
d="M70 0v706h160v-581h351v-125h-511zM236 -235l34 185h125l-84 -185h-75z" />
    <glyph glyph-name="uni013C" unicode="&#x13c;" horiz-adv-x="250" 
d="M55 0v706h140v-706h-140zM38 -235l34 185h125l-84 -185h-75z" />
    <glyph glyph-name="Lcaron" unicode="&#x13d;" horiz-adv-x="593" 
d="M70 0v706h160v-581h351v-125h-511zM275 522l34 185h125l-84 -185h-75z" />
    <glyph glyph-name="lcaron" unicode="&#x13e;" horiz-adv-x="270" 
d="M55 0v706h140v-706h-140zM240 522l34 185h125l-84 -185h-75z" />
    <glyph glyph-name="Ldot" unicode="&#x13f;" horiz-adv-x="593" 
d="M70 0v706h160v-581h351v-125h-511zM324 282v145h140v-145h-140z" />
    <glyph glyph-name="ldot" unicode="&#x140;" horiz-adv-x="397" 
d="M55 0v706h140v-706h-140zM255 282v145h140v-145h-140z" />
    <glyph glyph-name="Lslash" unicode="&#x141;" horiz-adv-x="546" 
d="M87 0v218l-68 -47v85l68 47v403h160v-292l191 133v-85l-191 -133v-204h276v-125h-436z" />
    <glyph glyph-name="lslash" unicode="&#x142;" horiz-adv-x="330" 
d="M95 0v269l-68 -49v79l68 49v358h140v-256l69 50v-79l-69 -50v-371h-140z" />
    <glyph glyph-name="Nacute" unicode="&#x143;" horiz-adv-x="801" 
d="M70 0v706h211l310 -552v552h140v-706h-212l-309 549v-549h-140zM347 764l82 185h133l-108 -185h-107z" />
    <glyph glyph-name="nacute" unicode="&#x144;" horiz-adv-x="558" 
d="M55 0v482h136v-58q9 23 45.5 46.5t99.5 23.5q98 0 142 -72q30 -50 30 -114v-308h-140v307q0 27 -13 49q-21 33 -61 33q-35 0 -61 -21q-38 -28 -38 -99v-269h-140zM224 540l82 185h133l-108 -185h-107z" />
    <glyph glyph-name="uni0145" unicode="&#x145;" horiz-adv-x="801" 
d="M70 0v706h211l310 -552v552h140v-706h-212l-309 549v-549h-140zM311 -235l34 185h125l-84 -185h-75z" />
    <glyph glyph-name="uni0146" unicode="&#x146;" horiz-adv-x="558" 
d="M55 0v482h136v-58q9 23 45.5 46.5t99.5 23.5q98 0 142 -72q30 -50 30 -114v-308h-140v307q0 27 -13 49q-21 33 -61 33q-35 0 -61 -21q-38 -28 -38 -99v-269h-140zM194 -235l34 185h125l-84 -185h-75z" />
    <glyph glyph-name="Ncaron" unicode="&#x147;" horiz-adv-x="801" 
d="M70 0v706h211l310 -552v552h140v-706h-212l-309 549v-549h-140zM340 764l-135 185h118l77 -113l77 113h118l-135 -185h-120z" />
    <glyph glyph-name="ncaron" unicode="&#x148;" horiz-adv-x="558" 
d="M55 0v482h136v-58q9 23 45.5 46.5t99.5 23.5q98 0 142 -72q30 -50 30 -114v-308h-140v307q0 27 -13 49q-21 33 -61 33q-35 0 -61 -21q-38 -28 -38 -99v-269h-140zM222 540l-135 185h118l77 -113l77 113h118l-135 -185h-120z" />
    <glyph glyph-name="napostrophe" unicode="&#x149;" horiz-adv-x="558" 
d="M55 0v482h136v-58q9 23 45.5 46.5t99.5 23.5q98 0 142 -72q30 -50 30 -114v-308h-140v307q0 27 -13 49q-21 33 -61 33q-35 0 -61 -21q-38 -28 -38 -99v-269h-140zM45 522l34 185h125l-84 -185h-75z" />
    <glyph glyph-name="Eng" unicode="&#x14a;" horiz-adv-x="801" 
d="M480 -226v112q17 -4 37 -4q45 0 59.5 14.5t14.5 40.5v63h-72l-309 549v-549h-140v706h211l310 -552v552h140v-790q0 -73 -35 -110t-130 -37q-48 0 -86 5z" />
    <glyph glyph-name="eng" unicode="&#x14b;" horiz-adv-x="558" 
d="M257 -226v112q17 -4 37 -4q45 0 59.5 14.5t14.5 40.5v370q0 27 -13 49q-21 33 -61 33q-35 0 -61 -21q-38 -28 -38 -99v-269h-140v482h136v-58q9 23 45.5 46.5t99.5 23.5q98 0 142 -72q30 -50 30 -114v-392q0 -73 -35 -110t-130 -37q-48 0 -86 5z" />
    <glyph glyph-name="Omacron" unicode="&#x14c;" horiz-adv-x="809" 
d="M406 108q101 0 154.5 71.5t53.5 171.5q0 64 -21.5 118.5t-70 91.5t-116.5 37q-103 0 -157 -73t-54 -174t54 -172t157 -71zM406 -17q-94 0 -167 31t-116.5 84t-65.5 117t-22 136q0 71 22 135.5t65.5 118.5t117 86t166.5 32q92 0 164.5 -32t116 -85.5t65.5 -118.5t22 -136
q0 -72 -22 -136t-65.5 -117t-116 -84t-164.5 -31zM236 829v101h340v-101h-340z" />
    <glyph glyph-name="omacron" unicode="&#x14d;" horiz-adv-x="563" 
d="M282 93q53 0 82 45t29 102t-29 103t-82 46t-82.5 -46t-29.5 -103q0 -56 29.5 -101.5t82.5 -45.5zM282 -12q-116 0 -184 76t-68 176t68.5 177t183.5 77t183 -77t68 -177t-68 -176t-183 -76zM107 605v101h340v-101h-340z" />
    <glyph glyph-name="Obreve" unicode="&#x14e;" horiz-adv-x="809" 
d="M406 108q101 0 154.5 71.5t53.5 171.5q0 64 -21.5 118.5t-70 91.5t-116.5 37q-103 0 -157 -73t-54 -174t54 -172t157 -71zM406 -17q-94 0 -167 31t-116.5 84t-65.5 117t-22 136q0 71 22 135.5t65.5 118.5t117 86t166.5 32q92 0 164.5 -32t116 -85.5t65.5 -118.5t22 -136
q0 -72 -22 -136t-65.5 -117t-116 -84t-164.5 -31zM240 930v19h100v-19q0 -39 16.5 -63.5t49.5 -24.5q34 0 50.5 24.5t16.5 63.5v19h100v-19q0 -80 -46.5 -128t-120.5 -48q-75 0 -120.5 48t-45.5 128z" />
    <glyph glyph-name="obreve" unicode="&#x14f;" horiz-adv-x="563" 
d="M282 93q53 0 82 45t29 102t-29 103t-82 46t-82.5 -46t-29.5 -103q0 -56 29.5 -101.5t82.5 -45.5zM282 -12q-116 0 -184 76t-68 176t68.5 177t183.5 77t183 -77t68 -177t-68 -176t-183 -76zM111 706v19h100v-19q0 -39 16.5 -63.5t49.5 -24.5q34 0 50.5 24.5t16.5 63.5v19
h100v-19q0 -80 -46.5 -128t-120.5 -48q-75 0 -120.5 48t-45.5 128z" />
    <glyph glyph-name="Ohungarumlaut" unicode="&#x150;" horiz-adv-x="809" 
d="M406 108q101 0 154.5 71.5t53.5 171.5q0 64 -21.5 118.5t-70 91.5t-116.5 37q-103 0 -157 -73t-54 -174t54 -172t157 -71zM406 -17q-94 0 -167 31t-116.5 84t-65.5 117t-22 136q0 71 22 135.5t65.5 118.5t117 86t166.5 32q92 0 164.5 -32t116 -85.5t65.5 -118.5t22 -136
q0 -72 -22 -136t-65.5 -117t-116 -84t-164.5 -31zM276 764l82 185h133l-108 -185h-107zM430 764l82 185h133l-108 -185h-107z" />
    <glyph glyph-name="ohungarumlaut" unicode="&#x151;" horiz-adv-x="563" 
d="M282 93q53 0 82 45t29 102t-29 103t-82 46t-82.5 -46t-29.5 -103q0 -56 29.5 -101.5t82.5 -45.5zM282 -12q-116 0 -184 76t-68 176t68.5 177t183.5 77t183 -77t68 -177t-68 -176t-183 -76zM135 540l82 185h133l-108 -185h-107zM289 540l82 185h133l-108 -185h-107z" />
    <glyph glyph-name="OE" unicode="&#x152;" horiz-adv-x="1007" 
d="M651 125h311v-125h-527q-191 0 -296 102t-105 249q0 70 25.5 133t74 113t126.5 79.5t175 29.5h520v-125h-304v-157h290v-125h-290v-174zM435 125h56v456h-56q-113 0 -177 -66.5t-64 -163.5t64 -161.5t177 -64.5z" />
    <glyph glyph-name="oe" unicode="&#x153;" horiz-adv-x="907" 
d="M738 171l125 -32q-9 -51 -72 -101t-144 -50q-119 0 -186 72q-70 -72 -179 -72q-116 0 -184 76t-68 176t68.5 177t183.5 77q106 0 179 -73q68 73 175 73q101 0 170.5 -69.5t69.5 -177.5q0 -29 -2 -47h-340q0 -112 102 -112q81 0 102 83zM282 93q53 0 82 45t29 102t-29 103
t-82 46t-82.5 -46t-29.5 -103q0 -56 29.5 -101.5t82.5 -45.5zM534 301h204q0 37 -27 65t-75 28q-47 0 -74.5 -26.5t-27.5 -66.5z" />
    <glyph glyph-name="Racute" unicode="&#x154;" horiz-adv-x="712" 
d="M70 0v706h337q101 0 171 -47.5t70 -137.5q0 -77 -35.5 -117t-74.5 -48q54 -15 82 -45.5t28 -89.5v-110q0 -69 41 -111h-170q-27 29 -27 92v98q0 44 -19.5 70t-58.5 26h-189v-286h-155zM225 411h167q101 0 101 90q0 80 -100 80h-168v-170zM279 764l82 185h133l-108 -185
h-107z" />
    <glyph glyph-name="racute" unicode="&#x155;" horiz-adv-x="367" 
d="M55 0v482h136v-59q40 71 130 71q23 0 34 -1v-123q-7 2 -40 2q-68 0 -99 -44q-21 -28 -21 -77v-251h-140zM133 540l82 185h133l-108 -185h-107z" />
    <glyph glyph-name="uni0156" unicode="&#x156;" horiz-adv-x="712" 
d="M70 0v706h337q101 0 171 -47.5t70 -137.5q0 -77 -35.5 -117t-74.5 -48q54 -15 82 -45.5t28 -89.5v-110q0 -69 41 -111h-170q-27 29 -27 92v98q0 44 -19.5 70t-58.5 26h-189v-286h-155zM225 411h167q101 0 101 90q0 80 -100 80h-168v-170zM263 -235l34 185h125l-84 -185
h-75z" />
    <glyph glyph-name="uni0157" unicode="&#x157;" horiz-adv-x="367" 
d="M55 0v482h136v-59q40 71 130 71q23 0 34 -1v-123q-7 2 -40 2q-68 0 -99 -44q-21 -28 -21 -77v-251h-140zM38 -235l34 185h125l-84 -185h-75z" />
    <glyph glyph-name="Rcaron" unicode="&#x158;" horiz-adv-x="712" 
d="M70 0v706h337q101 0 171 -47.5t70 -137.5q0 -77 -35.5 -117t-74.5 -48q54 -15 82 -45.5t28 -89.5v-110q0 -69 41 -111h-170q-27 29 -27 92v98q0 44 -19.5 70t-58.5 26h-189v-286h-155zM225 411h167q101 0 101 90q0 80 -100 80h-168v-170zM272 764l-135 185h118l77 -113
l77 113h118l-135 -185h-120z" />
    <glyph glyph-name="rcaron" unicode="&#x159;" horiz-adv-x="367" 
d="M55 0v482h136v-59q40 71 130 71q23 0 34 -1v-123q-7 2 -40 2q-68 0 -99 -44q-21 -28 -21 -77v-251h-140zM131 540l-135 185h118l77 -113l77 113h118l-135 -185h-120z" />
    <glyph glyph-name="Sacute" unicode="&#x15a;" horiz-adv-x="684" 
d="M23 223l159 35q0 -74 44.5 -112t121.5 -38q63 0 103 28.5t40 65.5q0 36 -25 53.5t-79 30.5l-111 23q-33 7 -48.5 11t-44.5 13t-44 17.5t-35.5 24.5t-30.5 34.5t-17.5 45.5t-7.5 60q0 96 86 152t205 56q75 0 131 -18.5t88.5 -51t50 -67t25.5 -75.5l-153 -34q-8 59 -45 90
t-97 31t-97 -21t-37 -62q0 -18 8 -31t23.5 -21t27 -11.5t30.5 -7.5l140 -30q31 -7 51.5 -12.5t55.5 -21.5t56.5 -35t38.5 -52.5t17 -75.5q0 -101 -82.5 -167.5t-227.5 -66.5q-264 0 -320 240zM286 764l82 185h133l-108 -185h-107z" />
    <glyph glyph-name="sacute" unicode="&#x15b;" horiz-adv-x="512" 
d="M25 146l134 30q9 -45 30.5 -66.5t62.5 -21.5q39 0 64 14t25 40q0 25 -17.5 34.5t-68.5 18.5l-26 4q-92 14 -141 47t-49 105q0 21 11.5 43.5t35 46t69.5 38.5t107 15q70 0 127.5 -37.5t76.5 -104.5l-121 -31q-12 40 -31 56.5t-60 16.5q-35 0 -58 -10.5t-23 -31.5
q0 -7 2 -13t7 -11t9.5 -8.5t12.5 -6t13.5 -4.5t15 -4t14.5 -2.5t14.5 -2t12.5 -1.5l26 -4q28 -5 49.5 -10t48 -16t43.5 -25.5t29 -37.5t12 -53q0 -79 -64 -122t-166 -43q-88 0 -149.5 42.5t-77.5 115.5zM195 540l82 185h133l-108 -185h-107z" />
    <glyph glyph-name="Scircumflex" unicode="&#x15c;" horiz-adv-x="684" 
d="M23 223l159 35q0 -74 44.5 -112t121.5 -38q63 0 103 28.5t40 65.5q0 36 -25 53.5t-79 30.5l-111 23q-33 7 -48.5 11t-44.5 13t-44 17.5t-35.5 24.5t-30.5 34.5t-17.5 45.5t-7.5 60q0 96 86 152t205 56q75 0 131 -18.5t88.5 -51t50 -67t25.5 -75.5l-153 -34q-8 59 -45 90
t-97 31t-97 -21t-37 -62q0 -18 8 -31t23.5 -21t27 -11.5t30.5 -7.5l140 -30q31 -7 51.5 -12.5t55.5 -21.5t56.5 -35t38.5 -52.5t17 -75.5q0 -101 -82.5 -167.5t-227.5 -66.5q-264 0 -320 240zM144 764l135 185h120l135 -185h-118l-77 113l-77 -113h-118z" />
    <glyph glyph-name="scircumflex" unicode="&#x15d;" horiz-adv-x="512" 
d="M25 146l134 30q9 -45 30.5 -66.5t62.5 -21.5q39 0 64 14t25 40q0 25 -17.5 34.5t-68.5 18.5l-26 4q-92 14 -141 47t-49 105q0 21 11.5 43.5t35 46t69.5 38.5t107 15q70 0 127.5 -37.5t76.5 -104.5l-121 -31q-12 40 -31 56.5t-60 16.5q-35 0 -58 -10.5t-23 -31.5
q0 -7 2 -13t7 -11t9.5 -8.5t12.5 -6t13.5 -4.5t15 -4t14.5 -2.5t14.5 -2t12.5 -1.5l26 -4q28 -5 49.5 -10t48 -16t43.5 -25.5t29 -37.5t12 -53q0 -79 -64 -122t-166 -43q-88 0 -149.5 42.5t-77.5 115.5zM58 540l135 185h120l135 -185h-118l-77 113l-77 -113h-118z" />
    <glyph glyph-name="Scedilla" unicode="&#x15e;" horiz-adv-x="684" 
d="M305 -247v64h46q19 0 31 13t12 33q0 15 -12.5 26.5t-30.5 11.5h-46v83q-110 9 -183.5 67.5t-98.5 171.5l159 35q0 -74 44.5 -112t121.5 -38q63 0 103 28.5t40 65.5q0 36 -25 53.5t-79 30.5l-111 23q-33 7 -48.5 11t-44.5 13t-44 17.5t-35.5 24.5t-30.5 34.5t-17.5 45.5
t-7.5 60q0 96 86 152t205 56q75 0 131 -18.5t88.5 -51t50 -67t25.5 -75.5l-153 -34q-8 59 -45 90t-97 31t-97 -21t-37 -62q0 -18 8 -31t23.5 -21t27 -11.5t30.5 -7.5l140 -30q31 -7 51.5 -12.5t55.5 -21.5t56.5 -35t38.5 -52.5t17 -75.5q0 -96 -75 -161.5t-208 -71.5v-19
q43 -3 70.5 -30.5t27.5 -71.5q0 -50 -31 -80t-77 -30h-55z" />
    <glyph glyph-name="scedilla" unicode="&#x15f;" horiz-adv-x="512" 
d="M220 -247v64h46q19 0 31 13t12 33q0 15 -12.5 26.5t-30.5 11.5h-46v89q-77 8 -129 49t-66 107l134 30q9 -45 30.5 -66.5t62.5 -21.5q39 0 64 14t25 40q0 25 -17.5 34.5t-68.5 18.5l-26 4q-92 14 -141 47t-49 105q0 21 11.5 43.5t35 46t69.5 38.5t107 15q70 0 127.5 -37.5
t76.5 -104.5l-121 -31q-12 40 -31 56.5t-60 16.5q-35 0 -58 -10.5t-23 -31.5q0 -7 2 -13t7 -11t9.5 -8.5t12.5 -6t13.5 -4.5t15 -4t14.5 -2.5t14.5 -2t12.5 -1.5l26 -4q28 -5 49.5 -10t48 -16t43.5 -25.5t29 -37.5t12 -53q0 -72 -54 -115t-143 -49v-24q43 -3 70.5 -30.5
t27.5 -71.5q0 -50 -31 -80t-77 -30h-55z" />
    <glyph glyph-name="Scaron" unicode="&#x160;" horiz-adv-x="684" 
d="M23 223l159 35q0 -74 44.5 -112t121.5 -38q63 0 103 28.5t40 65.5q0 36 -25 53.5t-79 30.5l-111 23q-33 7 -48.5 11t-44.5 13t-44 17.5t-35.5 24.5t-30.5 34.5t-17.5 45.5t-7.5 60q0 96 86 152t205 56q75 0 131 -18.5t88.5 -51t50 -67t25.5 -75.5l-153 -34q-8 59 -45 90
t-97 31t-97 -21t-37 -62q0 -18 8 -31t23.5 -21t27 -11.5t30.5 -7.5l140 -30q31 -7 51.5 -12.5t55.5 -21.5t56.5 -35t38.5 -52.5t17 -75.5q0 -101 -82.5 -167.5t-227.5 -66.5q-264 0 -320 240zM279 764l-135 185h118l77 -113l77 113h118l-135 -185h-120z" />
    <glyph glyph-name="scaron" unicode="&#x161;" horiz-adv-x="512" 
d="M25 146l134 30q9 -45 30.5 -66.5t62.5 -21.5q39 0 64 14t25 40q0 25 -17.5 34.5t-68.5 18.5l-26 4q-92 14 -141 47t-49 105q0 21 11.5 43.5t35 46t69.5 38.5t107 15q70 0 127.5 -37.5t76.5 -104.5l-121 -31q-12 40 -31 56.5t-60 16.5q-35 0 -58 -10.5t-23 -31.5
q0 -7 2 -13t7 -11t9.5 -8.5t12.5 -6t13.5 -4.5t15 -4t14.5 -2.5t14.5 -2t12.5 -1.5l26 -4q28 -5 49.5 -10t48 -16t43.5 -25.5t29 -37.5t12 -53q0 -79 -64 -122t-166 -43q-88 0 -149.5 42.5t-77.5 115.5zM193 540l-135 185h118l77 -113l77 113h118l-135 -185h-120z" />
    <glyph glyph-name="uni0162" unicode="&#x162;" horiz-adv-x="616" 
d="M228 0v581h-218v125h596v-125h-218v-581h-48v-35q43 -3 70.5 -30.5t27.5 -71.5q0 -50 -31 -80t-77 -30h-55v64h46q19 0 31 13t12 33q0 15 -12.5 26.5t-30.5 11.5h-46v99h-47z" />
    <glyph glyph-name="uni0163" unicode="&#x163;" horiz-adv-x="364" 
d="M173 -247v64h46q19 0 31 13t12 33q0 15 -12.5 26.5t-30.5 11.5h-46v104q-71 26 -71 100v272h-93v105h93v159h140v-159h94v-105h-94v-212q0 -59 47 -59q34 0 47 3v-111q-38 -6 -76 -6q-15 0 -22 1v-28q43 -3 70.5 -30.5t27.5 -71.5q0 -50 -31 -80t-77 -30h-55z" />
    <glyph glyph-name="Tcaron" unicode="&#x164;" horiz-adv-x="616" 
d="M228 0v581h-218v125h596v-125h-218v-581h-160zM248 764l-135 185h118l77 -113l77 113h118l-135 -185h-120z" />
    <glyph glyph-name="tcaron" unicode="&#x165;" horiz-adv-x="364" 
d="M102 105v272h-93v105h93v159h140v-159h94v-105h-94v-212q0 -59 47 -59q34 0 47 3v-111q-38 -6 -76 -6q-158 0 -158 113zM287 522l34 185h125l-84 -185h-75z" />
    <glyph glyph-name="Tbar" unicode="&#x166;" horiz-adv-x="621" 
d="M111 394v79h119v108h-218v125h596v-125h-218v-108h123v-79h-123v-394h-160v394h-119z" />
    <glyph glyph-name="tbar" unicode="&#x167;" horiz-adv-x="366" 
d="M36 210v79h68v88h-93v105h93v159h140v-159h94v-105h-94v-88h81v-79h-81v-45q0 -59 47 -59q34 0 47 3v-111q-38 -6 -76 -6q-158 0 -158 113v105h-68z" />
    <glyph glyph-name="Utilde" unicode="&#x168;" horiz-adv-x="746" 
d="M63 261v445h160v-445q0 -77 41.5 -115t108.5 -38t108.5 38t41.5 115v445h160v-445q0 -137 -87 -207.5t-223 -70.5t-223 70.5t-87 207.5zM203 800v107q16 16 46 27.5t54 11.5q28 0 74 -14q6 -2 20.5 -8t27 -9t26.5 -3q56 0 92 45v-107q-16 -16 -46 -27.5t-54 -11.5
q-28 0 -74 14q-6 2 -20.5 8t-27 9t-26.5 3q-56 0 -92 -45z" />
    <glyph glyph-name="utilde" unicode="&#x169;" horiz-adv-x="558" 
d="M50 174v308h140v-307q0 -27 13 -49q21 -33 61 -33q35 0 61 21q38 28 38 99v269h140v-482h-136v58q-9 -23 -45.5 -46.5t-99.5 -23.5q-98 0 -142 72q-30 50 -30 114zM108 576v107q16 16 46 27.5t54 11.5q28 0 74 -14q6 -2 20.5 -8t27 -9t26.5 -3q56 0 92 45v-107
q-16 -16 -46 -27.5t-54 -11.5q-28 0 -74 14q-6 2 -20.5 8t-27 9t-26.5 3q-56 0 -92 -45z" />
    <glyph glyph-name="Umacron" unicode="&#x16a;" horiz-adv-x="746" 
d="M63 261v445h160v-445q0 -77 41.5 -115t108.5 -38t108.5 38t41.5 115v445h160v-445q0 -137 -87 -207.5t-223 -70.5t-223 70.5t-87 207.5zM203 829v101h340v-101h-340z" />
    <glyph glyph-name="umacron" unicode="&#x16b;" horiz-adv-x="558" 
d="M50 174v308h140v-307q0 -27 13 -49q21 -33 61 -33q35 0 61 21q38 28 38 99v269h140v-482h-136v58q-9 -23 -45.5 -46.5t-99.5 -23.5q-98 0 -142 72q-30 50 -30 114zM108 605v101h340v-101h-340z" />
    <glyph glyph-name="Ubreve" unicode="&#x16c;" horiz-adv-x="746" 
d="M63 261v445h160v-445q0 -77 41.5 -115t108.5 -38t108.5 38t41.5 115v445h160v-445q0 -137 -87 -207.5t-223 -70.5t-223 70.5t-87 207.5zM207 930v19h100v-19q0 -39 16.5 -63.5t49.5 -24.5q34 0 50.5 24.5t16.5 63.5v19h100v-19q0 -80 -46.5 -128t-120.5 -48
q-75 0 -120.5 48t-45.5 128z" />
    <glyph glyph-name="ubreve" unicode="&#x16d;" horiz-adv-x="558" 
d="M50 174v308h140v-307q0 -27 13 -49q21 -33 61 -33q35 0 61 21q38 28 38 99v269h140v-482h-136v58q-9 -23 -45.5 -46.5t-99.5 -23.5q-98 0 -142 72q-30 50 -30 114zM112 706v19h100v-19q0 -39 16.5 -63.5t49.5 -24.5q34 0 50.5 24.5t16.5 63.5v19h100v-19
q0 -80 -46.5 -128t-120.5 -48q-75 0 -120.5 48t-45.5 128z" />
    <glyph glyph-name="Uring" unicode="&#x16e;" horiz-adv-x="746" 
d="M63 261v445h160v-445q0 -77 41.5 -115t108.5 -38t108.5 38t41.5 115v445h160v-445q0 -137 -87 -207.5t-223 -70.5t-223 70.5t-87 207.5zM373 811q20 0 34.5 14.5t14.5 34.5t-14.5 34.5t-34.5 14.5t-34.5 -14.5t-14.5 -34.5t14.5 -34.5t34.5 -14.5zM373 754
q-43 0 -74.5 31t-31.5 75t31.5 75t74.5 31t74.5 -31t31.5 -75t-31.5 -75t-74.5 -31z" />
    <glyph glyph-name="uring" unicode="&#x16f;" horiz-adv-x="558" 
d="M50 174v308h140v-307q0 -27 13 -49q21 -33 61 -33q35 0 61 21q38 28 38 99v269h140v-482h-136v58q-9 -23 -45.5 -46.5t-99.5 -23.5q-98 0 -142 72q-30 50 -30 114zM278 587q20 0 34.5 14.5t14.5 34.5t-14.5 34.5t-34.5 14.5t-34.5 -14.5t-14.5 -34.5t14.5 -34.5
t34.5 -14.5zM278 530q-44 0 -75 31t-31 75t31 75t75 31t75 -31t31 -75t-31 -75t-75 -31z" />
    <glyph glyph-name="Uhungarumlaut" unicode="&#x170;" horiz-adv-x="746" 
d="M63 261v445h160v-445q0 -77 41.5 -115t108.5 -38t108.5 38t41.5 115v445h160v-445q0 -137 -87 -207.5t-223 -70.5t-223 70.5t-87 207.5zM243 764l82 185h133l-108 -185h-107zM397 764l82 185h133l-108 -185h-107z" />
    <glyph glyph-name="uhungarumlaut" unicode="&#x171;" horiz-adv-x="558" 
d="M50 174v308h140v-307q0 -27 13 -49q21 -33 61 -33q35 0 61 21q38 28 38 99v269h140v-482h-136v58q-9 -23 -45.5 -46.5t-99.5 -23.5q-98 0 -142 72q-30 50 -30 114zM136 540l82 185h133l-108 -185h-107zM290 540l82 185h133l-108 -185h-107z" />
    <glyph glyph-name="Uogonek" unicode="&#x172;" horiz-adv-x="746" 
d="M471 -247h-46q-64 0 -109.5 46t-45.5 110q0 46 22 81q-104 19 -166.5 87.5t-62.5 183.5v445h160v-445q0 -77 41.5 -115t108.5 -38t108.5 38t41.5 115v445h160v-445q0 -137 -85 -206.5t-221 -71.5q-33 -26 -33 -74q0 -39 24 -65.5t57 -26.5h46v-64z" />
    <glyph glyph-name="uogonek" unicode="&#x173;" horiz-adv-x="558" 
d="M392 -91q0 -39 24 -65.5t57 -26.5h46v-64h-46q-64 0 -109.5 46t-45.5 110q0 70 49 113v36q-9 -23 -45.5 -46.5t-99.5 -23.5q-98 0 -142 72q-30 50 -30 114v308h140v-307q0 -27 13 -49q21 -33 61 -33q35 0 61 21q38 28 38 99v269h140v-482h-31q-34 0 -57 -26.5t-23 -64.5z
" />
    <glyph glyph-name="Wcircumflex" unicode="&#x174;" horiz-adv-x="1050" 
d="M205 0l-201 706h154l142 -546l131 546h188l131 -546l142 546h154l-201 -706h-194l-126 564l-126 -564h-194zM330 764l135 185h120l135 -185h-118l-77 113l-77 -113h-118z" />
    <glyph glyph-name="wcircumflex" unicode="&#x175;" horiz-adv-x="794" 
d="M156 0l-151 482h138l89 -315l90 315h150l90 -316l89 316h138l-151 -482h-153l-88 311l-88 -311h-153zM204 540l135 185h120l135 -185h-118l-77 113l-77 -113h-118z" />
    <glyph glyph-name="Ycircumflex" unicode="&#x176;" horiz-adv-x="735" 
d="M291 0v320l-294 386h185l187 -270l186 270h181l-290 -386v-320h-155zM171 764l135 185h120l135 -185h-118l-77 113l-77 -113h-118z" />
    <glyph glyph-name="ycircumflex" unicode="&#x177;" horiz-adv-x="518" 
d="M39 -224v112q34 -6 42 -6q67 0 80 37l34 88l-190 475h148l115 -321l107 321h141l-235 -617q-37 -96 -161 -96q-55 0 -81 7zM67 540l135 185h120l135 -185h-118l-77 113l-77 -113h-118z" />
    <glyph glyph-name="Ydieresis" unicode="&#x178;" horiz-adv-x="735" 
d="M291 0v320l-294 386h185l187 -270l186 270h181l-290 -386v-320h-155zM199 787v145h145v-145h-145zM388 787v145h145v-145h-145z" />
    <glyph glyph-name="Zacute" unicode="&#x179;" horiz-adv-x="656" 
d="M30 0v130l378 446h-362v130h558v-130l-391 -446h417v-130h-600zM272 764l82 185h133l-108 -185h-107z" />
    <glyph glyph-name="zacute" unicode="&#x17a;" horiz-adv-x="491" 
d="M24 0v106l253 268h-233v108h411v-100l-254 -273h261v-109h-438zM185 540l82 185h133l-108 -185h-107z" />
    <glyph glyph-name="Zdotaccent" unicode="&#x17b;" horiz-adv-x="656" 
d="M30 0v130l378 446h-362v130h558v-130l-391 -446h417v-130h-600zM255 787v145h140v-145h-140z" />
    <glyph glyph-name="zdotaccent" unicode="&#x17c;" horiz-adv-x="491" 
d="M24 0v106l253 268h-233v108h411v-100l-254 -273h261v-109h-438zM173 563v145h140v-145h-140z" />
    <glyph glyph-name="Zcaron" unicode="&#x17d;" horiz-adv-x="656" 
d="M30 0v130l378 446h-362v130h558v-130l-391 -446h417v-130h-600zM265 764l-135 185h118l77 -113l77 113h118l-135 -185h-120z" />
    <glyph glyph-name="zcaron" unicode="&#x17e;" horiz-adv-x="491" 
d="M24 0v106l253 268h-233v108h411v-100l-254 -273h261v-109h-438zM183 540l-135 185h118l77 -113l77 113h118l-135 -185h-120z" />
    <glyph glyph-name="longs" unicode="&#x17f;" horiz-adv-x="250" 
d="M55 0v568q0 63 40.5 105t109.5 42q65 0 90 -5v-105q-22 2 -48 2q-52 0 -52 -75v-532h-140z" />
    <glyph glyph-name="uni018F" unicode="&#x18f;" 
d="M195 458l-143 47q17 89 82.5 154.5t180.5 65.5q146 0 218 -97t72 -270q0 -169 -76 -272t-209 -103q-122 0 -202.5 91t-80.5 262q0 42 2 68h406q-9 194 -125 194q-48 0 -81 -41.5t-44 -98.5zM445 278h-250q0 -60 35.5 -115t89.5 -55q52 0 88.5 53.5t36.5 116.5z" />
    <glyph glyph-name="uni0190" unicode="&#x190;" horiz-adv-x="675" 
d="M497 253l159 -26q-6 -62 -35.5 -110.5t-74.5 -76.5t-97.5 -42.5t-108.5 -14.5q-139 0 -221 63t-82 156q0 62 36 109.5t116 58.5q-61 14 -98.5 54.5t-37.5 94.5q0 98 81.5 151.5t202.5 53.5q139 0 211.5 -59.5t91.5 -154.5l-153 -31q-7 52 -42 85.5t-106 33.5
q-59 0 -93 -22.5t-34 -61.5q0 -38 33.5 -62.5t106.5 -24.5h86v-125h-85q-157 0 -157 -95q0 -41 36 -70t105 -29q155 0 160 145z" />
    <glyph glyph-name="florin" unicode="&#x192;" horiz-adv-x="416" 
d="M-52 -216l11 106q20 -4 49 -4q36 0 46.5 17t14.5 64l46 410h-73l11 105h74l11 100q8 63 51.5 98t109.5 35q39 0 106 -15l-11 -106q-20 4 -49 4q-58 0 -64 -101l-1 -15h91l-11 -105h-92l-53 -475q-7 -62 -50.5 -97.5t-110.5 -35.5q-38 0 -106 15z" />
    <glyph glyph-name="uni0194" unicode="&#x194;" horiz-adv-x="651" 
d="M325 -223q-76 0 -121.5 42t-45.5 107q0 40 15.5 80.5t67.5 148.5l-264 551h156l194 -420l197 420h150l-266 -546q52 -109 68 -151.5t16 -81.5q0 -65 -45.5 -107.5t-121.5 -42.5zM325 -114q15 0 24 12t9 31q0 28 -33 106q-32 -79 -32 -106q0 -19 8.5 -31t23.5 -12z" />
    <glyph glyph-name="uni0197" unicode="&#x197;" horiz-adv-x="324" 
d="M14 326v79h68v301h160v-301h68v-79h-68v-326h-160v326h-68z" />
    <glyph glyph-name="uni019D" unicode="&#x19d;" horiz-adv-x="801" 
d="M210 549v-633q0 -73 -34 -110t-129 -37q-48 0 -86 5v112q17 -4 37 -4q45 0 58.5 14t13.5 41v769h211l310 -552v552h140v-706h-212z" />
    <glyph glyph-name="uni01B5" unicode="&#x1b5;" horiz-adv-x="664" 
d="M71 322v79h192l149 175h-362v130h558v-130l-154 -175h141v-79h-210l-168 -192h417v-130h-600v130l162 192h-125z" />
    <glyph glyph-name="uni01B6" unicode="&#x1b6;" horiz-adv-x="496" 
d="M56 210v75h140l84 89h-233v108h411v-100l-90 -97h71v-75h-141l-94 -101h261v-109h-438v106l98 104h-69z" />
    <glyph glyph-name="uni01CD" unicode="&#x1cd;" horiz-adv-x="744" 
d="M-3 0l285 706h180l285 -706h-165l-71 190h-279l-70 -190h-165zM277 310h190l-95 255zM312 764l-135 185h118l77 -113l77 113h118l-135 -185h-120z" />
    <glyph glyph-name="uni01CE" unicode="&#x1ce;" horiz-adv-x="539" 
d="M494 0h-139q0 4 -4 29l-4 25q-42 -66 -144 -66q-77 0 -125 44t-48 103q0 42 14.5 71.5t44 46.5t60.5 25.5t78 15.5q1 0 36 5t37 5q33 5 44 13.5t11 24.5q0 26 -22.5 39t-56.5 13q-94 0 -95 -85l-134 31q12 81 82 120q61 34 147 34q92 0 151.5 -43t59.5 -132v-181
q0 -28 0.5 -52t1.5 -39t2.5 -25t2 -15.5t0.5 -6.5zM170 146q0 -22 19.5 -40t46.5 -18q23 0 46 7t44 30.5t21 60.5v36l-7 -1q-4 0 -14 -1.5t-14 -2.5q-2 0 -8 -1t-16.5 -3t-22.5 -4q-22 -4 -35.5 -7.5t-29 -10t-23 -18t-7.5 -27.5zM216 539l-135 185h118l77 -113l77 113h118
l-135 -185h-120z" />
    <glyph glyph-name="uni01CF" unicode="&#x1cf;" horiz-adv-x="300" 
d="M70 0v706h160v-706h-160zM90 764l-135 185h118l77 -113l77 113h118l-135 -185h-120z" />
    <glyph glyph-name="uni01D0" unicode="&#x1d0;" horiz-adv-x="250" 
d="M55 0v482h140v-482h-140zM65 539l-135 185h118l77 -113l77 113h118l-135 -185h-120z" />
    <glyph glyph-name="uni01D1" unicode="&#x1d1;" horiz-adv-x="809" 
d="M406 108q101 0 154.5 71.5t53.5 171.5q0 64 -21.5 118.5t-70 91.5t-116.5 37q-103 0 -157 -73t-54 -174t54 -172t157 -71zM406 -17q-94 0 -167 31t-116.5 84t-65.5 117t-22 136q0 71 22 135.5t65.5 118.5t117 86t166.5 32q92 0 164.5 -32t116 -85.5t65.5 -118.5t22 -136
q0 -72 -22 -136t-65.5 -117t-116 -84t-164.5 -31zM346 764l-135 185h118l77 -113l77 113h118l-135 -185h-120z" />
    <glyph glyph-name="uni01D2" unicode="&#x1d2;" horiz-adv-x="563" 
d="M282 93q53 0 82 45t29 102t-29 103t-82 46t-82.5 -46t-29.5 -103q0 -56 29.5 -101.5t82.5 -45.5zM282 -12q-116 0 -184 76t-68 176t68.5 177t183.5 77t183 -77t68 -177t-68 -176t-183 -76zM222 539l-135 185h118l77 -113l77 113h118l-135 -185h-120z" />
    <glyph glyph-name="uni01D3" unicode="&#x1d3;" horiz-adv-x="746" 
d="M63 261v445h160v-445q0 -77 41.5 -115t108.5 -38t108.5 38t41.5 115v445h160v-445q0 -137 -87 -207.5t-223 -70.5t-223 70.5t-87 207.5zM313 764l-135 185h118l77 -113l77 113h118l-135 -185h-120z" />
    <glyph glyph-name="uni01D4" unicode="&#x1d4;" horiz-adv-x="558" 
d="M50 174v308h140v-307q0 -27 13 -49q21 -33 61 -33q35 0 61 21q38 28 38 99v269h140v-482h-136v58q-9 -23 -45.5 -46.5t-99.5 -23.5q-98 0 -142 72q-30 50 -30 114zM214 539l-135 185h118l77 -113l77 113h118l-135 -185h-120z" />
    <glyph glyph-name="Gcaron" unicode="&#x1e6;" horiz-adv-x="781" 
d="M580 0v67q-67 -84 -197 -84q-87 0 -165 42.5t-130.5 129t-52.5 198.5q0 163 104.5 266.5t262.5 103.5q230 0 324 -205l-156 -38q-59 118 -168 118q-89 0 -148 -69t-59 -176q0 -109 60 -177t142 -68q65 0 119.5 41.5t63.5 137.5h-220v125h370v-412h-150zM342 764l-135 185
h118l77 -113l77 113h118l-135 -185h-120z" />
    <glyph glyph-name="gcaron" unicode="&#x1e7;" horiz-adv-x="597" 
d="M50 -68l140 29q5 -18 11 -32t18 -28.5t31.5 -22.5t46.5 -8q31 0 53.5 14t32.5 35t14.5 39.5t4.5 34.5v62q-24 -24 -62 -39.5t-74 -15.5q-58 0 -102.5 19t-68.5 46.5t-39.5 62.5t-20 62t-4.5 51t4.5 52t20 65.5t39.5 66t68.5 49t102.5 20.5q39 0 82 -18.5t62 -47.5v54h132
v-493q0 -97 -64.5 -160.5t-180.5 -63.5q-104 0 -167 51t-80 116zM290 105q41 0 76.5 35t35.5 107t-35.5 107t-76.5 35q-35 0 -60.5 -17.5t-37 -44t-16.5 -46.5t-5 -34q0 -20 4.5 -41.5t16 -45.5t37 -39.5t61.5 -15.5zM239 539l-135 185h118l77 -113l77 113h118l-135 -185
h-120z" />
    <glyph glyph-name="uni01E8" unicode="&#x1e8;" horiz-adv-x="721" 
d="M70 0v706h160v-283l282 283h195l-339 -330l382 -376h-205l-315 318v-318h-160zM292 764l-135 185h118l77 -113l77 113h118l-135 -185h-120z" />
    <glyph glyph-name="uni01E9" unicode="&#x1e9;" horiz-adv-x="563" 
d="M55 0v706h140v-399l180 175h178l-243 -216l275 -266h-179l-211 203v-203h-140zM65 762l-135 185h118l77 -113l77 113h118l-135 -185h-120z" />
    <glyph glyph-name="uni01EA" unicode="&#x1ea;" horiz-adv-x="809" 
d="M503 -247h-46q-64 0 -109.5 46t-45.5 110q0 46 22 81q-142 25 -215.5 126.5t-73.5 234.5q0 71 22 135.5t65.5 118.5t117 86t166.5 32q92 0 164.5 -32t116 -85.5t65.5 -118.5t22 -136t-22 -135.5t-65 -116.5t-115 -83.5t-163 -32.5q-33 -26 -33 -74q0 -39 24 -65.5
t57 -26.5h46v-64zM406 108q101 0 154.5 71.5t53.5 171.5q0 64 -21.5 118.5t-70 91.5t-116.5 37q-103 0 -157 -73t-54 -174t54 -172t157 -71z" />
    <glyph glyph-name="uni01EB" unicode="&#x1eb;" horiz-adv-x="563" 
d="M381 -247h-46q-64 0 -109.5 46t-45.5 110q0 51 28 89q-83 23 -130.5 92t-47.5 150q0 100 68.5 177t183.5 77t183 -77t68 -177q0 -97 -64.5 -172.5t-174.5 -79.5q-40 -25 -40 -79q0 -39 24 -65.5t57 -26.5h46v-64zM282 93q53 0 82 45t29 102t-29 103t-82 46t-82.5 -46
t-29.5 -103q0 -56 29.5 -101.5t82.5 -45.5z" />
    <glyph glyph-name="uni01F8" unicode="&#x1f8;" horiz-adv-x="801" 
d="M70 0v706h211l310 -552v552h140v-706h-212l-309 549v-549h-140zM351 764l-108 185h133l82 -185h-107z" />
    <glyph glyph-name="uni01F9" unicode="&#x1f9;" horiz-adv-x="558" 
d="M55 0v482h136v-58q9 23 45.5 46.5t99.5 23.5q98 0 142 -72q30 -50 30 -114v-308h-140v307q0 27 -13 49q-21 33 -61 33q-35 0 -61 -21q-38 -28 -38 -99v-269h-140zM233 539l-108 185h133l82 -185h-107z" />
    <glyph glyph-name="Aringacute" unicode="&#x1fa;" horiz-adv-x="744" 
d="M-3 0l288 713q-17 26 -17 58q0 43 31 74.5t75 31.5t75 -31.5t31 -74.5q0 -31 -21 -61l288 -710h-165l-71 190h-279l-70 -190h-165zM277 310h190l-95 255zM374 722q20 0 34.5 14.5t14.5 34.5t-14.5 34.5t-34.5 14.5t-34.5 -14.5t-14.5 -34.5t14.5 -34.5t34.5 -14.5z
M322 905l110 149h133l-140 -149h-103z" />
    <glyph glyph-name="aringacute" unicode="&#x1fb;" horiz-adv-x="539" 
d="M494 0h-139q0 4 -4 29l-4 25q-42 -66 -144 -66q-77 0 -125 44t-48 103q0 42 14.5 71.5t44 46.5t60.5 25.5t78 15.5q1 0 36 5t37 5q33 5 44 13.5t11 24.5q0 26 -22.5 39t-56.5 13q-94 0 -95 -85l-134 31q12 81 82 120q61 34 147 34q92 0 151.5 -43t59.5 -132v-181
q0 -28 0.5 -52t1.5 -39t2.5 -25t2 -15.5t0.5 -6.5zM271 528q-43 0 -74.5 31t-31.5 75t31.5 75t74.5 31t74.5 -31t31.5 -75t-31.5 -75t-74.5 -31zM170 146q0 -22 19.5 -40t46.5 -18q23 0 46 7t44 30.5t21 60.5v36l-7 -1q-3 0 -13.5 -1.5t-15.5 -2.5l-6 -1l-40 -7
q-22 -4 -35.5 -7.5t-29 -10t-23 -18t-7.5 -27.5zM215 765l110 149h133l-140 -149h-103zM271 585q20 0 34.5 14.5t14.5 34.5t-14.5 34.5t-34.5 14.5t-34.5 -14.5t-14.5 -34.5t14.5 -34.5t34.5 -14.5z" />
    <glyph glyph-name="AEacute" unicode="&#x1fc;" horiz-adv-x="1017" 
d="M-18 0l462 706h521v-125h-304v-157h290v-125h-290v-174h311v-125h-471v205h-210l-126 -205h-183zM370 334h131v213zM631 764l82 185h133l-108 -185h-107z" />
    <glyph glyph-name="aeacute" unicode="&#x1fd;" horiz-adv-x="860" 
d="M181 309l-134 31q12 81 82 120q61 34 147 34q106 0 161 -51q62 51 152 51q101 0 170.5 -69.5t69.5 -177.5q0 -29 -2 -47h-340v-8q0 -43 23.5 -73.5t78.5 -30.5q81 0 102 83l125 -32q-13 -67 -78 -108.5t-145 -41.5q-124 0 -180 93q-29 -49 -76 -71.5t-134 -22.5
q-77 0 -125 44t-48 103q0 38 13 66.5t38 46t51.5 29t63.5 16.5t64.5 6.5t62.5 1.5h32v24q0 31 -23.5 50t-55.5 19q-94 0 -95 -85zM347 186v14h-46q-70 0 -100.5 -10t-30.5 -44q0 -28 19 -42.5t48 -14.5q44 0 77 26.5t33 70.5zM487 301h204q0 37 -27 65t-75 28
q-47 0 -74.5 -26.5t-27.5 -66.5zM377 540l82 185h133l-108 -185h-107z" />
    <glyph glyph-name="Oslashacute" unicode="&#x1fe;" horiz-adv-x="811" 
d="M668 706h107l-89 -100q89 -105 89 -255q0 -72 -22 -136t-65.5 -117t-116 -84t-164.5 -31q-134 0 -223 62l-40 -45h-108l88 98q-88 101 -88 253q0 71 22 135.5t65.5 118.5t117 86t166.5 32q130 0 220 -63zM407 108q101 0 154.5 71.5t53.5 171.5q0 80 -32 140l-305 -341
q51 -42 129 -42zM196 351q0 -78 31 -137l305 341q-51 43 -125 43q-103 0 -157 -73t-54 -174zM354 764l82 185h133l-108 -185h-107z" />
    <glyph glyph-name="oslashacute" unicode="&#x1ff;" horiz-adv-x="567" 
d="M17 0l71 78q-56 71 -56 162q0 100 68.5 177t183.5 77q81 0 142 -42l27 30h97l-71 -79q56 -71 56 -163q0 -100 -68 -176t-183 -76q-84 0 -143 41l-27 -29h-97zM181 181l166 184q-27 24 -63 24q-53 0 -82.5 -46t-29.5 -103q0 -30 9 -59zM386 300l-166 -183q27 -24 64 -24
q53 0 82 45t29 102q0 30 -9 60zM226 540l82 185h133l-108 -185h-107z" />
    <glyph glyph-name="uni0218" unicode="&#x218;" horiz-adv-x="684" 
d="M23 223l159 35q0 -74 44.5 -112t121.5 -38q63 0 103 28.5t40 65.5q0 36 -25 53.5t-79 30.5l-111 23q-33 7 -48.5 11t-44.5 13t-44 17.5t-35.5 24.5t-30.5 34.5t-17.5 45.5t-7.5 60q0 96 86 152t205 56q75 0 131 -18.5t88.5 -51t50 -67t25.5 -75.5l-153 -34q-8 59 -45 90
t-97 31t-97 -21t-37 -62q0 -18 8 -31t23.5 -21t27 -11.5t30.5 -7.5l140 -30q31 -7 51.5 -12.5t55.5 -21.5t56.5 -35t38.5 -52.5t17 -75.5q0 -101 -82.5 -167.5t-227.5 -66.5q-264 0 -320 240zM254 -235l34 185h125l-84 -185h-75z" />
    <glyph glyph-name="uni0219" unicode="&#x219;" horiz-adv-x="512" 
d="M25 146l134 30q9 -45 30.5 -66.5t62.5 -21.5q39 0 64 14t25 40q0 25 -17.5 34.5t-68.5 18.5l-26 4q-92 14 -141 47t-49 105q0 21 11.5 43.5t35 46t69.5 38.5t107 15q70 0 127.5 -37.5t76.5 -104.5l-121 -31q-12 40 -31 56.5t-60 16.5q-35 0 -58 -10.5t-23 -31.5
q0 -7 2 -13t7 -11t9.5 -8.5t12.5 -6t13.5 -4.5t15 -4t14.5 -2.5t14.5 -2t12.5 -1.5l26 -4q28 -5 49.5 -10t48 -16t43.5 -25.5t29 -37.5t12 -53q0 -79 -64 -122t-166 -43q-88 0 -149.5 42.5t-77.5 115.5zM159 -235l34 185h125l-84 -185h-75z" />
    <glyph glyph-name="uni021A" unicode="&#x21a;" horiz-adv-x="616" 
d="M228 0v581h-218v125h596v-125h-218v-581h-160zM219 -235l34 185h125l-84 -185h-75z" />
    <glyph glyph-name="uni021B" unicode="&#x21b;" horiz-adv-x="364" 
d="M102 105v272h-93v105h93v159h140v-159h94v-105h-94v-212q0 -59 47 -59q34 0 47 3v-111q-38 -6 -76 -6q-158 0 -158 113zM126 -235l34 185h125l-84 -185h-75z" />
    <glyph glyph-name="uni021E" unicode="&#x21e;" horiz-adv-x="767" 
d="M70 0v706h160v-282h307v282h160v-706h-160v299h-307v-299h-160zM323 764l-135 185h118l77 -113l77 113h118l-135 -185h-120z" />
    <glyph glyph-name="uni021F" unicode="&#x21f;" horiz-adv-x="562" 
d="M55 0v706h136v-282q9 23 46.5 46.5t101.5 23.5q99 0 143 -72q30 -48 30 -114v-308h-140v307q0 27 -13 49q-21 33 -63 33q-36 0 -62 -21q-40 -30 -40 -99v-269h-139zM63 762l-135 185h118l77 -113l77 113h118l-135 -185h-120z" />
    <glyph glyph-name="uni022E" unicode="&#x22e;" horiz-adv-x="809" 
d="M406 108q101 0 154.5 71.5t53.5 171.5q0 64 -21.5 118.5t-70 91.5t-116.5 37q-103 0 -157 -73t-54 -174t54 -172t157 -71zM406 -17q-94 0 -167 31t-116.5 84t-65.5 117t-22 136q0 71 22 135.5t65.5 118.5t117 86t166.5 32q92 0 164.5 -32t116 -85.5t65.5 -118.5t22 -136
q0 -72 -22 -136t-65.5 -117t-116 -84t-164.5 -31zM336 787v145h140v-145h-140z" />
    <glyph glyph-name="uni022F" unicode="&#x22f;" horiz-adv-x="563" 
d="M282 93q53 0 82 45t29 102t-29 103t-82 46t-82.5 -46t-29.5 -103q0 -56 29.5 -101.5t82.5 -45.5zM282 -12q-116 0 -184 76t-68 176t68.5 177t183.5 77t183 -77t68 -177t-68 -176t-183 -76zM212 562v145h140v-145h-140z" />
    <glyph glyph-name="uni0232" unicode="&#x232;" horiz-adv-x="735" 
d="M291 0v320l-294 386h185l187 -270l186 270h181l-290 -386v-320h-155zM196 829v101h340v-101h-340z" />
    <glyph glyph-name="uni0233" unicode="&#x233;" horiz-adv-x="518" 
d="M39 -224v112q34 -6 42 -6q67 0 80 37l34 88l-190 475h148l115 -321l107 321h141l-235 -617q-37 -96 -161 -96q-55 0 -81 7zM97 604v101h340v-101h-340z" />
    <glyph glyph-name="uni0237" unicode="&#x237;" horiz-adv-x="254" 
d="M-52 -226v112q17 -4 37 -4q45 0 59.5 14.5t14.5 40.5v545h140v-566q0 -73 -35 -110t-130 -37q-48 0 -86 5z" />
    <glyph glyph-name="uni0244" unicode="&#x244;" horiz-adv-x="766" 
d="M15 326v79h58v301h160v-301h300v301h160v-301h58v-79h-58v-65q0 -137 -87 -207.5t-223 -70.5t-223 70.5t-87 207.5v65h-58zM383 108q67 0 108.5 38t41.5 115v65h-300v-65q0 -77 41.5 -115t108.5 -38z" />
    <glyph glyph-name="uni0259" unicode="&#x259;" horiz-adv-x="544" 
d="M169 311l-125 32q13 57 74 104t142 47q123 0 188 -74t65 -178q0 -105 -65 -179.5t-177 -74.5q-101 0 -170.5 69.5t-69.5 177.5q0 29 2 47h340q-2 53 -30 82.5t-72 29.5q-81 0 -102 -83zM373 181h-204q0 -39 26.5 -66t75.5 -27q47 0 74.5 25.5t27.5 67.5z" />
    <glyph glyph-name="uni025B" unicode="&#x25b;" horiz-adv-x="496" 
d="M357 179l118 -29q-14 -77 -77.5 -119.5t-148.5 -42.5q-98 0 -157.5 44t-59.5 108q0 41 24.5 70t70.5 37q-40 9 -62 38.5t-22 62.5q0 67 61.5 106.5t146.5 39.5q89 0 144.5 -37t73.5 -105l-120 -31q-14 73 -94 73q-38 0 -58 -14.5t-20 -38.5t19.5 -38t55.5 -14h65v-83h-68
q-83 0 -83 -56q0 -28 21 -45t64 -17q44 0 72.5 24.5t33.5 66.5z" />
    <glyph glyph-name="uni0263" unicode="&#x263;" horiz-adv-x="503" 
d="M512 482l-177 -383q30 -65 40 -89t18 -51t8 -49q0 -59 -40.5 -96t-107.5 -37q-68 0 -107.5 37t-39.5 95q0 33 12.5 67t51.5 120l-178 386h143l119 -265l119 265h139zM253 1q-28 -68 -28 -94q0 -37 28 -37q13 0 21 10t8 27q0 23 -29 94z" />
    <glyph glyph-name="uni0268" unicode="&#x268;" horiz-adv-x="274" 
d="M20 234v79h47v169h140v-169h47v-79h-47v-234h-140v234h-47zM67 562v144h140v-144h-140z" />
    <glyph glyph-name="uni0272" unicode="&#x272;" horiz-adv-x="558" 
d="M30 -232q-48 0 -85 8v110q16 -4 42 -4q68 0 68 67v533h136v-58q9 23 45.5 46.5t99.5 23.5q98 0 142 -72q30 -50 30 -114v-308h-140v307q0 27 -13 49q-21 33 -61 33q-35 0 -61 -21q-38 -28 -38 -99v-346q0 -77 -39 -116t-126 -39z" />
    <glyph glyph-name="uni0289" unicode="&#x289;" horiz-adv-x="587" 
d="M20 234v79h47v169h140v-169h173v169h140v-169h47v-79h-47v-234h-136v58q-9 -23 -45.5 -46.5t-99.5 -23.5q-98 0 -142 72q-30 50 -30 114v60h-47zM342 114q38 28 38 99v21h-173v-59q0 -27 13 -49q21 -33 61 -33q35 0 61 21z" />
    <glyph glyph-name="circumflex" unicode="&#x2c6;" horiz-adv-x="490" 
d="M50 540l135 185h120l135 -185h-118l-77 113l-77 -113h-118z" />
    <glyph glyph-name="caron" unicode="&#x2c7;" horiz-adv-x="490" 
d="M185 540l-135 185h118l77 -113l77 113h118l-135 -185h-120z" />
    <glyph glyph-name="uni02C9" unicode="&#x2c9;" horiz-adv-x="252" 
d="M-44 605v101h340v-101h-340z" />
    <glyph glyph-name="breve" unicode="&#x2d8;" horiz-adv-x="433" 
d="M50 706v19h100v-19q0 -39 16.5 -63.5t49.5 -24.5q34 0 50.5 24.5t16.5 63.5v19h100v-19q0 -80 -46.5 -128t-120.5 -48q-75 0 -120.5 48t-45.5 128z" />
    <glyph glyph-name="dotaccent" unicode="&#x2d9;" horiz-adv-x="240" 
d="M50 563v145h140v-145h-140z" />
    <glyph glyph-name="ring" unicode="&#x2da;" horiz-adv-x="312" 
d="M156 587q20 0 34.5 14.5t14.5 34.5t-14.5 34.5t-34.5 14.5t-34.5 -14.5t-14.5 -34.5t14.5 -34.5t34.5 -14.5zM156 530q-44 0 -75 31t-31 75t31 75t75 31t75 -31t31 -75t-31 -75t-75 -31z" />
    <glyph glyph-name="ogonek" unicode="&#x2db;" horiz-adv-x="255" 
d="M251 -247h-46q-64 0 -109.5 46t-45.5 110q0 58 37 101h118v-10q-33 0 -57 -26.5t-24 -64.5q0 -39 24 -65.5t57 -26.5h46v-64z" />
    <glyph glyph-name="tilde" unicode="&#x2dc;" horiz-adv-x="440" 
d="M50 576v107q16 16 46 27.5t54 11.5q28 0 74 -14q6 -2 20.5 -8t27 -9t26.5 -3q56 0 92 45v-107q-16 -16 -46 -27.5t-54 -11.5q-28 0 -74 14q-6 2 -20.5 8t-27 9t-26.5 3q-56 0 -92 -45z" />
    <glyph glyph-name="hungarumlaut" unicode="&#x2dd;" horiz-adv-x="469" 
d="M50 540l82 185h133l-108 -185h-107zM204 540l82 185h133l-108 -185h-107z" />
    <glyph glyph-name="gravecomb" unicode="&#x300;" horiz-adv-x="0" 
d="M-249 540l-108 185h133l82 -185h-107z" />
    <glyph glyph-name="acutecomb" unicode="&#x301;" horiz-adv-x="0" 
d="M-357 540l82 185h133l-108 -185h-107z" />
    <glyph glyph-name="uni0302" unicode="&#x302;" horiz-adv-x="0" 
d="M-445 540l135 185h120l135 -185h-118l-77 113l-77 -113h-118z" />
    <glyph glyph-name="tildecomb" unicode="&#x303;" horiz-adv-x="0" 
d="M-420 576v107q16 16 46 27.5t54 11.5q28 0 74 -14q6 -2 20.5 -8t27 -9t26.5 -3q56 0 92 45v-107q-16 -16 -46 -27.5t-54 -11.5q-28 0 -74 14q-6 2 -20.5 8t-27 9t-26.5 3q-56 0 -92 -45z" />
    <glyph glyph-name="uni0304" unicode="&#x304;" horiz-adv-x="0" 
d="M-420 605v101h340v-101h-340z" />
    <glyph glyph-name="uni0306" unicode="&#x306;" horiz-adv-x="0" 
d="M-416 706v19h100v-19q0 -39 16.5 -63.5t49.5 -24.5q34 0 50.5 24.5t16.5 63.5v19h100v-19q0 -80 -46.5 -128t-120.5 -48q-75 0 -120.5 48t-45.5 128z" />
    <glyph glyph-name="uni0307" unicode="&#x307;" horiz-adv-x="0" 
d="M-320 563v145h140v-145h-140z" />
    <glyph glyph-name="uni0308" unicode="&#x308;" horiz-adv-x="0" 
d="M-417 563v145h145v-145h-145zM-228 563v145h145v-145h-145z" />
    <glyph glyph-name="uni030A" unicode="&#x30a;" horiz-adv-x="0" 
d="M-250 587q20 0 34.5 14.5t14.5 34.5t-14.5 34.5t-34.5 14.5t-34.5 -14.5t-14.5 -34.5t14.5 -34.5t34.5 -14.5zM-250 530q-44 0 -75 31t-31 75t31 75t75 31t75 -31t31 -75t-31 -75t-75 -31z" />
    <glyph glyph-name="uni030B" unicode="&#x30b;" horiz-adv-x="0" 
d="M-434 540l82 185h133l-108 -185h-107zM-280 540l82 185h133l-108 -185h-107z" />
    <glyph glyph-name="uni030C" unicode="&#x30c;" horiz-adv-x="0" 
d="M-310 540l-135 185h118l77 -113l77 113h118l-135 -185h-120z" />
    <glyph glyph-name="uni0312" unicode="&#x312;" horiz-adv-x="0" 
d="M-329 538l84 185h75l-34 -185h-125z" />
    <glyph glyph-name="uni0313" unicode="&#x313;" horiz-adv-x="0" 
d="M-329 538l34 185h125l-84 -185h-75z" />
    <glyph glyph-name="uni0323" unicode="&#x323;" horiz-adv-x="0" 
d="M-320 -195v145h140v-145h-140z" />
    <glyph glyph-name="uni0326" unicode="&#x326;" horiz-adv-x="0" 
d="M-329 -235l34 185h125l-84 -185h-75z" />
    <glyph glyph-name="uni0327" unicode="&#x327;" horiz-adv-x="0" 
d="M-331 -247v64h46q19 0 31 13t12 33q0 15 -12.5 26.5t-30.5 11.5h-46v109h65v-45q43 -3 70.5 -30.5t27.5 -71.5q0 -50 -31 -80t-77 -30h-55z" />
    <glyph glyph-name="uni0328" unicode="&#x328;" horiz-adv-x="0" 
d="M-151 -247h-46q-64 0 -109.5 46t-45.5 110q0 58 37 101h118v-10q-33 0 -57 -26.5t-24 -64.5q0 -39 24 -65.5t57 -26.5h46v-64z" />
    <glyph glyph-name="uni032E" unicode="&#x32e;" horiz-adv-x="0" 
d="M-416 -68v19h100v-19q0 -39 16.5 -63.5t49.5 -24.5q34 0 50.5 24.5t16.5 63.5v19h100v-19q0 -80 -46.5 -128t-120.5 -48q-75 0 -120.5 48t-45.5 128z" />
    <glyph glyph-name="uni0331" unicode="&#x331;" horiz-adv-x="0" 
d="M-420 -150v101h340v-101h-340z" />
    <glyph glyph-name="anoteleia" unicode="&#x387;" horiz-adv-x="248" 
d="M44 359q0 33 23.5 56.5t56.5 23.5t56.5 -23.5t23.5 -56.5t-23.5 -56.5t-56.5 -23.5t-56.5 23.5t-23.5 56.5z" />
    <glyph glyph-name="uni0394" unicode="&#x394;" horiz-adv-x="625" 
d="M17 0v74l226 632h146l220 -632v-74h-592zM175 130h279l-138 403z" />
    <glyph glyph-name="uni03A9" unicode="&#x3a9;" horiz-adv-x="712" 
d="M43 0v125h104q-92 120 -92 251q0 155 86.5 250.5t214.5 95.5t214.5 -95.5t86.5 -250.5q0 -131 -92 -251h104v-125h-285v97q133 93 133 273q0 107 -42 167.5t-119 60.5t-119 -60.5t-42 -167.5q0 -180 133 -273v-97h-285z" />
    <glyph glyph-name="uni03BC" unicode="&#x3bc;" horiz-adv-x="563" 
d="M56 -223v705h140v-307q0 -34 20 -58t54 -24q46 0 72.5 35t26.5 85v269h140v-482h-136v58q-8 -21 -43 -45.5t-80 -24.5q-28 0 -54 12v-223h-140z" />
    <glyph glyph-name="pi" unicode="&#x3c0;" horiz-adv-x="588" 
d="M346 377h-104v-377h-139v377h-80v105h542v-105h-80v-377h-139v377z" />
    <glyph glyph-name="uni1E02" unicode="&#x1e02;" horiz-adv-x="717" 
d="M70 0v706h355q113 0 172 -55.5t59 -137.5q0 -53 -39.5 -94.5t-84.5 -47.5q70 -4 111.5 -51.5t41.5 -106.5q0 -109 -82.5 -161t-220.5 -52h-312zM230 125h164q131 0 131 91q0 85 -109 85h-186v-176zM230 426h161q48 0 76 21t28 57q0 38 -24.5 57.5t-67.5 19.5h-173v-155z
M272 787v145h140v-145h-140z" />
    <glyph glyph-name="uni1E03" unicode="&#x1e03;" horiz-adv-x="590" 
d="M55 0v706h140v-268q54 56 136 56q57 0 101 -20.5t67 -49t37.5 -66.5t18.5 -65.5t4 -52.5t-4 -52.5t-18.5 -65t-38 -66t-67 -48.5t-101.5 -20q-38 0 -81 18.5t-62 47.5v-54h-132zM304 93q54 0 84.5 41t30.5 106t-30.5 107t-84.5 42q-39 0 -74.5 -35.5t-35.5 -113.5
q0 -77 35.5 -112t74.5 -35zM265 562v145h140v-145h-140z" />
    <glyph glyph-name="uni1E0A" unicode="&#x1e0a;" horiz-adv-x="759" 
d="M230 125h104q108 0 169 61t61 167t-61 167t-169 61h-104v-456zM70 0v706h284q163 0 266.5 -95.5t103.5 -257.5t-103.5 -257.5t-266.5 -95.5h-284zM282 787v145h140v-145h-140z" />
    <glyph glyph-name="uni1E0B" unicode="&#x1e0b;" horiz-adv-x="597" 
d="M410 0v54q-19 -29 -62 -47.5t-82 -18.5q-57 0 -101.5 20t-69 49t-40 66t-20 65t-4.5 52t4.5 52.5t20 65.5t39.5 66t68.5 49.5t102.5 20.5q82 0 136 -56v268h140v-706h-132zM290 93q41 0 76.5 35t35.5 112t-35 113t-74 36q-36 0 -62.5 -17.5t-38 -43.5t-16.5 -47.5
t-5 -39.5q0 -14 2.5 -30t10.5 -38t20 -39t34.5 -29t51.5 -12zM179 562v145h140v-145h-140z" />
    <glyph glyph-name="uni1E0C" unicode="&#x1e0c;" horiz-adv-x="759" 
d="M230 125h104q108 0 169 61t61 167t-61 167t-169 61h-104v-456zM70 0v706h284q163 0 266.5 -95.5t103.5 -257.5t-103.5 -257.5t-266.5 -95.5h-284zM274 -195v145h140v-145h-140z" />
    <glyph glyph-name="uni1E0D" unicode="&#x1e0d;" horiz-adv-x="597" 
d="M410 0v54q-19 -29 -62 -47.5t-82 -18.5q-57 0 -101.5 20t-69 49t-40 66t-20 65t-4.5 52t4.5 52.5t20 65.5t39.5 66t68.5 49.5t102.5 20.5q82 0 136 -56v268h140v-706h-132zM290 93q41 0 76.5 35t35.5 112t-35 113t-74 36q-36 0 -62.5 -17.5t-38 -43.5t-16.5 -47.5
t-5 -39.5q0 -14 2.5 -30t10.5 -38t20 -39t34.5 -29t51.5 -12zM240 -195v145h140v-145h-140z" />
    <glyph glyph-name="uni1E0E" unicode="&#x1e0e;" horiz-adv-x="759" 
d="M230 125h104q108 0 169 61t61 167t-61 167t-169 61h-104v-456zM70 0v706h284q163 0 266.5 -95.5t103.5 -257.5t-103.5 -257.5t-266.5 -95.5h-284zM172 -150v101h340v-101h-340z" />
    <glyph glyph-name="uni1E0F" unicode="&#x1e0f;" horiz-adv-x="597" 
d="M410 0v54q-19 -29 -62 -47.5t-82 -18.5q-57 0 -101.5 20t-69 49t-40 66t-20 65t-4.5 52t4.5 52.5t20 65.5t39.5 66t68.5 49.5t102.5 20.5q82 0 136 -56v268h140v-706h-132zM290 93q41 0 76.5 35t35.5 112t-35 113t-74 36q-36 0 -62.5 -17.5t-38 -43.5t-16.5 -47.5
t-5 -39.5q0 -14 2.5 -30t10.5 -38t20 -39t34.5 -29t51.5 -12zM139 -150v101h340v-101h-340z" />
    <glyph glyph-name="uni1E10" unicode="&#x1e10;" horiz-adv-x="759" 
d="M230 125h104q108 0 169 61t61 167t-61 167t-169 61h-104v-456zM70 0v706h284q163 0 266.5 -95.5t103.5 -257.5t-103.5 -257.5t-266.5 -95.5h-284zM253 -235l34 185h125l-84 -185h-75z" />
    <glyph glyph-name="uni1E11" unicode="&#x1e11;" horiz-adv-x="597" 
d="M410 0v54q-19 -29 -62 -47.5t-82 -18.5q-57 0 -101.5 20t-69 49t-40 66t-20 65t-4.5 52t4.5 52.5t20 65.5t39.5 66t68.5 49.5t102.5 20.5q82 0 136 -56v268h140v-706h-132zM290 93q41 0 76.5 35t35.5 112t-35 113t-74 36q-36 0 -62.5 -17.5t-38 -43.5t-16.5 -47.5
t-5 -39.5q0 -14 2.5 -30t10.5 -38t20 -39t34.5 -29t51.5 -12zM222 -235l34 185h125l-84 -185h-75z" />
    <glyph glyph-name="uni1E1E" unicode="&#x1e1e;" horiz-adv-x="623" 
d="M70 0v706h525v-125h-365v-157h343v-125h-343v-299h-160zM262 787v145h140v-145h-140z" />
    <glyph glyph-name="uni1E1F" unicode="&#x1e1f;" horiz-adv-x="366" 
d="M113 0v377h-101v105h101v86q0 63 40.5 105t109.5 42q65 0 90 -5v-105q-22 2 -48 2q-52 0 -52 -75v-50h100v-105h-100v-377h-140zM164 785v145h140v-145h-140z" />
    <glyph glyph-name="uni1E20" unicode="&#x1e20;" horiz-adv-x="781" 
d="M580 0v67q-67 -84 -197 -84q-87 0 -165 42.5t-130.5 129t-52.5 198.5q0 163 104.5 266.5t262.5 103.5q230 0 324 -205l-156 -38q-59 118 -168 118q-89 0 -148 -69t-59 -176q0 -109 60 -177t142 -68q65 0 119.5 41.5t63.5 137.5h-220v125h370v-412h-150zM232 829v101h340
v-101h-340z" />
    <glyph glyph-name="uni1E21" unicode="&#x1e21;" horiz-adv-x="597" 
d="M50 -68l140 29q5 -18 11 -32t18 -28.5t31.5 -22.5t46.5 -8q31 0 53.5 14t32.5 35t14.5 39.5t4.5 34.5v62q-24 -24 -62 -39.5t-74 -15.5q-58 0 -102.5 19t-68.5 46.5t-39.5 62.5t-20 62t-4.5 51t4.5 52t20 65.5t39.5 66t68.5 49t102.5 20.5q39 0 82 -18.5t62 -47.5v54h132
v-493q0 -97 -64.5 -160.5t-180.5 -63.5q-104 0 -167 51t-80 116zM290 105q41 0 76.5 35t35.5 107t-35.5 107t-76.5 35q-35 0 -60.5 -17.5t-37 -44t-16.5 -46.5t-5 -34q0 -20 4.5 -41.5t16 -45.5t37 -39.5t61.5 -15.5zM129 604v101h340v-101h-340z" />
    <glyph glyph-name="uni1E22" unicode="&#x1e22;" horiz-adv-x="767" 
d="M70 0v706h160v-282h307v282h160v-706h-160v299h-307v-299h-160zM313 787v145h140v-145h-140z" />
    <glyph glyph-name="uni1E23" unicode="&#x1e23;" horiz-adv-x="562" 
d="M55 0v706h136v-282q9 23 46.5 46.5t101.5 23.5q99 0 143 -72q30 -48 30 -114v-308h-140v307q0 27 -13 49q-21 33 -63 33q-36 0 -62 -21q-40 -30 -40 -99v-269h-139zM272 563v145h140v-145h-140z" />
    <glyph glyph-name="uni1E24" unicode="&#x1e24;" horiz-adv-x="767" 
d="M70 0v706h160v-282h307v282h160v-706h-160v299h-307v-299h-160zM315 -195v145h140v-145h-140z" />
    <glyph glyph-name="uni1E25" unicode="&#x1e25;" horiz-adv-x="562" 
d="M55 0v706h136v-282q9 23 46.5 46.5t101.5 23.5q99 0 143 -72q30 -48 30 -114v-308h-140v307q0 27 -13 49q-21 33 -63 33q-36 0 -62 -21q-40 -30 -40 -99v-269h-139zM214 -195v145h140v-145h-140z" />
    <glyph glyph-name="uni1E2A" unicode="&#x1e2a;" horiz-adv-x="767" 
d="M70 0v706h160v-282h307v282h160v-706h-160v299h-307v-299h-160zM217 -68v19h100v-19q0 -39 16.5 -63.5t49.5 -24.5q34 0 50.5 24.5t16.5 63.5v19h100v-19q0 -80 -46.5 -128t-120.5 -48q-75 0 -120.5 48t-45.5 128z" />
    <glyph glyph-name="uni1E2B" unicode="&#x1e2b;" horiz-adv-x="562" 
d="M55 0v706h136v-282q9 23 46.5 46.5t101.5 23.5q99 0 143 -72q30 -48 30 -114v-308h-140v307q0 27 -13 49q-21 33 -63 33q-36 0 -62 -21q-40 -30 -40 -99v-269h-139zM117 -68v19h100v-19q0 -39 16.5 -63.5t49.5 -24.5q34 0 50.5 24.5t16.5 63.5v19h100v-19
q0 -80 -46.5 -128t-120.5 -48q-75 0 -120.5 48t-45.5 128z" />
    <glyph glyph-name="uni1E36" unicode="&#x1e36;" horiz-adv-x="593" 
d="M70 0v706h160v-581h351v-125h-511zM257 -195v145h140v-145h-140z" />
    <glyph glyph-name="uni1E37" unicode="&#x1e37;" horiz-adv-x="250" 
d="M55 0v706h140v-706h-140zM56 -195v145h140v-145h-140z" />
    <glyph glyph-name="uni1E38" unicode="&#x1e38;" horiz-adv-x="593" 
d="M70 0v706h160v-581h351v-125h-511zM257 -195v145h140v-145h-140zM155 829v101h340v-101h-340z" />
    <glyph glyph-name="uni1E39" unicode="&#x1e39;" horiz-adv-x="250" 
d="M55 0v706h140v-706h-140zM56 -195v145h140v-145h-140zM-45 827v101h340v-101h-340z" />
    <glyph glyph-name="uni1E3A" unicode="&#x1e3a;" horiz-adv-x="593" 
d="M70 0v706h160v-581h351v-125h-511zM155 -150v101h340v-101h-340z" />
    <glyph glyph-name="uni1E3B" unicode="&#x1e3b;" horiz-adv-x="250" 
d="M55 0v706h140v-706h-140zM-45 -150v101h340v-101h-340z" />
    <glyph glyph-name="uni1E3E" unicode="&#x1e3e;" horiz-adv-x="950" 
d="M70 0v706h232l173 -551l173 551h232v-706h-145v547l-171 -547h-178l-171 547v-547h-145zM422 764l82 185h133l-108 -185h-107z" />
    <glyph glyph-name="uni1E3F" unicode="&#x1e3f;" horiz-adv-x="813" 
d="M55 0v482h136v-58q29 70 130 70q67 0 107 -39q13 -11 27 -32q36 71 131 71q94 0 140 -62q37 -49 37 -124v-308h-140v309q0 15 -4 31t-19 32.5t-39 16.5q-17 0 -34.5 -10t-27.5 -26q-20 -31 -20 -83v-270h-139v309q0 15 -4 31t-18.5 32.5t-38.5 16.5q-39 0 -65 -36
q-19 -29 -19 -84v-269h-140zM350 539l82 185h133l-108 -185h-107z" />
    <glyph glyph-name="uni1E40" unicode="&#x1e40;" horiz-adv-x="950" 
d="M70 0v706h232l173 -551l173 551h232v-706h-145v547l-171 -547h-178l-171 547v-547h-145zM405 787v145h140v-145h-140z" />
    <glyph glyph-name="uni1E41" unicode="&#x1e41;" horiz-adv-x="813" 
d="M55 0v482h136v-58q29 70 130 70q67 0 107 -39q13 -11 27 -32q36 71 131 71q94 0 140 -62q37 -49 37 -124v-308h-140v309q0 15 -4 31t-19 32.5t-39 16.5q-17 0 -34.5 -10t-27.5 -26q-20 -31 -20 -83v-270h-139v309q0 15 -4 31t-18.5 32.5t-38.5 16.5q-39 0 -65 -36
q-19 -29 -19 -84v-269h-140zM338 562v145h140v-145h-140z" />
    <glyph glyph-name="uni1E42" unicode="&#x1e42;" horiz-adv-x="950" 
d="M70 0v706h232l173 -551l173 551h232v-706h-145v547l-171 -547h-178l-171 547v-547h-145zM407 -195v145h140v-145h-140z" />
    <glyph glyph-name="uni1E43" unicode="&#x1e43;" horiz-adv-x="813" 
d="M55 0v482h136v-58q29 70 130 70q67 0 107 -39q13 -11 27 -32q36 71 131 71q94 0 140 -62q37 -49 37 -124v-308h-140v309q0 15 -4 31t-19 32.5t-39 16.5q-17 0 -34.5 -10t-27.5 -26q-20 -31 -20 -83v-270h-139v309q0 15 -4 31t-18.5 32.5t-38.5 16.5q-39 0 -65 -36
q-19 -29 -19 -84v-269h-140zM340 -195v145h140v-145h-140z" />
    <glyph glyph-name="uni1E44" unicode="&#x1e44;" horiz-adv-x="801" 
d="M70 0v706h211l310 -552v552h140v-706h-212l-309 549v-549h-140zM330 787v145h140v-145h-140z" />
    <glyph glyph-name="uni1E45" unicode="&#x1e45;" horiz-adv-x="558" 
d="M55 0v482h136v-58q9 23 45.5 46.5t99.5 23.5q98 0 142 -72q30 -50 30 -114v-308h-140v307q0 27 -13 49q-21 33 -61 33q-35 0 -61 -21q-38 -28 -38 -99v-269h-140zM209 562v145h140v-145h-140z" />
    <glyph glyph-name="uni1E46" unicode="&#x1e46;" horiz-adv-x="801" 
d="M70 0v706h211l310 -552v552h140v-706h-212l-309 549v-549h-140zM332 -195v145h140v-145h-140z" />
    <glyph glyph-name="uni1E47" unicode="&#x1e47;" horiz-adv-x="558" 
d="M55 0v482h136v-58q9 23 45.5 46.5t99.5 23.5q98 0 142 -72q30 -50 30 -114v-308h-140v307q0 27 -13 49q-21 33 -61 33q-35 0 -61 -21q-38 -28 -38 -99v-269h-140zM212 -195v145h140v-145h-140z" />
    <glyph glyph-name="uni1E48" unicode="&#x1e48;" horiz-adv-x="801" 
d="M70 0v706h211l310 -552v552h140v-706h-212l-309 549v-549h-140zM230 -150v101h340v-101h-340z" />
    <glyph glyph-name="uni1E49" unicode="&#x1e49;" horiz-adv-x="558" 
d="M55 0v482h136v-58q9 23 45.5 46.5t99.5 23.5q98 0 142 -72q30 -50 30 -114v-308h-140v307q0 27 -13 49q-21 33 -61 33q-35 0 -61 -21q-38 -28 -38 -99v-269h-140zM111 -150v101h340v-101h-340z" />
    <glyph glyph-name="uni1E56" unicode="&#x1e56;" horiz-adv-x="680" 
d="M70 0v706h363q36 0 71 -8.5t72.5 -29.5t60.5 -65t23 -106t-23 -106t-60.5 -65t-72.5 -29.5t-71 -8.5h-203v-288h-160zM230 413h176q46 0 71.5 18.5t25.5 65.5t-25.5 65.5t-71.5 18.5h-176v-168zM282 787v145h140v-145h-140z" />
    <glyph glyph-name="uni1E57" unicode="&#x1e57;" horiz-adv-x="597" 
d="M55 -223v705h132v-54q19 29 62 47.5t82 18.5q57 0 101.5 -20t69 -49t40 -66t20 -65t4.5 -52t-4.5 -52.5t-20 -65.5t-40 -66t-69 -49.5t-102.5 -20.5q-81 0 -135 56v-267h-140zM304 93q36 0 62.5 17.5t38 43.5t16.5 47.5t5 39.5t-5 39.5t-16.5 47.5t-37 43.5t-60.5 17.5
q-42 0 -77.5 -35t-35.5 -112q0 -78 35.5 -113.5t74.5 -35.5zM259 562v145h140v-145h-140z" />
    <glyph glyph-name="uni1E5A" unicode="&#x1e5a;" horiz-adv-x="713" 
d="M70 0v706h337q101 0 171 -47.5t70 -137.5q0 -77 -35.5 -117t-74.5 -48q54 -15 82 -45.5t28 -89.5v-110q0 -69 41 -111h-170q-27 29 -27 92v98q0 44 -19.5 70t-58.5 26h-189v-286h-155zM225 411h167q101 0 101 90q0 80 -100 80h-168v-170zM284 -195v145h140v-145h-140z
" />
    <glyph glyph-name="uni1E5B" unicode="&#x1e5b;" horiz-adv-x="367" 
d="M55 0v482h136v-59q40 71 130 71q23 0 34 -1v-123q-7 2 -40 2q-68 0 -99 -44q-21 -28 -21 -77v-251h-140zM56 -195v145h140v-145h-140z" />
    <glyph glyph-name="uni1E5C" unicode="&#x1e5c;" horiz-adv-x="713" 
d="M70 0v706h337q101 0 171 -47.5t70 -137.5q0 -77 -35.5 -117t-74.5 -48q54 -15 82 -45.5t28 -89.5v-110q0 -69 41 -111h-170q-27 29 -27 92v98q0 44 -19.5 70t-58.5 26h-189v-286h-155zM225 411h167q101 0 101 90q0 80 -100 80h-168v-170zM284 -195v145h140v-145h-140z
M162 829v101h340v-101h-340z" />
    <glyph glyph-name="uni1E5D" unicode="&#x1e5d;" horiz-adv-x="367" 
d="M55 0v482h136v-59q40 71 130 71q23 0 34 -1v-123q-7 2 -40 2q-68 0 -99 -44q-21 -28 -21 -77v-251h-140zM56 -195v145h140v-145h-140zM44 604v101h340v-101h-340z" />
    <glyph glyph-name="uni1E5E" unicode="&#x1e5e;" horiz-adv-x="713" 
d="M70 0v706h337q101 0 171 -47.5t70 -137.5q0 -77 -35.5 -117t-74.5 -48q54 -15 82 -45.5t28 -89.5v-110q0 -69 41 -111h-170q-27 29 -27 92v98q0 44 -19.5 70t-58.5 26h-189v-286h-155zM225 411h167q101 0 101 90q0 80 -100 80h-168v-170zM182 -150v101h340v-101h-340z
" />
    <glyph glyph-name="uni1E5F" unicode="&#x1e5f;" horiz-adv-x="367" 
d="M55 0v482h136v-59q40 71 130 71q23 0 34 -1v-123q-7 2 -40 2q-68 0 -99 -44q-21 -28 -21 -77v-251h-140zM-45 -150v101h340v-101h-340z" />
    <glyph glyph-name="uni1E60" unicode="&#x1e60;" horiz-adv-x="684" 
d="M23 223l159 35q0 -74 44.5 -112t121.5 -38q63 0 103 28.5t40 65.5q0 36 -25 53.5t-79 30.5l-111 23q-33 7 -48.5 11t-44.5 13t-44 17.5t-35.5 24.5t-30.5 34.5t-17.5 45.5t-7.5 60q0 96 86 152t205 56q75 0 131 -18.5t88.5 -51t50 -67t25.5 -75.5l-153 -34q-8 59 -45 90
t-97 31t-97 -21t-37 -62q0 -18 8 -31t23.5 -21t27 -11.5t30.5 -7.5l140 -30q31 -7 51.5 -12.5t55.5 -21.5t56.5 -35t38.5 -52.5t17 -75.5q0 -101 -82.5 -167.5t-227.5 -66.5q-264 0 -320 240zM269 787v145h140v-145h-140z" />
    <glyph glyph-name="uni1E61" unicode="&#x1e61;" horiz-adv-x="512" 
d="M25 146l134 30q9 -45 30.5 -66.5t62.5 -21.5q39 0 64 14t25 40q0 25 -17.5 34.5t-68.5 18.5l-26 4q-92 14 -141 47t-49 105q0 21 11.5 43.5t35 46t69.5 38.5t107 15q70 0 127.5 -37.5t76.5 -104.5l-121 -31q-12 40 -31 56.5t-60 16.5q-35 0 -58 -10.5t-23 -31.5
q0 -7 2 -13t7 -11t9.5 -8.5t12.5 -6t13.5 -4.5t15 -4t14.5 -2.5t14.5 -2t12.5 -1.5l26 -4q28 -5 49.5 -10t48 -16t43.5 -25.5t29 -37.5t12 -53q0 -79 -64 -122t-166 -43q-88 0 -149.5 42.5t-77.5 115.5zM181 562v145h140v-145h-140z" />
    <glyph glyph-name="uni1E62" unicode="&#x1e62;" horiz-adv-x="684" 
d="M23 223l159 35q0 -74 44.5 -112t121.5 -38q63 0 103 28.5t40 65.5q0 36 -25 53.5t-79 30.5l-111 23q-33 7 -48.5 11t-44.5 13t-44 17.5t-35.5 24.5t-30.5 34.5t-17.5 45.5t-7.5 60q0 96 86 152t205 56q75 0 131 -18.5t88.5 -51t50 -67t25.5 -75.5l-153 -34q-8 59 -45 90
t-97 31t-97 -21t-37 -62q0 -18 8 -31t23.5 -21t27 -11.5t30.5 -7.5l140 -30q31 -7 51.5 -12.5t55.5 -21.5t56.5 -35t38.5 -52.5t17 -75.5q0 -101 -82.5 -167.5t-227.5 -66.5q-264 0 -320 240zM275 -195v145h140v-145h-140z" />
    <glyph glyph-name="uni1E63" unicode="&#x1e63;" horiz-adv-x="512" 
d="M25 146l134 30q9 -45 30.5 -66.5t62.5 -21.5q39 0 64 14t25 40q0 25 -17.5 34.5t-68.5 18.5l-26 4q-92 14 -141 47t-49 105q0 21 11.5 43.5t35 46t69.5 38.5t107 15q70 0 127.5 -37.5t76.5 -104.5l-121 -31q-12 40 -31 56.5t-60 16.5q-35 0 -58 -10.5t-23 -31.5
q0 -7 2 -13t7 -11t9.5 -8.5t12.5 -6t13.5 -4.5t15 -4t14.5 -2.5t14.5 -2t12.5 -1.5l26 -4q28 -5 49.5 -10t48 -16t43.5 -25.5t29 -37.5t12 -53q0 -79 -64 -122t-166 -43q-88 0 -149.5 42.5t-77.5 115.5zM177 -195v145h140v-145h-140z" />
    <glyph glyph-name="uni1E6A" unicode="&#x1e6a;" horiz-adv-x="616" 
d="M228 0v581h-218v125h596v-125h-218v-581h-160zM238 787v145h140v-145h-140z" />
    <glyph glyph-name="uni1E6B" unicode="&#x1e6b;" horiz-adv-x="371" 
d="M105 105v272h-93v105h93v159h140v-159h94v-105h-94v-212q0 -59 47 -59q34 0 47 3v-111q-38 -6 -76 -6q-158 0 -158 113zM105 785v145h140v-145h-140z" />
    <glyph glyph-name="uni1E6C" unicode="&#x1e6c;" horiz-adv-x="616" 
d="M228 0v581h-218v125h596v-125h-218v-581h-160zM240 -195v145h140v-145h-140z" />
    <glyph glyph-name="uni1E6D" unicode="&#x1e6d;" horiz-adv-x="371" 
d="M105 105v272h-93v105h93v159h140v-159h94v-105h-94v-212q0 -59 47 -59q34 0 47 3v-111q-38 -6 -76 -6q-158 0 -158 113zM124 -195v145h140v-145h-140z" />
    <glyph glyph-name="uni1E6E" unicode="&#x1e6e;" horiz-adv-x="616" 
d="M228 0v581h-218v125h596v-125h-218v-581h-160zM138 -150v101h340v-101h-340z" />
    <glyph glyph-name="uni1E6F" unicode="&#x1e6f;" horiz-adv-x="371" 
d="M105 105v272h-93v105h93v159h140v-159h94v-105h-94v-212q0 -59 47 -59q34 0 47 3v-111q-38 -6 -76 -6q-158 0 -158 113zM23 -150v101h340v-101h-340z" />
    <glyph glyph-name="uni1E7C" unicode="&#x1e7c;" horiz-adv-x="726" 
d="M280 0l-283 706h157l209 -536l209 536h157l-283 -706h-166zM193 800v107q16 16 46 27.5t54 11.5q28 0 74 -14q6 -2 20.5 -8t27 -9t26.5 -3q56 0 92 45v-107q-16 -16 -46 -27.5t-54 -11.5q-28 0 -74 14q-6 2 -20.5 8t-27 9t-26.5 3q-56 0 -92 -45z" />
    <glyph glyph-name="uni1E7D" unicode="&#x1e7d;" horiz-adv-x="530" 
d="M183 0l-178 482h143l119 -333l119 333h139l-178 -482h-164zM97 575v107q16 16 46 27.5t54 11.5q28 0 74 -14q6 -2 20.5 -8t27 -9t26.5 -3q56 0 92 45v-107q-16 -16 -46 -27.5t-54 -11.5q-28 0 -74 14q-6 2 -20.5 8t-27 9t-26.5 3q-56 0 -92 -45z" />
    <glyph glyph-name="Wgrave" unicode="&#x1e80;" horiz-adv-x="1050" 
d="M205 0l-201 706h154l142 -546l131 546h188l131 -546l142 546h154l-201 -706h-194l-126 564l-126 -564h-194zM476 764l-108 185h133l82 -185h-107z" />
    <glyph glyph-name="wgrave" unicode="&#x1e81;" horiz-adv-x="794" 
d="M156 0l-151 482h138l89 -315l90 315h150l90 -316l89 316h138l-151 -482h-153l-88 311l-88 -311h-153zM353 540l-108 185h133l82 -185h-107z" />
    <glyph glyph-name="Wacute" unicode="&#x1e82;" horiz-adv-x="1050" 
d="M205 0l-201 706h154l142 -546l131 546h188l131 -546l142 546h154l-201 -706h-194l-126 564l-126 -564h-194zM472 764l82 185h133l-108 -185h-107z" />
    <glyph glyph-name="wacute" unicode="&#x1e83;" horiz-adv-x="794" 
d="M156 0l-151 482h138l89 -315l90 315h150l90 -316l89 316h138l-151 -482h-153l-88 311l-88 -311h-153zM341 540l82 185h133l-108 -185h-107z" />
    <glyph glyph-name="Wdieresis" unicode="&#x1e84;" horiz-adv-x="1050" 
d="M205 0l-201 706h154l142 -546l131 546h188l131 -546l142 546h154l-201 -706h-194l-126 564l-126 -564h-194zM358 787v145h145v-145h-145zM547 787v145h145v-145h-145z" />
    <glyph glyph-name="wdieresis" unicode="&#x1e85;" horiz-adv-x="794" 
d="M156 0l-151 482h138l89 -315l90 315h150l90 -316l89 316h138l-151 -482h-153l-88 311l-88 -311h-153zM232 563v145h145v-145h-145zM421 563v145h145v-145h-145z" />
    <glyph glyph-name="uni1E8A" unicode="&#x1e8a;" horiz-adv-x="718" 
d="M-21 0l290 373l-252 333h183l167 -233l161 233h179l-257 -332l286 -374h-186l-195 271l-192 -271h-184zM292 787v145h140v-145h-140z" />
    <glyph glyph-name="uni1E8B" unicode="&#x1e8b;" horiz-adv-x="511" 
d="M-3 0l179 251l-164 231h157l92 -136l89 136h156l-170 -232l174 -250h-156l-96 151l-103 -151h-158zM191 563v145h140v-145h-140z" />
    <glyph glyph-name="uni1E92" unicode="&#x1e92;" horiz-adv-x="658" 
d="M31 0v130l378 446h-362v130h558v-130l-391 -446h417v-130h-600zM263 -195v145h140v-145h-140z" />
    <glyph glyph-name="uni1E93" unicode="&#x1e93;" horiz-adv-x="493" 
d="M25 0v106l253 268h-233v108h411v-100l-254 -273h261v-109h-438zM175 -195v145h140v-145h-140z" />
    <glyph glyph-name="uni1E97" unicode="&#x1e97;" horiz-adv-x="371" 
d="M105 105v272h-93v105h93v159h140v-159h94v-105h-94v-212q0 -59 47 -59q34 0 47 3v-111q-38 -6 -76 -6q-158 0 -158 113zM8 785v145h145v-145h-145zM197 785v145h145v-145h-145z" />
    <glyph glyph-name="uni1E9E" unicode="&#x1e9e;" horiz-adv-x="740" 
d="M411 -17q-83 0 -146 17v130q62 -21 138 -21q73 0 109.5 31t36.5 77q0 41 -32.5 69.5t-96.5 28.5h-89v101l135 164h-76q-73 0 -119.5 -38.5t-46.5 -112.5v-429h-161v436q0 130 92 200t243 70h232v-124l-132 -158h11q91 -2 145.5 -61.5t54.5 -145.5q0 -106 -79.5 -170
t-218.5 -64z" />
    <glyph glyph-name="uni1EA0" unicode="&#x1ea0;" horiz-adv-x="744" 
d="M-3 0l285 706h180l285 -706h-165l-71 190h-279l-70 -190h-165zM277 310h190l-95 255zM304 -195v145h140v-145h-140z" />
    <glyph glyph-name="uni1EA1" unicode="&#x1ea1;" horiz-adv-x="539" 
d="M494 0h-139q0 4 -4 29l-4 25q-42 -66 -144 -66q-77 0 -125 44t-48 103q0 42 14.5 71.5t44 46.5t60.5 25.5t78 15.5q1 0 36 5t37 5q33 5 44 13.5t11 24.5q0 26 -22.5 39t-56.5 13q-94 0 -95 -85l-134 31q12 81 82 120q61 34 147 34q92 0 151.5 -43t59.5 -132v-181
q0 -28 0.5 -52t1.5 -39t2.5 -25t2 -15.5t0.5 -6.5zM170 146q0 -22 19.5 -40t46.5 -18q23 0 46 7t44 30.5t21 60.5v36l-7 -1q-4 0 -14 -1.5t-14 -2.5q-2 0 -8 -1t-16.5 -3t-22.5 -4q-22 -4 -35.5 -7.5t-29 -10t-23 -18t-7.5 -27.5zM197 -195v145h140v-145h-140z" />
    <glyph glyph-name="uni1EB8" unicode="&#x1eb8;" horiz-adv-x="646" 
d="M70 0v706h524v-125h-364v-157h350v-125h-350v-174h371v-125h-531zM264 -195v145h140v-145h-140z" />
    <glyph glyph-name="uni1EB9" unicode="&#x1eb9;" horiz-adv-x="544" 
d="M375 171l125 -32q-13 -57 -74 -104t-142 -47q-123 0 -188 74t-65 178q0 105 65 179.5t177 74.5q101 0 170.5 -69.5t69.5 -177.5q0 -29 -2 -47h-340q2 -53 30 -82.5t72 -29.5q81 0 102 83zM171 301h204q0 39 -26.5 66t-75.5 27q-47 0 -74.5 -25.5t-27.5 -67.5zM195 -195
v145h140v-145h-140z" />
    <glyph glyph-name="uni1EBC" unicode="&#x1ebc;" horiz-adv-x="646" 
d="M70 0v706h524v-125h-364v-157h350v-125h-350v-174h371v-125h-531zM162 800v107q16 16 46 27.5t54 11.5q28 0 74 -14q6 -2 20.5 -8t27 -9t26.5 -3q56 0 92 45v-107q-16 -16 -46 -27.5t-54 -11.5q-28 0 -74 14q-6 2 -20.5 8t-27 9t-26.5 3q-56 0 -92 -45z" />
    <glyph glyph-name="uni1EBD" unicode="&#x1ebd;" horiz-adv-x="544" 
d="M375 171l125 -32q-13 -57 -74 -104t-142 -47q-123 0 -188 74t-65 178q0 105 65 179.5t177 74.5q101 0 170.5 -69.5t69.5 -177.5q0 -29 -2 -47h-340q2 -53 30 -82.5t72 -29.5q81 0 102 83zM171 301h204q0 39 -26.5 66t-75.5 27q-47 0 -74.5 -25.5t-27.5 -67.5zM103 575
v107q16 16 46 27.5t54 11.5q28 0 74 -14q6 -2 20.5 -8t27 -9t26.5 -3q56 0 92 45v-107q-16 -16 -46 -27.5t-54 -11.5q-28 0 -74 14q-6 2 -20.5 8t-27 9t-26.5 3q-56 0 -92 -45z" />
    <glyph glyph-name="uni1ECA" unicode="&#x1eca;" horiz-adv-x="300" 
d="M70 0v706h160v-706h-160zM82 -195v145h140v-145h-140z" />
    <glyph glyph-name="uni1ECB" unicode="&#x1ecb;" horiz-adv-x="250" 
d="M55 0v482h140v-482h-140zM55 562v144h140v-144h-140zM56 -195v145h140v-145h-140z" />
    <glyph glyph-name="uni1ECC" unicode="&#x1ecc;" horiz-adv-x="809" 
d="M406 108q101 0 154.5 71.5t53.5 171.5q0 64 -21.5 118.5t-70 91.5t-116.5 37q-103 0 -157 -73t-54 -174t54 -172t157 -71zM406 -17q-94 0 -167 31t-116.5 84t-65.5 117t-22 136q0 71 22 135.5t65.5 118.5t117 86t166.5 32q92 0 164.5 -32t116 -85.5t65.5 -118.5t22 -136
q0 -72 -22 -136t-65.5 -117t-116 -84t-164.5 -31zM338 -195v145h140v-145h-140z" />
    <glyph glyph-name="uni1ECD" unicode="&#x1ecd;" horiz-adv-x="563" 
d="M282 93q53 0 82 45t29 102t-29 103t-82 46t-82.5 -46t-29.5 -103q0 -56 29.5 -101.5t82.5 -45.5zM282 -12q-116 0 -184 76t-68 176t68.5 177t183.5 77t183 -77t68 -177t-68 -176t-183 -76zM213 -195v145h140v-145h-140z" />
    <glyph glyph-name="uni1EE4" unicode="&#x1ee4;" horiz-adv-x="746" 
d="M63 261v445h160v-445q0 -77 41.5 -115t108.5 -38t108.5 38t41.5 115v445h160v-445q0 -137 -87 -207.5t-223 -70.5t-223 70.5t-87 207.5zM305 -195v145h140v-145h-140z" />
    <glyph glyph-name="uni1EE5" unicode="&#x1ee5;" horiz-adv-x="558" 
d="M50 174v308h140v-307q0 -27 13 -49q21 -33 61 -33q35 0 61 21q38 28 38 99v269h140v-482h-136v58q-9 -23 -45.5 -46.5t-99.5 -23.5q-98 0 -142 72q-30 50 -30 114zM206 -195v145h140v-145h-140z" />
    <glyph glyph-name="Ygrave" unicode="&#x1ef2;" horiz-adv-x="735" 
d="M291 0v320l-294 386h185l187 -270l186 270h181l-290 -386v-320h-155zM317 764l-108 185h133l82 -185h-107z" />
    <glyph glyph-name="ygrave" unicode="&#x1ef3;" horiz-adv-x="518" 
d="M39 -224v112q34 -6 42 -6q67 0 80 37l34 88l-190 475h148l115 -321l107 321h141l-235 -617q-37 -96 -161 -96q-55 0 -81 7zM216 540l-108 185h133l82 -185h-107z" />
    <glyph glyph-name="uni1EF8" unicode="&#x1ef8;" horiz-adv-x="735" 
d="M291 0v320l-294 386h185l187 -270l186 270h181l-290 -386v-320h-155zM196 800v107q16 16 46 27.5t54 11.5q28 0 74 -14q6 -2 20.5 -8t27 -9t26.5 -3q56 0 92 45v-107q-16 -16 -46 -27.5t-54 -11.5q-28 0 -74 14q-6 2 -20.5 8t-27 9t-26.5 3q-56 0 -92 -45z" />
    <glyph glyph-name="uni1EF9" unicode="&#x1ef9;" horiz-adv-x="518" 
d="M39 -224v112q34 -6 42 -6q67 0 80 37l34 88l-190 475h148l115 -321l107 321h141l-235 -617q-37 -96 -161 -96q-55 0 -81 7zM97 575v107q16 16 46 27.5t54 11.5q28 0 74 -14q6 -2 20.5 -8t27 -9t26.5 -3q56 0 92 45v-107q-16 -16 -46 -27.5t-54 -11.5q-28 0 -74 14
q-6 2 -20.5 8t-27 9t-26.5 3q-56 0 -92 -45z" />
    <glyph glyph-name="uni2000" unicode="&#x2000;" horiz-adv-x="392" 
 />
    <glyph glyph-name="uni2001" unicode="&#x2001;" horiz-adv-x="784" 
 />
    <glyph glyph-name="uni2002" unicode="&#x2002;" horiz-adv-x="392" 
 />
    <glyph glyph-name="uni2003" unicode="&#x2003;" horiz-adv-x="784" 
 />
    <glyph glyph-name="uni2004" unicode="&#x2004;" horiz-adv-x="261" 
 />
    <glyph glyph-name="uni2005" unicode="&#x2005;" horiz-adv-x="196" 
 />
    <glyph glyph-name="uni2006" unicode="&#x2006;" horiz-adv-x="131" 
 />
    <glyph glyph-name="uni2007" unicode="&#x2007;" 
 />
    <glyph glyph-name="uni2008" unicode="&#x2008;" horiz-adv-x="268" 
 />
    <glyph glyph-name="uni2009" unicode="&#x2009;" horiz-adv-x="98" 
 />
    <glyph glyph-name="uni200A" unicode="&#x200a;" horiz-adv-x="33" 
 />
    <glyph glyph-name="uni200B" unicode="&#x200b;" horiz-adv-x="0" 
 />
    <glyph glyph-name="figuredash" unicode="&#x2012;" 
d="M95 257v123h453v-123h-453z" />
    <glyph glyph-name="endash" unicode="&#x2013;" horiz-adv-x="565" 
d="M56 263v123h453v-123h-453z" />
    <glyph glyph-name="emdash" unicode="&#x2014;" horiz-adv-x="820" 
d="M56 263v123h708v-123h-708z" />
    <glyph glyph-name="uni2015" unicode="&#x2015;" horiz-adv-x="820" 
d="M56 263v123h708v-123h-708z" />
    <glyph glyph-name="quoteleft" unicode="&#x2018;" horiz-adv-x="277" 
d="M27 380l122 326h111l-90 -326h-143z" />
    <glyph glyph-name="quoteright" unicode="&#x2019;" horiz-adv-x="272" 
d="M32 380l90 326h143l-122 -326h-111z" />
    <glyph glyph-name="quotesinglbase" unicode="&#x201a;" horiz-adv-x="266" 
d="M-11 -168l90 326h143l-122 -326h-111z" />
    <glyph glyph-name="quotereversed" unicode="&#x201b;" horiz-adv-x="272" 
d="M150 710l90 -326h-111l-122 326h143z" />
    <glyph glyph-name="quotedblleft" unicode="&#x201c;" horiz-adv-x="469" 
d="M27 380l122 326h111l-90 -326h-143zM219 380l122 326h111l-90 -326h-143z" />
    <glyph glyph-name="quotedblright" unicode="&#x201d;" horiz-adv-x="464" 
d="M32 380l90 326h143l-122 -326h-111zM224 380l90 326h143l-122 -326h-111z" />
    <glyph glyph-name="quotedblbase" unicode="&#x201e;" horiz-adv-x="458" 
d="M-11 -168l90 326h143l-122 -326h-111zM181 -168l90 326h143l-122 -326h-111z" />
    <glyph glyph-name="uni201F" unicode="&#x201f;" horiz-adv-x="464" 
d="M343 706l90 -326h-111l-122 326h143zM151 706l90 -326h-111l-122 326h143z" />
    <glyph glyph-name="dagger" unicode="&#x2020;" horiz-adv-x="548" 
d="M207 -122v467h-184v127h184v234h135v-234h184v-127h-184v-467h-135z" />
    <glyph glyph-name="daggerdbl" unicode="&#x2021;" horiz-adv-x="548" 
d="M208 -121v182h-159v122h159v233h-158v121h159v169h129v-169h161v-122h-161v-232h160v-123h-160v-181h-130z" />
    <glyph glyph-name="bullet" unicode="&#x2022;" horiz-adv-x="432" 
d="M216 199q-66 0 -113 47t-47 113t47 113t113 47t113 -47t47 -113t-47 -113t-113 -47z" />
    <glyph glyph-name="ellipsis" unicode="&#x2026;" horiz-adv-x="824" 
d="M55 0v158h158v-158h-158zM333 0v158h158v-158h-158zM611 0v158h158v-158h-158z" />
    <glyph glyph-name="perthousand" unicode="&#x2030;" horiz-adv-x="1240" 
d="M1031 64q34 0 53.5 37t19.5 86t-19.5 86t-53.5 37t-53.5 -37t-19.5 -86t19.5 -86t53.5 -37zM1031 -9q-79 0 -123.5 59.5t-44.5 136.5q0 78 44.5 137t123.5 59t123.5 -59t44.5 -137q0 -77 -44.5 -136.5t-123.5 -59.5zM210 396q34 0 53.5 37t19.5 86t-19.5 86t-53.5 37
t-53.5 -37t-19.5 -86t19.5 -86t53.5 -37zM210 323q-79 0 -123.5 59.5t-44.5 136.5q0 78 44.5 137t123.5 59t123.5 -59t44.5 -137q0 -77 -44.5 -136.5t-123.5 -59.5zM123 0l504 706h103l-503 -706h-104zM639 64q34 0 53.5 37t19.5 86t-19.5 86t-53.5 37t-53.5 -37t-19.5 -86
t19.5 -86t53.5 -37zM639 -9q-79 0 -123.5 59.5t-44.5 136.5q0 78 44.5 137t123.5 59t123.5 -59t44.5 -137q0 -77 -44.5 -136.5t-123.5 -59.5z" />
    <glyph glyph-name="uni2032" unicode="&#x2032;" horiz-adv-x="214" 
d="M59 380v326h96v-326h-96z" />
    <glyph glyph-name="uni2033" unicode="&#x2033;" horiz-adv-x="392" 
d="M59 380v326h97v-326h-97zM237 380v326h96v-326h-96z" />
    <glyph glyph-name="guilsinglleft" unicode="&#x2039;" horiz-adv-x="273" 
d="M40 261v112l174 109v-112l-103 -53l103 -53v-112z" />
    <glyph glyph-name="guilsinglright" unicode="&#x203a;" horiz-adv-x="273" 
d="M59 152v112l103 53l-103 53v112l174 -109v-112z" />
    <glyph glyph-name="fraction" unicode="&#x2044;" horiz-adv-x="130" 
d="M-238 0l504 706h103l-503 -706h-104z" />
    <glyph glyph-name="uni2070" unicode="&#x2070;" horiz-adv-x="360" 
d="M180 566q34 0 53.5 37t19.5 86t-19.5 86t-53.5 37t-53.5 -37t-19.5 -86t19.5 -86t53.5 -37zM180 493q-79 0 -123.5 59.5t-44.5 136.5q0 78 44.5 137t123.5 59t123.5 -59t44.5 -137q0 -77 -44.5 -136.5t-123.5 -59.5z" />
    <glyph glyph-name="uni2074" unicode="&#x2074;" horiz-adv-x="360" 
d="M15 587v67l151 222h107v-215h71v-74h-71v-85h-88v85h-170zM115 661h70v114z" />
    <glyph glyph-name="uni2075" unicode="&#x2075;" horiz-adv-x="360" 
d="M36 601l84 21q7 -56 62 -56q22 0 37.5 17.5t15.5 42.5q0 26 -15.5 47t-46.5 21q-18 0 -31.5 -12.5t-16.5 -31.5l-87 19l28 207h243v-73h-172l-8 -63q20 27 67 27q61 0 94 -43t33 -98q0 -54 -41 -93.5t-100 -39.5q-64 0 -100.5 31t-45.5 77z" />
    <glyph glyph-name="uni2076" unicode="&#x2076;" horiz-adv-x="360" 
d="M324 787l-89 -19q-14 44 -47 44q-53 0 -65 -80q6 10 26.5 19.5t43.5 9.5q65 0 99.5 -41.5t34.5 -99.5q0 -57 -43.5 -92t-94.5 -35q-80 0 -118.5 53.5t-38.5 134.5q0 88 39.5 146t122.5 58q43 0 79 -24t51 -74zM183 566q23 0 39.5 16t16.5 45q0 30 -16.5 45.5t-39.5 15.5
q-22 0 -38.5 -14t-16.5 -47q0 -30 16 -45.5t39 -15.5z" />
    <glyph glyph-name="uni2077" unicode="&#x2077;" horiz-adv-x="360" 
d="M163 502h-103q23 61 90 175t79 126h-193v73h294v-69q-23 -31 -83 -138t-84 -167z" />
    <glyph glyph-name="uni2078" unicode="&#x2078;" horiz-adv-x="360" 
d="M103 702q-60 22 -60 82q0 35 36 68t101 33t100.5 -33t35.5 -68q0 -59 -59 -82q41 -14 57 -35t16 -57q0 -49 -42 -83t-108 -34t-108 33.5t-42 83.5q0 36 16 57t57 35zM118 616q0 -50 62 -50q28 0 45 13t17 37q0 47 -62 47t-62 -47zM131 774q0 -37 49 -37q48 0 48 37
q0 38 -48 38q-25 0 -37 -11t-12 -27z" />
    <glyph glyph-name="uni2079" unicode="&#x2079;" horiz-adv-x="360" 
d="M30 597l92 21q7 -52 49 -52q29 0 46 26q15 22 19 63q-4 -10 -24.5 -19t-43.5 -9q-65 0 -99.5 39t-34.5 95q0 55 42 89.5t96 34.5q78 0 117 -54.5t39 -132.5q0 -89 -37 -142q-40 -63 -126 -63q-43 0 -83.5 28t-51.5 76zM175 699q19 0 36 14t17 43q0 26 -17 41t-36 15
t-35.5 -15.5t-16.5 -40.5t16.5 -41t35.5 -16z" />
    <glyph glyph-name="uni2080" unicode="&#x2080;" horiz-adv-x="360" 
d="M180 -185q34 0 53.5 37t19.5 86t-19.5 86t-53.5 37t-53.5 -37t-19.5 -86t19.5 -86t53.5 -37zM180 -258q-79 0 -123.5 59.5t-44.5 136.5q0 78 44.5 137t123.5 59t123.5 -59t44.5 -137q0 -77 -44.5 -136.5t-123.5 -59.5z" />
    <glyph glyph-name="uni2081" unicode="&#x2081;" horiz-adv-x="360" 
d="M153 -249v250h-74v74h39q24 0 32.5 10.5t8.5 39.5h89v-374h-95z" />
    <glyph glyph-name="uni2082" unicode="&#x2082;" horiz-adv-x="360" 
d="M30 -249v76q26 12 69.5 38.5t74.5 57.5q52 50 52 95q0 19 -12 31t-29 12q-26 0 -40 -17.5t-14 -61.5l-95 22q0 68 44.5 99t104.5 31q56 0 96 -32t40 -84q0 -32 -15 -62.5t-27.5 -44.5t-38.5 -40q-7 -7 -35 -23.5t-44 -22.5h166v-74h-297z" />
    <glyph glyph-name="uni2083" unicode="&#x2083;" horiz-adv-x="360" 
d="M28 -130l93 22q0 -34 14.5 -55.5t42.5 -21.5t41 14t13 34q0 51 -67 51h-40v65h37q29 0 45 12t16 29q0 18 -11.5 29.5t-32.5 11.5q-51 0 -53 -64l-94 21q2 47 41.5 81.5t105.5 34.5q59 0 99 -29.5t40 -86.5q0 -9 -4 -22t-20.5 -29t-42.5 -20q75 -12 75 -95
q0 -44 -40.5 -77t-107.5 -33q-59 0 -101.5 30t-48.5 98z" />
    <glyph glyph-name="uni2084" unicode="&#x2084;" horiz-adv-x="360" 
d="M15 -164v67l151 222h107v-215h71v-74h-71v-85h-88v85h-170zM115 -90h70v114z" />
    <glyph glyph-name="uni2085" unicode="&#x2085;" horiz-adv-x="360" 
d="M36 -150l84 21q7 -56 62 -56q22 0 37.5 17.5t15.5 42.5q0 26 -15.5 47t-46.5 21q-18 0 -31.5 -12.5t-16.5 -31.5l-87 19l28 207h243v-73h-172l-8 -63q20 27 67 27q61 0 94 -43t33 -98q0 -54 -41 -93.5t-100 -39.5q-64 0 -100.5 31t-45.5 77z" />
    <glyph glyph-name="uni2086" unicode="&#x2086;" horiz-adv-x="360" 
d="M324 36l-89 -19q-14 44 -47 44q-53 0 -65 -80q6 10 26.5 19.5t43.5 9.5q65 0 99.5 -41.5t34.5 -99.5q0 -57 -43.5 -92t-94.5 -35q-80 0 -118.5 53.5t-38.5 134.5q0 88 39.5 146t122.5 58q43 0 79 -24t51 -74zM183 -185q23 0 39.5 16t16.5 45q0 30 -16.5 45.5t-39.5 15.5
q-22 0 -38.5 -14t-16.5 -47q0 -30 16 -45.5t39 -15.5z" />
    <glyph glyph-name="uni2087" unicode="&#x2087;" horiz-adv-x="360" 
d="M163 -249h-103q23 61 90 175t79 126h-193v73h294v-69q-23 -31 -83 -138t-84 -167z" />
    <glyph glyph-name="uni2088" unicode="&#x2088;" horiz-adv-x="360" 
d="M103 -49q-60 23 -60 82q0 35 36 68t101 33t100.5 -33t35.5 -68q0 -59 -59 -82q41 -14 57 -35t16 -57q0 -49 -42 -83t-108 -34t-108 33.5t-42 83.5q0 36 16 57t57 35zM118 -135q0 -50 62 -50q28 0 45 13t17 37q0 47 -62 47t-62 -47zM131 23q0 -37 49 -37q48 0 48 37
q0 38 -48 38q-25 0 -37 -11t-12 -27z" />
    <glyph glyph-name="uni2089" unicode="&#x2089;" horiz-adv-x="360" 
d="M30 -154l92 21q7 -52 49 -52q29 0 46 26q15 22 19 63q-4 -10 -24.5 -19t-43.5 -9q-65 0 -99.5 39t-34.5 95q0 55 42 89.5t96 34.5q78 0 117 -54.5t39 -132.5q0 -89 -37 -142q-40 -63 -126 -63q-43 0 -83.5 28t-51.5 76zM175 -52q19 0 36 14t17 43q0 26 -17 41t-36 15
t-35.5 -15.5t-16.5 -40.5t16.5 -41t35.5 -16z" />
    <glyph glyph-name="colonmonetary" unicode="&#x20a1;" 
d="M113 -98l36 134q-141 97 -141 314q0 168 89 268t236 104l22 82h67l-23 -85q38 -7 51 -12l26 97h67l-33 -124q98 -60 129 -194l-133 -37q-17 59 -35 86l-115 -426q118 14 150 176l140 -32q-30 -141 -114.5 -205.5t-197.5 -64.5q-2 0 -6 0.5t-5 0.5l-22 -82h-67l24 89
q-16 3 -50 14l-28 -103h-67zM366 597l-122 -455q21 -18 47 -27l126 468q-20 9 -51 14zM169 353q0 -83 26 -143l103 381q-62 -19 -95.5 -81.5t-33.5 -156.5z" />
    <glyph glyph-name="uni20A6" unicode="&#x20a6;" 
d="M0 371v65h62v270h211l91 -270h78v270h140v-270h62v-65h-62v-36h62v-65h-62v-270h-212l-91 270h-77v-270h-140v270h-62v65h62v36h-62zM386 371l12 -36h44v36h-56zM202 371v-36h55l-12 36h-43zM420 270l22 -66v66h-22zM202 499v-63h21z" />
    <glyph glyph-name="Euro" unicode="&#x20ac;" 
d="M-13 388l27 67h54q26 125 108.5 197.5t195.5 72.5q211 0 275 -198l-131 -49q-21 70 -57 98t-87 28t-88.5 -38.5t-54.5 -110.5h247l-27 -67h-229q-1 -11 -1 -34v-18h209l-27 -67h-176q14 -83 52.5 -124t91.5 -41q52 0 92 37t57 113l137 -39q-31 -112 -110.5 -172
t-175.5 -60q-117 0 -201.5 73t-103.5 213h-77l27 67h44v18q0 23 1 34h-72z" />
    <glyph glyph-name="uni20B2" unicode="&#x20b2;" 
d="M294 -98v82q-132 6 -215 105.5t-83 261.5q0 159 81.5 258.5t216.5 111.5v83h64v-82q201 -18 261 -207l-135 -36q-36 108 -126 117v-485q52 9 91.5 50t46.5 126h-105v125h243v-412h-138v67q-49 -68 -138 -81v-84h-64zM157 353q0 -100 36.5 -163.5t100.5 -77.5v481
q-66 -17 -101.5 -80.5t-35.5 -159.5z" />
    <glyph glyph-name="uni20B5" unicode="&#x20b5;" 
d="M307 -98v82q-136 10 -217 108t-81 258t81 259.5t217 111.5v83h64v-82q216 -17 269 -236l-133 -37q-34 135 -136 147v-485q107 23 136 174l140 -32q-28 -130 -101.5 -194.5t-174.5 -73.5v-83h-64zM170 353q0 -101 36.5 -164.5t100.5 -77.5v482q-66 -17 -101.5 -80.5
t-35.5 -159.5z" />
    <glyph glyph-name="uni20BA" unicode="&#x20ba;" 
d="M43 402v63l112 41v200h160v-142l189 70v-63l-189 -70v-57l189 69v-63l-189 -69v-264q47 12 80 48t47.5 82t14.5 98l154 -18q-4 -68 -28 -128.5t-67.5 -109.5t-113 -77.5t-157.5 -28.5q-44 0 -90 8v332l-112 -41v63l112 41v57z" />
    <glyph glyph-name="uni20BF" unicode="&#x20bf;" 
d="M33 0v706h154v98h64v-98h67v98h64v-98h6q113 0 172 -55.5t59 -137.5q0 -53 -39.5 -94.5t-84.5 -47.5q70 -4 111.5 -51.5t41.5 -106.5q0 -102 -71.5 -154t-194.5 -58v-99h-64v98h-67v-98h-64v98h-154zM193 125h164q131 0 131 91q0 85 -109 85h-186v-176zM193 426h161
q48 0 76 21t28 57q0 38 -24.5 57.5t-67.5 19.5h-173v-155z" />
    <glyph glyph-name="uni2113" unicode="&#x2113;" horiz-adv-x="530" 
d="M460 175l54 -53q-76 -134 -221 -134q-83 0 -129 44t-55 115l-53 -37l-33 64l84 62v225q0 123 50.5 184t131.5 61q73 0 111 -47t38 -119q0 -82 -52.5 -160t-157.5 -167v-24q0 -49 27 -76t68 -27q40 0 76 26t61 63zM228 479v-159q124 131 124 221q0 81 -57 81
q-27 0 -47 -34t-20 -109z" />
    <glyph glyph-name="uni2117" unicode="&#x2117;" horiz-adv-x="812" 
d="M68 353q0 -140 99 -239t239 -99t239 99t99 239t-99 239t-239 99t-239 -99t-99 -239zM36 353q0 153 108.5 261.5t261.5 108.5t261.5 -108.5t108.5 -261.5t-108.5 -261.5t-261.5 -108.5t-261.5 108.5t-108.5 261.5zM226 118v469h251q26 0 51.5 -6.5t52 -22t43 -47
t16.5 -76.5q0 -44 -16.5 -76t-43 -47.5t-52 -22t-51.5 -6.5h-134v-165h-117zM343 375h113q66 0 66 60q0 29 -18.5 44.5t-47.5 15.5h-113v-120z" />
    <glyph glyph-name="trademark" unicode="&#x2122;" horiz-adv-x="783" 
d="M335 374v332h109l81 -259l82 259h109v-332h-68v257l-81 -257h-83l-81 257v-257h-68zM130 374v273h-103v59h281v-59h-103v-273h-75z" />
    <glyph glyph-name="Omega" unicode="&#x2126;" horiz-adv-x="712" 
d="M43 0v125h104q-92 120 -92 251q0 155 86.5 250.5t214.5 95.5t214.5 -95.5t86.5 -250.5q0 -131 -92 -251h104v-125h-285v97q133 93 133 273q0 107 -42 167.5t-119 60.5t-119 -60.5t-42 -167.5q0 -180 133 -273v-97h-285z" />
    <glyph glyph-name="estimated" unicode="&#x212e;" horiz-adv-x="889" 
d="M863 343h-666q-5 0 -5 -5v-201q0 -12 8 -23q105 -110 252 -110q158 0 265 123h59q-56 -66 -141.5 -104.5t-183.5 -38.5q-171 0 -290.5 108t-119.5 261t119.5 261.5t290.5 108.5t291.5 -108.5t120.5 -261.5v-10zM712 369v202q0 14 -10 25q-107 105 -250 105
q-145 0 -251 -109q-9 -9 -9 -25v-198q0 -7 5 -7h510q5 0 5 7z" />
    <glyph glyph-name="uni2150" unicode="&#x2150;" horiz-adv-x="801" 
d="M104 332v250h-74v74h39q24 0 32.5 10.5t8.5 39.5h89v-374h-95zM76 0l504 706h103l-503 -706h-104zM609 0h-103q23 61 90 175t79 126h-193v73h294v-69q-23 -31 -83 -138t-84 -167z" />
    <glyph glyph-name="uni2151" unicode="&#x2151;" horiz-adv-x="805" 
d="M102 332v250h-74v74h39q24 0 32.5 10.5t8.5 39.5h89v-374h-95zM74 0l504 706h103l-503 -706h-104zM477 95l92 21q7 -52 49 -52q29 0 46 26q15 22 19 63q-4 -10 -24.5 -19t-43.5 -9q-65 0 -99.5 39t-34.5 95q0 55 42 89.5t96 34.5q78 0 117 -54.5t39 -132.5
q0 -89 -37 -142q-40 -63 -126 -63q-43 0 -83.5 28t-51.5 76zM622 197q19 0 36 14t17 43q0 26 -17 41t-36 15t-35.5 -15.5t-16.5 -40.5t16.5 -41t35.5 -16z" />
    <glyph glyph-name="uni2152" unicode="&#x2152;" horiz-adv-x="1115" 
d="M104 332v250h-74v74h39q24 0 32.5 10.5t8.5 39.5h89v-374h-95zM76 0l504 706h103l-503 -706h-104zM602 0v250h-74v74h39q24 0 32.5 10.5t8.5 39.5h89v-374h-95zM921 64q34 0 53.5 37t19.5 86t-19.5 86t-53.5 37t-53.5 -37t-19.5 -86t19.5 -86t53.5 -37zM921 -9
q-79 0 -123.5 59.5t-44.5 136.5q0 78 44.5 137t123.5 59t123.5 -59t44.5 -137q0 -77 -44.5 -136.5t-123.5 -59.5z" />
    <glyph glyph-name="onethird" unicode="&#x2153;" horiz-adv-x="808" 
d="M102 332v250h-74v74h39q24 0 32.5 10.5t8.5 39.5h89v-374h-95zM74 0l504 706h103l-503 -706h-104zM478 119l93 22q0 -34 14.5 -55.5t42.5 -21.5t41 14t13 34q0 51 -67 51h-40v65h37q29 0 45 12t16 29q0 18 -11.5 29.5t-32.5 11.5q-51 0 -53 -64l-94 21q2 47 41.5 81.5
t105.5 34.5q59 0 99 -29.5t40 -86.5q0 -9 -4 -22t-20.5 -29t-42.5 -20q75 -12 75 -95q0 -44 -40.5 -77t-107.5 -33q-59 0 -101.5 30t-48.5 98z" />
    <glyph glyph-name="twothirds" unicode="&#x2154;" horiz-adv-x="858" 
d="M32 332v76q26 12 69.5 38.5t74.5 57.5q52 50 52 95q0 19 -12 31t-29 12q-26 0 -40 -17.5t-14 -61.5l-95 22q0 68 44.5 99t104.5 31q56 0 96 -32t40 -84q0 -32 -15 -62.5t-27.5 -44.5t-38.5 -40q-7 -7 -35 -23.5t-44 -22.5h166v-74h-297zM127 0l504 706h103l-503 -706
h-104zM531 119l93 22q0 -34 14.5 -55.5t42.5 -21.5t41 14t13 34q0 51 -67 51h-40v65h37q29 0 45 12t16 29q0 18 -11.5 29.5t-32.5 11.5q-51 0 -53 -64l-94 21q2 47 41.5 81.5t105.5 34.5q59 0 99 -29.5t40 -86.5q0 -9 -4 -22t-20.5 -29t-42.5 -20q75 -12 75 -95
q0 -44 -40.5 -77t-107.5 -33q-59 0 -101.5 30t-48.5 98z" />
    <glyph glyph-name="uni2155" unicode="&#x2155;" horiz-adv-x="804" 
d="M102 332v250h-74v74h39q24 0 32.5 10.5t8.5 39.5h89v-374h-95zM74 0l504 706h103l-503 -706h-104zM483 99l84 21q7 -56 62 -56q22 0 37.5 17.5t15.5 42.5q0 26 -15.5 47t-46.5 21q-18 0 -31.5 -12.5t-16.5 -31.5l-87 19l28 207h243v-73h-172l-8 -63q20 27 67 27
q61 0 94 -43t33 -98q0 -54 -41 -93.5t-100 -39.5q-64 0 -100.5 31t-45.5 77z" />
    <glyph glyph-name="uni2156" unicode="&#x2156;" horiz-adv-x="852" 
d="M31 332v76q26 12 69.5 38.5t74.5 57.5q52 50 52 95q0 19 -12 31t-29 12q-26 0 -40 -17.5t-14 -61.5l-95 22q0 68 44.5 99t104.5 31q56 0 96 -32t40 -84q0 -32 -15 -62.5t-27.5 -44.5t-38.5 -40q-7 -7 -35 -23.5t-44 -22.5h166v-74h-297zM126 0l504 706h103l-503 -706
h-104zM535 99l84 21q7 -56 62 -56q22 0 37.5 17.5t15.5 42.5q0 26 -15.5 47t-46.5 21q-18 0 -31.5 -12.5t-16.5 -31.5l-87 19l28 207h243v-73h-172l-8 -63q20 27 67 27q61 0 94 -43t33 -98q0 -54 -41 -93.5t-100 -39.5q-64 0 -100.5 31t-45.5 77z" />
    <glyph glyph-name="uni2157" unicode="&#x2157;" horiz-adv-x="851" 
d="M28 451l93 22q0 -34 14.5 -55.5t42.5 -21.5t41 14t13 34q0 51 -67 51h-40v65h37q29 0 45 12t16 29q0 18 -11.5 29.5t-32.5 11.5q-51 0 -53 -64l-94 21q2 47 41.5 81.5t105.5 34.5q59 0 99 -29.5t40 -86.5q0 -9 -4 -22t-20.5 -29t-42.5 -20q75 -12 75 -95q0 -44 -40.5 -77
t-107.5 -33q-59 0 -101.5 30t-48.5 98zM123 0l504 706h103l-503 -706h-104zM532 99l84 21q7 -56 62 -56q22 0 37.5 17.5t15.5 42.5q0 26 -15.5 47t-46.5 21q-18 0 -31.5 -12.5t-16.5 -31.5l-87 19l28 207h243v-73h-172l-8 -63q20 27 67 27q61 0 94 -43t33 -98
q0 -54 -41 -93.5t-100 -39.5q-64 0 -100.5 31t-45.5 77z" />
    <glyph glyph-name="uni2158" unicode="&#x2158;" horiz-adv-x="870" 
d="M26 417v67l151 222h107v-215h71v-74h-71v-85h-88v85h-170zM126 491h70v114zM137 0l504 706h103l-503 -706h-104zM546 99l84 21q7 -56 62 -56q22 0 37.5 17.5t15.5 42.5q0 26 -15.5 47t-46.5 21q-18 0 -31.5 -12.5t-16.5 -31.5l-87 19l28 207h243v-73h-172l-8 -63
q20 27 67 27q61 0 94 -43t33 -98q0 -54 -41 -93.5t-100 -39.5q-64 0 -100.5 31t-45.5 77z" />
    <glyph glyph-name="uni2159" unicode="&#x2159;" horiz-adv-x="806" 
d="M102 332v250h-74v74h39q24 0 32.5 10.5t8.5 39.5h89v-374h-95zM74 0l504 706h103l-503 -706h-104zM771 285l-89 -19q-14 44 -47 44q-53 0 -65 -80q6 10 26.5 19.5t43.5 9.5q65 0 99.5 -41.5t34.5 -99.5q0 -57 -43.5 -92t-94.5 -35q-80 0 -118.5 53.5t-38.5 134.5
q0 88 39.5 146t122.5 58q43 0 79 -24t51 -74zM630 64q23 0 39.5 16t16.5 45q0 30 -16.5 45.5t-39.5 15.5q-22 0 -38.5 -14t-16.5 -47q0 -30 16 -45.5t39 -15.5z" />
    <glyph glyph-name="uni215A" unicode="&#x215a;" horiz-adv-x="847" 
d="M29 431l84 21q7 -56 62 -56q22 0 37.5 17.5t15.5 42.5q0 26 -15.5 47t-46.5 21q-18 0 -31.5 -12.5t-16.5 -31.5l-87 19l28 207h243v-73h-172l-8 -63q20 27 67 27q61 0 94 -43t33 -98q0 -54 -41 -93.5t-100 -39.5q-64 0 -100.5 31t-45.5 77zM118 0l504 706h103l-503 -706
h-104zM815 285l-89 -19q-14 44 -47 44q-53 0 -65 -80q6 10 26.5 19.5t43.5 9.5q65 0 99.5 -41.5t34.5 -99.5q0 -57 -43.5 -92t-94.5 -35q-80 0 -118.5 53.5t-38.5 134.5q0 88 39.5 146t122.5 58q43 0 79 -24t51 -74zM674 64q23 0 39.5 16t16.5 45q0 30 -16.5 45.5
t-39.5 15.5q-22 0 -38.5 -14t-16.5 -47q0 -30 16 -45.5t39 -15.5z" />
    <glyph glyph-name="oneeighth" unicode="&#x215b;" horiz-adv-x="807" 
d="M102 332v250h-74v74h39q24 0 32.5 10.5t8.5 39.5h89v-374h-95zM74 0l504 706h103l-503 -706h-104zM550 200q-60 22 -60 82q0 35 36 68t101 33t100.5 -33t35.5 -68q0 -59 -59 -82q41 -14 57 -35t16 -57q0 -49 -42 -83t-108 -34t-108 33.5t-42 83.5q0 36 16 57t57 35z
M565 114q0 -50 62 -50q28 0 45 13t17 37q0 47 -62 47t-62 -47zM578 272q0 -37 49 -37q48 0 48 37q0 38 -48 38q-25 0 -37 -11t-12 -27z" />
    <glyph glyph-name="threeeighths" unicode="&#x215c;" horiz-adv-x="854" 
d="M28 451l93 22q0 -34 14.5 -55.5t42.5 -21.5t41 14t13 34q0 51 -67 51h-40v65h37q29 0 45 12t16 29q0 18 -11.5 29.5t-32.5 11.5q-51 0 -53 -64l-94 21q2 47 41.5 81.5t105.5 34.5q59 0 99 -29.5t40 -86.5q0 -9 -4 -22t-20.5 -29t-42.5 -20q75 -12 75 -95q0 -44 -40.5 -77
t-107.5 -33q-59 0 -101.5 30t-48.5 98zM123 0l504 706h103l-503 -706h-104zM599 200q-60 22 -60 82q0 35 36 68t101 33t100.5 -33t35.5 -68q0 -59 -59 -82q41 -14 57 -35t16 -57q0 -49 -42 -83t-108 -34t-108 33.5t-42 83.5q0 36 16 57t57 35zM614 114q0 -50 62 -50
q28 0 45 13t17 37q0 47 -62 47t-62 -47zM627 272q0 -37 49 -37q48 0 48 37q0 38 -48 38q-25 0 -37 -11t-12 -27z" />
    <glyph glyph-name="fiveeighths" unicode="&#x215d;" horiz-adv-x="851" 
d="M31 431l84 21q7 -56 62 -56q22 0 37.5 17.5t15.5 42.5q0 26 -15.5 47t-46.5 21q-18 0 -31.5 -12.5t-16.5 -31.5l-87 19l28 207h243v-73h-172l-8 -63q20 27 67 27q61 0 94 -43t33 -98q0 -54 -41 -93.5t-100 -39.5q-64 0 -100.5 31t-45.5 77zM120 0l504 706h103l-503 -706
h-104zM596 200q-60 22 -60 82q0 35 36 68t101 33t100.5 -33t35.5 -68q0 -59 -59 -82q41 -14 57 -35t16 -57q0 -49 -42 -83t-108 -34t-108 33.5t-42 83.5q0 36 16 57t57 35zM611 114q0 -50 62 -50q28 0 45 13t17 37q0 47 -62 47t-62 -47zM624 272q0 -37 49 -37q48 0 48 37
q0 38 -48 38q-25 0 -37 -11t-12 -27z" />
    <glyph glyph-name="seveneighths" unicode="&#x215e;" horiz-adv-x="852" 
d="M155 332h-103q23 61 90 175t79 126h-193v73h294v-69q-23 -31 -83 -138t-84 -167zM120 0l504 706h103l-503 -706h-104zM596 200q-60 22 -60 82q0 35 36 68t101 33t100.5 -33t35.5 -68q0 -59 -59 -82q41 -14 57 -35t16 -57q0 -49 -42 -83t-108 -34t-108 33.5t-42 83.5
q0 36 16 57t57 35zM611 114q0 -50 62 -50q28 0 45 13t17 37q0 47 -62 47t-62 -47zM624 272q0 -37 49 -37q48 0 48 37q0 38 -48 38q-25 0 -37 -11t-12 -27z" />
    <glyph glyph-name="uni215F" unicode="&#x215f;" horiz-adv-x="584" 
d="M204 332v250h-74v74h39q24 0 32.5 10.5t8.5 39.5h89v-374h-95zM177 0l504 706h103l-503 -706h-104z" />
    <glyph glyph-name="uni2160" unicode="&#x2160;" horiz-adv-x="300" 
d="M70 0v706h160v-706h-160z" />
    <glyph glyph-name="uni2161" unicode="&#x2161;" horiz-adv-x="596" 
d="M70 0v706h160v-706h-160zM366 0v706h160v-706h-160z" />
    <glyph glyph-name="uni2162" unicode="&#x2162;" horiz-adv-x="892" 
d="M70 0v706h160v-706h-160zM366 0v706h160v-706h-160zM662 0v706h160v-706h-160z" />
    <glyph glyph-name="uni2163" unicode="&#x2163;" horiz-adv-x="1024" 
d="M70 0v706h160v-706h-160zM581 0l-283 706h157l209 -536l209 536h157l-283 -706h-166z" />
    <glyph glyph-name="uni2164" unicode="&#x2164;" horiz-adv-x="726" 
d="M280 0l-283 706h157l209 -536l209 536h157l-283 -706h-166z" />
    <glyph glyph-name="uni2165" unicode="&#x2165;" horiz-adv-x="1024" 
d="M278 0l-283 706h157l209 -536l209 536h157l-283 -706h-166zM794 0v706h160v-706h-160z" />
    <glyph glyph-name="uni2166" unicode="&#x2166;" horiz-adv-x="1319" 
d="M277 0l-283 706h157l209 -536l209 536h157l-283 -706h-166zM793 0v706h160v-706h-160zM1089 0v706h160v-706h-160z" />
    <glyph glyph-name="uni2167" unicode="&#x2167;" horiz-adv-x="1613" 
d="M275 0l-283 706h157l209 -536l209 536h157l-283 -706h-166zM791 0v706h160v-706h-160zM1087 0v706h160v-706h-160zM1383 0v706h160v-706h-160z" />
    <glyph glyph-name="uni2168" unicode="&#x2168;" horiz-adv-x="1029" 
d="M70 0v706h160v-706h-160zM290 0l290 373l-252 333h183l167 -233l161 233h179l-257 -332l286 -374h-186l-195 271l-192 -271h-184z" />
    <glyph glyph-name="uni2169" unicode="&#x2169;" horiz-adv-x="718" 
d="M-21 0l290 373l-252 333h183l167 -233l161 233h179l-257 -332l286 -374h-186l-195 271l-192 -271h-184z" />
    <glyph glyph-name="uni216A" unicode="&#x216a;" horiz-adv-x="1026" 
d="M-21 0l290 373l-252 333h183l167 -233l161 233h179l-257 -332l286 -374h-186l-195 271l-192 -271h-184zM796 0v706h160v-706h-160z" />
    <glyph glyph-name="uni216B" unicode="&#x216b;" horiz-adv-x="1322" 
d="M-21 0l290 373l-252 333h183l167 -233l161 233h179l-257 -332l286 -374h-186l-195 271l-192 -271h-184zM796 0v706h160v-706h-160zM1092 0v706h160v-706h-160z" />
    <glyph glyph-name="uni216C" unicode="&#x216c;" horiz-adv-x="593" 
d="M70 0v706h160v-581h351v-125h-511z" />
    <glyph glyph-name="uni216D" unicode="&#x216d;" horiz-adv-x="764" 
d="M591 285l156 -32q-19 -72 -57.5 -126.5t-87.5 -84.5t-100 -44.5t-105 -14.5q-96 0 -177.5 44t-133 129.5t-51.5 196.5q0 163 104.5 266.5t262.5 103.5q246 0 337 -237l-155 -37q-57 149 -182 149q-89 0 -148 -69t-59 -176q0 -109 60 -177t142 -68q62 0 116 43t78 134z
" />
    <glyph glyph-name="uni216E" unicode="&#x216e;" horiz-adv-x="759" 
d="M230 125h104q108 0 169 61t61 167t-61 167t-169 61h-104v-456zM70 0v706h284q163 0 266.5 -95.5t103.5 -257.5t-103.5 -257.5t-266.5 -95.5h-284z" />
    <glyph glyph-name="uni216F" unicode="&#x216f;" horiz-adv-x="950" 
d="M70 0v706h232l173 -551l173 551h232v-706h-145v547l-171 -547h-178l-171 547v-547h-145z" />
    <glyph glyph-name="uni2170" unicode="&#x2170;" horiz-adv-x="250" 
d="M55 0v482h140v-482h-140zM55 562v144h140v-144h-140z" />
    <glyph glyph-name="uni2171" unicode="&#x2171;" horiz-adv-x="502" 
d="M55 0v482h140v-482h-140zM55 562v144h140v-144h-140zM307 0v482h140v-482h-140zM307 562v144h140v-144h-140z" />
    <glyph glyph-name="uni2172" unicode="&#x2172;" horiz-adv-x="754" 
d="M55 0v482h140v-482h-140zM55 562v144h140v-144h-140zM307 0v482h140v-482h-140zM307 562v144h140v-144h-140zM559 0v482h140v-482h-140zM559 562v144h140v-144h-140z" />
    <glyph glyph-name="uni2173" unicode="&#x2173;" horiz-adv-x="777" 
d="M55 0v482h140v-482h-140zM55 562v144h140v-144h-140zM433 0l-178 482h143l119 -333l119 333h139l-178 -482h-164z" />
    <glyph glyph-name="uni2174" unicode="&#x2174;" horiz-adv-x="530" 
d="M183 0l-178 482h143l119 -333l119 333h139l-178 -482h-164z" />
    <glyph glyph-name="uni2175" unicode="&#x2175;" horiz-adv-x="781" 
d="M181 0l-178 482h143l119 -333l119 333h139l-178 -482h-164zM586 0v482h140v-482h-140zM586 562v144h140v-144h-140z" />
    <glyph glyph-name="uni2176" unicode="&#x2176;" horiz-adv-x="1031" 
d="M179 0l-178 482h143l119 -333l119 333h139l-178 -482h-164zM584 0v482h140v-482h-140zM584 562v144h140v-144h-140zM836 0v482h140v-482h-140zM836 562v144h140v-144h-140z" />
    <glyph glyph-name="uni2177" unicode="&#x2177;" horiz-adv-x="1282" 
d="M178 0l-178 482h143l119 -333l119 333h139l-178 -482h-164zM583 0v482h140v-482h-140zM583 562v144h140v-144h-140zM835 0v482h140v-482h-140zM835 562v144h140v-144h-140zM1087 0v482h140v-482h-140zM1087 562v144h140v-144h-140z" />
    <glyph glyph-name="uni2178" unicode="&#x2178;" horiz-adv-x="761" 
d="M55 0v482h140v-482h-140zM55 562v144h140v-144h-140zM247 0l179 251l-164 231h157l92 -136l89 136h156l-170 -232l174 -250h-156l-96 151l-103 -151h-158z" />
    <glyph glyph-name="uni2179" unicode="&#x2179;" horiz-adv-x="511" 
d="M-3 0l179 251l-164 231h157l92 -136l89 136h156l-170 -232l174 -250h-156l-96 151l-103 -151h-158z" />
    <glyph glyph-name="uni217A" unicode="&#x217a;" horiz-adv-x="765" 
d="M-3 0l179 251l-164 231h157l92 -136l89 136h156l-170 -232l174 -250h-156l-96 151l-103 -151h-158zM570 0v482h140v-482h-140zM570 562v144h140v-144h-140z" />
    <glyph glyph-name="uni217B" unicode="&#x217b;" horiz-adv-x="1017" 
d="M-3 0l179 251l-164 231h157l92 -136l89 136h156l-170 -232l174 -250h-156l-96 151l-103 -151h-158zM570 0v482h140v-482h-140zM570 562v144h140v-144h-140zM822 0v482h140v-482h-140zM822 562v144h140v-144h-140z" />
    <glyph glyph-name="uni217C" unicode="&#x217c;" horiz-adv-x="250" 
d="M55 0v706h140v-706h-140z" />
    <glyph glyph-name="uni217D" unicode="&#x217d;" horiz-adv-x="541" 
d="M378 203l140 -27q-4 -30 -20.5 -61t-44.5 -60.5t-73.5 -48t-100.5 -18.5q-114 0 -181.5 75.5t-67.5 177.5t67.5 177.5t181.5 75.5q99 0 160.5 -55.5t76.5 -120.5l-140 -29q-20 100 -97 100q-55 0 -82 -44.5t-27 -103.5t27 -103.5t82 -44.5q27 0 46 10.5t29.5 30t15 34
t8.5 35.5z" />
    <glyph glyph-name="uni217E" unicode="&#x217e;" horiz-adv-x="597" 
d="M410 0v54q-19 -29 -62 -47.5t-82 -18.5q-57 0 -101.5 20t-69 49t-40 66t-20 65t-4.5 52t4.5 52.5t20 65.5t39.5 66t68.5 49.5t102.5 20.5q82 0 136 -56v268h140v-706h-132zM290 93q41 0 76.5 35t35.5 112t-35 113t-74 36q-36 0 -62.5 -17.5t-38 -43.5t-16.5 -47.5
t-5 -39.5q0 -14 2.5 -30t10.5 -38t20 -39t34.5 -29t51.5 -12z" />
    <glyph glyph-name="uni217F" unicode="&#x217f;" horiz-adv-x="813" 
d="M55 0v482h136v-58q29 70 130 70q67 0 107 -39q13 -11 27 -32q36 71 131 71q94 0 140 -62q37 -49 37 -124v-308h-140v309q0 15 -4 31t-19 32.5t-39 16.5q-17 0 -34.5 -10t-27.5 -26q-20 -31 -20 -83v-270h-139v309q0 15 -4 31t-18.5 32.5t-38.5 16.5q-39 0 -65 -36
q-19 -29 -19 -84v-269h-140z" />
    <glyph glyph-name="uni2189" unicode="&#x2189;" horiz-adv-x="876" 
d="M196 396q34 0 53.5 37t19.5 86t-19.5 86t-53.5 37t-53.5 -37t-19.5 -86t19.5 -86t53.5 -37zM196 323q-79 0 -123.5 59.5t-44.5 136.5q0 78 44.5 137t123.5 59t123.5 -59t44.5 -137q0 -77 -44.5 -136.5t-123.5 -59.5zM142 0l504 706h103l-503 -706h-104zM546 119l93 22
q0 -34 14.5 -55.5t42.5 -21.5t41 14t13 34q0 51 -67 51h-40v65h37q29 0 45 12t16 29q0 18 -11.5 29.5t-32.5 11.5q-51 0 -53 -64l-94 21q2 47 41.5 81.5t105.5 34.5q59 0 99 -29.5t40 -86.5q0 -9 -4 -22t-20.5 -29t-42.5 -20q75 -12 75 -95q0 -44 -40.5 -77t-107.5 -33
q-59 0 -101.5 30t-48.5 98z" />
    <glyph glyph-name="arrowleft" unicode="&#x2190;" 
d="M377 101l-76 -75l-284 284l284 284l76 -75l-166 -156h408v-107h-407z" />
    <glyph glyph-name="arrowup" unicode="&#x2191;" 
d="M113 251l-75 76l284 284l284 -284l-75 -76l-156 166v-408h-107v407z" />
    <glyph glyph-name="arrowright" unicode="&#x2192;" 
d="M343 26l-76 75l165 155h-407v107h408l-166 156l76 75l284 -284z" />
    <glyph glyph-name="arrowdown" unicode="&#x2193;" 
d="M531 369l75 -76l-284 -284l-284 284l75 76l156 -166v408h107v-407z" />
    <glyph glyph-name="uni2196" unicode="&#x2196;" 
d="M209 163h-107v401h401v-107l-223 4l285 -294l-77 -74l-283 293z" />
    <glyph glyph-name="uni2197" unicode="&#x2197;" 
d="M542 163h-107l4 223l-283 -293l-77 74l285 294l-223 -4v107h401v-401z" />
    <glyph glyph-name="uni2198" unicode="&#x2198;" 
d="M435 494h107v-401h-401v107l223 -4l-285 294l77 74l283 -293z" />
    <glyph glyph-name="uni2199" unicode="&#x2199;" 
d="M102 494h107l-4 -223l283 293l77 -74l-285 -294l223 4v-107h-401v401z" />
    <glyph glyph-name="partialdiff" unicode="&#x2202;" horiz-adv-x="545" 
d="M99 554l-40 110q83 59 183 59q68 0 121 -31t84.5 -82.5t47.5 -112t16 -124.5q0 -173 -74.5 -279t-199.5 -106q-97 0 -151 73.5t-54 164.5q0 118 61.5 193t151.5 75q78 0 128 -54q-10 77 -48 127.5t-98 50.5q-64 0 -128 -64zM365 303q-8 30 -34 58t-62 28q-44 0 -73 -50
t-29 -118q0 -54 22.5 -90.5t59.5 -36.5q47 0 78 63.5t38 145.5z" />
    <glyph glyph-name="increment" unicode="&#x2206;" horiz-adv-x="641" 
d="M24 0v74l226 632h146l220 -632v-74h-592zM182 130h279l-138 403z" />
    <glyph glyph-name="product" unicode="&#x220f;" horiz-adv-x="687" 
d="M130 -98v679h-100v125h627v-125h-100v-679h-141v679h-145v-679h-141z" />
    <glyph glyph-name="summation" unicode="&#x2211;" 
d="M78 -98v86l237 316l-237 316v86h482v-125h-297l211 -277l-211 -277h297v-125h-482z" />
    <glyph glyph-name="minus" unicode="&#x2212;" 
d="M21 256v107h602v-107h-602z" />
    <glyph glyph-name="uni2215" unicode="&#x2215;" horiz-adv-x="130" 
d="M-238 0l504 706h103l-503 -706h-104z" />
    <glyph glyph-name="uni2219" unicode="&#x2219;" horiz-adv-x="336" 
d="M88 359q0 33 23.5 56.5t56.5 23.5t56.5 -23.5t23.5 -56.5t-23.5 -56.5t-56.5 -23.5t-56.5 23.5t-23.5 56.5z" />
    <glyph glyph-name="radical" unicode="&#x221a;" 
d="M272 -98l-147 436l-76 -24l-32 100l201 68l111 -347l150 669h125l-204 -902h-128z" />
    <glyph glyph-name="infinity" unicode="&#x221e;" horiz-adv-x="902" 
d="M451 291q-52 -62 -103 -94.5t-117 -32.5q-76 0 -131.5 53.5t-55.5 133.5q0 85 56 139t141 54q61 0 111 -31t99 -90q49 59 99 90t111 31q85 0 141 -54t56 -139q0 -80 -55.5 -133.5t-131.5 -53.5q-66 0 -117 32.5t-103 94.5zM396 348q-28 36 -46 55.5t-48 36.5t-62 17
q-46 0 -72.5 -30t-26.5 -76q0 -42 29.5 -71t74.5 -29q28 0 57.5 16.5t46 32t47.5 48.5zM509 348q41 -46 76 -71.5t75 -25.5q45 0 74.5 29t29.5 71q0 46 -26.5 76t-72.5 30q-32 0 -62 -17t-48 -36.5t-46 -55.5z" />
    <glyph glyph-name="integral" unicode="&#x222b;" 
d="M128 -211l18 109q34 -16 50 -16q59 0 59 153q0 62 -5 192t-5 202q0 286 192 286q43 0 79 -20l-18 -109q-34 16 -50 16q-59 0 -59 -153q0 -62 5 -192t5 -202q0 -286 -192 -286q-43 0 -79 20z" />
    <glyph glyph-name="approxequal" unicode="&#x2248;" 
d="M71 105l-48 11q19 88 68.5 131t109.5 43q42 0 82.5 -15t67 -33t59 -33t60.5 -15q88 0 107 89l48 -11q-19 -88 -68.5 -131t-109.5 -43q-42 0 -82.5 15t-67 33t-59 33t-60.5 15q-88 0 -107 -89zM71 280l-48 11q19 88 68.5 131t109.5 43q42 0 82.5 -15t67 -33t59 -33
t60.5 -15q88 0 107 89l48 -11q-19 -88 -68.5 -131t-109.5 -43q-42 0 -82.5 15t-67 33t-59 33t-60.5 15q-88 0 -107 -89z" />
    <glyph glyph-name="notequal" unicode="&#x2260;" 
d="M21 361v103h387l75 81h81l-75 -81h134v-103h-229l-68 -74h297v-103h-392l-94 -102h-81l94 102h-129v103h224l68 74h-292z" />
    <glyph glyph-name="equivalence" unicode="&#x2261;" 
d="M21 184v103h602v-103h-602zM21 361v103h602v-103h-602zM21 538v103h602v-103h-602z" />
    <glyph glyph-name="lessequal" unicode="&#x2264;" 
d="M31 372v84l566 190v-104l-419 -128l419 -128v-104zM32 0v107h565v-107h-565z" />
    <glyph glyph-name="greaterequal" unicode="&#x2265;" 
d="M613 456v-84l-566 -190v104l419 128l-419 128v104zM612 107v-107h-565v107h565z" />
    <glyph glyph-name="uni25AF" unicode="&#x25af;" horiz-adv-x="591" 
 />
    <glyph glyph-name="triagup" unicode="&#x25b2;" 
d="M323 482l240 -482h-482z" />
    <glyph glyph-name="triagrt" unicode="&#x25ba;" 
d="M563 240l-482 -240v482z" />
    <glyph glyph-name="triagdn" unicode="&#x25bc;" 
d="M323 0l-242 482h482z" />
    <glyph glyph-name="triaglf" unicode="&#x25c4;" 
d="M81 240l482 242v-482z" />
    <glyph glyph-name="lozenge" unicode="&#x25ca;" 
d="M275 -49l-206 402l206 402h98l201 -402l-201 -402h-98zM323 103l114 250l-114 249l-118 -250q29 -58 77 -160q13 -29 41 -89z" />
    <glyph glyph-name="uniFB00" unicode="&#xfb00;" horiz-adv-x="700" 
d="M451 0v377h-201v-377h-140v377h-101v105h101v86q0 63 40.5 105t109.5 42q65 0 90 -5v-105q-22 2 -48 2q-52 0 -52 -75v-50h201v86q0 63 40.5 105t109.5 42q65 0 90 -5v-105q-22 2 -48 2q-52 0 -52 -75v-50h100v-105h-100v-377h-140z" />
    <glyph glyph-name="fi" unicode="&#xfb01;" horiz-adv-x="605" 
d="M110 0v377h-101v105h101v86q0 63 40.5 105t109.5 42q65 0 90 -5v-105q-22 2 -48 2q-52 0 -52 -75v-50h100v-105h-100v-377h-140zM410 0v482h140v-482h-140zM410 562v144h140v-144h-140z" />
    <glyph glyph-name="fl" unicode="&#xfb02;" horiz-adv-x="605" 
d="M110 0v377h-101v105h101v86q0 63 40.5 105t109.5 42q65 0 90 -5v-105q-22 2 -48 2q-52 0 -52 -75v-50h100v-105h-100v-377h-140zM410 0v706h140v-706h-140z" />
    <glyph glyph-name="uniFB03" unicode="&#xfb03;" horiz-adv-x="946" 
d="M451 0v377h-201v-377h-140v377h-101v105h101v86q0 63 40.5 105t109.5 42q65 0 90 -5v-105q-22 2 -48 2q-52 0 -52 -75v-50h201v86q0 63 40.5 105t109.5 42q65 0 90 -5v-105q-22 2 -48 2q-52 0 -52 -75v-50h100v-105h-100v-377h-140zM751 0v482h140v-482h-140zM751 562
v144h140v-144h-140z" />
    <glyph glyph-name="uniFB04" unicode="&#xfb04;" horiz-adv-x="946" 
d="M451 0v377h-201v-377h-140v377h-101v105h101v86q0 63 40.5 105t109.5 42q65 0 90 -5v-105q-22 2 -48 2q-52 0 -52 -75v-50h201v86q0 63 40.5 105t109.5 42q65 0 90 -5v-105q-22 2 -48 2q-52 0 -52 -75v-50h100v-105h-100v-377h-140zM751 0v706h140v-706h-140z" />
    <glyph glyph-name="uniFEFF" unicode="&#xfeff;" horiz-adv-x="0" 
 />
    <glyph glyph-name="i.latn_TRK" horiz-adv-x="250" 
d="M55 0v482h140v-482h-140zM55 562v144h140v-144h-140z" />
    <glyph glyph-name="Ldot.latn_CAT" horiz-adv-x="597" 
d="M70 0v706h160v-581h351v-125h-511zM324 282v145h140v-145h-140z" />
    <glyph glyph-name="ldot.latn_CAT" horiz-adv-x="397" 
d="M55 0v706h140v-706h-140zM255 282v145h140v-145h-140z" />
    <glyph glyph-name="zero.numr" horiz-adv-x="360" 
d="M180 396q34 0 53.5 37t19.5 86t-19.5 86t-53.5 37t-53.5 -37t-19.5 -86t19.5 -86t53.5 -37zM180 323q-79 0 -123.5 59.5t-44.5 136.5q0 78 44.5 137t123.5 59t123.5 -59t44.5 -137q0 -77 -44.5 -136.5t-123.5 -59.5z" />
    <glyph glyph-name="one.numr" horiz-adv-x="360" 
d="M153 332v250h-74v74h39q24 0 32.5 10.5t8.5 39.5h89v-374h-95z" />
    <glyph glyph-name="two.numr" horiz-adv-x="360" 
d="M30 332v76q26 12 69.5 38.5t74.5 57.5q52 50 52 95q0 19 -12 31t-29 12q-26 0 -40 -17.5t-14 -61.5l-95 22q0 68 44.5 99t104.5 31q56 0 96 -32t40 -84q0 -32 -15 -62.5t-27.5 -44.5t-38.5 -40q-7 -7 -35 -23.5t-44 -22.5h166v-74h-297z" />
    <glyph glyph-name="three.numr" horiz-adv-x="360" 
d="M28 451l93 22q0 -34 14.5 -55.5t42.5 -21.5t41 14t13 34q0 51 -67 51h-40v65h37q29 0 45 12t16 29q0 18 -11.5 29.5t-32.5 11.5q-51 0 -53 -64l-94 21q2 47 41.5 81.5t105.5 34.5q59 0 99 -29.5t40 -86.5q0 -9 -4 -22t-20.5 -29t-42.5 -20q75 -12 75 -95q0 -44 -40.5 -77
t-107.5 -33q-59 0 -101.5 30t-48.5 98z" />
    <glyph glyph-name="four.numr" horiz-adv-x="360" 
d="M15 417v67l151 222h107v-215h71v-74h-71v-85h-88v85h-170zM115 491h70v114z" />
    <glyph glyph-name="five.numr" horiz-adv-x="360" 
d="M36 431l84 21q7 -56 62 -56q22 0 37.5 17.5t15.5 42.5q0 26 -15.5 47t-46.5 21q-18 0 -31.5 -12.5t-16.5 -31.5l-87 19l28 207h243v-73h-172l-8 -63q20 27 67 27q61 0 94 -43t33 -98q0 -54 -41 -93.5t-100 -39.5q-64 0 -100.5 31t-45.5 77z" />
    <glyph glyph-name="six.numr" horiz-adv-x="360" 
d="M324 617l-89 -19q-14 44 -47 44q-53 0 -65 -80q6 10 26.5 19.5t43.5 9.5q65 0 99.5 -41.5t34.5 -99.5q0 -57 -43.5 -92t-94.5 -35q-80 0 -118.5 53.5t-38.5 134.5q0 88 39.5 146t122.5 58q43 0 79 -24t51 -74zM183 396q23 0 39.5 16t16.5 45q0 30 -16.5 45.5t-39.5 15.5
q-22 0 -38.5 -14t-16.5 -47q0 -30 16 -45.5t39 -15.5z" />
    <glyph glyph-name="seven.numr" horiz-adv-x="360" 
d="M162 332h-103q23 61 90 175t79 126h-193v73h294v-69q-23 -31 -83 -138t-84 -167z" />
    <glyph glyph-name="eight.numr" horiz-adv-x="360" 
d="M103 532q-60 22 -60 82q0 35 36 68t101 33t100.5 -33t35.5 -68q0 -59 -59 -82q41 -14 57 -35t16 -57q0 -49 -42 -83t-108 -34t-108 33.5t-42 83.5q0 36 16 57t57 35zM118 446q0 -50 62 -50q28 0 45 13t17 37q0 47 -62 47t-62 -47zM131 604q0 -37 49 -37q48 0 48 37
q0 38 -48 38q-25 0 -37 -11t-12 -27z" />
    <glyph glyph-name="nine.numr" horiz-adv-x="360" 
d="M31 427l92 21q7 -52 49 -52q29 0 46 26q15 22 19 63q-4 -10 -24.5 -19t-43.5 -9q-65 0 -99.5 39t-34.5 95q0 55 42 89.5t96 34.5q78 0 117 -54.5t39 -132.5q0 -89 -37 -142q-40 -63 -126 -63q-43 0 -83.5 28t-51.5 76zM176 529q19 0 36 14t17 43q0 26 -17 41t-36 15
t-35.5 -15.5t-16.5 -40.5t16.5 -41t35.5 -16z" />
    <glyph glyph-name="zero.dnom" horiz-adv-x="360" 
d="M180 64q34 0 53.5 37t19.5 86t-19.5 86t-53.5 37t-53.5 -37t-19.5 -86t19.5 -86t53.5 -37zM180 -9q-79 0 -123.5 59.5t-44.5 136.5q0 78 44.5 137t123.5 59t123.5 -59t44.5 -137q0 -77 -44.5 -136.5t-123.5 -59.5z" />
    <glyph glyph-name="one.dnom" horiz-adv-x="360" 
d="M153 0v250h-74v74h39q24 0 32.5 10.5t8.5 39.5h89v-374h-95z" />
    <glyph glyph-name="two.dnom" horiz-adv-x="360" 
d="M30 0v76q26 12 69.5 38.5t74.5 57.5q52 50 52 95q0 19 -12 31t-29 12q-26 0 -40 -17.5t-14 -61.5l-95 22q0 68 44.5 99t104.5 31q56 0 96 -32t40 -84q0 -32 -15 -62.5t-27.5 -44.5t-38.5 -40q-7 -7 -35 -23.5t-44 -22.5h166v-74h-297z" />
    <glyph glyph-name="three.dnom" horiz-adv-x="360" 
d="M28 119l93 22q0 -34 14.5 -55.5t42.5 -21.5t41 14t13 34q0 51 -67 51h-40v65h37q29 0 45 12t16 29q0 18 -11.5 29.5t-32.5 11.5q-51 0 -53 -64l-94 21q2 47 41.5 81.5t105.5 34.5q59 0 99 -29.5t40 -86.5q0 -9 -4 -22t-20.5 -29t-42.5 -20q75 -12 75 -95q0 -44 -40.5 -77
t-107.5 -33q-59 0 -101.5 30t-48.5 98z" />
    <glyph glyph-name="four.dnom" horiz-adv-x="360" 
d="M15 85v67l151 222h107v-215h71v-74h-71v-85h-88v85h-170zM115 159h70v114z" />
    <glyph glyph-name="five.dnom" horiz-adv-x="360" 
d="M36 99l84 21q7 -56 62 -56q22 0 37.5 17.5t15.5 42.5q0 26 -15.5 47t-46.5 21q-18 0 -31.5 -12.5t-16.5 -31.5l-87 19l28 207h243v-73h-172l-8 -63q20 27 67 27q61 0 94 -43t33 -98q0 -54 -41 -93.5t-100 -39.5q-64 0 -100.5 31t-45.5 77z" />
    <glyph glyph-name="six.dnom" horiz-adv-x="360" 
d="M324 285l-89 -19q-14 44 -47 44q-53 0 -65 -80q6 10 26.5 19.5t43.5 9.5q65 0 99.5 -41.5t34.5 -99.5q0 -57 -43.5 -92t-94.5 -35q-80 0 -118.5 53.5t-38.5 134.5q0 88 39.5 146t122.5 58q43 0 79 -24t51 -74zM183 64q23 0 39.5 16t16.5 45q0 30 -16.5 45.5t-39.5 15.5
q-22 0 -38.5 -14t-16.5 -47q0 -30 16 -45.5t39 -15.5z" />
    <glyph glyph-name="seven.dnom" horiz-adv-x="360" 
d="M162 0h-103q23 61 90 175t79 126h-193v73h294v-69q-23 -31 -83 -138t-84 -167z" />
    <glyph glyph-name="eight.dnom" horiz-adv-x="360" 
d="M103 200q-60 22 -60 82q0 35 36 68t101 33t100.5 -33t35.5 -68q0 -59 -59 -82q41 -14 57 -35t16 -57q0 -49 -42 -83t-108 -34t-108 33.5t-42 83.5q0 36 16 57t57 35zM118 114q0 -50 62 -50q28 0 45 13t17 37q0 47 -62 47t-62 -47zM131 272q0 -37 49 -37q48 0 48 37
q0 38 -48 38q-25 0 -37 -11t-12 -27z" />
    <glyph glyph-name="nine.dnom" horiz-adv-x="360" 
d="M30 95l92 21q7 -52 49 -52q29 0 46 26q15 22 19 63q-4 -10 -24.5 -19t-43.5 -9q-65 0 -99.5 39t-34.5 95q0 55 42 89.5t96 34.5q78 0 117 -54.5t39 -132.5q0 -89 -37 -142q-40 -63 -126 -63q-43 0 -83.5 28t-51.5 76zM175 197q19 0 36 14t17 43q0 26 -17 41t-36 15
t-35.5 -15.5t-16.5 -40.5t16.5 -41t35.5 -16z" />
    <glyph glyph-name="space.frac" horiz-adv-x="44" 
 />
    <glyph glyph-name="zero.tf" 
d="M321 108q47 0 77.5 38.5t42 91t11.5 115.5q0 102 -31.5 173.5t-99.5 71.5q-46 0 -76.5 -38t-42 -90.5t-11.5 -116.5q0 -63 11.5 -115.5t42 -91t76.5 -38.5zM321 -17q-73 0 -130.5 32.5t-91 86.5t-51 118t-17.5 133q0 70 17.5 134t51 118t91 86t130.5 32q74 0 131.5 -32
t91.5 -86t51 -118t17 -134q0 -69 -17 -133t-51 -118t-91.5 -86.5t-131.5 -32.5z" />
    <glyph glyph-name="one.tf" 
d="M91 0v125h162v360h-136v126h64q48 0 66 20t18 75h148v-581h162v-125h-484z" />
    <glyph glyph-name="two.tf" 
d="M47 0v133q35 17 78 42t96.5 64t96 80t72 91t29.5 95q0 42 -26 67.5t-64 25.5q-52 0 -81 -34.5t-29 -119.5l-160 37q0 64 24 113t64.5 76t86 40t95.5 13q105 0 177.5 -60t72.5 -158q0 -114 -94 -216t-220 -164h326v-125h-544z" />
    <glyph glyph-name="three.tf" 
d="M42 233l160 35q0 -74 29.5 -117t86.5 -43q56 0 84.5 29.5t28.5 71.5q0 97 -133 97h-86v125h88q56 0 85 26t29 62q0 38 -24.5 58.5t-69.5 20.5q-107 0 -107 -135l-160 35q0 87 71.5 156t195.5 69q110 0 182.5 -50.5t72.5 -153.5q0 -50 -34.5 -92t-99.5 -57
q78 -9 114 -56.5t36 -110.5q0 -86 -75 -153t-198 -67q-50 0 -95 13t-85 41t-65.5 78.5t-30.5 117.5z" />
    <glyph glyph-name="four.tf" 
d="M24 166v117l283 423h186v-415h125v-125h-125v-166h-150v166h-319zM191 291h152v247z" />
    <glyph glyph-name="five.tf" 
d="M58 183l145 36q7 -50 38 -80.5t83 -30.5q47 0 79 37t32 89q0 56 -27 95.5t-87 39.5q-39 0 -71 -26.5t-38 -59.5l-149 31l51 392h445v-125h-323l-18 -142q16 22 53 38.5t84 16.5q114 0 172 -72.5t58 -187.5q0 -114 -74 -182.5t-187 -68.5q-115 0 -180.5 55.5t-85.5 144.5z
" />
    <glyph glyph-name="six.tf" 
d="M586 543l-152 -33q-14 49 -37 68.5t-57 19.5q-111 0 -133 -181q10 25 51.5 46t88.5 21q117 0 181.5 -71t64.5 -176q0 -81 -40 -141t-96.5 -86.5t-117.5 -26.5q-77 0 -134 28t-89.5 78t-48 111.5t-15.5 136.5q0 77 16 143.5t49.5 122t93 88t139.5 32.5q77 0 142.5 -45
t93.5 -135zM330 108q46 0 79.5 33t33.5 93q0 59 -33.5 92t-79.5 33t-79.5 -33t-33.5 -92q0 -60 33.5 -93t79.5 -33z" />
    <glyph glyph-name="seven.tf" 
d="M280 0h-173q43 115 167.5 332t150.5 249h-371v125h540v-119q-38 -48 -152 -258.5t-162 -328.5z" />
    <glyph glyph-name="eight.tf" 
d="M187 377q-115 43 -115 156q0 30 15 62t44 61.5t79 48t112 18.5t112 -18.5t79 -48t44 -61.5t15 -62q0 -113 -115 -156q73 -25 106.5 -66.5t33.5 -110.5q0 -88 -76.5 -152.5t-198.5 -64.5t-198.5 64t-76.5 153q0 69 33.5 110.5t106.5 66.5zM197 209q0 -45 34.5 -73
t90.5 -28t90.5 28t34.5 73q0 13 -3 25t-13.5 32t-38.5 32t-70 12t-70 -12t-38.5 -32t-13.5 -32t-3 -25zM222 517q0 -36 25 -58t75 -22t75 22t25 58q0 34 -25.5 57.5t-74.5 23.5t-74.5 -23.5t-25.5 -57.5z" />
    <glyph glyph-name="nine.tf" 
d="M50 172l157 36q8 -51 34.5 -75.5t62.5 -24.5q46 0 76.5 33.5t42 74.5t14.5 89q-9 -24 -50 -44t-88 -20q-116 0 -180.5 72.5t-64.5 175.5q0 105 77 169.5t176 64.5q76 0 132.5 -28t89 -78t48 -111.5t15.5 -135.5q0 -77 -16 -143.5t-49.5 -122.5t-93 -88.5t-139.5 -32.5
q-78 0 -149.5 50.5t-94.5 138.5zM312 364q42 0 75.5 33t33.5 84q0 52 -33.5 84.5t-75.5 32.5t-75 -33t-33 -84t33.5 -84t74.5 -33z" />
    <glyph glyph-name="uni2007.tf" 
 />
    <glyph glyph-name="parenleft.case" horiz-adv-x="335" 
d="M329 -98h-116q-177 254 -177 451t177 451h116q-36 -60 -56 -97.5t-48 -100t-41 -125.5t-13 -128t13 -128t41 -125.5t48 -100t56 -97.5z" />
    <glyph glyph-name="parenright.case" horiz-adv-x="334" 
d="M122 -98h-116q36 60 56 97.5t48 100t41 125.5t13 128t-13 128t-41 125.5t-48 100t-56 97.5h116q177 -254 177 -451t-177 -451z" />
    <glyph glyph-name="hyphen.case" horiz-adv-x="453" 
d="M58 299v123h337v-123h-337z" />
    <glyph glyph-name="bracketleft.case" horiz-adv-x="361" 
d="M72 -98v902h265v-98h-135v-706h136v-98h-266z" />
    <glyph glyph-name="bracketright.case" horiz-adv-x="361" 
d="M23 -98v98h136v706h-135v98h265v-902h-266z" />
    <glyph glyph-name="braceleft.case" horiz-adv-x="355" 
d="M340 -44v-54q-60 0 -89.5 2t-62.5 13.5t-53 34.5q-16 17 -23.5 42.5t-8.5 45t-1 59.5v56q0 75 -5 93q-15 61 -74 79v52q59 18 74 79q5 18 5 93v56q0 40 1 59.5t8.5 45t23.5 42.5q29 33 73 41.5t132 8.5v-54q-23 -6 -34.5 -10t-26.5 -12.5t-24 -21.5t-15 -32
q-8 -24 -8 -92v-32q0 -95 -14 -126q-22 -54 -92 -71q69 -16 92 -71q14 -31 14 -126v-32q0 -68 8 -92q6 -19 15 -32t24 -21.5t26.5 -12.5t34.5 -10z" />
    <glyph glyph-name="braceright.case" horiz-adv-x="355" 
d="M15 -98v54q23 6 34.5 10t26.5 12.5t24 21.5t15 32q8 24 8 92v32q0 95 14 126q23 55 92 71q-70 17 -92 71q-14 31 -14 126v32q0 68 -8 92q-6 19 -15 32t-24 21.5t-26.5 12.5t-34.5 10v54q60 0 89.5 -2t62.5 -13.5t53 -34.5q16 -17 23.5 -42.5t8.5 -45t1 -59.5v-56
q0 -75 5 -93q15 -61 74 -79v-52q-59 -18 -74 -79q-5 -18 -5 -93v-56q0 -40 -1 -59.5t-8.5 -45t-23.5 -42.5q-29 -33 -73 -41.5t-132 -8.5z" />
    <glyph glyph-name="guillemotleft.case" horiz-adv-x="466" 
d="M42 297v112l174 109v-112l-103 -53l103 -53v-112zM231 297v112l174 109v-112l-103 -53l103 -53v-112z" />
    <glyph glyph-name="uni00AD.case" horiz-adv-x="455" 
d="M59 291v123h337v-123h-337z" />
    <glyph glyph-name="guillemotright.case" horiz-adv-x="466" 
d="M61 188v112l103 53l-103 53v112l174 -109v-112zM250 188v112l103 53l-103 53v112l174 -109v-112z" />
    <glyph glyph-name="gravecomb.case" horiz-adv-x="0" 
d="M-249 764l-108 185h133l82 -185h-107z" />
    <glyph glyph-name="acutecomb.case" horiz-adv-x="0" 
d="M-357 764l82 185h133l-108 -185h-107z" />
    <glyph glyph-name="uni0302.case" horiz-adv-x="0" 
d="M-445 764l135 185h120l135 -185h-118l-77 113l-77 -113h-118z" />
    <glyph glyph-name="tildecomb.case" horiz-adv-x="0" 
d="M-420 800v107q16 16 46 27.5t54 11.5q28 0 74 -14q6 -2 20.5 -8t27 -9t26.5 -3q56 0 92 45v-107q-16 -16 -46 -27.5t-54 -11.5q-28 0 -74 14q-6 2 -20.5 8t-27 9t-26.5 3q-56 0 -92 -45z" />
    <glyph glyph-name="uni0304.case" horiz-adv-x="0" 
d="M-420 829v101h340v-101h-340z" />
    <glyph glyph-name="uni0306.case" horiz-adv-x="0" 
d="M-416 930v19h100v-19q0 -39 16.5 -63.5t49.5 -24.5q34 0 50.5 24.5t16.5 63.5v19h100v-19q0 -80 -46.5 -128t-120.5 -48q-75 0 -120.5 48t-45.5 128z" />
    <glyph glyph-name="uni0307.case" horiz-adv-x="0" 
d="M-320 787v145h140v-145h-140z" />
    <glyph glyph-name="uni0308.case" horiz-adv-x="0" 
d="M-417 787v145h145v-145h-145zM-228 787v145h145v-145h-145z" />
    <glyph glyph-name="uni030A.case" horiz-adv-x="0" 
d="M-250 811q20 0 34.5 14.5t14.5 34.5t-14.5 34.5t-34.5 14.5t-34.5 -14.5t-14.5 -34.5t14.5 -34.5t34.5 -14.5zM-250 754q-44 0 -75 31t-31 75t31 75t75 31t75 -31t31 -75t-31 -75t-75 -31z" />
    <glyph glyph-name="uni030B.case" horiz-adv-x="0" 
d="M-434 764l82 185h133l-108 -185h-107zM-280 764l82 185h133l-108 -185h-107z" />
    <glyph glyph-name="uni030C.case" horiz-adv-x="0" 
d="M-310 764l-135 185h118l77 -113l77 113h118l-135 -185h-120z" />
    <glyph glyph-name="uni0323.case" horiz-adv-x="0" 
d="M-320 -195v145h140v-145h-140z" />
    <glyph glyph-name="uni0326.case" horiz-adv-x="0" 
d="M-329 -235l34 185h125l-84 -185h-75z" />
    <glyph glyph-name="uni0327.case" horiz-adv-x="0" 
d="M-331 -247v64h46q19 0 31 13t12 33q0 15 -12.5 26.5t-30.5 11.5h-46v109h65v-45q43 -3 70.5 -30.5t27.5 -71.5q0 -50 -31 -80t-77 -30h-55z" />
    <glyph glyph-name="uni0328.case" horiz-adv-x="0" 
d="M-151 -247h-46q-64 0 -109.5 46t-45.5 110q0 58 37 101h118v-10q-33 0 -57 -26.5t-24 -64.5q0 -39 24 -65.5t57 -26.5h46v-64z" />
    <glyph glyph-name="uni032E.case" horiz-adv-x="0" 
d="M-416 -68v19h100v-19q0 -39 16.5 -63.5t49.5 -24.5q34 0 50.5 24.5t16.5 63.5v19h100v-19q0 -80 -46.5 -128t-120.5 -48q-75 0 -120.5 48t-45.5 128z" />
    <glyph glyph-name="uni0331.case" horiz-adv-x="0" 
d="M-420 -150v101h340v-101h-340z" />
    <glyph glyph-name="endash.case" horiz-adv-x="569" 
d="M58 299v123h453v-123h-453z" />
    <glyph glyph-name="emdash.case" horiz-adv-x="824" 
d="M58 299v123h708v-123h-708z" />
    <glyph glyph-name="guilsinglleft.case" horiz-adv-x="277" 
d="M42 297v112l174 109v-112l-103 -53l103 -53v-112z" />
    <glyph glyph-name="guilsinglright.case" horiz-adv-x="277" 
d="M61 188v112l103 53l-103 53v112l174 -109v-112z" />
    <glyph glyph-name="zero.zero" horiz-adv-x="667" 
d="M333 -17q-73 0 -130.5 32.5t-91 86.5t-51 118t-17.5 133q0 70 17.5 134t51 118t91 86t130.5 32q74 0 131.5 -32t91.5 -86t51 -118t17 -134q0 -69 -17 -133t-51 -118t-91.5 -86.5t-131.5 -32.5zM203 353q0 -64 11 -112l202 312q-33 45 -83 45q-46 0 -76.5 -38t-42 -90.5
t-11.5 -116.5zM333 108q47 0 77.5 38.5t42 91t11.5 115.5q0 54 -11 109l-202 -310q33 -44 82 -44z" />
    <glyph glyph-name="cedilla.ss01" horiz-adv-x="347" 
d="M50 -221l21 45q33 -19 81 -19q52 0 52 45q0 18 -12 29t-32 11q-27 0 -41 -6l-21 18l71 108h56l-53 -77l1 -1q13 4 36 4q37 0 62.5 -20t25.5 -61q0 -45 -31.5 -73.5t-96.5 -28.5q-64 0 -119 26z" />
    <glyph glyph-name="Ccedilla.ss01" horiz-adv-x="764" 
d="M267 -221l21 45q33 -19 81 -19q52 0 52 45q0 18 -12 29t-32 11q-27 0 -41 -6l-21 18l54 82q-140 10 -237 110.5t-97 258.5q0 163 104.5 266.5t262.5 103.5q246 0 337 -237l-155 -37q-57 149 -182 149q-89 0 -148 -69t-59 -176q0 -109 60 -177t142 -68q62 0 116 43t78 134
l156 -32q-35 -131 -124 -196.5t-199 -72.5l-35 -51l1 -1q13 4 36 4q37 0 62.5 -20t25.5 -61q0 -45 -31.5 -73.5t-96.5 -28.5q-64 0 -119 26z" />
    <glyph glyph-name="ccedilla.ss01" horiz-adv-x="541" 
d="M150 -221l21 45q33 -19 81 -19q52 0 52 45q0 18 -12 29t-32 11q-27 0 -41 -6l-21 18l57 87q-103 8 -164 82t-61 170q0 102 67.5 177.5t181.5 75.5q99 0 160.5 -55.5t76.5 -120.5l-140 -29q-20 100 -97 100q-55 0 -82 -44.5t-27 -103.5t27 -103.5t82 -44.5q27 0 46 10.5
t29.5 30t15 34t8.5 35.5l140 -27q-4 -27 -18.5 -55.5t-38.5 -57t-63.5 -48.5t-86.5 -25l-39 -57l1 -1q13 4 36 4q37 0 62.5 -20t25.5 -61q0 -45 -31.5 -73.5t-96.5 -28.5q-64 0 -119 26z" />
    <glyph glyph-name="Scedilla.ss01" horiz-adv-x="684" 
d="M214 -221l21 45q33 -19 81 -19q52 0 52 45q0 18 -12 29t-32 11q-27 0 -41 -6l-21 18l53 82q-239 11 -292 239l159 35q0 -74 44.5 -112t121.5 -38q63 0 103 28.5t40 65.5q0 36 -25 53.5t-79 30.5l-111 23q-33 7 -48.5 11t-44.5 13t-44 17.5t-35.5 24.5t-30.5 34.5
t-17.5 45.5t-7.5 60q0 96 86 152t205 56q75 0 131 -18.5t88.5 -51t50 -67t25.5 -75.5l-153 -34q-8 59 -45 90t-97 31t-97 -21t-37 -62q0 -18 8 -31t23.5 -21t27 -11.5t30.5 -7.5l140 -30q31 -7 51.5 -12.5t55.5 -21.5t56.5 -35t38.5 -52.5t17 -75.5q0 -96 -75 -161.5
t-207 -71.5l-35 -51l1 -1q13 4 36 4q37 0 62.5 -20t25.5 -61q0 -45 -31.5 -73.5t-96.5 -28.5q-64 0 -119 26z" />
    <glyph glyph-name="scedilla.ss01" horiz-adv-x="512" 
d="M129 -221l21 45q33 -19 81 -19q52 0 52 45q0 18 -12 29t-32 11q-27 0 -41 -6l-21 18l57 87q-81 4 -138 46t-71 111l134 30q9 -45 30.5 -66.5t62.5 -21.5q39 0 64 14t25 40q0 25 -17.5 34.5t-68.5 18.5l-26 4q-92 14 -141 47t-49 105q0 21 11.5 43.5t35 46t69.5 38.5
t107 15q70 0 127.5 -37.5t76.5 -104.5l-121 -31q-12 40 -31 56.5t-60 16.5q-35 0 -58 -10.5t-23 -31.5q0 -7 2 -13t7 -11t9.5 -8.5t12.5 -6t13.5 -4.5t15 -4t14.5 -2.5t14.5 -2t12.5 -1.5l26 -4q28 -5 49.5 -10t48 -16t43.5 -25.5t29 -37.5t12 -53q0 -71 -52.5 -112.5
t-139.5 -50.5l-39 -57l1 -1q13 4 36 4q37 0 62.5 -20t25.5 -61q0 -45 -31.5 -73.5t-96.5 -28.5q-64 0 -119 26z" />
    <glyph glyph-name="uni0162.ss01" horiz-adv-x="616" 
d="M228 0v581h-218v125h596v-125h-218v-581h-36l-46 -67l1 -1q13 4 36 4q37 0 62.5 -20t25.5 -61q0 -45 -31.5 -73.5t-96.5 -28.5q-64 0 -119 26l21 45q33 -19 81 -19q52 0 52 45q0 18 -12 29t-32 11q-27 0 -41 -6l-21 18l64 98h-68z" />
    <glyph glyph-name="uni0163.ss01" horiz-adv-x="364" 
d="M89 -221l21 45q33 -19 81 -19q52 0 52 45q0 18 -12 29t-32 11q-27 0 -41 -6l-21 18l63 96q-98 16 -98 107v272h-93v105h93v159h140v-159h94v-105h-94v-212q0 -59 47 -59q34 0 47 3v-111q-38 -6 -76 -6h-9l-40 -59l1 -1q13 4 36 4q37 0 62.5 -20t25.5 -61
q0 -45 -31.5 -73.5t-96.5 -28.5q-64 0 -119 26z" />
    <glyph glyph-name="uni0327.ss01" horiz-adv-x="0" 
d="M-413 -221l21 45q33 -19 81 -19q52 0 52 45q0 18 -12 29t-32 11q-27 0 -41 -6l-21 18l71 108h56l-53 -77l1 -1q13 4 36 4q37 0 62.5 -20t25.5 -61q0 -45 -31.5 -73.5t-96.5 -28.5q-64 0 -119 26z" />
    <glyph glyph-name="uni0327.case.ss01" horiz-adv-x="0" 
d="M-413 -221l21 45q33 -19 81 -19q52 0 52 45q0 18 -12 29t-32 11q-27 0 -41 -6l-21 18l71 108h56l-53 -77l1 -1q13 4 36 4q37 0 62.5 -20t25.5 -61q0 -45 -31.5 -73.5t-96.5 -28.5q-64 0 -119 26z" />
    <glyph glyph-name="Aogonek.ss02" horiz-adv-x="744" 
d="M722 -172l25 -25l-11 -11l-12 -12t-12.5 -9.5t-17.5 -10t-19 -5t-25 -2.5q-49 0 -78.5 29.5t-29.5 68.5q0 94 89 149h-49l-71 190h-279l-70 -190h-165l285 706h180l285 -706h-60q-20 -27 -37 -65t-17 -65q0 -28 15.5 -44.5t31.5 -16.5q23 0 42 19zM277 310h190l-95 255z
" />
    <glyph glyph-name="aogonek.ss02" horiz-adv-x="539" 
d="M489 -172l25 -25l-10 -11q-11 -10 -13 -12t-12.5 -9.5t-17.5 -10t-19 -5t-25 -2.5q-49 0 -78.5 29.5t-29.5 68.5q0 94 89 149h-43q0 4 -4 29l-4 25q-42 -66 -144 -66q-77 0 -125 44t-48 103q0 42 14.5 71.5t44 46.5t60.5 25.5t78 15.5q1 0 36 5t37 5q33 5 44 13.5
t11 24.5q0 26 -22.5 39t-56.5 13q-94 0 -95 -85l-134 31q12 81 82 120q61 34 147 34q92 0 151.5 -43t59.5 -132v-181q0 -28 0.5 -52t1.5 -39t2.5 -25t2 -15.5t0.5 -6.5h-40q-20 -27 -37 -65t-17 -65q0 -28 15.5 -44.5t31.5 -16.5q23 0 42 19zM170 146q0 -22 19.5 -40
t46.5 -18q23 0 46 7t44 30.5t21 60.5v36l-7 -1q-3 0 -13.5 -1.5t-15.5 -2.5l-6 -1l-40 -7q-22 -4 -35.5 -7.5t-29 -10t-23 -18t-7.5 -27.5z" />
    <glyph glyph-name="Eogonek.ss02" horiz-adv-x="646" 
d="M70 0v706h524v-125h-364v-157h350v-125h-350v-174h371v-125h-60q-20 -27 -37 -65t-17 -65q0 -28 15.5 -44.5t31.5 -16.5q23 0 42 19l25 -25l-11 -11l-12 -12t-12.5 -9.5t-17.5 -10t-19 -5t-25 -2.5q-49 0 -78.5 29.5t-29.5 68.5q0 94 89 149h-415z" />
    <glyph glyph-name="eogonek.ss02" horiz-adv-x="544" 
d="M350 -172l25 -25l-11 -11l-12 -12t-12.5 -9.5t-17.5 -10t-19 -5t-25 -2.5q-49 0 -78.5 29.5t-29.5 68.5q0 82 74 139q-104 11 -158.5 83t-54.5 167q0 105 65 179.5t177 74.5q101 0 170.5 -69.5t69.5 -177.5q0 -29 -2 -47h-340q2 -53 30 -82.5t72 -29.5q81 0 102 83
l125 -32q-13 -53 -66 -97t-127 -52q-46 -70 -46 -120q0 -28 15.5 -44.5t31.5 -16.5q23 0 42 19zM171 301h204q0 39 -26.5 66t-75.5 27q-47 0 -74.5 -25.5t-27.5 -67.5z" />
    <glyph glyph-name="Iogonek.ss02" horiz-adv-x="300" 
d="M70 0v706h160v-706h-45q-20 -27 -37 -65t-17 -65q0 -28 15.5 -44.5t31.5 -16.5q23 0 42 19l25 -25l-11 -11l-12 -12t-12.5 -9.5t-17.5 -10t-19 -5t-25 -2.5q-49 0 -78.5 29.5t-29.5 68.5q0 94 89 149h-59z" />
    <glyph glyph-name="iogonek.ss02" horiz-adv-x="250" 
d="M55 0v482h140v-482h-35q-20 -27 -37 -65t-17 -65q0 -28 15.5 -44.5t31.5 -16.5q23 0 42 19l25 -25l-10 -11q-11 -10 -13 -12t-12.5 -9.5t-17.5 -10t-19 -5t-25 -2.5q-49 0 -78.5 29.5t-29.5 68.5q0 94 89 149h-49zM55 562v144h140v-144h-140z" />
    <glyph glyph-name="Uogonek.ss02" horiz-adv-x="746" 
d="M450 -172l25 -25l-11 -11l-12 -12t-12.5 -9.5t-17.5 -10t-19 -5t-25 -2.5q-49 0 -78.5 29.5t-29.5 68.5q0 78 67 134q-123 9 -198.5 78.5t-75.5 197.5v445h160v-445q0 -77 41.5 -115t108.5 -38t108.5 38t41.5 115v445h160v-445q0 -130 -77 -199t-202 -78
q-43 -62 -43 -114q0 -28 15.5 -44.5t31.5 -16.5q23 0 42 19z" />
    <glyph glyph-name="uogonek.ss02" horiz-adv-x="558" 
d="M498 -172l25 -25l-11 -11l-12 -12t-12.5 -9.5t-17.5 -10t-19 -5t-25 -2.5q-49 0 -78.5 29.5t-29.5 68.5q0 94 89 149h-40v58q-9 -23 -45.5 -46.5t-99.5 -23.5q-98 0 -142 72q-30 50 -30 114v308h140v-307q0 -27 13 -49q21 -33 61 -33q35 0 61 21q38 28 38 99v269h140
v-482h-40q-20 -27 -37 -65t-17 -65q0 -28 15.5 -44.5t31.5 -16.5q23 0 42 19z" />
    <glyph glyph-name="uni01EA.ss02" horiz-adv-x="809" 
d="M482 -172l25 -25l-11 -11l-12 -12t-12.5 -9.5t-17.5 -10t-19 -5t-25 -2.5q-49 0 -78.5 29.5t-29.5 68.5q0 78 67 134q-84 6 -149.5 39t-105 84.5t-59.5 113t-20 129.5q0 71 22 135.5t65.5 118.5t117 86t166.5 32q92 0 164.5 -32t116 -85.5t65.5 -118.5t22 -136
q0 -93 -34.5 -171.5t-113 -134t-190.5 -61.5q-43 -62 -43 -114q0 -28 15.5 -44.5t31.5 -16.5q23 0 42 19zM406 108q101 0 154.5 71.5t53.5 171.5q0 64 -21.5 118.5t-70 91.5t-116.5 37q-103 0 -157 -73t-54 -174t54 -172t157 -71z" />
    <glyph glyph-name="uni01EB.ss02" horiz-adv-x="563" 
d="M360 -172l25 -25l-11 -11l-12 -12t-12.5 -9.5t-17.5 -10t-19 -5t-25 -2.5q-49 0 -78.5 29.5t-29.5 68.5q0 82 73 139q-103 9 -163 83t-60 167q0 100 68.5 177t183.5 77t183 -77t68 -177q0 -91 -58 -165t-157 -85q-18 -24 -32.5 -60t-14.5 -60q0 -28 15.5 -44.5
t31.5 -16.5q23 0 42 19zM282 93q53 0 82 45t29 102t-29 103t-82 46t-82.5 -46t-29.5 -103q0 -56 29.5 -101.5t82.5 -45.5z" />
    <glyph glyph-name="ogonek.ss02" horiz-adv-x="305" 
d="M230 -172l25 -25l-11 -11l-12 -12t-12.5 -9.5t-17.5 -10t-19 -5t-25 -2.5q-49 0 -78.5 29.5t-29.5 68.5q0 53 31 94.5t75 64.5h48q-22 -22 -42.5 -66t-20.5 -74q0 -28 15.5 -44.5t31.5 -16.5q23 0 42 19z" />
    <glyph glyph-name="uni0328.ss02" horiz-adv-x="0" 
d="M-172 -172l25 -25l-11 -11l-12 -12t-12.5 -9.5t-17.5 -10t-19 -5t-25 -2.5q-49 0 -78.5 29.5t-29.5 68.5q0 53 31 94.5t75 64.5h48q-22 -22 -42.5 -66t-20.5 -74q0 -28 15.5 -44.5t31.5 -16.5q23 0 42 19z" />
    <glyph glyph-name="uni0328.case.ss02" horiz-adv-x="0" 
d="M-172 -172l25 -25l-11 -11l-12 -12t-12.5 -9.5t-17.5 -10t-19 -5t-25 -2.5q-49 0 -78.5 29.5t-29.5 68.5q0 53 31 94.5t75 64.5h48q-22 -22 -42.5 -66t-20.5 -74q0 -28 15.5 -44.5t31.5 -16.5q23 0 42 19z" />
    <glyph glyph-name="Adieresis.ss03" horiz-adv-x="788" 
d="M59 561v145h145v-145h-145zM584 561v145h145v-145h-145zM19 0l285 706h180l285 -706h-165l-71 190h-279l-70 -190h-165zM299 310h190l-95 255z" />
    <glyph glyph-name="Odieresis.ss03" horiz-adv-x="927" 
d="M29 561v145h105v-145h-105zM793 561v145h105v-145h-105zM465 108q101 0 154.5 71.5t53.5 171.5q0 64 -21.5 118.5t-70 91.5t-116.5 37q-103 0 -157 -73t-54 -174t54 -172t157 -71zM465 -17q-94 0 -167 31t-116.5 84t-65.5 117t-22 136q0 71 22 135.5t65.5 118.5t117 86
t166.5 32q92 0 164.5 -32t116 -85.5t65.5 -118.5t22 -136q0 -72 -22 -136t-65.5 -117t-116 -84t-164.5 -31z" />
    <glyph glyph-name="Udieresis.ss03" horiz-adv-x="746" 
d="M445 372h-145v145h145v-145zM445 561h-145v145h145v-145zM63 261v445h160v-445q0 -77 41.5 -115t108.5 -38t108.5 38t41.5 115v445h160v-445q0 -137 -87 -207.5t-223 -70.5t-223 70.5t-87 207.5z" />
    <glyph glyph-name="one.ss04" horiz-adv-x="532" 
d="M35 0v125h162v360h-136v126h64q48 0 66 20t18 75h148v-581h162v-125h-484z" />
    <glyph glyph-name="orn001" 
d="M10 353q0 129 91.5 220.5t220.5 91.5t220.5 -91.5t91.5 -220.5t-91.5 -220.5t-220.5 -91.5t-220.5 91.5t-91.5 220.5z" />
    <glyph glyph-name="orn002" 
d="M10 353q0 129 91.5 220.5t220.5 91.5t220.5 -91.5t91.5 -220.5t-91.5 -220.5t-220.5 -91.5t-220.5 91.5t-91.5 220.5zM42 353q0 -116 82 -198t198 -82t198 82t82 198t-82 198t-198 82t-198 -82t-82 -198z" />
    <glyph glyph-name="orn003" 
d="M22 53v600h600v-600h-600z" />
    <glyph glyph-name="orn004" 
d="M22 53v600h600v-600h-600zM54 621v-536h536v536h-536z" />
    <glyph glyph-name="orn005" 
d="M171 -98v902l301 -451z" />
    <glyph glyph-name="orn006" horiz-adv-x="922" 
d="M912 0h-902l451 301z" />
    <glyph glyph-name="orn007" 
d="M171 -98v902h301v-902h-301z" />
    <glyph glyph-name="orn008" horiz-adv-x="922" 
d="M912 0h-902v301h902v-301z" />
    <glyph glyph-name="orn009" 
d="M284 -98v902h75v-902h-75z" />
    <glyph glyph-name="orn010" horiz-adv-x="922" 
d="M912 0h-902v75h902v-75z" />
    </font>
</defs>
</svg>
