<?xml version="1.0" standalone="no"?>
<!DOCTYPE svg PUBLIC "-//W3C//DTD SVG 1.1//EN" "http://www.w3.org/Graphics/SVG/1.1/DTD/svg11.dtd" >
<svg xmlns="http://www.w3.org/2000/svg" xmlns:xlink="http://www.w3.org/1999/xlink" version="1.1">
<metadata>
Created by FontForge 20170731 at Wed Jun  6 23:24:28 2018
 By Aleksey,,,
(c) 2017, Forgotten Shapes GbR. All rights reserved.
</metadata>
<defs>
<font id="GerstnerProgrammFSL-Light" horiz-adv-x="644" >
  <font-face 
    font-family="Gerstner Programm FSL Light"
    font-weight="300"
    font-stretch="normal"
    units-per-em="1000"
    panose-1="2 1 4 4 1 1 1 1 1 4"
    ascent="741"
    descent="-259"
    x-height="482"
    cap-height="706"
    bbox="-389 -258 1176 1030"
    underline-thickness="50"
    underline-position="-225"
    unicode-range="U+000D-FEFF"
  />
<missing-glyph horiz-adv-x="505" 
d="M64 0v706h377v-706h-377zM117 53h271v600h-271v-600z" />
    <glyph glyph-name="f_f" unicode="ff" horiz-adv-x="532" 
d="M360 0v427h-194v-427h-64v427h-94v55h94v93q0 70 26 106.5t91 36.5q31 0 50 -5v-57q-17 4 -36 4q-33 0 -50 -18.5t-17 -64.5v-95h194v93q0 70 26 106.5t91 36.5q31 0 50 -5v-57q-17 4 -36 4q-33 0 -50 -18.5t-17 -64.5v-95h100v-55h-100v-427h-64z" />
    <glyph glyph-name="f_f_i" unicode="ffi" horiz-adv-x="730" 
d="M360 0v427h-194v-427h-64v427h-94v55h94v93q0 70 26 106.5t91 36.5q31 0 50 -5v-57q-17 4 -36 4q-33 0 -50 -18.5t-17 -64.5v-95h194v93q0 70 26 106.5t91 36.5q31 0 50 -5v-57q-17 4 -36 4q-33 0 -50 -18.5t-17 -64.5v-95h100v-55h-100v-427h-64zM603 0v482h64v-482h-64
zM603 628v78h64v-78h-64z" />
    <glyph glyph-name="f_f_l" unicode="ffl" horiz-adv-x="730" 
d="M360 0v427h-194v-427h-64v427h-94v55h94v93q0 70 26 106.5t91 36.5q31 0 50 -5v-57q-17 4 -36 4q-33 0 -50 -18.5t-17 -64.5v-95h194v93q0 70 26 106.5t91 36.5q31 0 50 -5v-57q-17 4 -36 4q-33 0 -50 -18.5t-17 -64.5v-95h100v-55h-100v-427h-64zM603 0v706h64v-706h-64
z" />
    <glyph glyph-name="f_i" unicode="fi" horiz-adv-x="472" 
d="M102 0v427h-94v55h94v93q0 70 26 106.5t91 36.5q31 0 50 -5v-57q-17 4 -36 4q-33 0 -50 -18.5t-17 -64.5v-95h100v-55h-100v-427h-64zM345 0v482h64v-482h-64zM345 628v78h64v-78h-64z" />
    <glyph glyph-name="f_l" unicode="fl" horiz-adv-x="472" 
d="M102 0v427h-94v55h94v93q0 70 26 106.5t91 36.5q31 0 50 -5v-57q-17 4 -36 4q-33 0 -50 -18.5t-17 -64.5v-95h100v-55h-100v-427h-64zM345 0v706h64v-706h-64z" />
    <glyph glyph-name=".notdef" horiz-adv-x="505" 
d="M64 0v706h377v-706h-377zM117 53h271v600h-271v-600z" />
    <glyph glyph-name=".null" horiz-adv-x="0" 
 />
    <glyph glyph-name="nonmarkingreturn" unicode="&#xd;" horiz-adv-x="212" 
 />
    <glyph glyph-name="null" horiz-adv-x="0" 
 />
    <glyph glyph-name="null" horiz-adv-x="0" 
 />
    <glyph glyph-name="space" unicode=" " horiz-adv-x="212" 
 />
    <glyph glyph-name="exclam" unicode="!" horiz-adv-x="222" 
d="M66 0v90h90v-90h-90zM79 168l-10 538h84l-10 -538h-64z" />
    <glyph glyph-name="quotedbl" unicode="&#x22;" horiz-adv-x="302" 
d="M55 439v267h59v-267h-59zM187 439v267h60v-267h-60z" />
    <glyph glyph-name="numbersign" unicode="#" 
d="M162 0l35 246h-171v59h179l14 97h-166v60h174l35 244h61l-35 -244h97l35 244h61l-35 -244h171v-60h-180l-14 -97h167v-59h-175l-35 -246h-60l35 246h-98l-35 -246h-60zM265 305h98l14 97h-98z" />
    <glyph glyph-name="dollar" unicode="$" 
d="M296 -93v77q-100 6 -168 66t-76 162l70 8q6 -79 55.5 -124t118.5 -52v290q-53 12 -88 24t-70 33t-52.5 54t-17.5 78q0 84 59.5 138.5t168.5 60.5v77h50v-77q96 -6 153 -58.5t76 -138.5l-74 -10q-28 133 -155 147v-269l32 -7q107 -24 160 -67t53 -132q0 -86 -69 -141.5
t-176 -61.5v-77h-50zM346 323v-279q81 6 128 44.5t47 98.5q0 27 -9.5 48.5t-21.5 33.5t-36.5 22.5t-41 15t-48.5 12.5zM296 405v257q-71 -7 -114.5 -40.5t-43.5 -98.5q0 -48 40 -73t118 -45z" />
    <glyph glyph-name="percent" unicode="%" horiz-adv-x="850" 
d="M242 373q42 0 65 44t23 102t-23 102t-65 44t-65 -44t-23 -102t23 -102t65 -44zM242 323q-70 0 -110 59t-40 137q0 77 40 136.5t110 59.5t110 -59.5t40 -136.5q0 -78 -40 -137t-110 -59zM158 0l464 706h71l-465 -706h-70zM609 41q42 0 65 44t23 102t-23 102t-65 44
t-65 -44t-23 -102t23 -102t65 -44zM609 -9q-70 0 -110 59t-40 137q0 77 40 136.5t110 59.5t110 -59.5t40 -136.5q0 -78 -40 -137t-110 -59z" />
    <glyph glyph-name="ampersand" unicode="&#x26;" horiz-adv-x="629" 
d="M393 0v381h-125q-72 0 -118.5 -44t-46.5 -121q0 -78 45.5 -123t119.5 -45q40 0 61 4v-52q-32 -12 -71 -12q-98 0 -160 60t-62 168q0 74 39 127t109 74q-105 33 -105 135q0 75 56.5 123.5t136.5 48.5q87 0 136 -46.5t49 -125.5v-107h168v-64h-168v-381h-64zM393 445v107
q0 52 -31 82t-90 30q-56 0 -91 -32t-35 -80t34 -77.5t88 -29.5h125z" />
    <glyph glyph-name="quotesingle" unicode="'" horiz-adv-x="169" 
d="M55 439v267h59v-267h-59z" />
    <glyph glyph-name="parenleft" unicode="(" horiz-adv-x="241" 
d="M107 241q0 -209 112 -464h-41q-144 256 -144 464q0 209 144 465h41q-112 -255 -112 -465z" />
    <glyph glyph-name="parenright" unicode=")" horiz-adv-x="242" 
d="M134 242q0 209 -112 464h41q144 -256 144 -464q0 -209 -144 -465h-41q112 255 112 465z" />
    <glyph glyph-name="asterisk" unicode="*" horiz-adv-x="421" 
d="M77 401l96 113l-144 35l21 66l136 -57l-10 148h69l-12 -148l138 56l20 -66l-144 -35l96 -113l-56 -40l-77 124l-77 -124z" />
    <glyph glyph-name="plus" unicode="+" 
d="M293 0v281h-272v60h272v280h59v-280h271v-60h-271v-281h-59z" />
    <glyph glyph-name="comma" unicode="," horiz-adv-x="190" 
d="M-1 -177l65 267h78l-86 -267h-57z" />
    <glyph glyph-name="hyphen" unicode="-" horiz-adv-x="393" 
d="M55 299v67h283v-67h-283z" />
    <glyph glyph-name="period" unicode="." horiz-adv-x="194" 
d="M52 0v90h90v-90h-90z" />
    <glyph glyph-name="slash" unicode="/" horiz-adv-x="357" 
d="M26 0l239 706h67l-238 -706h-68z" />
    <glyph glyph-name="zero" unicode="0" horiz-adv-x="598" 
d="M299 43q60 0 104 46t64.5 114.5t20.5 147.5q0 124 -50.5 218t-138.5 94t-138.5 -94t-50.5 -218q0 -79 20.5 -147.5t64.5 -114.5t104 -46zM299 -17q-81 0 -140.5 55.5t-87.5 137.5t-28 175t28 176t88 139.5t140 56.5t140 -56.5t88 -139.5t28 -176t-28 -175t-87.5 -137.5
t-140.5 -55.5z" />
    <glyph glyph-name="one" unicode="1" horiz-adv-x="283" 
d="M142 0v555h-123v55h16q62 0 90.5 19.5t28.5 76.5h49v-706h-61z" />
    <glyph glyph-name="two" unicode="2" horiz-adv-x="534" 
d="M33 0v81q40 24 79.5 50.5t98 74t101 93t73.5 103t31 109.5q0 68 -38 110t-108 42q-66 0 -106.5 -43t-44.5 -137l-70 16q4 104 66 164t155 60q101 0 157 -59.5t56 -152.5q0 -54 -26 -111t-64.5 -104t-92.5 -95t-99.5 -81t-95.5 -65h394v-55h-466z" />
    <glyph glyph-name="three" unicode="3" horiz-adv-x="544" 
d="M34 209l72 12q6 -90 49.5 -134t109.5 -44q74 0 121.5 44t47.5 108q0 63 -46.5 104t-123.5 41h-87v60h83q66 0 111 42t45 94q0 59 -42 93t-107 34q-40 0 -69.5 -15.5t-45.5 -40.5t-24 -49.5t-9 -49.5l-70 17q1 26 12.5 57t35 64t68 55t102.5 22q97 0 156.5 -50.5
t59.5 -136.5q0 -51 -39 -101.5t-108 -61.5q80 -15 122.5 -64t42.5 -113q0 -89 -61 -151t-175 -62q-94 0 -158.5 60.5t-72.5 165.5z" />
    <glyph glyph-name="four" unicode="4" horiz-adv-x="545" 
d="M19 194v71l276 441h103v-457h128v-55h-128v-194h-67v194h-312zM83 249h248v402z" />
    <glyph glyph-name="five" unicode="5" horiz-adv-x="529" 
d="M38 166l72 13q34 -136 147 -136q80 0 124 52.5t44 140.5q0 70 -42 120.5t-106 50.5q-113 0 -155 -108l-75 14l46 393h375v-60h-316l-33 -261q16 28 60.5 55t104.5 27q92 0 150 -69t58 -162q0 -111 -63 -182t-172 -71q-85 0 -141.5 49.5t-77.5 133.5z" />
    <glyph glyph-name="six" unicode="6" horiz-adv-x="543" 
d="M491 567l-73 -15q-17 60 -45.5 85.5t-74.5 25.5q-54 0 -93 -35.5t-57.5 -91t-26.5 -105t-8 -96.5q15 51 64.5 87t117.5 36q86 0 148 -65.5t62 -163.5q0 -111 -64 -178.5t-154 -67.5q-61 0 -106.5 24t-70.5 60t-40.5 86.5t-20 93t-4.5 90.5q0 68 12.5 131.5t40 123
t79 95.5t121.5 36q64 0 117 -39.5t76 -116.5zM287 43q62 0 106.5 50t44.5 136q0 75 -44.5 122t-108.5 47q-44 0 -77 -20t-49 -50t-23 -56t-7 -46q0 -82 44 -132.5t114 -50.5z" />
    <glyph glyph-name="seven" unicode="7" horiz-adv-x="501" 
d="M169 0h-68q52 132 149 328.5t167 317.5h-403l2 60h467v-66q-77 -128 -168.5 -316t-145.5 -324z" />
    <glyph glyph-name="eight" unicode="8" horiz-adv-x="551" 
d="M193 377q-55 14 -91.5 61.5t-36.5 101.5q0 68 55 125.5t155 57.5t155 -57.5t55 -125.5q0 -55 -35 -101.5t-93 -61.5q65 -10 108.5 -62t43.5 -133q0 -78 -63 -138.5t-171 -60.5q-60 0 -107 20t-73.5 51.5t-40 65t-13.5 64.5q0 79 43.5 129.5t108.5 63.5zM108 182
q0 -51 43.5 -95t123.5 -44t123.5 44t43.5 95q0 75 -40.5 119t-126.5 44q-85 0 -126 -46.5t-41 -116.5zM132 540q0 -46 35.5 -89t107.5 -43t107.5 43t35.5 89t-38.5 85.5t-104.5 39.5t-104.5 -39.5t-38.5 -85.5z" />
    <glyph glyph-name="nine" unicode="9" horiz-adv-x="543" 
d="M52 139l73 15q17 -60 45.5 -85.5t74.5 -25.5q34 0 61.5 14t45.5 33t32 53t21.5 58.5t13 67.5t7 61.5t4.5 56.5q-17 -52 -65 -87.5t-117 -35.5q-91 0 -150.5 64t-59.5 159q0 103 64.5 169.5t153.5 66.5q59 0 103.5 -23.5t70.5 -59t42 -85t21 -93.5t5 -93q0 -68 -12 -130.5
t-39 -123t-79 -96.5t-123 -36q-61 0 -115.5 40t-77.5 116zM258 324q74 0 115 54t41 109q0 71 -42 123.5t-116 52.5q-65 0 -108 -52t-43 -124q0 -69 44.5 -116t108.5 -47z" />
    <glyph glyph-name="colon" unicode=":" horiz-adv-x="198" 
d="M54 0v90h90v-90h-90zM54 392v90h90v-90h-90z" />
    <glyph glyph-name="semicolon" unicode=";" horiz-adv-x="230" 
d="M23 -177l65 267h78l-86 -267h-57zM76 392v90h90v-90h-90z" />
    <glyph glyph-name="less" unicode="&#x3c;" 
d="M8 297v70l603 265v-64l-536 -236l536 -236v-64z" />
    <glyph glyph-name="equal" unicode="=" 
d="M21 203v59h602v-59h-602zM21 360v60h602v-60h-602z" />
    <glyph glyph-name="greater" unicode="&#x3e;" 
d="M33 32v64l536 236l-536 236v64l603 -265v-70z" />
    <glyph glyph-name="question" unicode="?" horiz-adv-x="501" 
d="M216 168v229h34q61 0 105 36t44 101q0 63 -43.5 96t-105.5 33q-128 0 -155 -145l-72 12q15 89 78.5 141t148.5 52q91 0 154.5 -50t63.5 -139q0 -83 -51.5 -134t-133.5 -57v-175h-67zM205 0v90h90v-90h-90z" />
    <glyph glyph-name="at" unicode="@" horiz-adv-x="770" 
d="M658 158l35 -26q-48 -70 -125.5 -109.5t-164.5 -39.5q-161 0 -264 99.5t-103 264.5q0 162 105 269t258 107q145 0 240.5 -86.5t95.5 -221.5q0 -116 -72 -201t-158 -85q-26 0 -44.5 17t-21.5 49q-63 -65 -128 -65q-59 0 -94.5 41.5t-35.5 101.5q0 108 67 197t167 89
q35 0 64 -21.5t41 -61.5l25 64h52l-95 -285q-11 -30 -11 -53q0 -29 24 -29q64 0 115.5 80t51.5 165q0 119 -81 189.5t-200 70.5q-136 0 -224 -96t-88 -235q0 -145 88 -232t226 -87q74 0 144.5 35t110.5 95zM325 182q64 0 114 79.5t50 152.5q0 37 -22 64.5t-56 27.5
q-48 0 -88 -38t-60 -90t-20 -100q0 -44 23 -70t59 -26z" />
    <glyph glyph-name="A" unicode="A" horiz-adv-x="637" 
d="M3 0l268 706h98l264 -706h-75l-82 219h-316l-82 -219h-75zM182 279h272l-136 371z" />
    <glyph glyph-name="B" unicode="B" horiz-adv-x="640" 
d="M78 0v706h281q94 0 156 -46.5t62 -137.5q0 -70 -41 -111.5t-86 -46.5q76 -15 114.5 -55t38.5 -117q0 -101 -66.5 -146.5t-177.5 -45.5h-281zM145 60h225q164 0 164 129q0 70 -48 107t-158 37h-183v-273zM145 393h186q33 0 61.5 5.5t56 19t43.5 40.5t16 65q0 59 -43.5 91
t-105.5 32h-214v-253z" />
    <glyph glyph-name="C" unicode="C" horiz-adv-x="674" 
d="M585 236l68 -12q-7 -39 -25.5 -77.5t-51 -77t-88 -62.5t-124.5 -24q-84 0 -148.5 31t-102 84.5t-56 117.5t-18.5 137q0 97 34.5 179t110 136.5t178.5 54.5q64 0 117 -21.5t86 -56t53 -71t29 -74.5l-68 -12q-17 68 -71 121.5t-146 53.5q-119 0 -186 -92t-67 -218
q0 -83 24.5 -150.5t84 -113.5t146.5 -46q53 0 95 19t67 50t39.5 62t19.5 62z" />
    <glyph glyph-name="D" unicode="D" horiz-adv-x="691" 
d="M145 60h139q68 0 121 16.5t85.5 43.5t53.5 66t29 79.5t8 87.5t-8 87.5t-29 79.5t-53.5 66t-85.5 43.5t-121 16.5h-139v-586zM78 0v706h206q53 0 101 -8.5t98 -33t86 -62.5t59 -102t23 -147t-23 -147t-59 -102t-86 -62.5t-98 -33t-101 -8.5h-206z" />
    <glyph glyph-name="E" unicode="E" horiz-adv-x="568" 
d="M78 0v706h444v-60h-377v-250h364v-60h-364v-276h386v-60h-453z" />
    <glyph glyph-name="F" unicode="F" horiz-adv-x="540" 
d="M78 0v706h444v-60h-377v-246h355v-60h-355v-340h-67z" />
    <glyph glyph-name="G" unicode="G" horiz-adv-x="701" 
d="M591 0v119q-61 -136 -228 -136q-85 0 -149.5 31t-101.5 84.5t-55 117.5t-18 137q0 97 34.5 179t109.5 136.5t178 54.5q111 0 178.5 -56t96.5 -135l-68 -13q-23 60 -75 102t-132 42q-81 0 -139.5 -45.5t-85.5 -114.5t-27 -150q0 -61 14.5 -114.5t43.5 -98.5t79.5 -71
t116.5 -26q92 0 158.5 65.5t66.5 203.5h-227v60h292v-372h-62z" />
    <glyph glyph-name="H" unicode="H" horiz-adv-x="699" 
d="M78 0v706h67v-309h408v309h68v-706h-68v337h-408v-337h-67z" />
    <glyph glyph-name="I" unicode="I" horiz-adv-x="223" 
d="M78 0v706h67v-706h-67z" />
    <glyph glyph-name="J" unicode="J" horiz-adv-x="537" 
d="M14 211l72 11q0 -80 38 -130.5t117 -50.5q78 0 117.5 49t39.5 125v491h67v-485q0 -110 -61 -174t-163 -64t-161.5 61t-65.5 167z" />
    <glyph glyph-name="K" unicode="K" horiz-adv-x="586" 
d="M78 0v706h67v-330l329 330h90l-335 -328l383 -378h-95l-372 368v-368h-67z" />
    <glyph glyph-name="L" unicode="L" horiz-adv-x="519" 
d="M78 0v706h67v-646h363v-60h-430z" />
    <glyph glyph-name="M" unicode="M" horiz-adv-x="847" 
d="M78 0v706h108l240 -630l234 630h109v-706h-67v630l-233 -630h-86l-238 629v-629h-67z" />
    <glyph glyph-name="N" unicode="N" horiz-adv-x="732" 
d="M78 0v706h95l414 -637v637h67v-706h-104l-405 637v-637h-67z" />
    <glyph glyph-name="O" unicode="O" horiz-adv-x="717" 
d="M360 43q82 0 140 45.5t83 113t25 148.5q0 128 -63.5 220.5t-184.5 92.5q-63 0 -112.5 -27t-79 -72t-44.5 -99.5t-15 -114.5t15 -113.5t44.5 -97.5t79 -70t112.5 -26zM360 -17q-81 0 -144 31t-101 84t-57 117t-19 135t19 136t57 119t101 86t144 32q80 0 142.5 -32t100 -86
t56.5 -119t19 -136t-19 -135.5t-56.5 -117t-100 -83.5t-142.5 -31z" />
    <glyph glyph-name="P" unicode="P" horiz-adv-x="593" 
d="M78 0v706h263q230 0 230 -194q0 -196 -230 -196h-196v-316h-67zM145 376h196q161 0 161 136q0 134 -161 134h-196v-270z" />
    <glyph glyph-name="Q" unicode="Q" horiz-adv-x="724" 
d="M664 -25l-88 92q-82 -84 -216 -84q-81 0 -144 31t-101 84t-57 117t-19 135t19 136t57 119t101 86t144 32q80 0 142.5 -32t100 -86t56.5 -119t19 -136q0 -135 -62 -232l96 -101zM360 43q82 0 140 45.5t83 113t25 148.5q0 128 -63.5 220.5t-184.5 92.5q-63 0 -112.5 -27
t-79 -72t-44.5 -99.5t-15 -114.5t15 -113.5t44.5 -97.5t79 -70t112.5 -26z" />
    <glyph glyph-name="R" unicode="R" horiz-adv-x="647" 
d="M78 0v706h273q119 0 174.5 -49t55.5 -136q0 -78 -38.5 -118t-79.5 -49q113 -15 113 -135v-108q0 -68 42 -111h-80q-31 39 -31 101v110q0 67 -35 87.5t-110 20.5h-217v-319h-67zM145 379h217q150 0 150 142q0 57 -38.5 91t-122.5 34h-206v-267z" />
    <glyph glyph-name="S" unicode="S" horiz-adv-x="602" 
d="M31 212l70 8q6 -85 63.5 -131t132.5 -46q93 0 148 40t55 104q0 27 -9.5 48.5t-21.5 33.5t-36.5 22.5t-41 15t-48.5 12.5l-48 11q-49 11 -76.5 19t-65.5 23.5t-57.5 34t-34 48t-14.5 68.5q0 90 67 145t188 55q106 0 169.5 -53.5t82.5 -144.5l-74 -10q-15 76 -63.5 112
t-114.5 36q-79 0 -132 -35t-53 -105q0 -23 11.5 -41.5t26 -30t45.5 -23t50.5 -16.5t59.5 -15l47 -11q107 -24 160 -67t53 -132q0 -92 -77 -148t-196 -56q-107 0 -182.5 61t-83.5 168z" />
    <glyph glyph-name="T" unicode="T" horiz-adv-x="544" 
d="M238 0v646h-227v60h522v-60h-228v-646h-67z" />
    <glyph glyph-name="U" unicode="U" horiz-adv-x="676" 
d="M72 241v465h67v-465q0 -88 53 -143t147 -55q95 0 146.5 53t51.5 145v465h67v-465q0 -124 -72.5 -191t-192.5 -67q-134 0 -200.5 74t-66.5 184z" />
    <glyph glyph-name="V" unicode="V" horiz-adv-x="616" 
d="M260 0l-252 706h73l227 -633l237 633h70l-265 -706h-90z" />
    <glyph glyph-name="W" unicode="W" horiz-adv-x="930" 
d="M200 0l-191 706h69l174 -641l159 641h108l159 -641l174 641h69l-191 -706h-105l-160 646l-160 -646h-105z" />
    <glyph glyph-name="X" unicode="X" horiz-adv-x="583" 
d="M-14 0l264 382l-225 324h79l187 -270l188 270h79l-225 -324l264 -382h-79l-227 327l-226 -327h-79z" />
    <glyph glyph-name="Y" unicode="Y" horiz-adv-x="588" 
d="M258 0v332l-246 374h78l205 -315l214 315h74l-256 -374v-332h-69z" />
    <glyph glyph-name="Z" unicode="Z" horiz-adv-x="570" 
d="M20 0v75l428 571h-411v60h494v-60l-439 -586h463v-60h-535z" />
    <glyph glyph-name="bracketleft" unicode="[" horiz-adv-x="256" 
d="M74 -223v929h170v-53h-109v-823h109v-53h-170z" />
    <glyph glyph-name="backslash" unicode="\" horiz-adv-x="357" 
d="M263 0l-238 706h67l239 -706h-68z" />
    <glyph glyph-name="bracketright" unicode="]" horiz-adv-x="256" 
d="M12 -223v53h109v823h-109v53h170v-929h-170z" />
    <glyph glyph-name="asciicircum" unicode="^" 
d="M113 350l180 356h63l174 -356h-76l-131 273l-134 -273h-76z" />
    <glyph glyph-name="underscore" unicode="_" horiz-adv-x="520" 
d="M0 -125v53h520v-53h-520z" />
    <glyph glyph-name="grave" unicode="`" horiz-adv-x="237" 
d="M130 540l-80 165h74l63 -165h-57z" />
    <glyph glyph-name="a" unicode="a" horiz-adv-x="470" 
d="M417 0h-65q-6 30 -6 77q-41 -89 -154 -89q-74 0 -116.5 39t-42.5 98q0 33 11 58.5t27 40.5t44.5 27t52.5 18t61 13q38 6 58 10q28 5 41.5 16t15.5 20.5t2 28.5q0 10 -3.5 21.5t-13.5 26.5t-34.5 24.5t-59.5 9.5q-110 0 -120 -110l-69 11q7 48 30 82q47 72 159 72
q83 0 129 -34t46 -118v-238q0 -69 7 -104zM100 125q0 -36 28.5 -59t67.5 -23q22 0 45 6t48 19.5t41 43t16 70.5v75q-30 -12 -88 -23l-30 -6q-42 -8 -65.5 -16t-43 -30t-19.5 -57z" />
    <glyph glyph-name="b" unicode="b" horiz-adv-x="533" 
d="M63 0v706h64v-306q12 37 58 65.5t97 28.5q102 0 159.5 -73t57.5 -180q0 -40 -12.5 -82t-37.5 -81.5t-71 -64.5t-106 -25q-47 0 -90 28.5t-55 66.5v-83h-64zM274 43q42 0 74.5 18.5t49.5 48.5t25.5 62.5t8.5 67.5q0 92 -42.5 145.5t-114.5 53.5q-25 0 -48.5 -8.5
t-47.5 -28.5t-39 -61.5t-15 -99.5q0 -56 15.5 -97.5t40 -62t48 -29.5t45.5 -9z" />
    <glyph glyph-name="c" unicode="c" horiz-adv-x="486" 
d="M396 167l66 -13q-5 -26 -18.5 -53t-37.5 -53.5t-62.5 -43t-86.5 -16.5q-77 0 -128.5 37.5t-72.5 92t-21 122.5q0 104 58 179t163 75q93 0 142.5 -49t61.5 -114l-66 -10q-1 14 -9 32t-22.5 38.5t-42.5 34t-64 13.5q-73 0 -113.5 -59t-40.5 -140q0 -83 38.5 -140t116.5 -57
q61 0 98 39.5t41 84.5z" />
    <glyph glyph-name="d" unicode="d" horiz-adv-x="532" 
d="M405 0v82q-12 -38 -57 -66t-97 -28q-56 0 -99.5 23.5t-68 61.5t-37 80.5t-12.5 86.5q0 65 23 121t75 94.5t124 38.5q47 0 92 -29t57 -66v307h64v-706h-64zM258 43q24 0 47.5 8.5t47.5 29t39 61.5t15 98t-14.5 98.5t-38.5 62t-46.5 29.5t-44.5 9q-74 0 -118 -55.5
t-44 -142.5q0 -79 41 -138.5t116 -59.5z" />
    <glyph glyph-name="e" unicode="e" horiz-adv-x="491" 
d="M387 155l66 -12q-12 -56 -65 -105.5t-131 -49.5q-111 0 -166.5 72.5t-55.5 179.5q0 106 56 180t155 74q103 0 157 -72.5t54 -187.5v-6h-355q0 -46 13.5 -85.5t50 -69.5t91.5 -30q56 0 89.5 35t40.5 77zM104 282h282q0 60 -37 108.5t-103 48.5q-67 0 -104.5 -45
t-37.5 -112z" />
    <glyph glyph-name="f" unicode="f" horiz-adv-x="274" 
d="M102 0v427h-94v55h94v93q0 70 26 106.5t91 36.5q31 0 50 -5v-57q-17 4 -36 4q-33 0 -50 -18.5t-17 -64.5v-95h100v-55h-100v-427h-64z" />
    <glyph glyph-name="g" unicode="g" horiz-adv-x="526" 
d="M58 -64l72 12q2 -57 39 -92.5t87 -35.5q143 0 143 165v97q-12 -38 -57 -66t-97 -28q-97 0 -153.5 68.5t-56.5 184.5q0 34 7 68t23.5 68t41 59.5t63 41.5t85.5 16q48 0 90 -28.5t54 -66.5v83h64v-498q0 -219 -207 -219q-78 0 -134 44t-64 127zM252 43q24 0 47.5 8.5
t47.5 29t39 61.5t15 98t-14 98.5t-36.5 62t-44.5 29.5t-44 9q-80 0 -120 -57.5t-40 -139.5q0 -92 41.5 -145.5t108.5 -53.5z" />
    <glyph glyph-name="h" unicode="h" horiz-adv-x="502" 
d="M63 0v706h64v-314q11 40 54 71t99 31q79 0 127 -61q25 -30 31 -64t6 -120v-249h-64v249q0 73 -4.5 102.5t-18.5 47.5q-28 40 -94 40q-67 0 -107 -55q-21 -28 -25 -57.5t-4 -115.5v-211h-64z" />
    <glyph glyph-name="i" unicode="i" horiz-adv-x="190" 
d="M63 0v482h64v-482h-64zM63 628v78h64v-78h-64z" />
    <glyph glyph-name="j" unicode="j" horiz-adv-x="198" 
d="M-32 -230v57q17 -4 37 -4q66 0 66 83v576h64v-570q0 -75 -23.5 -111t-93.5 -36q-31 0 -50 5zM71 628v78h64v-78h-64z" />
    <glyph glyph-name="k" unicode="k" horiz-adv-x="459" 
d="M63 0v706h64v-438l225 214h85l-227 -216l270 -266h-85l-268 256v-256h-64z" />
    <glyph glyph-name="l" unicode="l" horiz-adv-x="190" 
d="M63 0v706h64v-706h-64z" />
    <glyph glyph-name="m" unicode="m" horiz-adv-x="774" 
d="M63 0v482h64v-87q8 37 49 68t91 31q75 0 120 -61q15 -21 24 -49q11 41 52.5 75.5t99.5 34.5q74 0 119 -60q22 -30 28 -64.5t6 -120.5v-249h-64v277q0 28 -1 46t-7 42.5t-17 38.5t-32 24.5t-51 10.5q-58 0 -96 -55q-16 -24 -21.5 -48.5t-5.5 -71.5v-264h-64v277
q0 35 -3 58t-12.5 49.5t-32.5 40.5t-59 14q-59 0 -97 -55q-18 -27 -22 -55.5t-4 -98.5v-230h-64z" />
    <glyph glyph-name="n" unicode="n" horiz-adv-x="502" 
d="M63 0v482h64v-87q8 37 52.5 68t99.5 31q82 0 129 -59q24 -30 30 -64.5t6 -121.5v-249h-64v249q0 73 -4.5 102.5t-18.5 47.5q-28 40 -95 40q-69 0 -107 -55q-14 -19 -20 -45.5t-7 -48.5t-1 -79v-211h-64z" />
    <glyph glyph-name="o" unicode="o" horiz-adv-x="515" 
d="M258 43q75 0 115.5 59t40.5 138t-41 139t-115 60q-75 0 -116 -59.5t-41 -139.5q0 -79 41 -138t116 -59zM258 -12q-103 0 -163.5 76t-60.5 176t60.5 177t163.5 77t163 -77t60 -177t-60 -176t-163 -76z" />
    <glyph glyph-name="p" unicode="p" horiz-adv-x="533" 
d="M63 -223v705h64v-82q12 37 58 65.5t97 28.5q102 0 159.5 -73t57.5 -180q0 -40 -12.5 -82t-37.5 -81.5t-71 -64.5t-106 -25q-47 0 -90 28.5t-55 66.5v-306h-64zM274 43q42 0 74.5 18.5t49.5 48.5t25.5 62.5t8.5 67.5q0 92 -42.5 145.5t-114.5 53.5q-25 0 -48.5 -8.5
t-47.5 -28.5t-39 -61.5t-15 -99.5q0 -56 15.5 -97.5t40 -62t48 -29.5t45.5 -9z" />
    <glyph glyph-name="q" unicode="q" horiz-adv-x="532" 
d="M405 -223v305q-12 -38 -57 -66t-97 -28q-56 0 -99.5 23.5t-68 61.5t-37 80.5t-12.5 86.5q0 65 23 121t75 94.5t124 38.5q47 0 92 -29t57 -66v83h64v-705h-64zM258 43q24 0 47.5 8.5t47.5 29t39 61.5t15 98t-14.5 98.5t-38.5 62t-46.5 29.5t-44.5 9q-74 0 -118 -55.5
t-44 -142.5q0 -79 41 -138.5t116 -59.5z" />
    <glyph glyph-name="r" unicode="r" horiz-adv-x="317" 
d="M63 0v482h64v-92q9 39 51 71.5t98 32.5q22 0 34 -4v-73q-15 5 -49 5q-65 0 -106 -60q-13 -17 -19.5 -44.5t-7.5 -50.5t-1 -64v-203h-64z" />
    <glyph glyph-name="s" unicode="s" horiz-adv-x="452" 
d="M27 154l72 14q0 -56 33.5 -90.5t94.5 -34.5q53 0 89 22.5t36 67.5q0 28 -19.5 46t-38.5 24t-47 11q-2 0 -3.5 0.5t-3.5 0.5l-27 5q-23 5 -34 7.5t-32.5 8.5t-32.5 12t-26.5 17t-23 23.5t-13.5 30.5t-6 40q0 60 48 97.5t130 37.5q72 0 125 -41t62 -114l-70 -10
q-9 110 -119 110q-58 0 -84.5 -26t-26.5 -54q0 -59 103 -77l39 -7q36 -6 60 -13t52 -22t42.5 -42t14.5 -65q0 -66 -57 -105.5t-137 -39.5q-52 0 -93 18t-63 45.5t-33 54t-11 48.5z" />
    <glyph glyph-name="t" unicode="t" horiz-adv-x="286" 
d="M100 108v319h-93v55h93v159h64v-159h106v-55h-106v-316q0 -36 14 -49t43 -13q22 0 49 5v-51q-25 -9 -65 -9q-105 0 -105 114z" />
    <glyph glyph-name="u" unicode="u" horiz-adv-x="498" 
d="M58 233v249h64v-249q0 -73 4.5 -102.5t18.5 -47.5q28 -40 95 -40q37 0 60 13.5t43 41.5q21 28 25 57.5t4 115.5v211h63v-482h-64v87q-8 -38 -50 -68.5t-98 -30.5q-82 0 -129 59q-24 30 -30 64.5t-6 121.5z" />
    <glyph glyph-name="v" unicode="v" horiz-adv-x="450" 
d="M186 0l-175 482h66l148 -404l153 404h65l-182 -482h-75z" />
    <glyph glyph-name="w" unicode="w" horiz-adv-x="722" 
d="M162 0l-153 482h66l128 -410l112 410h90l116 -410l128 410h64l-153 -482h-83l-117 416l-115 -416h-83z" />
    <glyph glyph-name="x" unicode="x" horiz-adv-x="405" 
d="M6 0l157 251l-142 231h72l110 -179l115 179h72l-148 -232l152 -250h-73l-119 196l-123 -196h-73z" />
    <glyph glyph-name="y" unicode="y" horiz-adv-x="438" 
d="M28 -231v60q21 -6 36 -6q66 0 87 57l36 102l-175 500h66l143 -403l145 403h64l-222 -628q-31 -89 -130 -89q-25 0 -50 4z" />
    <glyph glyph-name="z" unicode="z" horiz-adv-x="415" 
d="M19 0v68l290 361h-265v53h342v-53l-301 -374h307v-55h-373z" />
    <glyph glyph-name="braceleft" unicode="{" horiz-adv-x="255" 
d="M245 -189v-34q-51 4 -76 12t-46 32q-22 27 -28 59t-6 91v83q0 94 -11 119q-7 17 -17.5 28.5t-18 15.5t-22.5 10v30q15 6 22.5 10t18 15.5t17.5 28.5q11 25 11 119v82q0 59 6 91t28 59q22 24 47 32t75 12v-34q-66 -21 -83 -62q-12 -27 -12 -97v-69q0 -86 -3.5 -113.5
t-20.5 -49.5q-20 -27 -57 -39q37 -12 57 -39q17 -22 20.5 -49.5t3.5 -113.5v-70q0 -70 12 -97q17 -41 83 -62z" />
    <glyph glyph-name="bar" unicode="|" horiz-adv-x="208" 
d="M74 -223v929h60v-929h-60z" />
    <glyph glyph-name="braceright" unicode="}" horiz-adv-x="255" 
d="M10 672v34q50 -4 75 -12t47 -32q22 -27 28 -59t6 -91v-83q0 -94 11 -119q7 -17 17.5 -28.5t18 -15.5t22.5 -10v-30q-15 -6 -22.5 -10t-18 -15.5t-17.5 -28.5q-11 -25 -11 -119v-82q0 -59 -6 -91t-28 -59q-21 -24 -46.5 -32t-75.5 -12v34q66 21 83 62q12 27 12 97v69
q0 86 3.5 113.5t20.5 49.5q20 27 57 39q-37 12 -57 39q-17 22 -20.5 49.5t-3.5 113.5v70q0 70 -12 97q-17 41 -83 62z" />
    <glyph glyph-name="asciitilde" unicode="~" 
d="M63 256l-41 7q23 76 69.5 112.5t101.5 36.5q53 0 106.5 -24t99 -48t79.5 -24q44 0 69.5 21t42.5 75l41 -7q-23 -76 -69.5 -112.5t-101.5 -36.5q-53 0 -106.5 24t-99 48t-79.5 24q-44 0 -69.5 -21t-42.5 -75z" />
    <glyph glyph-name="uni00A0" unicode="&#xa0;" horiz-adv-x="212" 
 />
    <glyph glyph-name="exclamdown" unicode="&#xa1;" horiz-adv-x="222" 
d="M66 616v90h90v-90h-90zM69 0l10 538h64l10 -538h-84z" />
    <glyph glyph-name="cent" unicode="&#xa2;" 
d="M264 -93v84q-124 25 -185 126.5t-61 235.5q0 130 64.5 233t181.5 129v84h50v-77q4 0 12.5 0.5t13.5 0.5q4 0 13 -0.5t13 -0.5v77h50v-85q87 -20 140 -82t69 -132l-68 -12q-14 52 -48.5 97t-92.5 66v-597q65 22 101.5 74.5t45.5 107.5l68 -12q-7 -45 -29 -89t-71 -86.5
t-115 -57.5v-84h-50v77q-4 0 -12 -0.5t-12 -0.5q-6 0 -15 0.5t-13 0.5v-77h-50zM366 44v618q-9 1 -26 1q-18 0 -26 -1v-618q9 -1 28 -1q16 0 24 1zM264 54v597q-85 -29 -131 -111.5t-46 -186.5q0 -69 17.5 -128.5t58.5 -106t101 -64.5z" />
    <glyph glyph-name="sterling" unicode="&#xa3;" 
d="M96 0l120 363h-138v62h159l60 180q18 52 60.5 82.5t104.5 30.5q31 0 58 -9v-62q-15 9 -58 9q-75 0 -101 -71l-53 -160h185v-62h-206l-100 -301h380v-62h-471z" />
    <glyph glyph-name="currency" unicode="&#xa4;" 
d="M46 79l74 73q-19 27 -28 43.5t-18 47t-9 67.5q0 87 55 156l-73 73l45 45l73 -73q25 18 39.5 26.5t47.5 18.5t71 10q13 0 25.5 -1t24 -3.5t20.5 -5t19.5 -7t16.5 -7t15 -8t12.5 -7.5t12.5 -8t10 -7l73 73l46 -46l-74 -73q54 -71 54 -158q0 -85 -55 -156l74 -75l-46 -45
l-73 75q-2 -1 -12 -8t-12.5 -8.5t-12 -7t-13 -7t-13 -6t-15.5 -6t-16.5 -4.5t-19 -4t-20 -2t-23.5 -1q-52 0 -86 13.5t-70 40.5l-74 -73zM323 112q81 0 137.5 56t56.5 142q0 87 -57.5 142t-135.5 55q-82 0 -140 -55t-58 -143q0 -82 56.5 -139.5t140.5 -57.5z" />
    <glyph glyph-name="yen" unicode="&#xa5;" 
d="M283 0v230h-203v50h203v52h-203v50h170l-213 324h78l205 -315l214 315h74l-222 -324h178v-50h-212v-52h212v-50h-212v-230h-69z" />
    <glyph glyph-name="brokenbar" unicode="&#xa6;" horiz-adv-x="212" 
d="M76 -223v389h60v-389h-60zM76 317v389h60v-389h-60z" />
    <glyph glyph-name="section" unicode="&#xa7;" horiz-adv-x="417" 
d="M154 -201v54q20 -5 50 -5q75 0 75 73q0 18 -10 38.5t-21 34t-24.5 29t-14.5 16.5l-115 127q-67 72 -67 159q0 51 32.5 85t74.5 51q-60 75 -60 135q0 65 39 96t100 31q30 0 50 -5v-54q-20 5 -50 5q-75 0 -75 -73q0 -48 70 -118l115 -127q67 -72 67 -159q0 -89 -108 -136
q61 -81 61 -135q0 -65 -39 -96t-100 -31q-30 0 -50 5zM141 210l107 -117q78 22 78 99q0 60 -50 115l-107 117q-78 -22 -78 -99q0 -60 50 -115z" />
    <glyph glyph-name="dieresis" unicode="&#xa8;" horiz-adv-x="386" 
d="M50 575v86h81v-86h-81zM255 575v86h81v-86h-81z" />
    <glyph glyph-name="copyright" unicode="&#xa9;" horiz-adv-x="810" 
d="M545 280l57 -9q-10 -56 -59 -102.5t-138 -46.5q-91 0 -155 67.5t-64 164.5q0 95 64 163.5t155 68.5q83 0 131 -42t63 -96l-58 -9q-28 93 -136 93q-69 0 -114 -50t-45 -128t45 -128t114 -50q115 0 140 104zM67 353q0 -140 99 -239t239 -99t239 99t99 239t-99 239t-239 99
t-239 -99t-99 -239zM35 353q0 153 108.5 261.5t261.5 108.5t261.5 -108.5t108.5 -261.5t-108.5 -261.5t-261.5 -108.5t-261.5 108.5t-108.5 261.5z" />
    <glyph glyph-name="ordfeminine" unicode="&#xaa;" horiz-adv-x="345" 
d="M293 391h-46q-4 12 -4 42q-29 -50 -99 -50q-49 0 -77.5 29.5t-28.5 64.5q0 50 36.5 71.5t106.5 33.5l24 4q25 5 31.5 13.5t6.5 26.5q0 6 -2 13.5t-8.5 17t-22 15.5t-38.5 6q-71 0 -77 -72l-48 7q4 31 19 57q29 48 106 48q87 0 111 -61q6 -13 6 -65v-131q0 -18 1 -34.5
t2 -26.5zM243 511v46q-3 -2 -29.5 -7.5t-30.5 -6.5l-13 -3q-57 -15 -71 -28q-14 -14 -14 -35t17.5 -37.5t41.5 -16.5q13 0 28 3.5t32 12.5t28 27.5t11 44.5z" />
    <glyph glyph-name="guillemotleft" unicode="&#xab;" horiz-adv-x="418" 
d="M36 309v58l165 136v-71l-115 -94l115 -94v-71zM196 309v58l165 136v-71l-115 -94l115 -94v-71z" />
    <glyph glyph-name="logicalnot" unicode="&#xac;" 
d="M41 281v60h548v-300h-60v240h-488z" />
    <glyph glyph-name="uni00AD" unicode="&#xad;" horiz-adv-x="393" 
d="M55 299v67h283v-67h-283z" />
    <glyph glyph-name="registered" unicode="&#xae;" horiz-adv-x="492" 
d="M152 461v259h96q46 0 61 -6q39 -16 39 -59q0 -49 -58 -62q20 -8 28.5 -20t13.5 -37q6 -43 19 -75h-44q-5 9 -8 21t-5 32t-3 24q-5 27 -20 35t-46 8h-35v-120h-38zM191 612h61q58 0 58 41q0 18 -13 28q-12 10 -55 10h-51v-79zM63 589q0 -76 53.5 -129.5t129.5 -53.5
t129.5 53.5t53.5 129.5t-53.5 129.5t-129.5 53.5t-129.5 -53.5t-53.5 -129.5zM31 589q0 89 63 152t152 63t152 -63t63 -152t-63 -152t-152 -63t-152 63t-63 152z" />
    <glyph glyph-name="overscore" unicode="&#xaf;" horiz-adv-x="382" 
d="M50 586v59h282v-59h-282z" />
    <glyph glyph-name="degree" unicode="&#xb0;" horiz-adv-x="398" 
d="M199 425q46 0 79 33t33 79t-33 79t-79 33t-79 -33t-33 -79t33 -79t79 -33zM199 368q-69 0 -119 50t-50 119t50 119t119 50t119 -50t50 -119t-50 -119t-119 -50z" />
    <glyph glyph-name="plusminus" unicode="&#xb1;" 
d="M40 346v60h253v215h59v-215h252v-60h-252v-216h-59v216h-253zM40 0v60h564v-60h-564z" />
    <glyph glyph-name="twosuperior" unicode="&#xb2;" horiz-adv-x="360" 
d="M45 502v58q21 9 65.5 40t77.5 64q57 57 57 107q0 29 -16.5 46.5t-44.5 17.5q-67 0 -68 -88l-63 14q0 61 38.5 92.5t92.5 31.5q55 0 89 -31.5t34 -82.5q0 -67 -75 -142q-37 -37 -108 -78h190v-49h-269z" />
    <glyph glyph-name="threesuperior" unicode="&#xb3;" horiz-adv-x="360" 
d="M42 620l63 12q5 -89 72 -89q35 0 54.5 19t19.5 47q0 25 -19 44.5t-61 19.5h-45v50h43q32 0 52.5 17t20.5 39q0 26 -18 41t-46 15q-35 0 -51 -22.5t-16 -53.5l-62 14q0 40 34 76t95 36q53 0 89.5 -28.5t36.5 -78.5q0 -22 -18.5 -48.5t-55.5 -31.5q42 -3 62.5 -33t20.5 -60
q0 -46 -37.5 -79t-98.5 -33q-54 0 -92.5 32.5t-42.5 94.5z" />
    <glyph glyph-name="acute" unicode="&#xb4;" horiz-adv-x="237" 
d="M50 540l63 165h74l-80 -165h-57z" />
    <glyph glyph-name="mu" unicode="&#xb5;" horiz-adv-x="519" 
d="M71 -223v705h64v-269q0 -32 1.5 -52.5t8 -45.5t18.5 -39t35 -23.5t55 -9.5q131 0 131 186v253h64v-482h-64v86q-10 -39 -51.5 -68.5t-96.5 -29.5q-58 0 -101 33v-244h-64z" />
    <glyph glyph-name="paragraph" unicode="&#xb6;" horiz-adv-x="523" 
d="M183 -223v544q-69 12 -114 65.5t-45 125.5q0 80 57 137t137 57h248v-44h-34v-885h-46v885h-157v-885h-46z" />
    <glyph glyph-name="middot" unicode="&#xb7;" horiz-adv-x="223" 
d="M48 311q0 26 18.5 45t44.5 19t45 -19t19 -45t-19 -44.5t-45 -18.5t-44.5 18.5t-18.5 44.5z" />
    <glyph glyph-name="cedilla" unicode="&#xb8;" horiz-adv-x="228" 
d="M50 -223v42h26q55 0 55 43q0 42 -55 42h-26v100h47v-60q37 -2 59 -24t22 -58q0 -40 -29 -62.5t-73 -22.5h-26z" />
    <glyph glyph-name="onesuperior" unicode="&#xb9;" horiz-adv-x="360" 
d="M168 502v274h-69v50h22q29 0 41 10t12 40h54v-374h-60z" />
    <glyph glyph-name="ordmasculine" unicode="&#xba;" horiz-adv-x="363" 
d="M182 423q47 0 72.5 37.5t25.5 88.5t-25.5 90t-72.5 39q-48 0 -74 -39t-26 -90q0 -50 26 -88t74 -38zM182 382q-69 0 -109 50.5t-40 116.5q0 68 40 118.5t109 50.5q68 0 108 -50.5t40 -118.5q0 -66 -40 -116.5t-108 -50.5z" />
    <glyph glyph-name="guillemotright" unicode="&#xbb;" horiz-adv-x="418" 
d="M57 173v71l115 94l-115 94v71l165 -136v-58zM217 173v71l115 94l-115 94v71l165 -136v-58z" />
    <glyph glyph-name="onequarter" unicode="&#xbc;" horiz-adv-x="850" 
d="M168 332v274h-69v50h22q29 0 41 10t12 40h54v-374h-60zM129 0l464 706h71l-465 -706h-70zM462 95v51l148 228h78v-230h69v-49h-69v-95h-59v95h-167zM525 144h104v169z" />
    <glyph glyph-name="onehalf" unicode="&#xbd;" horiz-adv-x="850" 
d="M173 332v274h-69v50h22q29 0 41 10t12 40h54v-374h-60zM135 0l464 706h71l-465 -706h-70zM473 0v58q21 9 65.5 40t77.5 64q57 57 57 107q0 29 -16.5 46.5t-44.5 17.5q-67 0 -68 -88l-63 14q0 61 38.5 92.5t92.5 31.5q55 0 89 -31.5t34 -82.5q0 -67 -75 -142
q-37 -37 -108 -78h190v-49h-269z" />
    <glyph glyph-name="threequarters" unicode="&#xbe;" horiz-adv-x="850" 
d="M74 450l63 12q5 -89 72 -89q35 0 54.5 19t19.5 47q0 25 -19 44.5t-61 19.5h-45v50h43q32 0 52.5 17t20.5 39q0 26 -18 41t-46 15q-35 0 -51 -22.5t-16 -53.5l-62 14q0 40 34 76t95 36q53 0 89.5 -28.5t36.5 -78.5q0 -22 -18.5 -48.5t-55.5 -31.5q42 -3 62.5 -33t20.5 -60
q0 -46 -37.5 -79t-98.5 -33q-54 0 -92.5 32.5t-42.5 94.5zM156 0l464 706h71l-465 -706h-70zM489 95v51l148 228h78v-230h69v-49h-69v-95h-59v95h-167zM552 144h104v169z" />
    <glyph glyph-name="questiondown" unicode="&#xbf;" horiz-adv-x="502" 
d="M218 363v175h67v-229h-34q-61 0 -105 -36.5t-44 -100.5t43 -96.5t106 -32.5q128 0 155 145l72 -12q-15 -90 -78 -141.5t-149 -51.5q-93 0 -155.5 50t-62.5 139q0 83 51 134t134 57zM206 616v90h90v-90h-90z" />
    <glyph glyph-name="Agrave" unicode="&#xc0;" horiz-adv-x="637" 
d="M3 0l268 706h98l264 -706h-75l-82 219h-316l-82 -219h-75zM182 279h272l-136 371zM291 764l-80 165h74l63 -165h-57z" />
    <glyph glyph-name="Aacute" unicode="&#xc1;" horiz-adv-x="637" 
d="M3 0l268 706h98l264 -706h-75l-82 219h-316l-82 -219h-75zM182 279h272l-136 371zM288 764l63 165h74l-80 -165h-57z" />
    <glyph glyph-name="Acircumflex" unicode="&#xc2;" horiz-adv-x="637" 
d="M3 0l268 706h98l264 -706h-75l-82 219h-316l-82 -219h-75zM182 279h272l-136 371zM163 764l128 165h54l128 -165h-63l-92 122l-92 -122h-63z" />
    <glyph glyph-name="Atilde" unicode="&#xc3;" horiz-adv-x="637" 
d="M3 0l268 706h98l264 -706h-75l-82 219h-316l-82 -219h-75zM182 279h272l-136 371zM177 778v74q37 35 74 35q26 0 78 -21q43 -15 53 -15q38 0 77 53v-74q-39 -37 -77 -37q-26 0 -78 21q-43 15 -53 15q-37 0 -74 -51z" />
    <glyph glyph-name="Adieresis" unicode="&#xc4;" horiz-adv-x="637" 
d="M3 0l268 706h98l264 -706h-75l-82 219h-316l-82 -219h-75zM182 279h272l-136 371zM175 799v86h81v-86h-81zM380 799v86h81v-86h-81z" />
    <glyph glyph-name="Aring" unicode="&#xc5;" horiz-adv-x="637" 
d="M3 0l265 699q-45 27 -45 80q0 38 27.5 65.5t65.5 27.5t65.5 -27.5t27.5 -65.5q0 -47 -39 -76l263 -703h-75l-82 219h-316l-82 -219h-75zM182 279h272l-136 371zM316 723q23 0 39.5 16.5t16.5 39.5t-16.5 39.5t-39.5 16.5t-39.5 -16.5t-16.5 -39.5t16.5 -39.5t39.5 -16.5z
" />
    <glyph glyph-name="AE" unicode="&#xc6;" horiz-adv-x="896" 
d="M-11 0l422 706h439v-61h-330v-249h317v-60h-317v-276h339v-60h-406v271h-223l-162 -271h-79zM267 333h186v312z" />
    <glyph glyph-name="Ccedilla" unicode="&#xc7;" horiz-adv-x="674" 
d="M322 -223v42h26q55 0 55 43q0 42 -55 42h-26v81q-74 7 -130 40.5t-88.5 85.5t-48.5 113t-16 129q0 97 34.5 179t110 136.5t178.5 54.5q64 0 117 -21.5t86 -56t53 -71t29 -74.5l-68 -12q-17 68 -71 121.5t-146 53.5q-119 0 -186 -92t-67 -218q0 -83 24.5 -150.5t84 -113.5
t146.5 -46q53 0 95 19t67 50t39.5 62t19.5 62l68 -12q-7 -38 -25 -76.5t-50.5 -76.5t-86.5 -62.5t-122 -25.5v-39q37 -2 59 -24t22 -58q0 -40 -29 -62.5t-73 -22.5h-26z" />
    <glyph glyph-name="Egrave" unicode="&#xc8;" horiz-adv-x="568" 
d="M78 0v706h444v-60h-377v-250h364v-60h-364v-276h386v-60h-453zM274 764l-80 165h74l63 -165h-57z" />
    <glyph glyph-name="Eacute" unicode="&#xc9;" horiz-adv-x="568" 
d="M78 0v706h444v-60h-377v-250h364v-60h-364v-276h386v-60h-453zM271 764l63 165h74l-80 -165h-57z" />
    <glyph glyph-name="Ecircumflex" unicode="&#xca;" horiz-adv-x="568" 
d="M78 0v706h444v-60h-377v-250h364v-60h-364v-276h386v-60h-453zM146 764l128 165h54l128 -165h-63l-92 122l-92 -122h-63z" />
    <glyph glyph-name="Edieresis" unicode="&#xcb;" horiz-adv-x="568" 
d="M78 0v706h444v-60h-377v-250h364v-60h-364v-276h386v-60h-453zM158 799v86h81v-86h-81zM363 799v86h81v-86h-81z" />
    <glyph glyph-name="Igrave" unicode="&#xcc;" horiz-adv-x="223" 
d="M78 0v706h67v-706h-67zM84 764l-80 165h74l63 -165h-57z" />
    <glyph glyph-name="Iacute" unicode="&#xcd;" horiz-adv-x="223" 
d="M78 0v706h67v-706h-67zM81 764l63 165h74l-80 -165h-57z" />
    <glyph glyph-name="Icircumflex" unicode="&#xce;" horiz-adv-x="223" 
d="M-21 764l102 165h60l102 -165h-58l-74 122l-74 -122h-58zM78 0v706h67v-706h-67z" />
    <glyph glyph-name="Idieresis" unicode="&#xcf;" horiz-adv-x="223" 
d="M78 0v706h67v-706h-67zM-32 799v86h81v-86h-81zM173 799v86h81v-86h-81z" />
    <glyph glyph-name="Eth" unicode="&#xd0;" horiz-adv-x="710" 
d="M97 0v351h-80v54h80v301h206q53 0 101 -8.5t98 -33t86 -62.5t59 -102t23 -147t-23 -147t-59 -102t-86 -62.5t-98 -33t-101 -8.5h-206zM164 60h139q68 0 121 16.5t85.5 43.5t53.5 66t29 79.5t8 87.5t-8 87.5t-29 79.5t-53.5 66t-85.5 43.5t-121 16.5h-139v-241h223v-54
h-223v-291z" />
    <glyph glyph-name="Ntilde" unicode="&#xd1;" horiz-adv-x="732" 
d="M78 0v706h95l414 -637v637h67v-706h-104l-405 637v-637h-67zM225 778v74q37 35 74 35q26 0 78 -21q43 -15 53 -15q38 0 77 53v-74q-39 -37 -77 -37q-26 0 -78 21q-43 15 -53 15q-37 0 -74 -51z" />
    <glyph glyph-name="Ograve" unicode="&#xd2;" horiz-adv-x="717" 
d="M360 43q82 0 140 45.5t83 113t25 148.5q0 128 -63.5 220.5t-184.5 92.5q-63 0 -112.5 -27t-79 -72t-44.5 -99.5t-15 -114.5t15 -113.5t44.5 -97.5t79 -70t112.5 -26zM360 -17q-81 0 -144 31t-101 84t-57 117t-19 135t19 136t57 119t101 86t144 32q80 0 142.5 -32t100 -86
t56.5 -119t19 -136t-19 -135.5t-56.5 -117t-100 -83.5t-142.5 -31zM333 764l-80 165h74l63 -165h-57z" />
    <glyph glyph-name="Oacute" unicode="&#xd3;" horiz-adv-x="717" 
d="M360 43q82 0 140 45.5t83 113t25 148.5q0 128 -63.5 220.5t-184.5 92.5q-63 0 -112.5 -27t-79 -72t-44.5 -99.5t-15 -114.5t15 -113.5t44.5 -97.5t79 -70t112.5 -26zM360 -17q-81 0 -144 31t-101 84t-57 117t-19 135t19 136t57 119t101 86t144 32q80 0 142.5 -32t100 -86
t56.5 -119t19 -136t-19 -135.5t-56.5 -117t-100 -83.5t-142.5 -31zM330 764l63 165h74l-80 -165h-57z" />
    <glyph glyph-name="Ocircumflex" unicode="&#xd4;" horiz-adv-x="717" 
d="M360 43q82 0 140 45.5t83 113t25 148.5q0 128 -63.5 220.5t-184.5 92.5q-63 0 -112.5 -27t-79 -72t-44.5 -99.5t-15 -114.5t15 -113.5t44.5 -97.5t79 -70t112.5 -26zM360 -17q-81 0 -144 31t-101 84t-57 117t-19 135t19 136t57 119t101 86t144 32q80 0 142.5 -32t100 -86
t56.5 -119t19 -136t-19 -135.5t-56.5 -117t-100 -83.5t-142.5 -31zM205 764l128 165h54l128 -165h-63l-92 122l-92 -122h-63z" />
    <glyph glyph-name="Otilde" unicode="&#xd5;" horiz-adv-x="717" 
d="M360 43q82 0 140 45.5t83 113t25 148.5q0 128 -63.5 220.5t-184.5 92.5q-63 0 -112.5 -27t-79 -72t-44.5 -99.5t-15 -114.5t15 -113.5t44.5 -97.5t79 -70t112.5 -26zM360 -17q-81 0 -144 31t-101 84t-57 117t-19 135t19 136t57 119t101 86t144 32q80 0 142.5 -32t100 -86
t56.5 -119t19 -136t-19 -135.5t-56.5 -117t-100 -83.5t-142.5 -31zM219 778v74q37 35 74 35q26 0 78 -21q43 -15 53 -15q38 0 77 53v-74q-39 -37 -77 -37q-26 0 -78 21q-43 15 -53 15q-37 0 -74 -51z" />
    <glyph glyph-name="Odieresis" unicode="&#xd6;" horiz-adv-x="717" 
d="M360 43q82 0 140 45.5t83 113t25 148.5q0 128 -63.5 220.5t-184.5 92.5q-63 0 -112.5 -27t-79 -72t-44.5 -99.5t-15 -114.5t15 -113.5t44.5 -97.5t79 -70t112.5 -26zM360 -17q-81 0 -144 31t-101 84t-57 117t-19 135t19 136t57 119t101 86t144 32q80 0 142.5 -32t100 -86
t56.5 -119t19 -136t-19 -135.5t-56.5 -117t-100 -83.5t-142.5 -31zM217 799v86h81v-86h-81zM422 799v86h81v-86h-81z" />
    <glyph glyph-name="multiply" unicode="&#xd7;" 
d="M52 84l228 228l-233 233l41 42l234 -234l227 227l42 -42l-227 -227l234 -234l-42 -42l-234 234l-227 -228z" />
    <glyph glyph-name="Oslash" unicode="&#xd8;" horiz-adv-x="723" 
d="M42 0l78 96q-78 102 -78 254q0 71 19 136t57 119t101 86t144 32q124 0 205 -75l47 58h66l-79 -97q79 -102 79 -259q0 -71 -19 -135.5t-56.5 -117t-100 -83.5t-142.5 -31q-129 0 -210 75l-47 -58h-64zM363 43q82 0 140 45.5t83 113t25 148.5q0 118 -53 205l-363 -445
q62 -67 168 -67zM112 350q0 -119 52 -200l362 446q-65 67 -163 67q-63 0 -112.5 -27t-79 -72t-44.5 -99.5t-15 -114.5z" />
    <glyph glyph-name="Ugrave" unicode="&#xd9;" horiz-adv-x="676" 
d="M72 241v465h67v-465q0 -88 53 -143t147 -55q95 0 146.5 53t51.5 145v465h67v-465q0 -124 -72.5 -191t-192.5 -67q-134 0 -200.5 74t-66.5 184zM312 764l-80 165h74l63 -165h-57z" />
    <glyph glyph-name="Uacute" unicode="&#xda;" horiz-adv-x="676" 
d="M72 241v465h67v-465q0 -88 53 -143t147 -55q95 0 146.5 53t51.5 145v465h67v-465q0 -124 -72.5 -191t-192.5 -67q-134 0 -200.5 74t-66.5 184zM309 764l63 165h74l-80 -165h-57z" />
    <glyph glyph-name="Ucircumflex" unicode="&#xdb;" horiz-adv-x="676" 
d="M72 241v465h67v-465q0 -88 53 -143t147 -55q95 0 146.5 53t51.5 145v465h67v-465q0 -124 -72.5 -191t-192.5 -67q-134 0 -200.5 74t-66.5 184zM184 764l128 165h54l128 -165h-63l-92 122l-92 -122h-63z" />
    <glyph glyph-name="Udieresis" unicode="&#xdc;" horiz-adv-x="676" 
d="M72 241v465h67v-465q0 -88 53 -143t147 -55q95 0 146.5 53t51.5 145v465h67v-465q0 -124 -72.5 -191t-192.5 -67q-134 0 -200.5 74t-66.5 184zM196 799v86h81v-86h-81zM401 799v86h81v-86h-81z" />
    <glyph glyph-name="Yacute" unicode="&#xdd;" horiz-adv-x="588" 
d="M258 0v332l-246 374h78l205 -315l214 315h74l-256 -374v-332h-69zM265 764l63 165h74l-80 -165h-57z" />
    <glyph glyph-name="Thorn" unicode="&#xde;" horiz-adv-x="594" 
d="M78 0v706h67v-105h196q230 0 230 -194q0 -196 -230 -196h-196v-211h-67zM145 271h196q161 0 161 136q0 134 -161 134h-196v-270z" />
    <glyph glyph-name="germandbls" unicode="&#xdf;" horiz-adv-x="520" 
d="M63 0v532q0 86 48.5 138.5t142.5 52.5q89 0 137.5 -47t48.5 -112q0 -48 -29.5 -88t-78.5 -52q80 -15 117 -72t37 -132q0 -103 -63 -165t-161 -62q-37 0 -66 7v56q35 -7 58 -7q71 0 118 44t47 127q0 82 -52.5 126t-139.5 44h-31v55h30q60 0 103.5 32.5t43.5 86.5
q0 38 -32 71t-87 33q-61 0 -94 -39.5t-33 -96.5v-532h-64z" />
    <glyph glyph-name="agrave" unicode="&#xe0;" horiz-adv-x="470" 
d="M417 0h-65q-6 30 -6 77q-41 -89 -154 -89q-74 0 -116.5 39t-42.5 98q0 33 11 58.5t27 40.5t44.5 27t52.5 18t61 13q38 6 58 10q28 5 41.5 16t15.5 20.5t2 28.5q0 10 -3.5 21.5t-13.5 26.5t-34.5 24.5t-59.5 9.5q-110 0 -120 -110l-69 11q7 48 30 82q47 72 159 72
q83 0 129 -34t46 -118v-238q0 -69 7 -104zM100 125q0 -36 28.5 -59t67.5 -23q22 0 45 6t48 19.5t41 43t16 70.5v75q-30 -12 -88 -23l-30 -6q-42 -8 -65.5 -16t-43 -30t-19.5 -57zM207 540l-80 165h74l63 -165h-57z" />
    <glyph glyph-name="aacute" unicode="&#xe1;" horiz-adv-x="470" 
d="M417 0h-65q-6 30 -6 77q-41 -89 -154 -89q-74 0 -116.5 39t-42.5 98q0 33 11 58.5t27 40.5t44.5 27t52.5 18t61 13q38 6 58 10q28 5 41.5 16t15.5 20.5t2 28.5q0 10 -3.5 21.5t-13.5 26.5t-34.5 24.5t-59.5 9.5q-110 0 -120 -110l-69 11q7 48 30 82q47 72 159 72
q83 0 129 -34t46 -118v-238q0 -69 7 -104zM100 125q0 -36 28.5 -59t67.5 -23q22 0 45 6t48 19.5t41 43t16 70.5v75q-30 -12 -88 -23l-30 -6q-42 -8 -65.5 -16t-43 -30t-19.5 -57zM203 540l63 165h74l-80 -165h-57z" />
    <glyph glyph-name="acircumflex" unicode="&#xe2;" horiz-adv-x="470" 
d="M417 0h-65q-6 30 -6 77q-41 -89 -154 -89q-74 0 -116.5 39t-42.5 98q0 33 11 58.5t27 40.5t44.5 27t52.5 18t61 13q38 6 58 10q28 5 41.5 16t15.5 20.5t2 28.5q0 10 -3.5 21.5t-13.5 26.5t-34.5 24.5t-59.5 9.5q-110 0 -120 -110l-69 11q7 48 30 82q47 72 159 72
q83 0 129 -34t46 -118v-238q0 -69 7 -104zM100 125q0 -36 28.5 -59t67.5 -23q22 0 45 6t48 19.5t41 43t16 70.5v75q-30 -12 -88 -23l-30 -6q-42 -8 -65.5 -16t-43 -30t-19.5 -57zM77 540l128 165h54l128 -165h-63l-92 122l-92 -122h-63z" />
    <glyph glyph-name="atilde" unicode="&#xe3;" horiz-adv-x="470" 
d="M417 0h-65q-6 30 -6 77q-41 -89 -154 -89q-74 0 -116.5 39t-42.5 98q0 33 11 58.5t27 40.5t44.5 27t52.5 18t61 13q38 6 58 10q28 5 41.5 16t15.5 20.5t2 28.5q0 10 -3.5 21.5t-13.5 26.5t-34.5 24.5t-59.5 9.5q-110 0 -120 -110l-69 11q7 48 30 82q47 72 159 72
q83 0 129 -34t46 -118v-238q0 -69 7 -104zM100 125q0 -36 28.5 -59t67.5 -23q22 0 45 6t48 19.5t41 43t16 70.5v75q-30 -12 -88 -23l-30 -6q-42 -8 -65.5 -16t-43 -30t-19.5 -57zM91 554v74q37 35 74 35q26 0 78 -21q43 -15 53 -15q38 0 77 53v-74q-39 -37 -77 -37
q-26 0 -78 21q-43 15 -53 15q-37 0 -74 -51z" />
    <glyph glyph-name="adieresis" unicode="&#xe4;" horiz-adv-x="470" 
d="M417 0h-65q-6 30 -6 77q-41 -89 -154 -89q-74 0 -116.5 39t-42.5 98q0 33 11 58.5t27 40.5t44.5 27t52.5 18t61 13q38 6 58 10q28 5 41.5 16t15.5 20.5t2 28.5q0 10 -3.5 21.5t-13.5 26.5t-34.5 24.5t-59.5 9.5q-110 0 -120 -110l-69 11q7 48 30 82q47 72 159 72
q83 0 129 -34t46 -118v-238q0 -69 7 -104zM100 125q0 -36 28.5 -59t67.5 -23q22 0 45 6t48 19.5t41 43t16 70.5v75q-30 -12 -88 -23l-30 -6q-42 -8 -65.5 -16t-43 -30t-19.5 -57zM89 575v86h81v-86h-81zM294 575v86h81v-86h-81z" />
    <glyph glyph-name="aring" unicode="&#xe5;" horiz-adv-x="470" 
d="M417 0h-65q-6 30 -6 77q-41 -89 -154 -89q-74 0 -116.5 39t-42.5 98q0 33 11 58.5t27 40.5t44.5 27t52.5 18t61 13q38 6 58 10q28 5 41.5 16t15.5 20.5t2 28.5q0 10 -3.5 21.5t-13.5 26.5t-34.5 24.5t-59.5 9.5q-110 0 -120 -110l-69 11q7 48 30 82q47 72 159 72
q83 0 129 -34t46 -118v-238q0 -69 7 -104zM100 125q0 -36 28.5 -59t67.5 -23q22 0 45 6t48 19.5t41 43t16 70.5v75q-30 -12 -88 -23l-30 -6q-42 -8 -65.5 -16t-43 -30t-19.5 -57zM232 573q23 0 39.5 16.5t16.5 39.5t-16.5 39.5t-39.5 16.5t-39.5 -16.5t-16.5 -39.5
t16.5 -39.5t39.5 -16.5zM232 536q-38 0 -65.5 27.5t-27.5 65.5t27.5 65.5t65.5 27.5t65.5 -27.5t27.5 -65.5t-27.5 -65.5t-65.5 -27.5z" />
    <glyph glyph-name="ae" unicode="&#xe6;" horiz-adv-x="789" 
d="M115 329l-69 11q7 48 30 82q47 72 156 72q115 0 157 -82q56 82 158 82t155 -74.5t53 -182.5v-9h-348q0 -82 36.5 -133.5t114.5 -51.5q56 0 88 35t39 77l66 -12q-12 -56 -64 -105.5t-129 -49.5q-121 0 -183 106q-49 -106 -182 -106q-73 0 -116.5 44t-43.5 103
q0 31 9.5 54.5t33.5 46t73 34.5t120 12h71v47q0 44 -25.5 77t-82.5 33q-107 0 -117 -110zM340 182v46h-71q-169 0 -169 -93q0 -41 27.5 -66.5t70.5 -25.5q21 0 43 6t45.5 19.5t38.5 43t15 70.5zM409 282h275q0 60 -37 108.5t-100 48.5q-64 0 -101 -45t-37 -112z" />
    <glyph glyph-name="ccedilla" unicode="&#xe7;" horiz-adv-x="486" 
d="M224 -223v42h26q55 0 55 43q0 42 -55 42h-26v86q-65 8 -109 46t-62 90t-18 114q0 104 58 179t163 75q93 0 142.5 -49t61.5 -114l-66 -10q-1 14 -9 32t-22.5 38.5t-42.5 34t-64 13.5q-73 0 -113.5 -59t-40.5 -140q0 -83 38.5 -140t116.5 -57q61 0 98 39.5t41 84.5l66 -13
q-4 -25 -17.5 -51t-35.5 -51.5t-58 -43t-80 -20.5v-44q37 -2 59 -24t22 -58q0 -40 -29 -62.5t-73 -22.5h-26z" />
    <glyph glyph-name="egrave" unicode="&#xe8;" horiz-adv-x="491" 
d="M387 155l66 -12q-12 -56 -65 -105.5t-131 -49.5q-111 0 -166.5 72.5t-55.5 179.5q0 106 56 180t155 74q103 0 157 -72.5t54 -187.5v-6h-355q0 -46 13.5 -85.5t50 -69.5t91.5 -30q56 0 89.5 35t40.5 77zM104 282h282q0 60 -37 108.5t-103 48.5q-67 0 -104.5 -45
t-37.5 -112zM219 540l-80 165h74l63 -165h-57z" />
    <glyph glyph-name="eacute" unicode="&#xe9;" horiz-adv-x="491" 
d="M387 155l66 -12q-12 -56 -65 -105.5t-131 -49.5q-111 0 -166.5 72.5t-55.5 179.5q0 106 56 180t155 74q103 0 157 -72.5t54 -187.5v-6h-355q0 -46 13.5 -85.5t50 -69.5t91.5 -30q56 0 89.5 35t40.5 77zM104 282h282q0 60 -37 108.5t-103 48.5q-67 0 -104.5 -45
t-37.5 -112zM215 540l63 165h74l-80 -165h-57z" />
    <glyph glyph-name="ecircumflex" unicode="&#xea;" horiz-adv-x="491" 
d="M387 155l66 -12q-12 -56 -65 -105.5t-131 -49.5q-111 0 -166.5 72.5t-55.5 179.5q0 106 56 180t155 74q103 0 157 -72.5t54 -187.5v-6h-355q0 -46 13.5 -85.5t50 -69.5t91.5 -30q56 0 89.5 35t40.5 77zM104 282h282q0 60 -37 108.5t-103 48.5q-67 0 -104.5 -45
t-37.5 -112zM89 540l128 165h54l128 -165h-63l-92 122l-92 -122h-63z" />
    <glyph glyph-name="edieresis" unicode="&#xeb;" horiz-adv-x="491" 
d="M387 155l66 -12q-12 -56 -65 -105.5t-131 -49.5q-111 0 -166.5 72.5t-55.5 179.5q0 106 56 180t155 74q103 0 157 -72.5t54 -187.5v-6h-355q0 -46 13.5 -85.5t50 -69.5t91.5 -30q56 0 89.5 35t40.5 77zM104 282h282q0 60 -37 108.5t-103 48.5q-67 0 -104.5 -45
t-37.5 -112zM101 575v86h81v-86h-81zM306 575v86h81v-86h-81z" />
    <glyph glyph-name="igrave" unicode="&#xec;" horiz-adv-x="190" 
d="M63 0v482h64v-482h-64zM70 540l-80 165h74l63 -165h-57z" />
    <glyph glyph-name="iacute" unicode="&#xed;" horiz-adv-x="190" 
d="M63 0v482h64v-482h-64zM66 540l63 165h74l-80 -165h-57z" />
    <glyph glyph-name="icircumflex" unicode="&#xee;" horiz-adv-x="190" 
d="M-37 540l102 165h60l102 -165h-58l-74 122l-74 -122h-58zM63 0v482h64v-482h-64z" />
    <glyph glyph-name="idieresis" unicode="&#xef;" horiz-adv-x="190" 
d="M63 0v482h64v-482h-64zM-48 575v86h81v-86h-81zM157 575v86h81v-86h-81z" />
    <glyph glyph-name="eth" unicode="&#xf0;" horiz-adv-x="510" 
d="M164 523l-12 38l138 45q-48 62 -76 89l51 30q55 -60 83 -101l93 30l13 -38l-82 -26q99 -154 99 -332q0 -117 -54 -193.5t-166 -76.5q-64 0 -110.5 29t-67.5 73t-30 81t-9 69q0 24 4.5 52.5t19.5 65.5t38 66t64.5 49.5t95.5 20.5q34 0 69.5 -16.5t58.5 -42.5
q-24 67 -68 137zM258 43q24 0 47.5 8.5t47.5 29t39 61.5t15 98t-14.5 98.5t-38.5 62t-46.5 29.5t-44.5 9q-49 0 -83.5 -22.5t-50 -57.5t-22 -64t-6.5 -54t6.5 -54t21.5 -64t48.5 -57.5t80.5 -22.5z" />
    <glyph glyph-name="ntilde" unicode="&#xf1;" horiz-adv-x="502" 
d="M63 0v482h64v-87q8 37 52.5 68t99.5 31q82 0 129 -59q24 -30 30 -64.5t6 -121.5v-249h-64v249q0 73 -4.5 102.5t-18.5 47.5q-28 40 -95 40q-69 0 -107 -55q-14 -19 -20 -45.5t-7 -48.5t-1 -79v-211h-64zM113 554v74q37 35 74 35q26 0 78 -21q43 -15 53 -15q38 0 77 53
v-74q-39 -37 -77 -37q-26 0 -78 21q-43 15 -53 15q-37 0 -74 -51z" />
    <glyph glyph-name="ograve" unicode="&#xf2;" horiz-adv-x="515" 
d="M258 43q75 0 115.5 59t40.5 138t-41 139t-115 60q-75 0 -116 -59.5t-41 -139.5q0 -79 41 -138t116 -59zM258 -12q-103 0 -163.5 76t-60.5 176t60.5 177t163.5 77t163 -77t60 -177t-60 -176t-163 -76zM231 540l-80 165h74l63 -165h-57z" />
    <glyph glyph-name="oacute" unicode="&#xf3;" horiz-adv-x="515" 
d="M258 43q75 0 115.5 59t40.5 138t-41 139t-115 60q-75 0 -116 -59.5t-41 -139.5q0 -79 41 -138t116 -59zM258 -12q-103 0 -163.5 76t-60.5 176t60.5 177t163.5 77t163 -77t60 -177t-60 -176t-163 -76zM227 540l63 165h74l-80 -165h-57z" />
    <glyph glyph-name="ocircumflex" unicode="&#xf4;" horiz-adv-x="515" 
d="M258 43q75 0 115.5 59t40.5 138t-41 139t-115 60q-75 0 -116 -59.5t-41 -139.5q0 -79 41 -138t116 -59zM258 -12q-103 0 -163.5 76t-60.5 176t60.5 177t163.5 77t163 -77t60 -177t-60 -176t-163 -76zM101 540l128 165h54l128 -165h-63l-92 122l-92 -122h-63z" />
    <glyph glyph-name="otilde" unicode="&#xf5;" horiz-adv-x="515" 
d="M258 43q75 0 115.5 59t40.5 138t-41 139t-115 60q-75 0 -116 -59.5t-41 -139.5q0 -79 41 -138t116 -59zM258 -12q-103 0 -163.5 76t-60.5 176t60.5 177t163.5 77t163 -77t60 -177t-60 -176t-163 -76zM115 554v74q37 35 74 35q26 0 78 -21q43 -15 53 -15q38 0 77 53v-74
q-39 -37 -77 -37q-26 0 -78 21q-43 15 -53 15q-37 0 -74 -51z" />
    <glyph glyph-name="odieresis" unicode="&#xf6;" horiz-adv-x="515" 
d="M258 43q75 0 115.5 59t40.5 138t-41 139t-115 60q-75 0 -116 -59.5t-41 -139.5q0 -79 41 -138t116 -59zM258 -12q-103 0 -163.5 76t-60.5 176t60.5 177t163.5 77t163 -77t60 -177t-60 -176t-163 -76zM113 575v86h81v-86h-81zM318 575v86h81v-86h-81z" />
    <glyph glyph-name="divide" unicode="&#xf7;" 
d="M262 101q0 26 17 43t43 17t43 -17t17 -43t-17 -43t-43 -17t-43 17t-17 43zM21 281v60h602v-60h-602zM262 527q0 26 17 43t43 17t43 -17t17 -43t-17 -43t-43 -17t-43 17t-17 43z" />
    <glyph glyph-name="oslash" unicode="&#xf8;" horiz-adv-x="522" 
d="M27 0l63 74q-52 70 -52 166q0 100 60.5 177t163.5 77q82 0 140 -53l34 41h59l-63 -74q53 -73 53 -168q0 -100 -60 -176t-163 -76q-82 0 -142 53l-35 -41h-58zM132 124l231 272q-40 43 -101 43q-75 0 -116 -59.5t-41 -139.5q0 -66 27 -116zM390 358l-232 -272
q40 -43 104 -43q75 0 115.5 59t40.5 138q0 66 -28 118z" />
    <glyph glyph-name="ugrave" unicode="&#xf9;" horiz-adv-x="498" 
d="M58 233v249h64v-249q0 -73 4.5 -102.5t18.5 -47.5q28 -40 95 -40q37 0 60 13.5t43 41.5q21 28 25 57.5t4 115.5v211h63v-482h-64v87q-8 -38 -50 -68.5t-98 -30.5q-82 0 -129 59q-24 30 -30 64.5t-6 121.5zM223 540l-80 165h74l63 -165h-57z" />
    <glyph glyph-name="uacute" unicode="&#xfa;" horiz-adv-x="498" 
d="M58 233v249h64v-249q0 -73 4.5 -102.5t18.5 -47.5q28 -40 95 -40q37 0 60 13.5t43 41.5q21 28 25 57.5t4 115.5v211h63v-482h-64v87q-8 -38 -50 -68.5t-98 -30.5q-82 0 -129 59q-24 30 -30 64.5t-6 121.5zM219 540l63 165h74l-80 -165h-57z" />
    <glyph glyph-name="ucircumflex" unicode="&#xfb;" horiz-adv-x="498" 
d="M58 233v249h64v-249q0 -73 4.5 -102.5t18.5 -47.5q28 -40 95 -40q37 0 60 13.5t43 41.5q21 28 25 57.5t4 115.5v211h63v-482h-64v87q-8 -38 -50 -68.5t-98 -30.5q-82 0 -129 59q-24 30 -30 64.5t-6 121.5zM93 540l128 165h54l128 -165h-63l-92 122l-92 -122h-63z" />
    <glyph glyph-name="udieresis" unicode="&#xfc;" horiz-adv-x="498" 
d="M58 233v249h64v-249q0 -73 4.5 -102.5t18.5 -47.5q28 -40 95 -40q37 0 60 13.5t43 41.5q21 28 25 57.5t4 115.5v211h63v-482h-64v87q-8 -38 -50 -68.5t-98 -30.5q-82 0 -129 59q-24 30 -30 64.5t-6 121.5zM105 575v86h81v-86h-81zM310 575v86h81v-86h-81z" />
    <glyph glyph-name="yacute" unicode="&#xfd;" horiz-adv-x="438" 
d="M28 -231v60q21 -6 36 -6q66 0 87 57l36 102l-175 500h66l143 -403l145 403h64l-222 -628q-31 -89 -130 -89q-25 0 -50 4zM191 540l63 165h74l-80 -165h-57z" />
    <glyph glyph-name="thorn" unicode="&#xfe;" horiz-adv-x="533" 
d="M63 -223v930h64v-307q12 37 58 65.5t97 28.5q102 0 159.5 -73t57.5 -180q0 -40 -12.5 -82t-37.5 -81.5t-71 -64.5t-106 -25q-47 0 -90 28.5t-55 66.5v-306h-64zM274 43q42 0 74.5 18.5t49.5 48.5t25.5 62.5t8.5 67.5q0 92 -42.5 145.5t-114.5 53.5q-25 0 -48.5 -8.5
t-47.5 -28.5t-39 -61.5t-15 -99.5q0 -56 15.5 -97.5t40 -62t48 -29.5t45.5 -9z" />
    <glyph glyph-name="ydieresis" unicode="&#xff;" horiz-adv-x="438" 
d="M28 -231v60q21 -6 36 -6q66 0 87 57l36 102l-175 500h66l143 -403l145 403h64l-222 -628q-31 -89 -130 -89q-25 0 -50 4zM77 575v86h81v-86h-81zM282 575v86h81v-86h-81z" />
    <glyph glyph-name="Amacron" unicode="&#x100;" horiz-adv-x="637" 
d="M3 0l268 706h98l264 -706h-75l-82 219h-316l-82 -219h-75zM182 279h272l-136 371zM177 810v59h282v-59h-282z" />
    <glyph glyph-name="amacron" unicode="&#x101;" horiz-adv-x="470" 
d="M417 0h-65q-6 30 -6 77q-41 -89 -154 -89q-74 0 -116.5 39t-42.5 98q0 33 11 58.5t27 40.5t44.5 27t52.5 18t61 13q38 6 58 10q28 5 41.5 16t15.5 20.5t2 28.5q0 10 -3.5 21.5t-13.5 26.5t-34.5 24.5t-59.5 9.5q-110 0 -120 -110l-69 11q7 48 30 82q47 72 159 72
q83 0 129 -34t46 -118v-238q0 -69 7 -104zM100 125q0 -36 28.5 -59t67.5 -23q22 0 45 6t48 19.5t41 43t16 70.5v75q-30 -12 -88 -23l-30 -6q-42 -8 -65.5 -16t-43 -30t-19.5 -57zM91 586v59h282v-59h-282z" />
    <glyph glyph-name="Abreve" unicode="&#x102;" horiz-adv-x="637" 
d="M3 0l268 706h98l264 -706h-75l-82 219h-316l-82 -219h-75zM182 279h272l-136 371zM179 894v25h55v-25q0 -41 21.5 -66t62.5 -25t63 25t22 66v25h55v-25q0 -62 -40.5 -100t-99.5 -38t-99 38t-40 100z" />
    <glyph glyph-name="abreve" unicode="&#x103;" horiz-adv-x="470" 
d="M417 0h-65q-6 30 -6 77q-41 -89 -154 -89q-74 0 -116.5 39t-42.5 98q0 33 11 58.5t27 40.5t44.5 27t52.5 18t61 13q38 6 58 10q28 5 41.5 16t15.5 20.5t2 28.5q0 10 -3.5 21.5t-13.5 26.5t-34.5 24.5t-59.5 9.5q-110 0 -120 -110l-69 11q7 48 30 82q47 72 159 72
q83 0 129 -34t46 -118v-238q0 -69 7 -104zM100 125q0 -36 28.5 -59t67.5 -23q22 0 45 6t48 19.5t41 43t16 70.5v75q-30 -12 -88 -23l-30 -6q-42 -8 -65.5 -16t-43 -30t-19.5 -57zM92 670v25h55v-25q0 -41 21.5 -66t62.5 -25t63 25t22 66v25h55v-25q0 -62 -40.5 -100
t-99.5 -38t-99 38t-40 100z" />
    <glyph glyph-name="Aogonek" unicode="&#x104;" horiz-adv-x="637" 
d="M547 -90q0 -38 24.5 -64.5t60.5 -26.5h26v-42h-26q-54 0 -93 39t-39 94q0 69 51 105l-75 204h-316l-82 -219h-75l268 706h98l264 -706h-17q-29 -4 -49 -30.5t-20 -59.5zM182 279h272l-136 371z" />
    <glyph glyph-name="aogonek" unicode="&#x105;" horiz-adv-x="470" 
d="M100 125q0 -36 28.5 -59t67.5 -23q22 0 45 6t48 19.5t41 43t16 70.5v75q-30 -12 -88 -23l-30 -6q-42 -8 -65.5 -16t-43 -30t-19.5 -57zM294 -90q0 32 14 61t40 46q-2 26 -2 60q-41 -89 -154 -89q-74 0 -116.5 39t-42.5 98q0 33 11 58.5t27 40.5t44.5 27t52.5 18t61 13
q38 6 58 10q28 5 41.5 16t15.5 20.5t2 28.5q0 10 -3.5 21.5t-13.5 26.5t-34.5 24.5t-59.5 9.5q-110 0 -120 -110l-69 11q7 48 30 82q47 72 159 72q83 0 129 -34t46 -118v-238q0 -69 7 -104q-35 -6 -55.5 -31t-20.5 -59q0 -38 24.5 -64.5t60.5 -26.5h26v-42h-26q-54 0 -93 39
t-39 94z" />
    <glyph glyph-name="Cacute" unicode="&#x106;" horiz-adv-x="674" 
d="M585 236l68 -12q-7 -39 -25.5 -77.5t-51 -77t-88 -62.5t-124.5 -24q-84 0 -148.5 31t-102 84.5t-56 117.5t-18.5 137q0 97 34.5 179t110 136.5t178.5 54.5q64 0 117 -21.5t86 -56t53 -71t29 -74.5l-68 -12q-17 68 -71 121.5t-146 53.5q-119 0 -186 -92t-67 -218
q0 -83 24.5 -150.5t84 -113.5t146.5 -46q53 0 95 19t67 50t39.5 62t19.5 62zM332 764l63 165h74l-80 -165h-57z" />
    <glyph glyph-name="cacute" unicode="&#x107;" horiz-adv-x="486" 
d="M396 167l66 -13q-5 -26 -18.5 -53t-37.5 -53.5t-62.5 -43t-86.5 -16.5q-77 0 -128.5 37.5t-72.5 92t-21 122.5q0 104 58 179t163 75q93 0 142.5 -49t61.5 -114l-66 -10q-1 14 -9 32t-22.5 38.5t-42.5 34t-64 13.5q-73 0 -113.5 -59t-40.5 -140q0 -83 38.5 -140t116.5 -57
q61 0 98 39.5t41 84.5zM228 540l63 165h74l-80 -165h-57z" />
    <glyph glyph-name="Ccircumflex" unicode="&#x108;" horiz-adv-x="674" 
d="M585 236l68 -12q-7 -39 -25.5 -77.5t-51 -77t-88 -62.5t-124.5 -24q-84 0 -148.5 31t-102 84.5t-56 117.5t-18.5 137q0 97 34.5 179t110 136.5t178.5 54.5q64 0 117 -21.5t86 -56t53 -71t29 -74.5l-68 -12q-17 68 -71 121.5t-146 53.5q-119 0 -186 -92t-67 -218
q0 -83 24.5 -150.5t84 -113.5t146.5 -46q53 0 95 19t67 50t39.5 62t19.5 62zM207 764l128 165h54l128 -165h-63l-92 122l-92 -122h-63z" />
    <glyph glyph-name="ccircumflex" unicode="&#x109;" horiz-adv-x="486" 
d="M396 167l66 -13q-5 -26 -18.5 -53t-37.5 -53.5t-62.5 -43t-86.5 -16.5q-77 0 -128.5 37.5t-72.5 92t-21 122.5q0 104 58 179t163 75q93 0 142.5 -49t61.5 -114l-66 -10q-1 14 -9 32t-22.5 38.5t-42.5 34t-64 13.5q-73 0 -113.5 -59t-40.5 -140q0 -83 38.5 -140t116.5 -57
q61 0 98 39.5t41 84.5zM102 540l128 165h54l128 -165h-63l-92 122l-92 -122h-63z" />
    <glyph glyph-name="Cdotaccent" unicode="&#x10a;" horiz-adv-x="674" 
d="M585 236l68 -12q-7 -39 -25.5 -77.5t-51 -77t-88 -62.5t-124.5 -24q-84 0 -148.5 31t-102 84.5t-56 117.5t-18.5 137q0 97 34.5 179t110 136.5t178.5 54.5q64 0 117 -21.5t86 -56t53 -71t29 -74.5l-68 -12q-17 68 -71 121.5t-146 53.5q-119 0 -186 -92t-67 -218
q0 -83 24.5 -150.5t84 -113.5t146.5 -46q53 0 95 19t67 50t39.5 62t19.5 62zM321 799v86h81v-86h-81z" />
    <glyph glyph-name="cdotaccent" unicode="&#x10b;" horiz-adv-x="486" 
d="M396 167l66 -13q-5 -26 -18.5 -53t-37.5 -53.5t-62.5 -43t-86.5 -16.5q-77 0 -128.5 37.5t-72.5 92t-21 122.5q0 104 58 179t163 75q93 0 142.5 -49t61.5 -114l-66 -10q-1 14 -9 32t-22.5 38.5t-42.5 34t-64 13.5q-73 0 -113.5 -59t-40.5 -140q0 -83 38.5 -140t116.5 -57
q61 0 98 39.5t41 84.5zM217 575v86h81v-86h-81z" />
    <glyph glyph-name="Ccaron" unicode="&#x10c;" horiz-adv-x="674" 
d="M585 236l68 -12q-7 -39 -25.5 -77.5t-51 -77t-88 -62.5t-124.5 -24q-84 0 -148.5 31t-102 84.5t-56 117.5t-18.5 137q0 97 34.5 179t110 136.5t178.5 54.5q64 0 117 -21.5t86 -56t53 -71t29 -74.5l-68 -12q-17 68 -71 121.5t-146 53.5q-119 0 -186 -92t-67 -218
q0 -83 24.5 -150.5t84 -113.5t146.5 -46q53 0 95 19t67 50t39.5 62t19.5 62zM335 764l-128 165h63l92 -122l92 122h63l-128 -165h-54z" />
    <glyph glyph-name="ccaron" unicode="&#x10d;" horiz-adv-x="486" 
d="M396 167l66 -13q-5 -26 -18.5 -53t-37.5 -53.5t-62.5 -43t-86.5 -16.5q-77 0 -128.5 37.5t-72.5 92t-21 122.5q0 104 58 179t163 75q93 0 142.5 -49t61.5 -114l-66 -10q-1 14 -9 32t-22.5 38.5t-42.5 34t-64 13.5q-73 0 -113.5 -59t-40.5 -140q0 -83 38.5 -140t116.5 -57
q61 0 98 39.5t41 84.5zM230 540l-128 165h63l92 -122l92 122h63l-128 -165h-54z" />
    <glyph glyph-name="Dcaron" unicode="&#x10e;" horiz-adv-x="691" 
d="M145 60h139q68 0 121 16.5t85.5 43.5t53.5 66t29 79.5t8 87.5t-8 87.5t-29 79.5t-53.5 66t-85.5 43.5t-121 16.5h-139v-586zM78 0v706h206q53 0 101 -8.5t98 -33t86 -62.5t59 -102t23 -147t-23 -147t-59 -102t-86 -62.5t-98 -33t-101 -8.5h-206zM304 764l-128 165h63
l92 -122l92 122h63l-128 -165h-54z" />
    <glyph glyph-name="dcaron" unicode="&#x10f;" horiz-adv-x="552" 
d="M405 0v82q-12 -38 -57 -66t-97 -28q-56 0 -99.5 23.5t-68 61.5t-37 80.5t-12.5 86.5q0 65 23 121t75 94.5t124 38.5q47 0 92 -29t57 -66v307h64v-706h-64zM258 43q24 0 47.5 8.5t47.5 29t39 61.5t15 98t-14.5 98.5t-38.5 62t-46.5 29.5t-44.5 9q-74 0 -118 -55.5
t-44 -142.5q0 -79 41 -138.5t116 -59.5zM518 541l38 165h74l-63 -165h-49z" />
    <glyph glyph-name="Dcroat" unicode="&#x110;" horiz-adv-x="710" 
d="M97 0v351h-80v54h80v301h206q53 0 101 -8.5t98 -33t86 -62.5t59 -102t23 -147t-23 -147t-59 -102t-86 -62.5t-98 -33t-101 -8.5h-206zM164 60h139q68 0 121 16.5t85.5 43.5t53.5 66t29 79.5t8 87.5t-8 87.5t-29 79.5t-53.5 66t-85.5 43.5t-121 16.5h-139v-241h223v-54
h-223v-291z" />
    <glyph glyph-name="dslash" unicode="&#x111;" horiz-adv-x="532" 
d="M247 571v50h158v85h64v-85h53v-50h-53v-571h-64v82q-12 -38 -57 -66t-97 -28q-56 0 -99.5 23.5t-68 61.5t-37 80.5t-12.5 86.5q0 65 23 121t75 94.5t124 38.5q47 0 92 -29t57 -66v172h-158zM258 43q24 0 47.5 8.5t47.5 29t39 61.5t15 98t-14.5 98.5t-38.5 62t-46.5 29.5
t-44.5 9q-74 0 -118 -55.5t-44 -142.5q0 -79 41 -138.5t116 -59.5z" />
    <glyph glyph-name="Emacron" unicode="&#x112;" horiz-adv-x="568" 
d="M78 0v706h444v-60h-377v-250h364v-60h-364v-276h386v-60h-453zM160 810v59h282v-59h-282z" />
    <glyph glyph-name="emacron" unicode="&#x113;" horiz-adv-x="491" 
d="M387 155l66 -12q-12 -56 -65 -105.5t-131 -49.5q-111 0 -166.5 72.5t-55.5 179.5q0 106 56 180t155 74q103 0 157 -72.5t54 -187.5v-6h-355q0 -46 13.5 -85.5t50 -69.5t91.5 -30q56 0 89.5 35t40.5 77zM104 282h282q0 60 -37 108.5t-103 48.5q-67 0 -104.5 -45
t-37.5 -112zM103 586v59h282v-59h-282z" />
    <glyph glyph-name="Ebreve" unicode="&#x114;" horiz-adv-x="568" 
d="M78 0v706h444v-60h-377v-250h364v-60h-364v-276h386v-60h-453zM162 894v25h55v-25q0 -41 21.5 -66t62.5 -25t63 25t22 66v25h55v-25q0 -62 -40.5 -100t-99.5 -38t-99 38t-40 100z" />
    <glyph glyph-name="ebreve" unicode="&#x115;" horiz-adv-x="491" 
d="M387 155l66 -12q-12 -56 -65 -105.5t-131 -49.5q-111 0 -166.5 72.5t-55.5 179.5q0 106 56 180t155 74q103 0 157 -72.5t54 -187.5v-6h-355q0 -46 13.5 -85.5t50 -69.5t91.5 -30q56 0 89.5 35t40.5 77zM104 282h282q0 60 -37 108.5t-103 48.5q-67 0 -104.5 -45
t-37.5 -112zM104 670v25h55v-25q0 -41 21.5 -66t62.5 -25t63 25t22 66v25h55v-25q0 -62 -40.5 -100t-99.5 -38t-99 38t-40 100z" />
    <glyph glyph-name="Edotaccent" unicode="&#x116;" horiz-adv-x="568" 
d="M78 0v706h444v-60h-377v-250h364v-60h-364v-276h386v-60h-453zM260 799v86h81v-86h-81z" />
    <glyph glyph-name="edotaccent" unicode="&#x117;" horiz-adv-x="491" 
d="M387 155l66 -12q-12 -56 -65 -105.5t-131 -49.5q-111 0 -166.5 72.5t-55.5 179.5q0 106 56 180t155 74q103 0 157 -72.5t54 -187.5v-6h-355q0 -46 13.5 -85.5t50 -69.5t91.5 -30q56 0 89.5 35t40.5 77zM104 282h282q0 60 -37 108.5t-103 48.5q-67 0 -104.5 -45
t-37.5 -112zM204 575v86h81v-86h-81z" />
    <glyph glyph-name="Eogonek" unicode="&#x118;" horiz-adv-x="568" 
d="M78 0v706h444v-60h-377v-250h364v-60h-364v-276h386v-60h-22q-34 -2 -57.5 -28t-23.5 -62q0 -38 24.5 -64.5t60.5 -26.5h26v-42h-26q-54 0 -93 39t-39 94t34 90h-337z" />
    <glyph glyph-name="eogonek" unicode="&#x119;" horiz-adv-x="491" 
d="M329 -223h-26q-54 0 -93 39t-39 94q0 49 29 84q-56 13 -94 50.5t-54.5 87t-16.5 108.5q0 106 56 180t155 74q103 0 157 -72.5t54 -187.5v-6h-355q0 -46 13.5 -85.5t50 -69.5t91.5 -30q56 0 89.5 35t40.5 77l66 -12q-11 -55 -63.5 -104t-129.5 -51q-42 -25 -42 -78
q0 -38 24.5 -64.5t60.5 -26.5h26v-42zM104 282h282q0 60 -37 108.5t-103 48.5q-67 0 -104.5 -45t-37.5 -112z" />
    <glyph glyph-name="Ecaron" unicode="&#x11a;" horiz-adv-x="568" 
d="M78 0v706h444v-60h-377v-250h364v-60h-364v-276h386v-60h-453zM274 764l-128 165h63l92 -122l92 122h63l-128 -165h-54z" />
    <glyph glyph-name="ecaron" unicode="&#x11b;" horiz-adv-x="491" 
d="M387 155l66 -12q-12 -56 -65 -105.5t-131 -49.5q-111 0 -166.5 72.5t-55.5 179.5q0 106 56 180t155 74q103 0 157 -72.5t54 -187.5v-6h-355q0 -46 13.5 -85.5t50 -69.5t91.5 -30q56 0 89.5 35t40.5 77zM104 282h282q0 60 -37 108.5t-103 48.5q-67 0 -104.5 -45
t-37.5 -112zM217 540l-128 165h63l92 -122l92 122h63l-128 -165h-54z" />
    <glyph glyph-name="Gcircumflex" unicode="&#x11c;" horiz-adv-x="701" 
d="M591 0v119q-61 -136 -228 -136q-85 0 -149.5 31t-101.5 84.5t-55 117.5t-18 137q0 97 34.5 179t109.5 136.5t178 54.5q111 0 178.5 -56t96.5 -135l-68 -13q-23 60 -75 102t-132 42q-81 0 -139.5 -45.5t-85.5 -114.5t-27 -150q0 -61 14.5 -114.5t43.5 -98.5t79.5 -71
t116.5 -26q92 0 158.5 65.5t66.5 203.5h-227v60h292v-372h-62zM206 764l128 165h54l128 -165h-63l-92 122l-92 -122h-63z" />
    <glyph glyph-name="gcircumflex" unicode="&#x11d;" horiz-adv-x="526" 
d="M58 -64l72 12q2 -57 39 -92.5t87 -35.5q143 0 143 165v97q-12 -38 -57 -66t-97 -28q-97 0 -153.5 68.5t-56.5 184.5q0 34 7 68t23.5 68t41 59.5t63 41.5t85.5 16q48 0 90 -28.5t54 -66.5v83h64v-498q0 -219 -207 -219q-78 0 -134 44t-64 127zM252 43q24 0 47.5 8.5
t47.5 29t39 61.5t15 98t-14 98.5t-36.5 62t-44.5 29.5t-44 9q-80 0 -120 -57.5t-40 -139.5q0 -92 41.5 -145.5t108.5 -53.5zM96 541l128 165h54l128 -165h-63l-92 122l-92 -122h-63z" />
    <glyph glyph-name="Gbreve" unicode="&#x11e;" horiz-adv-x="701" 
d="M591 0v119q-61 -136 -228 -136q-85 0 -149.5 31t-101.5 84.5t-55 117.5t-18 137q0 97 34.5 179t109.5 136.5t178 54.5q111 0 178.5 -56t96.5 -135l-68 -13q-23 60 -75 102t-132 42q-81 0 -139.5 -45.5t-85.5 -114.5t-27 -150q0 -61 14.5 -114.5t43.5 -98.5t79.5 -71
t116.5 -26q92 0 158.5 65.5t66.5 203.5h-227v60h292v-372h-62zM222 894v25h55v-25q0 -41 21.5 -66t62.5 -25t63 25t22 66v25h55v-25q0 -62 -40.5 -100t-99.5 -38t-99 38t-40 100z" />
    <glyph glyph-name="gbreve" unicode="&#x11f;" horiz-adv-x="526" 
d="M58 -64l72 12q2 -57 39 -92.5t87 -35.5q143 0 143 165v97q-12 -38 -57 -66t-97 -28q-97 0 -153.5 68.5t-56.5 184.5q0 34 7 68t23.5 68t41 59.5t63 41.5t85.5 16q48 0 90 -28.5t54 -66.5v83h64v-498q0 -219 -207 -219q-78 0 -134 44t-64 127zM252 43q24 0 47.5 8.5
t47.5 29t39 61.5t15 98t-14 98.5t-36.5 62t-44.5 29.5t-44 9q-80 0 -120 -57.5t-40 -139.5q0 -92 41.5 -145.5t108.5 -53.5zM111 671v25h55v-25q0 -41 21.5 -66t62.5 -25t63 25t22 66v25h55v-25q0 -62 -40.5 -100t-99.5 -38t-99 38t-40 100z" />
    <glyph glyph-name="Gdotaccent" unicode="&#x120;" horiz-adv-x="701" 
d="M591 0v119q-61 -136 -228 -136q-85 0 -149.5 31t-101.5 84.5t-55 117.5t-18 137q0 97 34.5 179t109.5 136.5t178 54.5q111 0 178.5 -56t96.5 -135l-68 -13q-23 60 -75 102t-132 42q-81 0 -139.5 -45.5t-85.5 -114.5t-27 -150q0 -61 14.5 -114.5t43.5 -98.5t79.5 -71
t116.5 -26q92 0 158.5 65.5t66.5 203.5h-227v60h292v-372h-62zM320 799v86h81v-86h-81z" />
    <glyph glyph-name="gdotaccent" unicode="&#x121;" horiz-adv-x="526" 
d="M58 -64l72 12q2 -57 39 -92.5t87 -35.5q143 0 143 165v97q-12 -38 -57 -66t-97 -28q-97 0 -153.5 68.5t-56.5 184.5q0 34 7 68t23.5 68t41 59.5t63 41.5t85.5 16q48 0 90 -28.5t54 -66.5v83h64v-498q0 -219 -207 -219q-78 0 -134 44t-64 127zM252 43q24 0 47.5 8.5
t47.5 29t39 61.5t15 98t-14 98.5t-36.5 62t-44.5 29.5t-44 9q-80 0 -120 -57.5t-40 -139.5q0 -92 41.5 -145.5t108.5 -53.5zM211 576v86h81v-86h-81z" />
    <glyph glyph-name="uni0122" unicode="&#x122;" horiz-adv-x="701" 
d="M591 0v119q-61 -136 -228 -136q-85 0 -149.5 31t-101.5 84.5t-55 117.5t-18 137q0 97 34.5 179t109.5 136.5t178 54.5q111 0 178.5 -56t96.5 -135l-68 -13q-23 60 -75 102t-132 42q-81 0 -139.5 -45.5t-85.5 -114.5t-27 -150q0 -61 14.5 -114.5t43.5 -98.5t79.5 -71
t116.5 -26q92 0 158.5 65.5t66.5 203.5h-227v60h292v-372h-62zM293 -223l38 165h72l-61 -165h-49z" />
    <glyph glyph-name="uni0123" unicode="&#x123;" horiz-adv-x="526" 
d="M58 -64l72 12q2 -57 39 -92.5t87 -35.5q143 0 143 165v97q-12 -38 -57 -66t-97 -28q-97 0 -153.5 68.5t-56.5 184.5q0 34 7 68t23.5 68t41 59.5t63 41.5t85.5 16q48 0 90 -28.5t54 -66.5v83h64v-498q0 -219 -207 -219q-78 0 -134 44t-64 127zM252 43q24 0 47.5 8.5
t47.5 29t39 61.5t15 98t-14 98.5t-36.5 62t-44.5 29.5t-44 9q-80 0 -120 -57.5t-40 -139.5q0 -92 41.5 -145.5t108.5 -53.5zM227 540l64 165h49l-39 -165h-74z" />
    <glyph glyph-name="Hcircumflex" unicode="&#x124;" horiz-adv-x="699" 
d="M78 0v706h67v-309h408v309h68v-706h-68v337h-408v-337h-67zM194 764l128 165h54l128 -165h-63l-92 122l-92 -122h-63z" />
    <glyph glyph-name="hcircumflex" unicode="&#x125;" horiz-adv-x="502" 
d="M63 0v706h64v-314q11 40 54 71t99 31q79 0 127 -61q25 -30 31 -64t6 -120v-249h-64v249q0 73 -4.5 102.5t-18.5 47.5q-28 40 -94 40q-67 0 -107 -55q-21 -28 -25 -57.5t-4 -115.5v-211h-64zM-57 764l128 165h54l128 -165h-63l-92 122l-92 -122h-63z" />
    <glyph glyph-name="Hbar" unicode="&#x126;" horiz-adv-x="727" 
d="M12 523v54h80v129h67v-129h408v129h68v-129h80v-54h-80v-523h-68v337h-408v-337h-67v523h-80zM159 397h408v126h-408v-126z" />
    <glyph glyph-name="hbar" unicode="&#x127;" horiz-adv-x="502" 
d="M11 571v50h52v85h64v-85h158v-50h-158v-179q11 40 54 71t99 31q79 0 127 -61q25 -30 31 -64t6 -120v-249h-64v249q0 73 -4.5 102.5t-18.5 47.5q-28 40 -94 40q-67 0 -107 -55q-21 -28 -25 -57.5t-4 -115.5v-211h-64v571h-52z" />
    <glyph glyph-name="Itilde" unicode="&#x128;" horiz-adv-x="223" 
d="M78 0v706h67v-706h-67zM-30 778v74q37 35 74 35q26 0 78 -21q43 -15 53 -15q38 0 77 53v-74q-39 -37 -77 -37q-26 0 -78 21q-43 15 -53 15q-37 0 -74 -51z" />
    <glyph glyph-name="itilde" unicode="&#x129;" horiz-adv-x="190" 
d="M63 0v482h64v-482h-64zM-46 554v74q37 35 74 35q26 0 78 -21q43 -15 53 -15q38 0 77 53v-74q-39 -37 -77 -37q-26 0 -78 21q-43 15 -53 15q-37 0 -74 -51z" />
    <glyph glyph-name="Imacron" unicode="&#x12a;" horiz-adv-x="223" 
d="M78 0v706h67v-706h-67zM-30 810v59h282v-59h-282z" />
    <glyph glyph-name="imacron" unicode="&#x12b;" horiz-adv-x="190" 
d="M63 0v482h64v-482h-64zM-46 586v59h282v-59h-282z" />
    <glyph glyph-name="Ibreve" unicode="&#x12c;" horiz-adv-x="223" 
d="M78 0v706h67v-706h-67zM-28 894v25h55v-25q0 -41 21.5 -66t62.5 -25t63 25t22 66v25h55v-25q0 -62 -40.5 -100t-99.5 -38t-99 38t-40 100z" />
    <glyph glyph-name="ibreve" unicode="&#x12d;" horiz-adv-x="190" 
d="M63 0v482h64v-482h-64zM-45 670v25h55v-25q0 -41 21.5 -66t62.5 -25t63 25t22 66v25h55v-25q0 -62 -40.5 -100t-99.5 -38t-99 38t-40 100z" />
    <glyph glyph-name="Iogonek" unicode="&#x12e;" horiz-adv-x="224" 
d="M146 706v-706q-31 0 -52.5 -28t-21.5 -62q0 -38 24.5 -64.5t60.5 -26.5h26v-42h-26q-54 0 -93 39t-39 94q0 32 14 61t40 46v689h67z" />
    <glyph glyph-name="iogonek" unicode="&#x12f;" horiz-adv-x="192" 
d="M65 19v463h64v-482q-31 0 -52.5 -28t-21.5 -62q0 -38 24.5 -64.5t60.5 -26.5h26v-42h-26q-54 0 -93 39t-39 94q0 33 15 62.5t42 46.5zM65 628v78h64v-78h-64z" />
    <glyph glyph-name="Idot" unicode="&#x130;" horiz-adv-x="223" 
d="M78 0v706h67v-706h-67zM70 799v86h81v-86h-81z" />
    <glyph glyph-name="dotlessi" unicode="&#x131;" horiz-adv-x="190" 
d="M63 0v482h64v-482h-64z" />
    <glyph glyph-name="IJ" unicode="&#x132;" horiz-adv-x="760" 
d="M78 0v706h67v-706h-67zM237 211l72 11q0 -80 38 -130.5t117 -50.5q78 0 117.5 49t39.5 125v491h67v-485q0 -110 -61 -174t-163 -64t-161.5 61t-65.5 167z" />
    <glyph glyph-name="ij" unicode="&#x133;" horiz-adv-x="382" 
d="M63 0v482h64v-482h-64zM63 628v78h64v-78h-64zM152 -230v57q17 -4 37 -4q66 0 66 83v576h64v-570q0 -75 -23.5 -111t-93.5 -36q-31 0 -50 5zM255 628v78h64v-78h-64z" />
    <glyph glyph-name="Jcircumflex" unicode="&#x134;" horiz-adv-x="537" 
d="M14 211l72 11q0 -80 38 -130.5t117 -50.5q78 0 117.5 49t39.5 125v491h67v-485q0 -110 -61 -174t-163 -64t-161.5 61t-65.5 167zM276 764l128 165h54l128 -165h-63l-92 122l-92 -122h-63z" />
    <glyph glyph-name="jcircumflex" unicode="&#x135;" horiz-adv-x="198" 
d="M-29 540l102 165h60l102 -165h-58l-74 122l-74 -122h-58zM-32 -230v57q17 -4 37 -4q66 0 66 83v576h64v-570q0 -75 -23.5 -111t-93.5 -36q-31 0 -50 5z" />
    <glyph glyph-name="uni0136" unicode="&#x136;" horiz-adv-x="586" 
d="M78 0v706h67v-330l329 330h90l-335 -328l383 -378h-95l-372 368v-368h-67zM236 -223l38 165h72l-61 -165h-49z" />
    <glyph glyph-name="uni0137" unicode="&#x137;" horiz-adv-x="459" 
d="M63 0v706h64v-438l225 214h85l-227 -216l270 -266h-85l-268 256v-256h-64zM169 -223l38 165h72l-61 -165h-49z" />
    <glyph glyph-name="kgreenlandic" unicode="&#x138;" horiz-adv-x="459" 
d="M63 0v482h64v-214l225 214h85l-227 -216l270 -266h-85l-268 256v-256h-64z" />
    <glyph glyph-name="Lacute" unicode="&#x139;" horiz-adv-x="519" 
d="M78 0v706h67v-646h363v-60h-430zM83 764l63 165h74l-80 -165h-57z" />
    <glyph glyph-name="lacute" unicode="&#x13a;" horiz-adv-x="190" 
d="M63 0v706h64v-706h-64zM66 764l63 165h74l-80 -165h-57z" />
    <glyph glyph-name="uni013B" unicode="&#x13b;" horiz-adv-x="519" 
d="M78 0v706h67v-646h363v-60h-430zM223 -223l38 165h72l-61 -165h-49z" />
    <glyph glyph-name="uni013C" unicode="&#x13c;" horiz-adv-x="190" 
d="M63 0v706h64v-706h-64zM23 -223l38 165h72l-61 -165h-49z" />
    <glyph glyph-name="Lcaron" unicode="&#x13d;" horiz-adv-x="519" 
d="M78 0v706h67v-646h363v-60h-430zM194 541l38 165h74l-63 -165h-49z" />
    <glyph glyph-name="lcaron" unicode="&#x13e;" horiz-adv-x="210" 
d="M63 0v706h64v-706h-64zM176 541l38 165h74l-63 -165h-49z" />
    <glyph glyph-name="Ldot" unicode="&#x13f;" horiz-adv-x="520" 
d="M78 0v706h67v-646h363v-60h-430zM280 312v86h81v-86h-81z" />
    <glyph glyph-name="ldot" unicode="&#x140;" horiz-adv-x="261" 
d="M63 0v706h64v-706h-64zM185 308v86h81v-86h-81z" />
    <glyph glyph-name="Lslash" unicode="&#x141;" horiz-adv-x="539" 
d="M97 0v255l-82 -53v60l82 53v391h67v-348l216 140v-60l-216 -140v-238h363v-60h-430z" />
    <glyph glyph-name="lslash" unicode="&#x142;" horiz-adv-x="260" 
d="M100 0v339l-75 -49v60l75 49v307h64v-269l75 48v-59l-75 -49v-377h-64z" />
    <glyph glyph-name="Nacute" unicode="&#x143;" horiz-adv-x="732" 
d="M78 0v706h95l414 -637v637h67v-706h-104l-405 637v-637h-67zM336 764l63 165h74l-80 -165h-57z" />
    <glyph glyph-name="nacute" unicode="&#x144;" horiz-adv-x="502" 
d="M63 0v482h64v-87q8 37 52.5 68t99.5 31q82 0 129 -59q24 -30 30 -64.5t6 -121.5v-249h-64v249q0 73 -4.5 102.5t-18.5 47.5q-28 40 -95 40q-69 0 -107 -55q-14 -19 -20 -45.5t-7 -48.5t-1 -79v-211h-64zM225 540l63 165h74l-80 -165h-57z" />
    <glyph glyph-name="uni0145" unicode="&#x145;" horiz-adv-x="732" 
d="M78 0v706h95l414 -637v637h67v-706h-104l-405 637v-637h-67zM296 -223l38 165h72l-61 -165h-49z" />
    <glyph glyph-name="uni0146" unicode="&#x146;" horiz-adv-x="502" 
d="M63 0v482h64v-87q8 37 52.5 68t99.5 31q82 0 129 -59q24 -30 30 -64.5t6 -121.5v-249h-64v249q0 73 -4.5 102.5t-18.5 47.5q-28 40 -95 40q-69 0 -107 -55q-14 -19 -20 -45.5t-7 -48.5t-1 -79v-211h-64zM180 -223l38 165h72l-61 -165h-49z" />
    <glyph glyph-name="Ncaron" unicode="&#x147;" horiz-adv-x="732" 
d="M78 0v706h95l414 -637v637h67v-706h-104l-405 637v-637h-67zM339 764l-128 165h63l92 -122l92 122h63l-128 -165h-54z" />
    <glyph glyph-name="ncaron" unicode="&#x148;" horiz-adv-x="502" 
d="M63 0v482h64v-87q8 37 52.5 68t99.5 31q82 0 129 -59q24 -30 30 -64.5t6 -121.5v-249h-64v249q0 73 -4.5 102.5t-18.5 47.5q-28 40 -95 40q-69 0 -107 -55q-14 -19 -20 -45.5t-7 -48.5t-1 -79v-211h-64zM227 540l-128 165h63l92 -122l92 122h63l-128 -165h-54z" />
    <glyph glyph-name="napostrophe" unicode="&#x149;" horiz-adv-x="502" 
d="M63 0v482h64v-87q8 37 52.5 68t99.5 31q82 0 129 -59q24 -30 30 -64.5t6 -121.5v-249h-64v249q0 73 -4.5 102.5t-18.5 47.5q-28 40 -95 40q-69 0 -107 -55q-14 -19 -20 -45.5t-7 -48.5t-1 -79v-211h-64zM39 540l38 165h74l-63 -165h-49z" />
    <glyph glyph-name="Eng" unicode="&#x14a;" horiz-adv-x="732" 
d="M487 -230v57q17 -4 37 -4q28 0 43 15t17.5 30t2.5 38v94h-37l-405 637v-637h-67v706h95l414 -637v637h67v-794q0 -75 -23.5 -111t-93.5 -36q-31 0 -50 5z" />
    <glyph glyph-name="eng" unicode="&#x14b;" horiz-adv-x="502" 
d="M277 -230v57q17 -4 37 -4q66 0 66 83v343q0 73 -4.5 102.5t-18.5 47.5q-28 40 -95 40q-69 0 -107 -55q-14 -19 -20 -45.5t-7 -48.5t-1 -79v-211h-64v482h64v-87q8 37 52.5 68t99.5 31q82 0 129 -59q24 -30 30 -64.5t6 -121.5v-337q0 -75 -23.5 -111t-93.5 -36
q-31 0 -50 5z" />
    <glyph glyph-name="Omacron" unicode="&#x14c;" horiz-adv-x="717" 
d="M360 43q82 0 140 45.5t83 113t25 148.5q0 128 -63.5 220.5t-184.5 92.5q-63 0 -112.5 -27t-79 -72t-44.5 -99.5t-15 -114.5t15 -113.5t44.5 -97.5t79 -70t112.5 -26zM360 -17q-81 0 -144 31t-101 84t-57 117t-19 135t19 136t57 119t101 86t144 32q80 0 142.5 -32t100 -86
t56.5 -119t19 -136t-19 -135.5t-56.5 -117t-100 -83.5t-142.5 -31zM219 810v59h282v-59h-282z" />
    <glyph glyph-name="omacron" unicode="&#x14d;" horiz-adv-x="515" 
d="M258 43q75 0 115.5 59t40.5 138t-41 139t-115 60q-75 0 -116 -59.5t-41 -139.5q0 -79 41 -138t116 -59zM258 -12q-103 0 -163.5 76t-60.5 176t60.5 177t163.5 77t163 -77t60 -177t-60 -176t-163 -76zM115 586v59h282v-59h-282z" />
    <glyph glyph-name="Obreve" unicode="&#x14e;" horiz-adv-x="717" 
d="M360 43q82 0 140 45.5t83 113t25 148.5q0 128 -63.5 220.5t-184.5 92.5q-63 0 -112.5 -27t-79 -72t-44.5 -99.5t-15 -114.5t15 -113.5t44.5 -97.5t79 -70t112.5 -26zM360 -17q-81 0 -144 31t-101 84t-57 117t-19 135t19 136t57 119t101 86t144 32q80 0 142.5 -32t100 -86
t56.5 -119t19 -136t-19 -135.5t-56.5 -117t-100 -83.5t-142.5 -31zM221 894v25h55v-25q0 -41 21.5 -66t62.5 -25t63 25t22 66v25h55v-25q0 -62 -40.5 -100t-99.5 -38t-99 38t-40 100z" />
    <glyph glyph-name="obreve" unicode="&#x14f;" horiz-adv-x="515" 
d="M258 43q75 0 115.5 59t40.5 138t-41 139t-115 60q-75 0 -116 -59.5t-41 -139.5q0 -79 41 -138t116 -59zM258 -12q-103 0 -163.5 76t-60.5 176t60.5 177t163.5 77t163 -77t60 -177t-60 -176t-163 -76zM116 670v25h55v-25q0 -41 21.5 -66t62.5 -25t63 25t22 66v25h55v-25
q0 -62 -40.5 -100t-99.5 -38t-99 38t-40 100z" />
    <glyph glyph-name="Ohungarumlaut" unicode="&#x150;" horiz-adv-x="717" 
d="M360 43q82 0 140 45.5t83 113t25 148.5q0 128 -63.5 220.5t-184.5 92.5q-63 0 -112.5 -27t-79 -72t-44.5 -99.5t-15 -114.5t15 -113.5t44.5 -97.5t79 -70t112.5 -26zM360 -17q-81 0 -144 31t-101 84t-57 117t-19 135t19 136t57 119t101 86t144 32q80 0 142.5 -32t100 -86
t56.5 -119t19 -136t-19 -135.5t-56.5 -117t-100 -83.5t-142.5 -31zM272 764l63 165h74l-80 -165h-57zM391 764l63 165h74l-80 -165h-57z" />
    <glyph glyph-name="ohungarumlaut" unicode="&#x151;" horiz-adv-x="515" 
d="M258 43q75 0 115.5 59t40.5 138t-41 139t-115 60q-75 0 -116 -59.5t-41 -139.5q0 -79 41 -138t116 -59zM258 -12q-103 0 -163.5 76t-60.5 176t60.5 177t163.5 77t163 -77t60 -177t-60 -176t-163 -76zM164 540l63 165h74l-80 -165h-57zM283 540l63 165h74l-80 -165h-57z
" />
    <glyph glyph-name="OE" unicode="&#x152;" horiz-adv-x="918" 
d="M542 60h339v-60h-502q-108 0 -187 50t-116.5 128.5t-37.5 174.5t37.5 174.5t116.5 128.5t187 50h493v-60h-330v-250h317v-60h-317v-276zM379 60h96v586h-96q-127 0 -199 -84.5t-72 -208.5t72 -208.5t199 -84.5z" />
    <glyph glyph-name="oe" unicode="&#x153;" horiz-adv-x="870" 
d="M766 155l66 -12q-12 -56 -65 -105.5t-131 -49.5q-138 0 -191 116q-60 -116 -187 -116q-103 0 -163.5 76t-60.5 176t60.5 177t163.5 77q126 0 187 -119q54 119 180 119q103 0 157 -73t54 -187v-6h-355q0 -46 13.5 -85.5t50 -69.5t91.5 -30q56 0 89.5 35t40.5 77zM258 43
q75 0 115.5 59t40.5 138t-41 139t-115 60q-75 0 -116 -59.5t-41 -139.5q0 -79 41 -138t116 -59zM483 282h282q0 60 -37 108.5t-103 48.5q-67 0 -104.5 -45t-37.5 -112z" />
    <glyph glyph-name="Racute" unicode="&#x154;" horiz-adv-x="647" 
d="M78 0v706h273q119 0 174.5 -49t55.5 -136q0 -78 -38.5 -118t-79.5 -49q113 -15 113 -135v-108q0 -68 42 -111h-80q-31 39 -31 101v110q0 67 -35 87.5t-110 20.5h-217v-319h-67zM145 379h217q150 0 150 142q0 57 -38.5 91t-122.5 34h-206v-267zM286 764l63 165h74
l-80 -165h-57z" />
    <glyph glyph-name="racute" unicode="&#x155;" horiz-adv-x="317" 
d="M63 0v482h64v-92q9 39 51 71.5t98 32.5q22 0 34 -4v-73q-15 5 -49 5q-65 0 -106 -60q-13 -17 -19.5 -44.5t-7.5 -50.5t-1 -64v-203h-64zM141 540l63 165h74l-80 -165h-57z" />
    <glyph glyph-name="uni0156" unicode="&#x156;" horiz-adv-x="647" 
d="M78 0v706h273q119 0 174.5 -49t55.5 -136q0 -78 -38.5 -118t-79.5 -49q113 -15 113 -135v-108q0 -68 42 -111h-80q-31 39 -31 101v110q0 67 -35 87.5t-110 20.5h-217v-319h-67zM145 379h217q150 0 150 142q0 57 -38.5 91t-122.5 34h-206v-267zM251 -223l38 165h72
l-61 -165h-49z" />
    <glyph glyph-name="uni0157" unicode="&#x157;" horiz-adv-x="317" 
d="M63 0v482h64v-92q9 39 51 71.5t98 32.5q22 0 34 -4v-73q-15 5 -49 5q-65 0 -106 -60q-13 -17 -19.5 -44.5t-7.5 -50.5t-1 -64v-203h-64zM23 -223l38 165h72l-61 -165h-49z" />
    <glyph glyph-name="Rcaron" unicode="&#x158;" horiz-adv-x="647" 
d="M78 0v706h273q119 0 174.5 -49t55.5 -136q0 -78 -38.5 -118t-79.5 -49q113 -15 113 -135v-108q0 -68 42 -111h-80q-31 39 -31 101v110q0 67 -35 87.5t-110 20.5h-217v-319h-67zM145 379h217q150 0 150 142q0 57 -38.5 91t-122.5 34h-206v-267zM289 764l-128 165h63
l92 -122l92 122h63l-128 -165h-54z" />
    <glyph glyph-name="rcaron" unicode="&#x159;" horiz-adv-x="317" 
d="M63 0v482h64v-92q9 39 51 71.5t98 32.5q22 0 34 -4v-73q-15 5 -49 5q-65 0 -106 -60q-13 -17 -19.5 -44.5t-7.5 -50.5t-1 -64v-203h-64zM143 540l-128 165h63l92 -122l92 122h63l-128 -165h-54z" />
    <glyph glyph-name="Sacute" unicode="&#x15a;" horiz-adv-x="602" 
d="M31 212l70 8q6 -85 63.5 -131t132.5 -46q93 0 148 40t55 104q0 27 -9.5 48.5t-21.5 33.5t-36.5 22.5t-41 15t-48.5 12.5l-48 11q-49 11 -76.5 19t-65.5 23.5t-57.5 34t-34 48t-14.5 68.5q0 90 67 145t188 55q106 0 169.5 -53.5t82.5 -144.5l-74 -10q-15 76 -63.5 112
t-114.5 36q-79 0 -132 -35t-53 -105q0 -23 11.5 -41.5t26 -30t45.5 -23t50.5 -16.5t59.5 -15l47 -11q107 -24 160 -67t53 -132q0 -92 -77 -148t-196 -56q-107 0 -182.5 61t-83.5 168zM270 764l63 165h74l-80 -165h-57z" />
    <glyph glyph-name="sacute" unicode="&#x15b;" horiz-adv-x="452" 
d="M27 154l72 14q0 -56 33.5 -90.5t94.5 -34.5q53 0 89 22.5t36 67.5q0 28 -19.5 46t-38.5 24t-47 11q-2 0 -3.5 0.5t-3.5 0.5l-27 5q-23 5 -34 7.5t-32.5 8.5t-32.5 12t-26.5 17t-23 23.5t-13.5 30.5t-6 40q0 60 48 97.5t130 37.5q72 0 125 -41t62 -114l-70 -10
q-9 110 -119 110q-58 0 -84.5 -26t-26.5 -54q0 -59 103 -77l39 -7q36 -6 60 -13t52 -22t42.5 -42t14.5 -65q0 -66 -57 -105.5t-137 -39.5q-52 0 -93 18t-63 45.5t-33 54t-11 48.5zM193 540l63 165h74l-80 -165h-57z" />
    <glyph glyph-name="Scircumflex" unicode="&#x15c;" horiz-adv-x="602" 
d="M31 212l70 8q6 -85 63.5 -131t132.5 -46q93 0 148 40t55 104q0 27 -9.5 48.5t-21.5 33.5t-36.5 22.5t-41 15t-48.5 12.5l-48 11q-49 11 -76.5 19t-65.5 23.5t-57.5 34t-34 48t-14.5 68.5q0 90 67 145t188 55q106 0 169.5 -53.5t82.5 -144.5l-74 -10q-15 76 -63.5 112
t-114.5 36q-79 0 -132 -35t-53 -105q0 -23 11.5 -41.5t26 -30t45.5 -23t50.5 -16.5t59.5 -15l47 -11q107 -24 160 -67t53 -132q0 -92 -77 -148t-196 -56q-107 0 -182.5 61t-83.5 168zM145 764l128 165h54l128 -165h-63l-92 122l-92 -122h-63z" />
    <glyph glyph-name="scircumflex" unicode="&#x15d;" horiz-adv-x="452" 
d="M27 154l72 14q0 -56 33.5 -90.5t94.5 -34.5q53 0 89 22.5t36 67.5q0 28 -19.5 46t-38.5 24t-47 11q-2 0 -3.5 0.5t-3.5 0.5l-27 5q-23 5 -34 7.5t-32.5 8.5t-32.5 12t-26.5 17t-23 23.5t-13.5 30.5t-6 40q0 60 48 97.5t130 37.5q72 0 125 -41t62 -114l-70 -10
q-9 110 -119 110q-58 0 -84.5 -26t-26.5 -54q0 -59 103 -77l39 -7q36 -6 60 -13t52 -22t42.5 -42t14.5 -65q0 -66 -57 -105.5t-137 -39.5q-52 0 -93 18t-63 45.5t-33 54t-11 48.5zM67 540l128 165h54l128 -165h-63l-92 122l-92 -122h-63z" />
    <glyph glyph-name="Scedilla" unicode="&#x15e;" horiz-adv-x="602" 
d="M276 -223v42h26q55 0 55 43q0 42 -55 42h-26v80q-100 6 -168.5 66t-76.5 162l70 8q6 -85 63.5 -131t132.5 -46q93 0 148 40t55 104q0 27 -9.5 48.5t-21.5 33.5t-36.5 22.5t-41 15t-48.5 12.5l-48 11q-49 11 -76.5 19t-65.5 23.5t-57.5 34t-34 48t-14.5 68.5q0 90 67 145
t188 55q106 0 169.5 -53.5t82.5 -144.5l-74 -10q-15 76 -63.5 112t-114.5 36q-79 0 -132 -35t-53 -105q0 -23 11.5 -41.5t26 -30t45.5 -23t50.5 -16.5t59.5 -15l47 -11q107 -24 160 -67t53 -132q0 -86 -69 -141.5t-178 -61.5v-40q37 -2 59 -24t22 -58q0 -40 -29 -62.5
t-73 -22.5h-26z" />
    <glyph glyph-name="scedilla" unicode="&#x15f;" horiz-adv-x="452" 
d="M200 -223v42h26q55 0 55 43q0 42 -55 42h-26v86q-85 7 -129 61t-44 103l72 14q0 -56 33.5 -90.5t94.5 -34.5q53 0 89 22.5t36 67.5q0 28 -19.5 46t-38.5 24t-47 11q-2 0 -3.5 0.5t-3.5 0.5l-27 5q-23 5 -34 7.5t-32.5 8.5t-32.5 12t-26.5 17t-23 23.5t-13.5 30.5t-6 40
q0 60 48 97.5t130 37.5q72 0 125 -41t62 -114l-70 -10q-9 110 -119 110q-58 0 -84.5 -26t-26.5 -54q0 -59 103 -77l39 -7q36 -6 60 -13t52 -22t42.5 -42t14.5 -65q0 -62 -50 -100t-124 -44v-45q37 -2 59 -24t22 -58q0 -40 -29 -62.5t-73 -22.5h-26z" />
    <glyph glyph-name="Scaron" unicode="&#x160;" horiz-adv-x="602" 
d="M31 212l70 8q6 -85 63.5 -131t132.5 -46q93 0 148 40t55 104q0 27 -9.5 48.5t-21.5 33.5t-36.5 22.5t-41 15t-48.5 12.5l-48 11q-49 11 -76.5 19t-65.5 23.5t-57.5 34t-34 48t-14.5 68.5q0 90 67 145t188 55q106 0 169.5 -53.5t82.5 -144.5l-74 -10q-15 76 -63.5 112
t-114.5 36q-79 0 -132 -35t-53 -105q0 -23 11.5 -41.5t26 -30t45.5 -23t50.5 -16.5t59.5 -15l47 -11q107 -24 160 -67t53 -132q0 -92 -77 -148t-196 -56q-107 0 -182.5 61t-83.5 168zM273 764l-128 165h63l92 -122l92 122h63l-128 -165h-54z" />
    <glyph glyph-name="scaron" unicode="&#x161;" horiz-adv-x="452" 
d="M27 154l72 14q0 -56 33.5 -90.5t94.5 -34.5q53 0 89 22.5t36 67.5q0 28 -19.5 46t-38.5 24t-47 11q-2 0 -3.5 0.5t-3.5 0.5l-27 5q-23 5 -34 7.5t-32.5 8.5t-32.5 12t-26.5 17t-23 23.5t-13.5 30.5t-6 40q0 60 48 97.5t130 37.5q72 0 125 -41t62 -114l-70 -10
q-9 110 -119 110q-58 0 -84.5 -26t-26.5 -54q0 -59 103 -77l39 -7q36 -6 60 -13t52 -22t42.5 -42t14.5 -65q0 -66 -57 -105.5t-137 -39.5q-52 0 -93 18t-63 45.5t-33 54t-11 48.5zM195 540l-128 165h63l92 -122l92 122h63l-128 -165h-54z" />
    <glyph glyph-name="uni0162" unicode="&#x162;" horiz-adv-x="544" 
d="M238 0v646h-227v60h522v-60h-228v-646h-10v-56q37 -2 59 -24t22 -58q0 -40 -29 -62.5t-73 -22.5h-26v42h26q55 0 55 43q0 42 -55 42h-26v96h-10z" />
    <glyph glyph-name="uni0163" unicode="&#x163;" horiz-adv-x="286" 
d="M152 -223v42h26q55 0 55 43q0 42 -55 42h-26v100q-52 23 -52 104v319h-93v55h93v159h64v-159h106v-55h-106v-316q0 -36 14 -49t43 -13q22 0 49 5v-51q-25 -9 -65 -9h-6v-50q37 -2 59 -24t22 -58q0 -40 -29 -62.5t-73 -22.5h-26z" />
    <glyph glyph-name="Tcaron" unicode="&#x164;" horiz-adv-x="544" 
d="M238 0v646h-227v60h522v-60h-228v-646h-67zM245 764l-128 165h63l92 -122l92 122h63l-128 -165h-54z" />
    <glyph glyph-name="tcaron" unicode="&#x165;" horiz-adv-x="286" 
d="M100 108v319h-93v55h93v159h64v-159h106v-55h-106v-316q0 -36 14 -49t43 -13q22 0 49 5v-51q-25 -9 -65 -9q-105 0 -105 114zM213 541l38 165h74l-63 -165h-49z" />
    <glyph glyph-name="Tbar" unicode="&#x166;" horiz-adv-x="550" 
d="M83 454v54h158v138h-227v60h522v-60h-228v-138h158v-54h-158v-454h-67v454h-158z" />
    <glyph glyph-name="tbar" unicode="&#x167;" horiz-adv-x="294" 
d="M23 262v50h82v115h-93v55h93v159h64v-159h106v-55h-106v-115h95v-50h-95v-151q0 -36 14 -49t43 -13q22 0 49 5v-51q-25 -9 -65 -9q-105 0 -105 114v154h-82z" />
    <glyph glyph-name="Utilde" unicode="&#x168;" horiz-adv-x="676" 
d="M72 241v465h67v-465q0 -88 53 -143t147 -55q95 0 146.5 53t51.5 145v465h67v-465q0 -124 -72.5 -191t-192.5 -67q-134 0 -200.5 74t-66.5 184zM198 778v74q37 35 74 35q26 0 78 -21q43 -15 53 -15q38 0 77 53v-74q-39 -37 -77 -37q-26 0 -78 21q-43 15 -53 15
q-37 0 -74 -51z" />
    <glyph glyph-name="utilde" unicode="&#x169;" horiz-adv-x="498" 
d="M58 233v249h64v-249q0 -73 4.5 -102.5t18.5 -47.5q28 -40 95 -40q37 0 60 13.5t43 41.5q21 28 25 57.5t4 115.5v211h63v-482h-64v87q-8 -38 -50 -68.5t-98 -30.5q-82 0 -129 59q-24 30 -30 64.5t-6 121.5zM107 554v74q37 35 74 35q26 0 78 -21q43 -15 53 -15q38 0 77 53
v-74q-39 -37 -77 -37q-26 0 -78 21q-43 15 -53 15q-37 0 -74 -51z" />
    <glyph glyph-name="Umacron" unicode="&#x16a;" horiz-adv-x="676" 
d="M72 241v465h67v-465q0 -88 53 -143t147 -55q95 0 146.5 53t51.5 145v465h67v-465q0 -124 -72.5 -191t-192.5 -67q-134 0 -200.5 74t-66.5 184zM198 810v59h282v-59h-282z" />
    <glyph glyph-name="umacron" unicode="&#x16b;" horiz-adv-x="498" 
d="M58 233v249h64v-249q0 -73 4.5 -102.5t18.5 -47.5q28 -40 95 -40q37 0 60 13.5t43 41.5q21 28 25 57.5t4 115.5v211h63v-482h-64v87q-8 -38 -50 -68.5t-98 -30.5q-82 0 -129 59q-24 30 -30 64.5t-6 121.5zM107 586v59h282v-59h-282z" />
    <glyph glyph-name="Ubreve" unicode="&#x16c;" horiz-adv-x="676" 
d="M72 241v465h67v-465q0 -88 53 -143t147 -55q95 0 146.5 53t51.5 145v465h67v-465q0 -124 -72.5 -191t-192.5 -67q-134 0 -200.5 74t-66.5 184zM200 894v25h55v-25q0 -41 21.5 -66t62.5 -25t63 25t22 66v25h55v-25q0 -62 -40.5 -100t-99.5 -38t-99 38t-40 100z" />
    <glyph glyph-name="ubreve" unicode="&#x16d;" horiz-adv-x="498" 
d="M58 233v249h64v-249q0 -73 4.5 -102.5t18.5 -47.5q28 -40 95 -40q37 0 60 13.5t43 41.5q21 28 25 57.5t4 115.5v211h63v-482h-64v87q-8 -38 -50 -68.5t-98 -30.5q-82 0 -129 59q-24 30 -30 64.5t-6 121.5zM108 670v25h55v-25q0 -41 21.5 -66t62.5 -25t63 25t22 66v25h55
v-25q0 -62 -40.5 -100t-99.5 -38t-99 38t-40 100z" />
    <glyph glyph-name="Uring" unicode="&#x16e;" horiz-adv-x="676" 
d="M72 241v465h67v-465q0 -88 53 -143t147 -55q95 0 146.5 53t51.5 145v465h67v-465q0 -124 -72.5 -191t-192.5 -67q-134 0 -200.5 74t-66.5 184zM338 797q23 0 39.5 16.5t16.5 39.5t-16.5 39.5t-39.5 16.5t-39.5 -16.5t-16.5 -39.5t16.5 -39.5t39.5 -16.5zM338 760
q-38 0 -65.5 27.5t-27.5 65.5t27.5 65.5t65.5 27.5t65.5 -27.5t27.5 -65.5t-27.5 -65.5t-65.5 -27.5z" />
    <glyph glyph-name="uring" unicode="&#x16f;" horiz-adv-x="498" 
d="M58 233v249h64v-249q0 -73 4.5 -102.5t18.5 -47.5q28 -40 95 -40q37 0 60 13.5t43 41.5q21 28 25 57.5t4 115.5v211h63v-482h-64v87q-8 -38 -50 -68.5t-98 -30.5q-82 0 -129 59q-24 30 -30 64.5t-6 121.5zM248 573q23 0 39.5 16.5t16.5 39.5t-16.5 39.5t-39.5 16.5
t-39.5 -16.5t-16.5 -39.5t16.5 -39.5t39.5 -16.5zM248 536q-38 0 -65.5 27.5t-27.5 65.5t27.5 65.5t65.5 27.5t65.5 -27.5t27.5 -65.5t-27.5 -65.5t-65.5 -27.5z" />
    <glyph glyph-name="Uhungarumlaut" unicode="&#x170;" horiz-adv-x="676" 
d="M72 241v465h67v-465q0 -88 53 -143t147 -55q95 0 146.5 53t51.5 145v465h67v-465q0 -124 -72.5 -191t-192.5 -67q-134 0 -200.5 74t-66.5 184zM251 764l63 165h74l-80 -165h-57zM370 764l63 165h74l-80 -165h-57z" />
    <glyph glyph-name="uhungarumlaut" unicode="&#x171;" horiz-adv-x="498" 
d="M58 233v249h64v-249q0 -73 4.5 -102.5t18.5 -47.5q28 -40 95 -40q37 0 60 13.5t43 41.5q21 28 25 57.5t4 115.5v211h63v-482h-64v87q-8 -38 -50 -68.5t-98 -30.5q-82 0 -129 59q-24 30 -30 64.5t-6 121.5zM156 540l63 165h74l-80 -165h-57zM275 540l63 165h74l-80 -165
h-57z" />
    <glyph glyph-name="Uogonek" unicode="&#x172;" horiz-adv-x="676" 
d="M420 -223h-26q-54 0 -93 39t-39 94q0 42 23 77q-108 15 -160.5 85.5t-52.5 168.5v465h67v-465q0 -88 53 -143t147 -55q95 0 146.5 53t51.5 145v465h67v-465q0 -122 -70.5 -189t-189.5 -69q-35 -27 -35 -73q0 -38 24.5 -64.5t60.5 -26.5h26v-42z" />
    <glyph glyph-name="uogonek" unicode="&#x173;" horiz-adv-x="498" 
d="M361 -90q0 -38 24.5 -64.5t60.5 -26.5h26v-42h-26q-54 0 -93 39t-39 94q0 33 15 62.5t42 46.5v68q-8 -38 -50 -68.5t-98 -30.5q-82 0 -129 59q-24 30 -30 64.5t-6 121.5v249h64v-249q0 -73 4.5 -102.5t18.5 -47.5q28 -40 95 -40q37 0 60 13.5t43 41.5q21 28 25 57.5
t4 115.5v211h63v-482q-31 0 -52.5 -28t-21.5 -62z" />
    <glyph glyph-name="Wcircumflex" unicode="&#x174;" horiz-adv-x="930" 
d="M200 0l-191 706h69l174 -641l159 641h108l159 -641l174 641h69l-191 -706h-105l-160 646l-160 -646h-105zM310 764l128 165h54l128 -165h-63l-92 122l-92 -122h-63z" />
    <glyph glyph-name="wcircumflex" unicode="&#x175;" horiz-adv-x="722" 
d="M162 0l-153 482h66l128 -410l112 410h90l116 -410l128 410h64l-153 -482h-83l-117 416l-115 -416h-83zM205 540l128 165h54l128 -165h-63l-92 122l-92 -122h-63z" />
    <glyph glyph-name="Ycircumflex" unicode="&#x176;" horiz-adv-x="588" 
d="M258 0v332l-246 374h78l205 -315l214 315h74l-256 -374v-332h-69zM140 764l128 165h54l128 -165h-63l-92 122l-92 -122h-63z" />
    <glyph glyph-name="ycircumflex" unicode="&#x177;" horiz-adv-x="438" 
d="M28 -231v60q21 -6 36 -6q66 0 87 57l36 102l-175 500h66l143 -403l145 403h64l-222 -628q-31 -89 -130 -89q-25 0 -50 4zM65 540l128 165h54l128 -165h-63l-92 122l-92 -122h-63z" />
    <glyph glyph-name="Ydieresis" unicode="&#x178;" horiz-adv-x="588" 
d="M258 0v332l-246 374h78l205 -315l214 315h74l-256 -374v-332h-69zM152 799v86h81v-86h-81zM357 799v86h81v-86h-81z" />
    <glyph glyph-name="Zacute" unicode="&#x179;" horiz-adv-x="570" 
d="M20 0v75l428 571h-411v60h494v-60l-439 -586h463v-60h-535zM254 764l63 165h74l-80 -165h-57z" />
    <glyph glyph-name="zacute" unicode="&#x17a;" horiz-adv-x="415" 
d="M19 0v68l290 361h-265v53h342v-53l-301 -374h307v-55h-373zM185 540l63 165h74l-80 -165h-57z" />
    <glyph glyph-name="Zdotaccent" unicode="&#x17b;" horiz-adv-x="570" 
d="M20 0v75l428 571h-411v60h494v-60l-439 -586h463v-60h-535zM243 799v86h81v-86h-81z" />
    <glyph glyph-name="zdotaccent" unicode="&#x17c;" horiz-adv-x="415" 
d="M19 0v68l290 361h-265v53h342v-53l-301 -374h307v-55h-373zM174 575v86h81v-86h-81z" />
    <glyph glyph-name="Zcaron" unicode="&#x17d;" horiz-adv-x="570" 
d="M20 0v75l428 571h-411v60h494v-60l-439 -586h463v-60h-535zM257 764l-128 165h63l92 -122l92 122h63l-128 -165h-54z" />
    <glyph glyph-name="zcaron" unicode="&#x17e;" horiz-adv-x="415" 
d="M19 0v68l290 361h-265v53h342v-53l-301 -374h307v-55h-373zM187 540l-128 165h63l92 -122l92 122h63l-128 -165h-54z" />
    <glyph glyph-name="longs" unicode="&#x17f;" horiz-adv-x="190" 
d="M63 0v575q0 70 26 106.5t91 36.5q31 0 50 -5v-57q-17 4 -36 4q-33 0 -50 -18.5t-17 -64.5v-577h-64z" />
    <glyph glyph-name="uni018F" unicode="&#x18f;" horiz-adv-x="587" 
d="M116 477l-71 17q7 38 24 75.5t45.5 73.5t74.5 58.5t102 22.5q130 0 192 -98t62 -273q0 -99 -27.5 -181.5t-86.5 -135.5t-139 -53q-125 0 -189 97.5t-64 243.5q0 4 0.5 14t0.5 14h429q0 61 -8.5 113.5t-28 98.5t-55.5 72.5t-86 26.5q-74 0 -118 -53t-57 -133zM466 292
h-345q0 -56 18.5 -112t59 -96.5t93.5 -40.5q79 0 126.5 75t47.5 174z" />
    <glyph glyph-name="uni0190" unicode="&#x190;" horiz-adv-x="597" 
d="M500 220l72 -8q-8 -106 -84 -167.5t-185 -61.5q-127 0 -195.5 62t-68.5 151q0 62 38 109.5t111 67.5q-64 16 -97.5 61t-33.5 102q0 86 66.5 136.5t177.5 50.5q56 0 101 -14.5t72 -35t46.5 -49.5t27.5 -51.5t13 -47.5l-74 -10q-6 27 -15 47.5t-28.5 46t-56 40t-86.5 14.5
q-76 0 -125 -34t-49 -93q0 -60 47.5 -97.5t120.5 -37.5h107v-62h-111q-85 0 -133.5 -38t-48.5 -106q0 -64 54.5 -108t139.5 -44q81 0 136 44t61 133z" />
    <glyph glyph-name="florin" unicode="&#x192;" horiz-adv-x="303" 
d="M-19 -225l6 54q13 -6 30 -6q19 0 29.5 11.5t13 23t4.5 32.5l55 537h-73l6 55h72l13 125q10 111 91 111q31 0 54 -10l-6 -54q-13 6 -30 6q-19 0 -29.5 -11.5t-13 -23t-4.5 -32.5l-11 -111h83l-5 -55h-84l-56 -551q-10 -111 -91 -111q-31 0 -54 10z" />
    <glyph glyph-name="uni0194" unicode="&#x194;" horiz-adv-x="574" 
d="M282 -224q-50 0 -80 31t-30 78q0 41 13 80t57 135l-258 606h73l227 -534l237 534h70l-269 -600q43 -96 56.5 -137.5t13.5 -82.5q0 -49 -30 -79.5t-80 -30.5zM282 -166q20 0 31.5 16t11.5 43q0 41 -43 145q-43 -104 -43 -145q0 -27 11.5 -43t31.5 -16z" />
    <glyph glyph-name="uni0197" unicode="&#x197;" horiz-adv-x="237" 
d="M15 335v60h70v311h67v-311h70v-60h-70v-335h-67v335h-70z" />
    <glyph glyph-name="uni019D" unicode="&#x19d;" horiz-adv-x="732" 
d="M25 -235q-31 0 -50 5v57q17 -4 37 -4q66 0 66 83v800h95l414 -637v637h67v-706h-104l-405 637v-725q0 -74 -24.5 -110.5t-95.5 -36.5z" />
    <glyph glyph-name="uni01B5" unicode="&#x1b5;" horiz-adv-x="582" 
d="M67 335v54h194l193 257h-411v60h494v-60l-193 -257h165v-54h-205l-206 -275h463v-60h-535v75l195 260h-154z" />
    <glyph glyph-name="uni01B6" unicode="&#x1b6;" horiz-adv-x="424" 
d="M46 222v50h141l127 157h-265v53h342v-53l-127 -157h104v-50h-144l-134 -167h307v-55h-373v68l123 154h-101z" />
    <glyph glyph-name="uni01CD" unicode="&#x1cd;" horiz-adv-x="637" 
d="M3 0l268 706h98l264 -706h-75l-82 219h-316l-82 -219h-75zM182 279h272l-136 371zM291 764l-128 165h63l92 -122l92 122h63l-128 -165h-54z" />
    <glyph glyph-name="uni01CE" unicode="&#x1ce;" horiz-adv-x="470" 
d="M417 0h-65q-6 30 -6 77q-41 -89 -154 -89q-74 0 -116.5 39t-42.5 98q0 33 11 58.5t27 40.5t44.5 27t52.5 18t61 13q38 6 58 10q28 5 41.5 16t15.5 20.5t2 28.5q0 10 -3.5 21.5t-13.5 26.5t-34.5 24.5t-59.5 9.5q-110 0 -120 -110l-69 11q7 48 30 82q47 72 159 72
q83 0 129 -34t46 -118v-238q0 -69 7 -104zM100 125q0 -36 28.5 -59t67.5 -23q22 0 45 6t48 19.5t41 43t16 70.5v75q-30 -12 -88 -23l-30 -6q-42 -8 -65.5 -16t-43 -30t-19.5 -57zM210 540l-128 165h63l92 -122l92 122h63l-128 -165h-54z" />
    <glyph glyph-name="uni01CF" unicode="&#x1cf;" horiz-adv-x="223" 
d="M78 0v706h67v-706h-67zM84 764l-128 165h63l92 -122l92 122h63l-128 -165h-54z" />
    <glyph glyph-name="uni01D0" unicode="&#x1d0;" horiz-adv-x="190" 
d="M63 0v482h64v-482h-64zM68 540l-128 165h63l92 -122l92 122h63l-128 -165h-54z" />
    <glyph glyph-name="uni01D1" unicode="&#x1d1;" horiz-adv-x="717" 
d="M360 43q82 0 140 45.5t83 113t25 148.5q0 128 -63.5 220.5t-184.5 92.5q-63 0 -112.5 -27t-79 -72t-44.5 -99.5t-15 -114.5t15 -113.5t44.5 -97.5t79 -70t112.5 -26zM360 -17q-81 0 -144 31t-101 84t-57 117t-19 135t19 136t57 119t101 86t144 32q80 0 142.5 -32t100 -86
t56.5 -119t19 -136t-19 -135.5t-56.5 -117t-100 -83.5t-142.5 -31zM333 764l-128 165h63l92 -122l92 122h63l-128 -165h-54z" />
    <glyph glyph-name="uni01D2" unicode="&#x1d2;" horiz-adv-x="515" 
d="M258 43q75 0 115.5 59t40.5 138t-41 139t-115 60q-75 0 -116 -59.5t-41 -139.5q0 -79 41 -138t116 -59zM258 -12q-103 0 -163.5 76t-60.5 176t60.5 177t163.5 77t163 -77t60 -177t-60 -176t-163 -76zM231 540l-128 165h63l92 -122l92 122h63l-128 -165h-54z" />
    <glyph glyph-name="uni01D3" unicode="&#x1d3;" horiz-adv-x="676" 
d="M72 241v465h67v-465q0 -88 53 -143t147 -55q95 0 146.5 53t51.5 145v465h67v-465q0 -124 -72.5 -191t-192.5 -67q-134 0 -200.5 74t-66.5 184zM312 764l-128 165h63l92 -122l92 122h63l-128 -165h-54z" />
    <glyph glyph-name="uni01D4" unicode="&#x1d4;" horiz-adv-x="498" 
d="M58 233v249h64v-249q0 -73 4.5 -102.5t18.5 -47.5q28 -40 95 -40q37 0 60 13.5t43 41.5q21 28 25 57.5t4 115.5v211h63v-482h-64v87q-8 -38 -50 -68.5t-98 -30.5q-82 0 -129 59q-24 30 -30 64.5t-6 121.5zM218 540l-128 165h63l92 -122l92 122h63l-128 -165h-54z" />
    <glyph glyph-name="Gcaron" unicode="&#x1e6;" horiz-adv-x="701" 
d="M591 0v119q-61 -136 -228 -136q-85 0 -149.5 31t-101.5 84.5t-55 117.5t-18 137q0 97 34.5 179t109.5 136.5t178 54.5q111 0 178.5 -56t96.5 -135l-68 -13q-23 60 -75 102t-132 42q-81 0 -139.5 -45.5t-85.5 -114.5t-27 -150q0 -61 14.5 -114.5t43.5 -98.5t79.5 -71
t116.5 -26q92 0 158.5 65.5t66.5 203.5h-227v60h292v-372h-62zM334 764l-128 165h63l92 -122l92 122h63l-128 -165h-54z" />
    <glyph glyph-name="gcaron" unicode="&#x1e7;" horiz-adv-x="526" 
d="M58 -64l72 12q2 -57 39 -92.5t87 -35.5q143 0 143 165v97q-12 -38 -57 -66t-97 -28q-97 0 -153.5 68.5t-56.5 184.5q0 34 7 68t23.5 68t41 59.5t63 41.5t85.5 16q48 0 90 -28.5t54 -66.5v83h64v-498q0 -219 -207 -219q-78 0 -134 44t-64 127zM252 43q24 0 47.5 8.5
t47.5 29t39 61.5t15 98t-14 98.5t-36.5 62t-44.5 29.5t-44 9q-80 0 -120 -57.5t-40 -139.5q0 -92 41.5 -145.5t108.5 -53.5zM237 540l-128 165h63l92 -122l92 122h63l-128 -165h-54z" />
    <glyph glyph-name="uni01E8" unicode="&#x1e8;" horiz-adv-x="586" 
d="M78 0v706h67v-330l329 330h90l-335 -328l383 -378h-95l-372 368v-368h-67zM259 764l-128 165h63l92 -122l92 122h63l-128 -165h-54z" />
    <glyph glyph-name="uni01E9" unicode="&#x1e9;" horiz-adv-x="459" 
d="M63 0v706h64v-438l225 214h85l-227 -216l270 -266h-85l-268 256v-256h-64zM68 764l-128 165h63l92 -122l92 122h63l-128 -165h-54z" />
    <glyph glyph-name="uni01EA" unicode="&#x1ea;" horiz-adv-x="717" 
d="M440 -223h-26q-54 0 -93 39t-39 94q0 30 10 54q8 16 13 23q-49 7 -90 27q-87 46 -131.5 135.5t-44.5 200.5q0 71 19 136t57 119t101 86t144 32q80 0 142.5 -32t100 -86t56.5 -119t19 -136q0 -111 -44 -200.5t-131 -135.5q-57 -29 -140 -31q-1 -2 -4.5 -5t-5.5 -4
q-24 -26 -24 -64t24.5 -64.5t60.5 -26.5h26v-42zM360 43q82 0 140 45.5t83 113t25 148.5q0 128 -63.5 220.5t-184.5 92.5q-63 0 -112.5 -27t-79 -72t-44.5 -99.5t-15 -114.5t15 -113.5t44.5 -97.5t79 -70t112.5 -26z" />
    <glyph glyph-name="uni01EB" unicode="&#x1eb;" horiz-adv-x="515" 
d="M340 -223h-26q-54 0 -93 39t-39 94q0 30 10 54q8 17 17 29q-24 4 -48 17q-60 32 -93.5 95t-33.5 135q0 100 60.5 177t163.5 77t163 -77t60 -177q0 -72 -33.5 -135t-93.5 -95q-36 -19 -84 -22q-9 -6 -17 -14q-24 -26 -24 -64t24.5 -64.5t60.5 -26.5h26v-42zM258 43
q75 0 115.5 59t40.5 138t-41 139t-115 60q-75 0 -116 -59.5t-41 -139.5q0 -79 41 -138t116 -59z" />
    <glyph glyph-name="uni01F8" unicode="&#x1f8;" horiz-adv-x="732" 
d="M78 0v706h95l414 -637v637h67v-706h-104l-405 637v-637h-67zM339 764l-80 165h74l63 -165h-57z" />
    <glyph glyph-name="uni01F9" unicode="&#x1f9;" horiz-adv-x="502" 
d="M63 0v482h64v-87q8 37 52.5 68t99.5 31q82 0 129 -59q24 -30 30 -64.5t6 -121.5v-249h-64v249q0 73 -4.5 102.5t-18.5 47.5q-28 40 -95 40q-69 0 -107 -55q-14 -19 -20 -45.5t-7 -48.5t-1 -79v-211h-64zM229 540l-80 165h74l63 -165h-57z" />
    <glyph glyph-name="Aringacute" unicode="&#x1fa;" horiz-adv-x="637" 
d="M3 0l265 699q-45 27 -45 80q0 38 27.5 65.5t65.5 27.5t65.5 -27.5t27.5 -65.5q0 -47 -39 -76l263 -703h-75l-82 219h-316l-82 -219h-75zM182 279h272l-136 371zM316 723q23 0 39.5 16.5t16.5 39.5t-16.5 39.5t-39.5 16.5t-39.5 -16.5t-16.5 -39.5t16.5 -39.5t39.5 -16.5z
M293 905l103 125h74l-120 -125h-57z" />
    <glyph glyph-name="aringacute" unicode="&#x1fb;" horiz-adv-x="470" 
d="M232 574q23 0 39.5 16.5t16.5 39.5t-16.5 39.5t-39.5 16.5t-39.5 -16.5t-16.5 -39.5t16.5 -39.5t39.5 -16.5zM232 537q-38 0 -65.5 27.5t-27.5 65.5t27.5 65.5t65.5 27.5t65.5 -27.5t27.5 -65.5t-27.5 -65.5t-65.5 -27.5zM195 757l103 125h74l-120 -125h-57zM417 0h-65
q-6 30 -6 77q-41 -89 -154 -89q-74 0 -116.5 39t-42.5 98q0 33 11 58.5t27 40.5t44.5 27t52.5 18t61 13q38 6 58 10q28 5 41.5 16t15.5 20.5t2 28.5q0 10 -3.5 21.5t-13.5 26.5t-34.5 24.5t-59.5 9.5q-110 0 -120 -110l-69 11q7 48 30 82q47 72 159 72q83 0 129 -34t46 -118
v-238q0 -69 7 -104zM100 125q0 -36 28.5 -59t67.5 -23q22 0 45 6t48 19.5t41 43t16 70.5v75q-30 -12 -88 -23l-30 -6q-42 -8 -65.5 -16t-43 -30t-19.5 -57z" />
    <glyph glyph-name="AEacute" unicode="&#x1fc;" horiz-adv-x="896" 
d="M-11 0l422 706h439v-61h-330v-249h317v-60h-317v-276h339v-60h-406v271h-223l-162 -271h-79zM267 333h186v312zM586 764l63 165h74l-80 -165h-57z" />
    <glyph glyph-name="aeacute" unicode="&#x1fd;" horiz-adv-x="789" 
d="M115 329l-69 11q7 48 30 82q47 72 156 72q115 0 157 -82q56 82 158 82t155 -74.5t53 -182.5v-9h-348q0 -82 36.5 -133.5t114.5 -51.5q56 0 88 35t39 77l66 -12q-12 -56 -64 -105.5t-129 -49.5q-121 0 -183 106q-49 -106 -182 -106q-73 0 -116.5 44t-43.5 103
q0 31 9.5 54.5t33.5 46t73 34.5t120 12h71v47q0 44 -25.5 77t-82.5 33q-107 0 -117 -110zM340 182v46h-71q-169 0 -169 -93q0 -41 27.5 -66.5t70.5 -25.5q21 0 43 6t45.5 19.5t38.5 43t15 70.5zM409 282h275q0 60 -37 108.5t-100 48.5q-64 0 -101 -45t-37 -112zM361 540
l63 165h74l-80 -165h-57z" />
    <glyph glyph-name="Oslashacute" unicode="&#x1fe;" horiz-adv-x="723" 
d="M42 0l78 96q-78 102 -78 254q0 71 19 136t57 119t101 86t144 32q124 0 205 -75l47 58h66l-79 -97q79 -102 79 -259q0 -71 -19 -135.5t-56.5 -117t-100 -83.5t-142.5 -31q-129 0 -210 75l-47 -58h-64zM363 43q82 0 140 45.5t83 113t25 148.5q0 118 -53 205l-363 -445
q62 -67 168 -67zM112 350q0 -119 52 -200l362 446q-65 67 -163 67q-63 0 -112.5 -27t-79 -72t-44.5 -99.5t-15 -114.5zM333 764l63 165h74l-80 -165h-57z" />
    <glyph glyph-name="oslashacute" unicode="&#x1ff;" horiz-adv-x="522" 
d="M27 0l63 74q-52 70 -52 166q0 100 60.5 177t163.5 77q82 0 140 -53l34 41h59l-63 -74q53 -73 53 -168q0 -100 -60 -176t-163 -76q-82 0 -142 53l-35 -41h-58zM132 124l231 272q-40 43 -101 43q-75 0 -116 -59.5t-41 -139.5q0 -66 27 -116zM390 358l-232 -272
q40 -43 104 -43q75 0 115.5 59t40.5 138q0 66 -28 118zM231 540l63 165h74l-80 -165h-57z" />
    <glyph glyph-name="uni0218" unicode="&#x218;" horiz-adv-x="602" 
d="M31 212l70 8q6 -85 63.5 -131t132.5 -46q93 0 148 40t55 104q0 27 -9.5 48.5t-21.5 33.5t-36.5 22.5t-41 15t-48.5 12.5l-48 11q-49 11 -76.5 19t-65.5 23.5t-57.5 34t-34 48t-14.5 68.5q0 90 67 145t188 55q106 0 169.5 -53.5t82.5 -144.5l-74 -10q-15 76 -63.5 112
t-114.5 36q-79 0 -132 -35t-53 -105q0 -23 11.5 -41.5t26 -30t45.5 -23t50.5 -16.5t59.5 -15l47 -11q107 -24 160 -67t53 -132q0 -92 -77 -148t-196 -56q-107 0 -182.5 61t-83.5 168zM227 -223l38 165h72l-61 -165h-49z" />
    <glyph glyph-name="uni0219" unicode="&#x219;" horiz-adv-x="452" 
d="M27 154l72 14q0 -56 33.5 -90.5t94.5 -34.5q53 0 89 22.5t36 67.5q0 28 -19.5 46t-38.5 24t-47 11q-2 0 -3.5 0.5t-3.5 0.5l-27 5q-23 5 -34 7.5t-32.5 8.5t-32.5 12t-26.5 17t-23 23.5t-13.5 30.5t-6 40q0 60 48 97.5t130 37.5q72 0 125 -41t62 -114l-70 -10
q-9 110 -119 110q-58 0 -84.5 -26t-26.5 -54q0 -59 103 -77l39 -7q36 -6 60 -13t52 -22t42.5 -42t14.5 -65q0 -66 -57 -105.5t-137 -39.5q-52 0 -93 18t-63 45.5t-33 54t-11 48.5zM155 -223l38 165h72l-61 -165h-49z" />
    <glyph glyph-name="uni021A" unicode="&#x21a;" horiz-adv-x="544" 
d="M238 0v646h-227v60h522v-60h-228v-646h-67zM201 -223l38 165h72l-61 -165h-49z" />
    <glyph glyph-name="uni021B" unicode="&#x21b;" horiz-adv-x="286" 
d="M100 108v319h-93v55h93v159h64v-159h106v-55h-106v-316q0 -36 14 -49t43 -13q22 0 49 5v-51q-25 -9 -65 -9q-105 0 -105 114zM111 -223l38 165h72l-61 -165h-49z" />
    <glyph glyph-name="uni021E" unicode="&#x21e;" horiz-adv-x="699" 
d="M78 0v706h67v-309h408v309h68v-706h-68v337h-408v-337h-67zM322 764l-128 165h63l92 -122l92 122h63l-128 -165h-54z" />
    <glyph glyph-name="uni021F" unicode="&#x21f;" horiz-adv-x="502" 
d="M63 0v706h64v-314q11 40 54 71t99 31q79 0 127 -61q25 -30 31 -64t6 -120v-249h-64v249q0 73 -4.5 102.5t-18.5 47.5q-28 40 -94 40q-67 0 -107 -55q-21 -28 -25 -57.5t-4 -115.5v-211h-64zM68 764l-128 165h63l92 -122l92 122h63l-128 -165h-54z" />
    <glyph glyph-name="uni022E" unicode="&#x22e;" horiz-adv-x="717" 
d="M360 43q82 0 140 45.5t83 113t25 148.5q0 128 -63.5 220.5t-184.5 92.5q-63 0 -112.5 -27t-79 -72t-44.5 -99.5t-15 -114.5t15 -113.5t44.5 -97.5t79 -70t112.5 -26zM360 -17q-81 0 -144 31t-101 84t-57 117t-19 135t19 136t57 119t101 86t144 32q80 0 142.5 -32t100 -86
t56.5 -119t19 -136t-19 -135.5t-56.5 -117t-100 -83.5t-142.5 -31zM319 799v86h81v-86h-81z" />
    <glyph glyph-name="uni022F" unicode="&#x22f;" horiz-adv-x="515" 
d="M258 43q75 0 115.5 59t40.5 138t-41 139t-115 60q-75 0 -116 -59.5t-41 -139.5q0 -79 41 -138t116 -59zM258 -12q-103 0 -163.5 76t-60.5 176t60.5 177t163.5 77t163 -77t60 -177t-60 -176t-163 -76zM218 575v86h81v-86h-81z" />
    <glyph glyph-name="uni0232" unicode="&#x232;" horiz-adv-x="588" 
d="M258 0v332l-246 374h78l205 -315l214 315h74l-256 -374v-332h-69zM154 810v59h282v-59h-282z" />
    <glyph glyph-name="uni0233" unicode="&#x233;" horiz-adv-x="438" 
d="M28 -231v60q21 -6 36 -6q66 0 87 57l36 102l-175 500h66l143 -403l145 403h64l-222 -628q-31 -89 -130 -89q-25 0 -50 4zM80 586v59h282v-59h-282z" />
    <glyph glyph-name="uni0237" unicode="&#x237;" horiz-adv-x="198" 
d="M-32 -230v57q17 -4 37 -4q66 0 66 83v576h64v-570q0 -75 -23.5 -111t-93.5 -36q-31 0 -50 5z" />
    <glyph glyph-name="uni0244" unicode="&#x244;" horiz-adv-x="690" 
d="M19 335v60h60v311h67v-311h398v311h67v-311h60v-60h-60v-94q0 -124 -72.5 -191t-192.5 -67q-134 0 -200.5 74t-66.5 184v94h-60zM346 43q95 0 146.5 53t51.5 145v94h-398v-94q0 -88 53 -143t147 -55z" />
    <glyph glyph-name="uni0259" unicode="&#x259;" horiz-adv-x="492" 
d="M105 327l-66 12q12 56 65 105.5t131 49.5q110 0 166 -72.5t56 -179.5q0 -106 -56 -180t-155 -74q-103 0 -157 72.5t-54 187.5v6h355q0 46 -13.5 85.5t-50 69.5t-91.5 30q-56 0 -89.5 -35t-40.5 -77zM388 200h-282q0 -60 37 -108.5t103 -48.5t104 45t38 112z" />
    <glyph glyph-name="uni025B" unicode="&#x25b;" horiz-adv-x="445" 
d="M351 165l66 -11q-8 -81 -62 -123t-130 -42q-86 0 -137.5 39t-51.5 100q0 67 57 101q19 13 43 14q-22 4 -38 16q-50 37 -50 93q0 66 51.5 104t126.5 38q72 0 125 -41t62 -114l-70 -10q-9 110 -119 110q-46 0 -76.5 -23.5t-30.5 -62.5q0 -38 29 -59.5t79 -21.5h65v-58h-67
q-118 0 -118 -81q0 -41 31.5 -65.5t88.5 -24.5q54 0 87 31.5t39 90.5z" />
    <glyph glyph-name="uni0263" unicode="&#x263;" horiz-adv-x="423" 
d="M428 482l-182 -412q38 -93 50 -129.5t12 -66.5q0 -42 -27 -69.5t-72 -27.5t-72.5 27t-27.5 69q0 34 12.5 72.5t50.5 121.5l-176 415h66l148 -350l153 350h65zM208 9q-38 -90 -38 -132q0 -23 10.5 -36t27.5 -13q37 0 37 49q0 41 -37 132z" />
    <glyph glyph-name="uni0268" unicode="&#x268;" horiz-adv-x="204" 
d="M18 249v50h52v183h64v-183h52v-50h-52v-249h-64v249h-52zM70 628v78h64v-78h-64z" />
    <glyph glyph-name="uni0272" unicode="&#x272;" horiz-adv-x="502" 
d="M10 -235q-31 0 -50 5v57q17 -4 37 -4q66 0 66 83v576h64v-87q8 37 52.5 68t99.5 31q82 0 129 -59q24 -30 30 -64.5t6 -121.5v-249h-64v249q0 73 -4.5 102.5t-18.5 47.5q-28 40 -95 40q-69 0 -107 -55q-14 -19 -20 -45.5t-7 -48.5t-1 -79v-299q0 -75 -23.5 -111t-93.5 -36
z" />
    <glyph glyph-name="uni0289" unicode="&#x289;" horiz-adv-x="516" 
d="M17 249v50h52v183h64v-183h250v183h63v-183h52v-50h-52v-249h-64v87q-8 -38 -50 -68.5t-98 -30.5q-82 0 -129 59q-24 30 -30 64.5t-6 121.5v16h-52zM354 98q19 26 24 55.5t5 95.5h-250v-16q0 -73 4.5 -102.5t18.5 -47.5q28 -40 95 -40q37 0 60 13.5t43 41.5z" />
    <glyph glyph-name="circumflex" unicode="&#x2c6;" horiz-adv-x="410" 
d="M50 540l128 165h54l128 -165h-63l-92 122l-92 -122h-63z" />
    <glyph glyph-name="caron" unicode="&#x2c7;" horiz-adv-x="410" 
d="M178 540l-128 165h63l92 -122l92 122h63l-128 -165h-54z" />
    <glyph glyph-name="uni02C9" unicode="&#x2c9;" horiz-adv-x="192" 
d="M-45 586v59h282v-59h-282z" />
    <glyph glyph-name="breve" unicode="&#x2d8;" horiz-adv-x="379" 
d="M50 670v25h55v-25q0 -41 21.5 -66t62.5 -25t63 25t22 66v25h55v-25q0 -62 -40.5 -100t-99.5 -38t-99 38t-40 100z" />
    <glyph glyph-name="dotaccent" unicode="&#x2d9;" horiz-adv-x="181" 
d="M50 575v86h81v-86h-81z" />
    <glyph glyph-name="ring" unicode="&#x2da;" horiz-adv-x="286" 
d="M143 573q23 0 39.5 16.5t16.5 39.5t-16.5 39.5t-39.5 16.5t-39.5 -16.5t-16.5 -39.5t16.5 -39.5t39.5 -16.5zM143 536q-38 0 -65.5 27.5t-27.5 65.5t27.5 65.5t65.5 27.5t65.5 -27.5t27.5 -65.5t-27.5 -65.5t-65.5 -27.5z" />
    <glyph glyph-name="ogonek" unicode="&#x2db;" horiz-adv-x="250" 
d="M208 -223h-26q-54 0 -93 39t-39 94q0 58 40 96h92v-6q-36 0 -60.5 -26t-24.5 -64t24.5 -64.5t60.5 -26.5h26v-42z" />
    <glyph glyph-name="tilde" unicode="&#x2dc;" horiz-adv-x="382" 
d="M50 554v74q37 35 74 35q26 0 78 -21q43 -15 53 -15q38 0 77 53v-74q-39 -37 -77 -37q-26 0 -78 21q-43 15 -53 15q-37 0 -74 -51z" />
    <glyph glyph-name="hungarumlaut" unicode="&#x2dd;" horiz-adv-x="356" 
d="M50 540l63 165h74l-80 -165h-57zM169 540l63 165h74l-80 -165h-57z" />
    <glyph glyph-name="gravecomb" unicode="&#x300;" horiz-adv-x="0" 
d="M-198 540l-80 165h74l63 -165h-57z" />
    <glyph glyph-name="acutecomb" unicode="&#x301;" horiz-adv-x="0" 
d="M-278 540l63 165h74l-80 -165h-57z" />
    <glyph glyph-name="uni0302" unicode="&#x302;" horiz-adv-x="0" 
d="M-365 540l128 165h54l128 -165h-63l-92 122l-92 -122h-63z" />
    <glyph glyph-name="tildecomb" unicode="&#x303;" horiz-adv-x="0" 
d="M-351 554v74q37 35 74 35q26 0 78 -21q43 -15 53 -15q38 0 77 53v-74q-39 -37 -77 -37q-26 0 -78 21q-43 15 -53 15q-37 0 -74 -51z" />
    <glyph glyph-name="uni0304" unicode="&#x304;" horiz-adv-x="0" 
d="M-351 586v59h282v-59h-282z" />
    <glyph glyph-name="uni0306" unicode="&#x306;" horiz-adv-x="0" 
d="M-349 670v25h55v-25q0 -41 21.5 -66t62.5 -25t63 25t22 66v25h55v-25q0 -62 -40.5 -100t-99.5 -38t-99 38t-40 100z" />
    <glyph glyph-name="uni0307" unicode="&#x307;" horiz-adv-x="0" 
d="M-250 575v86h81v-86h-81z" />
    <glyph glyph-name="uni0308" unicode="&#x308;" horiz-adv-x="0" 
d="M-353 575v86h81v-86h-81zM-148 575v86h81v-86h-81z" />
    <glyph glyph-name="uni030A" unicode="&#x30a;" horiz-adv-x="0" 
d="M-210 573q23 0 39.5 16.5t16.5 39.5t-16.5 39.5t-39.5 16.5t-39.5 -16.5t-16.5 -39.5t16.5 -39.5t39.5 -16.5zM-210 536q-38 0 -65.5 27.5t-27.5 65.5t27.5 65.5t65.5 27.5t65.5 -27.5t27.5 -65.5t-27.5 -65.5t-65.5 -27.5z" />
    <glyph glyph-name="uni030B" unicode="&#x30b;" horiz-adv-x="0" 
d="M-338 540l63 165h74l-80 -165h-57zM-219 540l63 165h74l-80 -165h-57z" />
    <glyph glyph-name="uni030C" unicode="&#x30c;" horiz-adv-x="0" 
d="M-237 540l-128 165h63l92 -122l92 122h63l-128 -165h-54z" />
    <glyph glyph-name="uni0312" unicode="&#x312;" horiz-adv-x="0" 
d="M-266 540l64 165h49l-39 -165h-74z" />
    <glyph glyph-name="uni0313" unicode="&#x313;" horiz-adv-x="0" 
d="M-266 540l38 165h74l-63 -165h-49z" />
    <glyph glyph-name="uni0323" unicode="&#x323;" horiz-adv-x="0" 
d="M-290 -144v86h81v-86h-81z" />
    <glyph glyph-name="uni0326" unicode="&#x326;" horiz-adv-x="0" 
d="M-265 -223l38 165h72l-61 -165h-49z" />
    <glyph glyph-name="uni0327" unicode="&#x327;" horiz-adv-x="0" 
d="M-314 -223v42h26q55 0 55 43q0 42 -55 42h-26v100h47v-60q37 -2 59 -24t22 -58q0 -40 -29 -62.5t-73 -22.5h-26z" />
    <glyph glyph-name="uni0328" unicode="&#x328;" horiz-adv-x="0" 
d="M-167 -223h-26q-54 0 -93 39t-39 94q0 58 40 96h92v-6q-36 0 -60.5 -26t-24.5 -64t24.5 -64.5t60.5 -26.5h26v-42z" />
    <glyph glyph-name="uni032E" unicode="&#x32e;" horiz-adv-x="0" 
d="M-389 -81v25h55v-25q0 -41 21.5 -66t62.5 -25t63 25t22 66v25h55v-25q0 -62 -40.5 -100t-99.5 -38t-99 38t-40 100z" />
    <glyph glyph-name="uni0331" unicode="&#x331;" horiz-adv-x="0" 
d="M-351 -115v59h282v-59h-282z" />
    <glyph glyph-name="anoteleia" unicode="&#x387;" horiz-adv-x="223" 
d="M48 311q0 26 18.5 45t44.5 19t45 -19t19 -45t-19 -44.5t-45 -18.5t-44.5 18.5t-18.5 44.5z" />
    <glyph glyph-name="uni0394" unicode="&#x394;" horiz-adv-x="600" 
d="M14 0v43l256 663h63l254 -663v-43h-573zM90 64h420l-209 543z" />
    <glyph glyph-name="uni03A9" unicode="&#x3a9;" horiz-adv-x="702" 
d="M37 0v55h150q-136 125 -136 323q0 156 86 250.5t214 94.5t214 -94.5t86 -250.5q0 -198 -136 -323h150v-55h-238v42q65 41 111 129.5t46 199.5q0 128 -63.5 212.5t-169.5 84.5t-169.5 -84.5t-63.5 -212.5q0 -111 46 -199.5t111 -129.5v-42h-238z" />
    <glyph glyph-name="uni03BC" unicode="&#x3bc;" horiz-adv-x="503" 
d="M64 -223v705h64v-269q0 -32 1.5 -52.5t8 -45.5t18.5 -39t35 -23.5t55 -9.5q131 0 131 186v253h64v-482h-64v86q-10 -39 -51.5 -68.5t-96.5 -29.5q-58 0 -101 33v-244h-64z" />
    <glyph glyph-name="pi" unicode="&#x3c0;" horiz-adv-x="501" 
d="M161 426v-426h-65v426h-87v56h483v-56h-87v-426h-65v426h-179z" />
    <glyph glyph-name="uni1E02" unicode="&#x1e02;" horiz-adv-x="640" 
d="M78 0v706h281q94 0 156 -46.5t62 -137.5q0 -70 -41 -111.5t-86 -46.5q76 -15 114.5 -55t38.5 -117q0 -101 -66.5 -146.5t-177.5 -45.5h-281zM145 60h225q164 0 164 129q0 70 -48 107t-158 37h-183v-273zM145 393h186q33 0 61.5 5.5t56 19t43.5 40.5t16 65q0 59 -43.5 91
t-105.5 32h-214v-253zM265 799v86h81v-86h-81z" />
    <glyph glyph-name="uni1E03" unicode="&#x1e03;" horiz-adv-x="533" 
d="M63 0v706h64v-306q12 37 58 65.5t97 28.5q102 0 159.5 -73t57.5 -180q0 -40 -12.5 -82t-37.5 -81.5t-71 -64.5t-106 -25q-47 0 -90 28.5t-55 66.5v-83h-64zM274 43q42 0 74.5 18.5t49.5 48.5t25.5 62.5t8.5 67.5q0 92 -42.5 145.5t-114.5 53.5q-25 0 -48.5 -8.5
t-47.5 -28.5t-39 -61.5t-15 -99.5q0 -56 15.5 -97.5t40 -62t48 -29.5t45.5 -9zM244 575v86h81v-86h-81z" />
    <glyph glyph-name="uni1E0A" unicode="&#x1e0a;" horiz-adv-x="691" 
d="M145 60h139q68 0 121 16.5t85.5 43.5t53.5 66t29 79.5t8 87.5t-8 87.5t-29 79.5t-53.5 66t-85.5 43.5t-121 16.5h-139v-586zM78 0v706h206q53 0 101 -8.5t98 -33t86 -62.5t59 -102t23 -147t-23 -147t-59 -102t-86 -62.5t-98 -33t-101 -8.5h-206zM290 799v86h81v-86h-81z
" />
    <glyph glyph-name="uni1E0B" unicode="&#x1e0b;" horiz-adv-x="532" 
d="M405 0v82q-12 -38 -57 -66t-97 -28q-56 0 -99.5 23.5t-68 61.5t-37 80.5t-12.5 86.5q0 65 23 121t75 94.5t124 38.5q47 0 92 -29t57 -66v307h64v-706h-64zM258 43q24 0 47.5 8.5t47.5 29t39 61.5t15 98t-14.5 98.5t-38.5 62t-46.5 29.5t-44.5 9q-74 0 -118 -55.5
t-44 -142.5q0 -79 41 -138.5t116 -59.5zM218 575v86h81v-86h-81z" />
    <glyph glyph-name="uni1E0C" unicode="&#x1e0c;" horiz-adv-x="691" 
d="M145 60h139q68 0 121 16.5t85.5 43.5t53.5 66t29 79.5t8 87.5t-8 87.5t-29 79.5t-53.5 66t-85.5 43.5t-121 16.5h-139v-586zM78 0v706h206q53 0 101 -8.5t98 -33t86 -62.5t59 -102t23 -147t-23 -147t-59 -102t-86 -62.5t-98 -33t-101 -8.5h-206zM281 -144v86h81v-86h-81z
" />
    <glyph glyph-name="uni1E0D" unicode="&#x1e0d;" horiz-adv-x="532" 
d="M405 0v82q-12 -38 -57 -66t-97 -28q-56 0 -99.5 23.5t-68 61.5t-37 80.5t-12.5 86.5q0 65 23 121t75 94.5t124 38.5q47 0 92 -29t57 -66v307h64v-706h-64zM258 43q24 0 47.5 8.5t47.5 29t39 61.5t15 98t-14.5 98.5t-38.5 62t-46.5 29.5t-44.5 9q-74 0 -118 -55.5
t-44 -142.5q0 -79 41 -138.5t116 -59.5zM223 -144v86h81v-86h-81z" />
    <glyph glyph-name="uni1E0E" unicode="&#x1e0e;" horiz-adv-x="691" 
d="M145 60h139q68 0 121 16.5t85.5 43.5t53.5 66t29 79.5t8 87.5t-8 87.5t-29 79.5t-53.5 66t-85.5 43.5t-121 16.5h-139v-586zM78 0v706h206q53 0 101 -8.5t98 -33t86 -62.5t59 -102t23 -147t-23 -147t-59 -102t-86 -62.5t-98 -33t-101 -8.5h-206zM179 -115v59h282v-59
h-282z" />
    <glyph glyph-name="uni1E0F" unicode="&#x1e0f;" horiz-adv-x="532" 
d="M405 0v82q-12 -38 -57 -66t-97 -28q-56 0 -99.5 23.5t-68 61.5t-37 80.5t-12.5 86.5q0 65 23 121t75 94.5t124 38.5q47 0 92 -29t57 -66v307h64v-706h-64zM258 43q24 0 47.5 8.5t47.5 29t39 61.5t15 98t-14.5 98.5t-38.5 62t-46.5 29.5t-44.5 9q-74 0 -118 -55.5
t-44 -142.5q0 -79 41 -138.5t116 -59.5zM121 -115v59h282v-59h-282z" />
    <glyph glyph-name="uni1E10" unicode="&#x1e10;" horiz-adv-x="691" 
d="M145 60h139q68 0 121 16.5t85.5 43.5t53.5 66t29 79.5t8 87.5t-8 87.5t-29 79.5t-53.5 66t-85.5 43.5t-121 16.5h-139v-586zM78 0v706h206q53 0 101 -8.5t98 -33t86 -62.5t59 -102t23 -147t-23 -147t-59 -102t-86 -62.5t-98 -33t-101 -8.5h-206zM251 -223l38 165h72
l-61 -165h-49z" />
    <glyph glyph-name="uni1E11" unicode="&#x1e11;" horiz-adv-x="532" 
d="M405 0v82q-12 -38 -57 -66t-97 -28q-56 0 -99.5 23.5t-68 61.5t-37 80.5t-12.5 86.5q0 65 23 121t75 94.5t124 38.5q47 0 92 -29t57 -66v307h64v-706h-64zM258 43q24 0 47.5 8.5t47.5 29t39 61.5t15 98t-14.5 98.5t-38.5 62t-46.5 29.5t-44.5 9q-74 0 -118 -55.5
t-44 -142.5q0 -79 41 -138.5t116 -59.5zM191 -223l38 165h72l-61 -165h-49z" />
    <glyph glyph-name="uni1E1E" unicode="&#x1e1e;" horiz-adv-x="540" 
d="M78 0v706h444v-60h-377v-246h355v-60h-355v-340h-67zM259 799v86h81v-86h-81z" />
    <glyph glyph-name="uni1E1F" unicode="&#x1e1f;" horiz-adv-x="271" 
d="M102 0v427h-94v55h94v93q0 70 26 106.5t91 36.5q31 0 50 -5v-57q-17 4 -36 4q-33 0 -50 -18.5t-17 -64.5v-95h100v-55h-100v-427h-64zM141 799v86h81v-86h-81z" />
    <glyph glyph-name="uni1E20" unicode="&#x1e20;" horiz-adv-x="701" 
d="M591 0v119q-61 -136 -228 -136q-85 0 -149.5 31t-101.5 84.5t-55 117.5t-18 137q0 97 34.5 179t109.5 136.5t178 54.5q111 0 178.5 -56t96.5 -135l-68 -13q-23 60 -75 102t-132 42q-81 0 -139.5 -45.5t-85.5 -114.5t-27 -150q0 -61 14.5 -114.5t43.5 -98.5t79.5 -71
t116.5 -26q92 0 158.5 65.5t66.5 203.5h-227v60h292v-372h-62zM220 810v59h282v-59h-282z" />
    <glyph glyph-name="uni1E21" unicode="&#x1e21;" horiz-adv-x="526" 
d="M58 -64l72 12q2 -57 39 -92.5t87 -35.5q143 0 143 165v97q-12 -38 -57 -66t-97 -28q-97 0 -153.5 68.5t-56.5 184.5q0 34 7 68t23.5 68t41 59.5t63 41.5t85.5 16q48 0 90 -28.5t54 -66.5v83h64v-498q0 -219 -207 -219q-78 0 -134 44t-64 127zM252 43q24 0 47.5 8.5
t47.5 29t39 61.5t15 98t-14 98.5t-36.5 62t-44.5 29.5t-44 9q-80 0 -120 -57.5t-40 -139.5q0 -92 41.5 -145.5t108.5 -53.5zM123 586v59h282v-59h-282z" />
    <glyph glyph-name="uni1E22" unicode="&#x1e22;" horiz-adv-x="699" 
d="M78 0v706h67v-309h408v309h68v-706h-68v337h-408v-337h-67zM308 799v86h81v-86h-81z" />
    <glyph glyph-name="uni1E23" unicode="&#x1e23;" horiz-adv-x="502" 
d="M63 0v706h64v-314q11 40 54 71t99 31q79 0 127 -61q25 -30 31 -64t6 -120v-249h-64v249q0 73 -4.5 102.5t-18.5 47.5q-28 40 -94 40q-67 0 -107 -55q-21 -28 -25 -57.5t-4 -115.5v-211h-64zM225 575v86h81v-86h-81z" />
    <glyph glyph-name="uni1E24" unicode="&#x1e24;" horiz-adv-x="699" 
d="M78 0v706h67v-309h408v309h68v-706h-68v337h-408v-337h-67zM309 -144v86h81v-86h-81z" />
    <glyph glyph-name="uni1E25" unicode="&#x1e25;" horiz-adv-x="502" 
d="M63 0v706h64v-314q11 40 54 71t99 31q79 0 127 -61q25 -30 31 -64t6 -120v-249h-64v249q0 73 -4.5 102.5t-18.5 47.5q-28 40 -94 40q-67 0 -107 -55q-21 -28 -25 -57.5t-4 -115.5v-211h-64zM214 -144v86h81v-86h-81z" />
    <glyph glyph-name="uni1E2A" unicode="&#x1e2a;" horiz-adv-x="699" 
d="M78 0v706h67v-309h408v309h68v-706h-68v337h-408v-337h-67zM210 -81v25h55v-25q0 -41 21.5 -66t62.5 -25t63 25t22 66v25h55v-25q0 -62 -40.5 -100t-99.5 -38t-99 38t-40 100z" />
    <glyph glyph-name="uni1E2B" unicode="&#x1e2b;" horiz-adv-x="502" 
d="M63 0v706h64v-314q11 40 54 71t99 31q79 0 127 -61q25 -30 31 -64t6 -120v-249h-64v249q0 73 -4.5 102.5t-18.5 47.5q-28 40 -94 40q-67 0 -107 -55q-21 -28 -25 -57.5t-4 -115.5v-211h-64zM115 -81v25h55v-25q0 -41 21.5 -66t62.5 -25t63 25t22 66v25h55v-25
q0 -62 -40.5 -100t-99.5 -38t-99 38t-40 100z" />
    <glyph glyph-name="uni1E36" unicode="&#x1e36;" horiz-adv-x="519" 
d="M78 0v706h67v-646h363v-60h-430zM253 -144v86h81v-86h-81z" />
    <glyph glyph-name="uni1E37" unicode="&#x1e37;" horiz-adv-x="190" 
d="M63 0v706h64v-706h-64zM55 -144v86h81v-86h-81z" />
    <glyph glyph-name="uni1E38" unicode="&#x1e38;" horiz-adv-x="519" 
d="M78 0v706h67v-646h363v-60h-430zM253 -144v86h81v-86h-81zM152 810v59h282v-59h-282z" />
    <glyph glyph-name="uni1E39" unicode="&#x1e39;" horiz-adv-x="190" 
d="M63 0v706h64v-706h-64zM55 -144v86h81v-86h-81zM-46 810v59h282v-59h-282z" />
    <glyph glyph-name="uni1E3A" unicode="&#x1e3a;" horiz-adv-x="519" 
d="M78 0v706h67v-646h363v-60h-430zM151 -115v59h282v-59h-282z" />
    <glyph glyph-name="uni1E3B" unicode="&#x1e3b;" horiz-adv-x="190" 
d="M63 0v706h64v-706h-64zM-48 -115v59h282v-59h-282z" />
    <glyph glyph-name="uni1E3E" unicode="&#x1e3e;" horiz-adv-x="847" 
d="M78 0v706h108l240 -630l234 630h109v-706h-67v630l-233 -630h-86l-238 629v-629h-67zM395 764l63 165h74l-80 -165h-57z" />
    <glyph glyph-name="uni1E3F" unicode="&#x1e3f;" horiz-adv-x="774" 
d="M63 0v482h64v-87q8 37 49 68t91 31q75 0 120 -61q15 -21 24 -49q11 41 52.5 75.5t99.5 34.5q74 0 119 -60q22 -30 28 -64.5t6 -120.5v-249h-64v277q0 28 -1 46t-7 42.5t-17 38.5t-32 24.5t-51 10.5q-58 0 -96 -55q-16 -24 -21.5 -48.5t-5.5 -71.5v-264h-64v277
q0 35 -3 58t-12.5 49.5t-32.5 40.5t-59 14q-59 0 -97 -55q-18 -27 -22 -55.5t-4 -98.5v-230h-64zM359 540l63 165h74l-80 -165h-57z" />
    <glyph glyph-name="uni1E40" unicode="&#x1e40;" horiz-adv-x="847" 
d="M78 0v706h108l240 -630l234 630h109v-706h-67v630l-233 -630h-86l-238 629v-629h-67zM384 799v86h81v-86h-81z" />
    <glyph glyph-name="uni1E41" unicode="&#x1e41;" horiz-adv-x="774" 
d="M63 0v482h64v-87q8 37 49 68t91 31q75 0 120 -61q15 -21 24 -49q11 41 52.5 75.5t99.5 34.5q74 0 119 -60q22 -30 28 -64.5t6 -120.5v-249h-64v277q0 28 -1 46t-7 42.5t-17 38.5t-32 24.5t-51 10.5q-58 0 -96 -55q-16 -24 -21.5 -48.5t-5.5 -71.5v-264h-64v277
q0 35 -3 58t-12.5 49.5t-32.5 40.5t-59 14q-59 0 -97 -55q-18 -27 -22 -55.5t-4 -98.5v-230h-64zM348 575v86h81v-86h-81z" />
    <glyph glyph-name="uni1E42" unicode="&#x1e42;" horiz-adv-x="847" 
d="M78 0v706h108l240 -630l234 630h109v-706h-67v630l-233 -630h-86l-238 629v-629h-67zM385 -144v86h81v-86h-81z" />
    <glyph glyph-name="uni1E43" unicode="&#x1e43;" horiz-adv-x="774" 
d="M63 0v482h64v-87q8 37 49 68t91 31q75 0 120 -61q15 -21 24 -49q11 41 52.5 75.5t99.5 34.5q74 0 119 -60q22 -30 28 -64.5t6 -120.5v-249h-64v277q0 28 -1 46t-7 42.5t-17 38.5t-32 24.5t-51 10.5q-58 0 -96 -55q-16 -24 -21.5 -48.5t-5.5 -71.5v-264h-64v277
q0 35 -3 58t-12.5 49.5t-32.5 40.5t-59 14q-59 0 -97 -55q-18 -27 -22 -55.5t-4 -98.5v-230h-64zM349 -144v86h81v-86h-81z" />
    <glyph glyph-name="uni1E44" unicode="&#x1e44;" horiz-adv-x="732" 
d="M78 0v706h95l414 -637v637h67v-706h-104l-405 637v-637h-67zM325 799v86h81v-86h-81z" />
    <glyph glyph-name="uni1E45" unicode="&#x1e45;" horiz-adv-x="502" 
d="M63 0v482h64v-87q8 37 52.5 68t99.5 31q82 0 129 -59q24 -30 30 -64.5t6 -121.5v-249h-64v249q0 73 -4.5 102.5t-18.5 47.5q-28 40 -95 40q-69 0 -107 -55q-14 -19 -20 -45.5t-7 -48.5t-1 -79v-211h-64zM214 575v86h81v-86h-81z" />
    <glyph glyph-name="uni1E46" unicode="&#x1e46;" horiz-adv-x="732" 
d="M78 0v706h95l414 -637v637h67v-706h-104l-405 637v-637h-67zM326 -144v86h81v-86h-81z" />
    <glyph glyph-name="uni1E47" unicode="&#x1e47;" horiz-adv-x="502" 
d="M63 0v482h64v-87q8 37 52.5 68t99.5 31q82 0 129 -59q24 -30 30 -64.5t6 -121.5v-249h-64v249q0 73 -4.5 102.5t-18.5 47.5q-28 40 -95 40q-69 0 -107 -55q-14 -19 -20 -45.5t-7 -48.5t-1 -79v-211h-64zM213 -144v86h81v-86h-81z" />
    <glyph glyph-name="uni1E48" unicode="&#x1e48;" horiz-adv-x="732" 
d="M78 0v706h95l414 -637v637h67v-706h-104l-405 637v-637h-67zM224 -115v59h282v-59h-282z" />
    <glyph glyph-name="uni1E49" unicode="&#x1e49;" horiz-adv-x="502" 
d="M63 0v482h64v-87q8 37 52.5 68t99.5 31q82 0 129 -59q24 -30 30 -64.5t6 -121.5v-249h-64v249q0 73 -4.5 102.5t-18.5 47.5q-28 40 -95 40q-69 0 -107 -55q-14 -19 -20 -45.5t-7 -48.5t-1 -79v-211h-64zM111 -115v59h282v-59h-282z" />
    <glyph glyph-name="uni1E56" unicode="&#x1e56;" horiz-adv-x="593" 
d="M78 0v706h263q230 0 230 -194q0 -196 -230 -196h-196v-316h-67zM145 376h196q161 0 161 136q0 134 -161 134h-196v-270zM275 799v86h81v-86h-81z" />
    <glyph glyph-name="uni1E57" unicode="&#x1e57;" horiz-adv-x="533" 
d="M63 -223v705h64v-82q12 37 58 65.5t97 28.5q102 0 159.5 -73t57.5 -180q0 -40 -12.5 -82t-37.5 -81.5t-71 -64.5t-106 -25q-47 0 -90 28.5t-55 66.5v-306h-64zM274 43q42 0 74.5 18.5t49.5 48.5t25.5 62.5t8.5 67.5q0 92 -42.5 145.5t-114.5 53.5q-25 0 -48.5 -8.5
t-47.5 -28.5t-39 -61.5t-15 -99.5q0 -56 15.5 -97.5t40 -62t48 -29.5t45.5 -9zM244 575v86h81v-86h-81z" />
    <glyph glyph-name="uni1E5A" unicode="&#x1e5a;" horiz-adv-x="647" 
d="M78 0v706h273q119 0 174.5 -49t55.5 -136q0 -78 -38.5 -118t-79.5 -49q113 -15 113 -135v-108q0 -68 42 -111h-80q-31 39 -31 101v110q0 67 -35 87.5t-110 20.5h-217v-319h-67zM145 379h217q150 0 150 142q0 57 -38.5 91t-122.5 34h-206v-267zM281 -144v86h81v-86h-81z
" />
    <glyph glyph-name="uni1E5B" unicode="&#x1e5b;" horiz-adv-x="317" 
d="M63 0v482h64v-92q9 39 51 71.5t98 32.5q22 0 34 -4v-73q-15 5 -49 5q-65 0 -106 -60q-13 -17 -19.5 -44.5t-7.5 -50.5t-1 -64v-203h-64zM55 -144v86h81v-86h-81z" />
    <glyph glyph-name="uni1E5C" unicode="&#x1e5c;" horiz-adv-x="647" 
d="M78 0v706h273q119 0 174.5 -49t55.5 -136q0 -78 -38.5 -118t-79.5 -49q113 -15 113 -135v-108q0 -68 42 -111h-80q-31 39 -31 101v110q0 67 -35 87.5t-110 20.5h-217v-319h-67zM145 379h217q150 0 150 142q0 57 -38.5 91t-122.5 34h-206v-267zM281 -144v86h81v-86h-81z
M175 810v59h282v-59h-282z" />
    <glyph glyph-name="uni1E5D" unicode="&#x1e5d;" horiz-adv-x="317" 
d="M63 0v482h64v-92q9 39 51 71.5t98 32.5q22 0 34 -4v-73q-15 5 -49 5q-65 0 -106 -60q-13 -17 -19.5 -44.5t-7.5 -50.5t-1 -64v-203h-64zM55 -144v86h81v-86h-81zM58 586v59h282v-59h-282z" />
    <glyph glyph-name="uni1E5E" unicode="&#x1e5e;" horiz-adv-x="647" 
d="M78 0v706h273q119 0 174.5 -49t55.5 -136q0 -78 -38.5 -118t-79.5 -49q113 -15 113 -135v-108q0 -68 42 -111h-80q-31 39 -31 101v110q0 67 -35 87.5t-110 20.5h-217v-319h-67zM145 379h217q150 0 150 142q0 57 -38.5 91t-122.5 34h-206v-267zM179 -115v59h282v-59h-282z
" />
    <glyph glyph-name="uni1E5F" unicode="&#x1e5f;" horiz-adv-x="317" 
d="M63 0v482h64v-92q9 39 51 71.5t98 32.5q22 0 34 -4v-73q-15 5 -49 5q-65 0 -106 -60q-13 -17 -19.5 -44.5t-7.5 -50.5t-1 -64v-203h-64zM-48 -115v59h282v-59h-282z" />
    <glyph glyph-name="uni1E60" unicode="&#x1e60;" horiz-adv-x="602" 
d="M31 212l70 8q6 -85 63.5 -131t132.5 -46q93 0 148 40t55 104q0 27 -9.5 48.5t-21.5 33.5t-36.5 22.5t-41 15t-48.5 12.5l-48 11q-49 11 -76.5 19t-65.5 23.5t-57.5 34t-34 48t-14.5 68.5q0 90 67 145t188 55q106 0 169.5 -53.5t82.5 -144.5l-74 -10q-15 76 -63.5 112
t-114.5 36q-79 0 -132 -35t-53 -105q0 -23 11.5 -41.5t26 -30t45.5 -23t50.5 -16.5t59.5 -15l47 -11q107 -24 160 -67t53 -132q0 -92 -77 -148t-196 -56q-107 0 -182.5 61t-83.5 168zM259 799v86h81v-86h-81z" />
    <glyph glyph-name="uni1E61" unicode="&#x1e61;" horiz-adv-x="452" 
d="M27 154l72 14q0 -56 33.5 -90.5t94.5 -34.5q53 0 89 22.5t36 67.5q0 28 -19.5 46t-38.5 24t-47 11q-2 0 -3.5 0.5t-3.5 0.5l-27 5q-23 5 -34 7.5t-32.5 8.5t-32.5 12t-26.5 17t-23 23.5t-13.5 30.5t-6 40q0 60 48 97.5t130 37.5q72 0 125 -41t62 -114l-70 -10
q-9 110 -119 110q-58 0 -84.5 -26t-26.5 -54q0 -59 103 -77l39 -7q36 -6 60 -13t52 -22t42.5 -42t14.5 -65q0 -66 -57 -105.5t-137 -39.5q-52 0 -93 18t-63 45.5t-33 54t-11 48.5zM183 575v86h81v-86h-81z" />
    <glyph glyph-name="uni1E62" unicode="&#x1e62;" horiz-adv-x="602" 
d="M31 212l70 8q6 -85 63.5 -131t132.5 -46q93 0 148 40t55 104q0 27 -9.5 48.5t-21.5 33.5t-36.5 22.5t-41 15t-48.5 12.5l-48 11q-49 11 -76.5 19t-65.5 23.5t-57.5 34t-34 48t-14.5 68.5q0 90 67 145t188 55q106 0 169.5 -53.5t82.5 -144.5l-74 -10q-15 76 -63.5 112
t-114.5 36q-79 0 -132 -35t-53 -105q0 -23 11.5 -41.5t26 -30t45.5 -23t50.5 -16.5t59.5 -15l47 -11q107 -24 160 -67t53 -132q0 -92 -77 -148t-196 -56q-107 0 -182.5 61t-83.5 168zM257 -144v86h81v-86h-81z" />
    <glyph glyph-name="uni1E63" unicode="&#x1e63;" horiz-adv-x="452" 
d="M27 154l72 14q0 -56 33.5 -90.5t94.5 -34.5q53 0 89 22.5t36 67.5q0 28 -19.5 46t-38.5 24t-47 11q-2 0 -3.5 0.5t-3.5 0.5l-27 5q-23 5 -34 7.5t-32.5 8.5t-32.5 12t-26.5 17t-23 23.5t-13.5 30.5t-6 40q0 60 48 97.5t130 37.5q72 0 125 -41t62 -114l-70 -10
q-9 110 -119 110q-58 0 -84.5 -26t-26.5 -54q0 -59 103 -77l39 -7q36 -6 60 -13t52 -22t42.5 -42t14.5 -65q0 -66 -57 -105.5t-137 -39.5q-52 0 -93 18t-63 45.5t-33 54t-11 48.5zM187 -144v86h81v-86h-81z" />
    <glyph glyph-name="uni1E6A" unicode="&#x1e6a;" horiz-adv-x="544" 
d="M238 0v646h-227v60h522v-60h-228v-646h-67zM231 799v86h81v-86h-81z" />
    <glyph glyph-name="uni1E6B" unicode="&#x1e6b;" horiz-adv-x="283" 
d="M100 108v319h-93v55h93v159h64v-159h106v-55h-106v-316q0 -36 14 -49t43 -13q22 0 49 5v-51q-25 -9 -65 -9q-105 0 -105 114zM91 799v86h81v-86h-81z" />
    <glyph glyph-name="uni1E6C" unicode="&#x1e6c;" horiz-adv-x="544" 
d="M238 0v646h-227v60h522v-60h-228v-646h-67zM231 -144v86h81v-86h-81z" />
    <glyph glyph-name="uni1E6D" unicode="&#x1e6d;" horiz-adv-x="283" 
d="M100 108v319h-93v55h93v159h64v-159h106v-55h-106v-316q0 -36 14 -49t43 -13q22 0 49 5v-51q-25 -9 -65 -9q-105 0 -105 114zM132 -144v86h81v-86h-81z" />
    <glyph glyph-name="uni1E6E" unicode="&#x1e6e;" horiz-adv-x="544" 
d="M238 0v646h-227v60h522v-60h-228v-646h-67zM129 -115v59h282v-59h-282z" />
    <glyph glyph-name="uni1E6F" unicode="&#x1e6f;" horiz-adv-x="283" 
d="M100 108v319h-93v55h93v159h64v-159h106v-55h-106v-316q0 -36 14 -49t43 -13q22 0 49 5v-51q-25 -9 -65 -9q-105 0 -105 114zM30 -115v59h282v-59h-282z" />
    <glyph glyph-name="uni1E7C" unicode="&#x1e7c;" horiz-adv-x="616" 
d="M260 0l-252 706h73l227 -633l237 633h70l-265 -706h-90zM167 778v74q37 35 74 35q26 0 78 -21q43 -15 53 -15q38 0 77 53v-74q-39 -37 -77 -37q-26 0 -78 21q-43 15 -53 15q-37 0 -74 -51z" />
    <glyph glyph-name="uni1E7D" unicode="&#x1e7d;" horiz-adv-x="450" 
d="M186 0l-175 482h66l148 -404l153 404h65l-182 -482h-75zM84 554v74q37 35 74 35q26 0 78 -21q43 -15 53 -15q38 0 77 53v-74q-39 -37 -77 -37q-26 0 -78 21q-43 15 -53 15q-37 0 -74 -51z" />
    <glyph glyph-name="Wgrave" unicode="&#x1e80;" horiz-adv-x="930" 
d="M200 0l-191 706h69l174 -641l159 641h108l159 -641l174 641h69l-191 -706h-105l-160 646l-160 -646h-105zM438 764l-80 165h74l63 -165h-57z" />
    <glyph glyph-name="wgrave" unicode="&#x1e81;" horiz-adv-x="722" 
d="M162 0l-153 482h66l128 -410l112 410h90l116 -410l128 410h64l-153 -482h-83l-117 416l-115 -416h-83zM335 540l-80 165h74l63 -165h-57z" />
    <glyph glyph-name="Wacute" unicode="&#x1e82;" horiz-adv-x="930" 
d="M200 0l-191 706h69l174 -641l159 641h108l159 -641l174 641h69l-191 -706h-105l-160 646l-160 -646h-105zM435 764l63 165h74l-80 -165h-57z" />
    <glyph glyph-name="wacute" unicode="&#x1e83;" horiz-adv-x="722" 
d="M162 0l-153 482h66l128 -410l112 410h90l116 -410l128 410h64l-153 -482h-83l-117 416l-115 -416h-83zM331 540l63 165h74l-80 -165h-57z" />
    <glyph glyph-name="Wdieresis" unicode="&#x1e84;" horiz-adv-x="930" 
d="M200 0l-191 706h69l174 -641l159 641h108l159 -641l174 641h69l-191 -706h-105l-160 646l-160 -646h-105zM322 799v86h81v-86h-81zM527 799v86h81v-86h-81z" />
    <glyph glyph-name="wdieresis" unicode="&#x1e85;" horiz-adv-x="722" 
d="M162 0l-153 482h66l128 -410l112 410h90l116 -410l128 410h64l-153 -482h-83l-117 416l-115 -416h-83zM217 575v86h81v-86h-81zM422 575v86h81v-86h-81z" />
    <glyph glyph-name="uni1E8A" unicode="&#x1e8a;" horiz-adv-x="583" 
d="M-14 0l264 382l-225 324h79l187 -270l188 270h79l-225 -324l264 -382h-79l-227 327l-226 -327h-79zM250 799v86h81v-86h-81z" />
    <glyph glyph-name="uni1E8B" unicode="&#x1e8b;" horiz-adv-x="405" 
d="M6 0l157 251l-142 231h72l110 -179l115 179h72l-148 -232l152 -250h-73l-119 196l-123 -196h-73zM164 575v86h81v-86h-81z" />
    <glyph glyph-name="uni1E92" unicode="&#x1e92;" horiz-adv-x="570" 
d="M20 0v75l428 571h-411v60h494v-60l-439 -586h463v-60h-535zM247 -144v86h81v-86h-81z" />
    <glyph glyph-name="uni1E93" unicode="&#x1e93;" horiz-adv-x="414" 
d="M19 0v68l290 361h-265v53h342v-53l-301 -374h307v-55h-373zM164 -144v86h81v-86h-81z" />
    <glyph glyph-name="uni1E97" unicode="&#x1e97;" horiz-adv-x="283" 
d="M100 108v319h-93v55h93v159h64v-159h106v-55h-106v-316q0 -36 14 -49t43 -13q22 0 49 5v-51q-25 -9 -65 -9q-105 0 -105 114zM-12 799v86h81v-86h-81zM193 799v86h81v-86h-81z" />
    <glyph glyph-name="uni1E9E" unicode="&#x1e9e;" horiz-adv-x="646" 
d="M354 -17q-69 0 -141 18v62q72 -20 141 -20q90 0 144.5 40.5t54.5 108.5q0 61 -49.5 101.5t-130.5 40.5h-113v60l229 252h-117q-111 0 -172.5 -56t-61.5 -156v-434h-67v434q0 121 74.5 196.5t226.5 75.5h199v-60l-229 -253h42q107 0 172.5 -54t65.5 -146q0 -93 -69 -151.5
t-199 -58.5z" />
    <glyph glyph-name="uni1EA0" unicode="&#x1ea0;" horiz-adv-x="637" 
d="M3 0l268 706h98l264 -706h-75l-82 219h-316l-82 -219h-75zM182 279h272l-136 371zM278 -144v86h81v-86h-81z" />
    <glyph glyph-name="uni1EA1" unicode="&#x1ea1;" horiz-adv-x="470" 
d="M417 0h-65q-6 30 -6 77q-41 -89 -154 -89q-74 0 -116.5 39t-42.5 98q0 33 11 58.5t27 40.5t44.5 27t52.5 18t61 13q38 6 58 10q28 5 41.5 16t15.5 20.5t2 28.5q0 10 -3.5 21.5t-13.5 26.5t-34.5 24.5t-59.5 9.5q-110 0 -120 -110l-69 11q7 48 30 82q47 72 159 72
q83 0 129 -34t46 -118v-238q0 -69 7 -104zM100 125q0 -36 28.5 -59t67.5 -23q22 0 45 6t48 19.5t41 43t16 70.5v75q-30 -12 -88 -23l-30 -6q-42 -8 -65.5 -16t-43 -30t-19.5 -57zM187 -144v86h81v-86h-81z" />
    <glyph glyph-name="uni1EB8" unicode="&#x1eb8;" horiz-adv-x="568" 
d="M78 0v706h444v-60h-377v-250h364v-60h-364v-276h386v-60h-453zM260 -144v86h81v-86h-81z" />
    <glyph glyph-name="uni1EB9" unicode="&#x1eb9;" horiz-adv-x="491" 
d="M387 155l66 -12q-12 -56 -65 -105.5t-131 -49.5q-111 0 -166.5 72.5t-55.5 179.5q0 106 56 180t155 74q103 0 157 -72.5t54 -187.5v-6h-355q0 -46 13.5 -85.5t50 -69.5t91.5 -30q56 0 89.5 35t40.5 77zM104 282h282q0 60 -37 108.5t-103 48.5q-67 0 -104.5 -45
t-37.5 -112zM199 -144v86h81v-86h-81z" />
    <glyph glyph-name="uni1EBC" unicode="&#x1ebc;" horiz-adv-x="568" 
d="M78 0v706h444v-60h-377v-250h364v-60h-364v-276h386v-60h-453zM160 778v74q37 35 74 35q26 0 78 -21q43 -15 53 -15q38 0 77 53v-74q-39 -37 -77 -37q-26 0 -78 21q-43 15 -53 15q-37 0 -74 -51z" />
    <glyph glyph-name="uni1EBD" unicode="&#x1ebd;" horiz-adv-x="491" 
d="M387 155l66 -12q-12 -56 -65 -105.5t-131 -49.5q-111 0 -166.5 72.5t-55.5 179.5q0 106 56 180t155 74q103 0 157 -72.5t54 -187.5v-6h-355q0 -46 13.5 -85.5t50 -69.5t91.5 -30q56 0 89.5 35t40.5 77zM104 282h282q0 60 -37 108.5t-103 48.5q-67 0 -104.5 -45
t-37.5 -112zM105 554v74q37 35 74 35q26 0 78 -21q43 -15 53 -15q38 0 77 53v-74q-39 -37 -77 -37q-26 0 -78 21q-43 15 -53 15q-37 0 -74 -51z" />
    <glyph glyph-name="uni1ECA" unicode="&#x1eca;" horiz-adv-x="223" 
d="M78 0v706h67v-706h-67zM71 -144v86h81v-86h-81z" />
    <glyph glyph-name="uni1ECB" unicode="&#x1ecb;" horiz-adv-x="190" 
d="M63 0v482h64v-482h-64zM63 628v78h64v-78h-64zM55 -144v86h81v-86h-81z" />
    <glyph glyph-name="uni1ECC" unicode="&#x1ecc;" horiz-adv-x="717" 
d="M360 43q82 0 140 45.5t83 113t25 148.5q0 128 -63.5 220.5t-184.5 92.5q-63 0 -112.5 -27t-79 -72t-44.5 -99.5t-15 -114.5t15 -113.5t44.5 -97.5t79 -70t112.5 -26zM360 -17q-81 0 -144 31t-101 84t-57 117t-19 135t19 136t57 119t101 86t144 32q80 0 142.5 -32t100 -86
t56.5 -119t19 -136t-19 -135.5t-56.5 -117t-100 -83.5t-142.5 -31zM320 -144v86h81v-86h-81z" />
    <glyph glyph-name="uni1ECD" unicode="&#x1ecd;" horiz-adv-x="515" 
d="M258 43q75 0 115.5 59t40.5 138t-41 139t-115 60q-75 0 -116 -59.5t-41 -139.5q0 -79 41 -138t116 -59zM258 -12q-103 0 -163.5 76t-60.5 176t60.5 177t163.5 77t163 -77t60 -177t-60 -176t-163 -76zM218 -144v86h81v-86h-81z" />
    <glyph glyph-name="uni1EE4" unicode="&#x1ee4;" horiz-adv-x="676" 
d="M72 241v465h67v-465q0 -88 53 -143t147 -55q95 0 146.5 53t51.5 145v465h67v-465q0 -124 -72.5 -191t-192.5 -67q-134 0 -200.5 74t-66.5 184zM299 -144v86h81v-86h-81z" />
    <glyph glyph-name="uni1EE5" unicode="&#x1ee5;" horiz-adv-x="498" 
d="M58 233v249h64v-249q0 -73 4.5 -102.5t18.5 -47.5q28 -40 95 -40q37 0 60 13.5t43 41.5q21 28 25 57.5t4 115.5v211h63v-482h-64v87q-8 -38 -50 -68.5t-98 -30.5q-82 0 -129 59q-24 30 -30 64.5t-6 121.5zM204 -144v86h81v-86h-81z" />
    <glyph glyph-name="Ygrave" unicode="&#x1ef2;" horiz-adv-x="588" 
d="M258 0v332l-246 374h78l205 -315l214 315h74l-256 -374v-332h-69zM268 764l-80 165h74l63 -165h-57z" />
    <glyph glyph-name="ygrave" unicode="&#x1ef3;" horiz-adv-x="438" 
d="M28 -231v60q21 -6 36 -6q66 0 87 57l36 102l-175 500h66l143 -403l145 403h64l-222 -628q-31 -89 -130 -89q-25 0 -50 4zM195 540l-80 165h74l63 -165h-57z" />
    <glyph glyph-name="uni1EF8" unicode="&#x1ef8;" horiz-adv-x="588" 
d="M258 0v332l-246 374h78l205 -315l214 315h74l-256 -374v-332h-69zM154 778v74q37 35 74 35q26 0 78 -21q43 -15 53 -15q38 0 77 53v-74q-39 -37 -77 -37q-26 0 -78 21q-43 15 -53 15q-37 0 -74 -51z" />
    <glyph glyph-name="uni1EF9" unicode="&#x1ef9;" horiz-adv-x="438" 
d="M28 -231v60q21 -6 36 -6q66 0 87 57l36 102l-175 500h66l143 -403l145 403h64l-222 -628q-31 -89 -130 -89q-25 0 -50 4zM80 554v74q37 35 74 35q26 0 78 -21q43 -15 53 -15q38 0 77 53v-74q-39 -37 -77 -37q-26 0 -78 21q-43 15 -53 15q-37 0 -74 -51z" />
    <glyph glyph-name="uni2000" unicode="&#x2000;" horiz-adv-x="392" 
 />
    <glyph glyph-name="uni2001" unicode="&#x2001;" horiz-adv-x="784" 
 />
    <glyph glyph-name="uni2002" unicode="&#x2002;" horiz-adv-x="392" 
 />
    <glyph glyph-name="uni2003" unicode="&#x2003;" horiz-adv-x="784" 
 />
    <glyph glyph-name="uni2004" unicode="&#x2004;" horiz-adv-x="261" 
 />
    <glyph glyph-name="uni2005" unicode="&#x2005;" horiz-adv-x="196" 
 />
    <glyph glyph-name="uni2006" unicode="&#x2006;" horiz-adv-x="131" 
 />
    <glyph glyph-name="uni2007" unicode="&#x2007;" 
 />
    <glyph glyph-name="uni2008" unicode="&#x2008;" horiz-adv-x="194" 
 />
    <glyph glyph-name="uni2009" unicode="&#x2009;" horiz-adv-x="98" 
 />
    <glyph glyph-name="uni200A" unicode="&#x200a;" horiz-adv-x="33" 
 />
    <glyph glyph-name="uni200B" unicode="&#x200b;" horiz-adv-x="0" 
 />
    <glyph glyph-name="figuredash" unicode="&#x2012;" 
d="M131 282v67h381v-67h-381z" />
    <glyph glyph-name="endash" unicode="&#x2013;" horiz-adv-x="491" 
d="M55 299v67h381v-67h-381z" />
    <glyph glyph-name="emdash" unicode="&#x2014;" horiz-adv-x="763" 
d="M55 299v67h653v-67h-653z" />
    <glyph glyph-name="uni2015" unicode="&#x2015;" horiz-adv-x="763" 
d="M55 299v67h653v-67h-653z" />
    <glyph glyph-name="quoteleft" unicode="&#x2018;" horiz-adv-x="196" 
d="M30 439l86 267h57l-65 -267h-78z" />
    <glyph glyph-name="quoteright" unicode="&#x2019;" horiz-adv-x="193" 
d="M34 439l65 267h78l-86 -267h-57z" />
    <glyph glyph-name="quotesinglbase" unicode="&#x201a;" horiz-adv-x="190" 
d="M-1 -177l65 267h78l-86 -267h-57z" />
    <glyph glyph-name="quotereversed" unicode="&#x201b;" horiz-adv-x="193" 
d="M94 706l65 -267h-57l-86 267h78z" />
    <glyph glyph-name="quotedblleft" unicode="&#x201c;" horiz-adv-x="326" 
d="M30 439l86 267h57l-65 -267h-78zM160 439l86 267h57l-65 -267h-78z" />
    <glyph glyph-name="quotedblright" unicode="&#x201d;" horiz-adv-x="323" 
d="M34 439l65 267h78l-86 -267h-57zM164 439l65 267h78l-86 -267h-57z" />
    <glyph glyph-name="quotedblbase" unicode="&#x201e;" horiz-adv-x="320" 
d="M-1 -177l65 267h78l-86 -267h-57zM129 -177l65 267h78l-86 -267h-57z" />
    <glyph glyph-name="uni201F" unicode="&#x201f;" horiz-adv-x="323" 
d="M224 706l65 -267h-57l-86 267h78zM94 706l65 -267h-57l-86 267h78z" />
    <glyph glyph-name="dagger" unicode="&#x2020;" horiz-adv-x="454" 
d="M195 0v440h-160v59h160v207h68v-207h156v-59h-156v-440h-68z" />
    <glyph glyph-name="daggerdbl" unicode="&#x2021;" horiz-adv-x="454" 
d="M195 0v214h-160v59h160v179h-160v59h160v196h68v-196h156v-59h-156v-179h156v-59h-156v-214h-68z" />
    <glyph glyph-name="bullet" unicode="&#x2022;" horiz-adv-x="362" 
d="M181 234q-49 0 -84 35t-35 84t35 84t84 35t84 -35t35 -84t-35 -84t-84 -35z" />
    <glyph glyph-name="ellipsis" unicode="&#x2026;" horiz-adv-x="662" 
d="M52 0v90h90v-90h-90zM286 0v90h90v-90h-90zM520 0v90h90v-90h-90z" />
    <glyph glyph-name="perthousand" unicode="&#x2030;" horiz-adv-x="1190" 
d="M242 373q42 0 65 44t23 102t-23 102t-65 44t-65 -44t-23 -102t23 -102t65 -44zM242 323q-70 0 -110 59t-40 137q0 77 40 136.5t110 59.5t110 -59.5t40 -136.5q0 -78 -40 -137t-110 -59zM158 0l464 706h71l-465 -706h-70zM609 41q42 0 65 44t23 102t-23 102t-65 44
t-65 -44t-23 -102t23 -102t65 -44zM609 -9q-70 0 -110 59t-40 137q0 77 40 136.5t110 59.5t110 -59.5t40 -136.5q0 -78 -40 -137t-110 -59zM951 41q42 0 65 44t23 102t-23 102t-65 44t-65 -44t-23 -102t23 -102t65 -44zM951 -9q-70 0 -110 59t-40 137q0 77 40 136.5
t110 59.5t110 -59.5t40 -136.5q0 -78 -40 -137t-110 -59z" />
    <glyph glyph-name="uni2032" unicode="&#x2032;" horiz-adv-x="169" 
d="M55 439v267h59v-267h-59z" />
    <glyph glyph-name="uni2033" unicode="&#x2033;" horiz-adv-x="302" 
d="M55 439v267h59v-267h-59zM187 439v267h60v-267h-60z" />
    <glyph glyph-name="guilsinglleft" unicode="&#x2039;" horiz-adv-x="258" 
d="M36 309v58l165 136v-71l-115 -94l115 -94v-71z" />
    <glyph glyph-name="guilsinglright" unicode="&#x203a;" horiz-adv-x="258" 
d="M57 173v71l115 94l-115 94v71l165 -136v-58z" />
    <glyph glyph-name="fraction" unicode="&#x2044;" horiz-adv-x="130" 
d="M-202 0l464 706h71l-465 -706h-70z" />
    <glyph glyph-name="uni2070" unicode="&#x2070;" horiz-adv-x="360" 
d="M180 543q42 0 65 44t23 102t-23 102t-65 44t-65 -44t-23 -102t23 -102t65 -44zM180 493q-70 0 -110 59t-40 137q0 77 40 136.5t110 59.5t110 -59.5t40 -136.5q0 -78 -40 -137t-110 -59z" />
    <glyph glyph-name="uni2074" unicode="&#x2074;" horiz-adv-x="360" 
d="M33 597v51l148 228h78v-230h69v-49h-69v-95h-59v95h-167zM96 646h104v169z" />
    <glyph glyph-name="uni2075" unicode="&#x2075;" horiz-adv-x="360" 
d="M50 595l59 13q12 -65 70 -65q33 0 53 23.5t20 60.5q0 32 -19 56t-52 24q-50 0 -67 -51l-60 12l25 208h219v-50h-170l-13 -105q8 13 29.5 24.5t49.5 11.5q53 0 85 -39.5t32 -90.5q0 -57 -37 -95.5t-95 -38.5q-103 0 -129 102z" />
    <glyph glyph-name="uni2076" unicode="&#x2076;" horiz-adv-x="360" 
d="M308 796l-60 -13q-15 52 -57 52q-75 0 -83 -132q6 19 29.5 34t54.5 15q55 0 88.5 -37.5t33.5 -92.5q0 -57 -38.5 -93t-87.5 -36q-40 0 -69 18.5t-44 48.5t-21.5 60t-6.5 61q0 84 35.5 144t111.5 60q37 0 69 -22.5t45 -66.5zM186 543q28 0 48.5 22t20.5 60q0 35 -20.5 56
t-49.5 21q-33 0 -51.5 -24t-18.5 -54q0 -37 20 -59t51 -22z" />
    <glyph glyph-name="uni2077" unicode="&#x2077;" horiz-adv-x="360" 
d="M149 502h-65q23 63 89.5 187.5t78.5 136.5h-204v50h268v-50q-19 -26 -80 -143t-87 -181z" />
    <glyph glyph-name="uni2078" unicode="&#x2078;" horiz-adv-x="360" 
d="M121 702q-30 10 -47 32.5t-17 51.5q0 36 32.5 67.5t90.5 31.5t90 -31.5t32 -67.5q0 -29 -17 -51.5t-47 -32.5q77 -26 77 -98q0 -43 -36 -77t-99 -34t-99.5 34t-36.5 77q0 72 77 98zM103 606q0 -25 20.5 -44t56.5 -19t56 19t20 44q0 27 -16.5 48t-59.5 21t-60 -21t-17 -48
zM116 782q0 -22 16 -39t48 -17q31 0 47 17t16 39q0 21 -16.5 37.5t-46.5 16.5q-31 0 -47.5 -16.5t-16.5 -37.5z" />
    <glyph glyph-name="uni2079" unicode="&#x2079;" horiz-adv-x="360" 
d="M50 585l62 14q12 -56 57 -56q42 0 64 46q9 18 14.5 49.5t5.5 45.5q-6 -19 -29.5 -34t-54.5 -15q-55 0 -88.5 36.5t-33.5 89.5q0 55 38 89.5t88 34.5q40 0 69 -18.5t43.5 -48.5t21 -60t6.5 -60q0 -83 -32 -139q-39 -66 -115 -66q-36 0 -70.5 24t-45.5 68zM175 685
q31 0 50 24.5t19 48.5q0 33 -20 55t-50 22q-28 0 -48 -22t-20 -55q0 -31 20.5 -52t48.5 -21z" />
    <glyph glyph-name="uni2080" unicode="&#x2080;" horiz-adv-x="360" 
d="M180 -208q42 0 65 44t23 102t-23 102t-65 44t-65 -44t-23 -102t23 -102t65 -44zM180 -258q-70 0 -110 59t-40 137q0 77 40 136.5t110 59.5t110 -59.5t40 -136.5q0 -78 -40 -137t-110 -59z" />
    <glyph glyph-name="uni2081" unicode="&#x2081;" horiz-adv-x="360" 
d="M168 -249v274h-69v50h22q29 0 41 10t12 40h54v-374h-60z" />
    <glyph glyph-name="uni2082" unicode="&#x2082;" horiz-adv-x="360" 
d="M45 -249v58q21 9 65.5 40t77.5 64q57 57 57 107q0 29 -16.5 46.5t-44.5 17.5q-67 0 -68 -88l-63 14q0 61 38.5 92.5t92.5 31.5q55 0 89 -31.5t34 -82.5q0 -67 -75 -142q-37 -37 -108 -78h190v-49h-269z" />
    <glyph glyph-name="uni2083" unicode="&#x2083;" horiz-adv-x="360" 
d="M42 -131l63 12q5 -89 72 -89q35 0 54.5 19t19.5 47q0 25 -19 44.5t-61 19.5h-45v50h43q32 0 52.5 17t20.5 39q0 26 -18 41t-46 15q-35 0 -51 -22.5t-16 -53.5l-62 14q0 40 34 76t95 36q53 0 89.5 -28.5t36.5 -78.5q0 -22 -18.5 -48.5t-55.5 -31.5q42 -3 62.5 -33
t20.5 -60q0 -46 -37.5 -79t-98.5 -33q-54 0 -92.5 32.5t-42.5 94.5z" />
    <glyph glyph-name="uni2084" unicode="&#x2084;" horiz-adv-x="360" 
d="M33 -154v51l148 228h78v-230h69v-49h-69v-95h-59v95h-167zM96 -105h104v169z" />
    <glyph glyph-name="uni2085" unicode="&#x2085;" horiz-adv-x="360" 
d="M50 -156l59 13q12 -65 70 -65q33 0 53 23.5t20 60.5q0 32 -19 56t-52 24q-50 0 -67 -51l-60 12l25 208h219v-50h-170l-13 -105q8 13 29.5 24.5t49.5 11.5q53 0 85 -39.5t32 -90.5q0 -57 -37 -95.5t-95 -38.5q-103 0 -129 102z" />
    <glyph glyph-name="uni2086" unicode="&#x2086;" horiz-adv-x="360" 
d="M308 45l-60 -13q-15 52 -57 52q-75 0 -83 -132q6 19 29.5 34t54.5 15q55 0 88.5 -37.5t33.5 -92.5q0 -57 -38.5 -93t-87.5 -36q-40 0 -69 18.5t-44 48.5t-21.5 60t-6.5 61q0 84 35.5 144t111.5 60q37 0 69 -22.5t45 -66.5zM186 -208q28 0 48.5 22t20.5 60q0 35 -20.5 56
t-49.5 21q-33 0 -51.5 -24t-18.5 -54q0 -37 20 -59t51 -22z" />
    <glyph glyph-name="uni2087" unicode="&#x2087;" horiz-adv-x="360" 
d="M149 -249h-65q23 63 89.5 187.5t78.5 136.5h-204v50h268v-50q-19 -26 -80 -143t-87 -181z" />
    <glyph glyph-name="uni2088" unicode="&#x2088;" horiz-adv-x="360" 
d="M121 -49q-30 10 -47 32.5t-17 51.5q0 36 32.5 67.5t90.5 31.5t90 -31.5t32 -67.5q0 -29 -17 -51.5t-47 -32.5q77 -26 77 -98q0 -43 -36 -77t-99 -34t-99.5 34t-36.5 77q0 72 77 98zM103 -145q0 -25 20.5 -44t56.5 -19t56 19t20 44q0 27 -16.5 48t-59.5 21t-60 -21
t-17 -48zM116 31q0 -22 16 -39t48 -17q31 0 47 17t16 39q0 21 -16.5 37.5t-46.5 16.5q-31 0 -47.5 -16.5t-16.5 -37.5z" />
    <glyph glyph-name="uni2089" unicode="&#x2089;" horiz-adv-x="360" 
d="M50 -166l62 14q12 -56 57 -56q42 0 64 46q9 18 14.5 49.5t5.5 45.5q-6 -19 -29.5 -34t-54.5 -15q-55 0 -88.5 36.5t-33.5 89.5q0 55 38 89.5t88 34.5q40 0 69 -18.5t43.5 -48.5t21 -60t6.5 -60q0 -83 -32 -139q-39 -66 -115 -66q-36 0 -70.5 24t-45.5 68zM175 -66
q31 0 50 24.5t19 48.5q0 33 -20 55t-50 22q-28 0 -48 -22t-20 -55q0 -31 20.5 -52t48.5 -21z" />
    <glyph glyph-name="colonmonetary" unicode="&#x20a1;" 
d="M142 -95l32 120q-78 46 -116.5 133.5t-38.5 194.5q0 97 34.5 179t110 136.5t178.5 54.5q12 0 19 -1l21 79h54l-23 -86q24 -4 50 -15l27 101h54l-34 -127q87 -61 117 -174l-68 -12q-21 73 -67 118l-151 -563h3q53 0 95 19t67 50t39.5 62t19.5 62l68 -12
q-7 -39 -25.5 -77.5t-51 -77t-88 -62.5t-124.5 -24q-12 0 -19 1l-21 -79h-54l22 85q-17 3 -50 13l-26 -98h-54zM89 353q0 -179 103 -261l153 571h-3q-119 0 -186 -92t-67 -218zM397 657l-159 -593q20 -9 50 -16l158 590q-20 12 -49 19z" />
    <glyph glyph-name="uni20A6" unicode="&#x20a6;" 
d="M20 389v50h69v267h95l129 -267h175v267h67v-267h69v-50h-69v-72h69v-50h-69v-267h-104l-126 267h-169v-267h-67v267h-69v50h69v72h-69zM337 389l35 -72h116v72h-151zM156 389v-72h146l-34 72h-112zM397 267l91 -188v188h-91zM156 627v-188h88z" />
    <glyph glyph-name="Euro" unicode="&#x20ac;" 
d="M3 397l19 50h54q24 120 103 198t200 78q179 0 252 -174l-64 -20q-54 134 -188 134q-91 0 -150 -60.5t-80 -155.5h329l-19 -50h-318q-2 -10 -2 -44v-28h301l-19 -50h-277q16 -103 73.5 -167.5t159.5 -64.5q80 0 128.5 45.5t67.5 108.5l64 -18q-12 -37 -32 -69t-50.5 -62
t-76 -47.5t-101.5 -17.5q-135 0 -211.5 82t-93.5 210h-69l19 50h45v28q0 34 2 44h-66z" />
    <glyph glyph-name="uni20B2" unicode="&#x20b2;" 
d="M301 -93v78q-76 6 -133.5 38.5t-91 84.5t-50 113.5t-16.5 131.5q0 92 31 171t98.5 134t161.5 63v78h50v-77q101 -5 165.5 -61t90.5 -129l-68 -13q-55 133 -188 143v-619q87 7 147.5 72t60.5 197h-153v60h218v-372h-62v119q-60 -129 -211 -135v-77h-50zM80 353
q0 -77 21 -141.5t72.5 -111.5t127.5 -55v616q-106 -14 -163.5 -102t-57.5 -206z" />
    <glyph glyph-name="uni20B5" unicode="&#x20b5;" 
d="M316 -93v77q-102 6 -171 62t-97.5 134t-28.5 173q0 92 32 172t101 135.5t164 61.5v77h50v-77q59 -4 107 -26.5t78 -56t48.5 -68.5t27.5 -71l-68 -12q-18 64 -65 115.5t-128 58.5v-618q47 4 84.5 24t60 50.5t35.5 59t19 58.5l68 -12q-7 -37 -24 -74.5t-47.5 -74.5
t-81.5 -62t-114 -29v-77h-50zM89 353q0 -79 22 -143.5t74.5 -111t130.5 -54.5v618q-108 -11 -167.5 -100t-59.5 -209z" />
    <glyph glyph-name="uni20BA" unicode="&#x20ba;" 
d="M79 423v50l131 48v185h67v-161l212 78v-50l-212 -78v-71l212 77v-50l-212 -77v-329q108 11 164 95t56 201l68 -4q-2 -70 -22 -131.5t-57 -112.5t-99 -80.5t-140 -29.5q-13 0 -37 2v364l-131 -47v50l131 47v72z" />
    <glyph glyph-name="uni20BF" unicode="&#x20bf;" 
d="M81 0v706h128v93h50v-93h68v93h50v-94q89 -4 146 -49.5t57 -133.5q0 -70 -41 -111.5t-86 -46.5q76 -15 114.5 -55t38.5 -117q0 -98 -62 -144t-167 -48v-93h-50v93h-68v-93h-50v93h-128zM148 60h225q164 0 164 129q0 70 -48 107t-158 37h-183v-273zM148 393h186
q33 0 61.5 5.5t56 19t43.5 40.5t16 65q0 59 -43.5 91t-105.5 32h-214v-253z" />
    <glyph glyph-name="uni2113" unicode="&#x2113;" horiz-adv-x="477" 
d="M429 134l30 -24q-68 -121 -189 -121q-81 0 -123 52t-44 132l-62 -48l-20 35l81 65v260q0 117 44.5 169t106.5 52q60 0 92 -43t32 -106q0 -85 -57.5 -170.5t-165.5 -180.5v-21q0 -75 37.5 -114t88.5 -39q47 0 88 31t61 71zM154 494v-233q87 85 133.5 153.5t46.5 137.5
q0 113 -83 113q-38 0 -67.5 -41.5t-29.5 -129.5z" />
    <glyph glyph-name="uni2117" unicode="&#x2117;" horiz-adv-x="810" 
d="M67 353q0 -140 99 -239t239 -99t239 99t99 239t-99 239t-239 99t-239 -99t-99 -239zM35 353q0 153 108.5 261.5t261.5 108.5t261.5 -108.5t108.5 -261.5t-108.5 -261.5t-261.5 -108.5t-261.5 108.5t-108.5 261.5zM252 130v446h196q152 0 152 -128q0 -130 -152 -130h-137
v-188h-59zM311 369h136q47 0 69.5 18t22.5 61q0 78 -92 78h-136v-157z" />
    <glyph glyph-name="trademark" unicode="&#x2122;" horiz-adv-x="709" 
d="M316 374v332h67l94 -272l95 272h67v-332h-45v269l-94 -269h-45l-94 269v-269h-45zM135 374v290h-109v42h262v-42h-106v-290h-47z" />
    <glyph glyph-name="Omega" unicode="&#x2126;" horiz-adv-x="700" 
d="M36 0v55h150q-136 125 -136 323q0 156 86 250.5t214 94.5t214 -94.5t86 -250.5q0 -198 -136 -323h150v-55h-238v42q65 41 111 129.5t46 199.5q0 128 -63.5 212.5t-169.5 84.5t-169.5 -84.5t-63.5 -212.5q0 -111 46 -199.5t111 -129.5v-42h-238z" />
    <glyph glyph-name="estimated" unicode="&#x212e;" horiz-adv-x="890" 
d="M863 343h-666q-5 0 -5 -5v-201q0 -12 8 -23q105 -110 252 -110q158 0 265 123h59q-56 -66 -141.5 -104.5t-183.5 -38.5q-171 0 -290.5 108t-119.5 261t119.5 261.5t290.5 108.5t291.5 -108.5t120.5 -261.5v-10zM712 369v202q0 14 -10 25q-107 105 -250 105
q-145 0 -251 -109q-9 -9 -9 -25v-198q0 -7 5 -7h510q5 0 5 7z" />
    <glyph glyph-name="uni2150" unicode="&#x2150;" horiz-adv-x="703" 
d="M101 332v274h-69v50h22q29 0 41 10t12 40h54v-374h-60zM62 0l464 706h71l-465 -706h-70zM510 0h-65q23 63 89.5 187.5t78.5 136.5h-204v50h268v-50q-19 -26 -80 -143t-87 -181z" />
    <glyph glyph-name="uni2151" unicode="&#x2151;" horiz-adv-x="704" 
d="M98 332v274h-69v50h22q29 0 41 10t12 40h54v-374h-60zM59 0l464 706h71l-465 -706h-70zM410 83l62 14q12 -56 57 -56q42 0 64 46q9 18 14.5 49.5t5.5 45.5q-6 -19 -29.5 -34t-54.5 -15q-55 0 -88.5 36.5t-33.5 89.5q0 55 38 89.5t88 34.5q40 0 69 -18.5t43.5 -48.5
t21 -60t6.5 -60q0 -83 -32 -139q-39 -66 -115 -66q-36 0 -70.5 24t-45.5 68zM535 183q31 0 50 24.5t19 48.5q0 33 -20 55t-50 22q-28 0 -48 -22t-20 -55q0 -31 20.5 -52t48.5 -21z" />
    <glyph glyph-name="uni2152" unicode="&#x2152;" horiz-adv-x="1010" 
d="M99 332v274h-69v50h22q29 0 41 10t12 40h54v-374h-60zM60 0l464 706h71l-465 -706h-70zM525 0v274h-69v50h22q29 0 41 10t12 40h54v-374h-60zM833 41q42 0 65 44t23 102t-23 102t-65 44t-65 -44t-23 -102t23 -102t65 -44zM833 -9q-70 0 -110 59t-40 137q0 77 40 136.5
t110 59.5t110 -59.5t40 -136.5q0 -78 -40 -137t-110 -59z" />
    <glyph glyph-name="onethird" unicode="&#x2153;" horiz-adv-x="707" 
d="M98 332v274h-69v50h22q29 0 41 10t12 40h54v-374h-60zM59 0l464 706h71l-465 -706h-70zM404 118l63 12q5 -89 72 -89q35 0 54.5 19t19.5 47q0 25 -19 44.5t-61 19.5h-45v50h43q32 0 52.5 17t20.5 39q0 26 -18 41t-46 15q-35 0 -51 -22.5t-16 -53.5l-62 14q0 40 34 76
t95 36q53 0 89.5 -28.5t36.5 -78.5q0 -22 -18.5 -48.5t-55.5 -31.5q42 -3 62.5 -33t20.5 -60q0 -46 -37.5 -79t-98.5 -33q-54 0 -92.5 32.5t-42.5 94.5z" />
    <glyph glyph-name="twothirds" unicode="&#x2154;" horiz-adv-x="766" 
d="M33 332v58q21 9 65.5 40t77.5 64q57 57 57 107q0 29 -16.5 46.5t-44.5 17.5q-67 0 -68 -88l-63 14q0 61 38.5 92.5t92.5 31.5q55 0 89 -31.5t34 -82.5q0 -67 -75 -142q-37 -37 -108 -78h190v-49h-269zM121 0l464 706h71l-465 -706h-70zM466 118l63 12q5 -89 72 -89
q35 0 54.5 19t19.5 47q0 25 -19 44.5t-61 19.5h-45v50h43q32 0 52.5 17t20.5 39q0 26 -18 41t-46 15q-35 0 -51 -22.5t-16 -53.5l-62 14q0 40 34 76t95 36q53 0 89.5 -28.5t36.5 -78.5q0 -22 -18.5 -48.5t-55.5 -31.5q42 -3 62.5 -33t20.5 -60q0 -46 -37.5 -79t-98.5 -33
q-54 0 -92.5 32.5t-42.5 94.5z" />
    <glyph glyph-name="uni2155" unicode="&#x2155;" horiz-adv-x="705" 
d="M98 332v274h-69v50h22q29 0 41 10t12 40h54v-374h-60zM59 0l464 706h71l-465 -706h-70zM409 93l59 13q12 -65 70 -65q33 0 53 23.5t20 60.5q0 32 -19 56t-52 24q-50 0 -67 -51l-60 12l25 208h219v-50h-170l-13 -105q8 13 29.5 24.5t49.5 11.5q53 0 85 -39.5t32 -90.5
q0 -57 -37 -95.5t-95 -38.5q-103 0 -129 102z" />
    <glyph glyph-name="uni2156" unicode="&#x2156;" horiz-adv-x="760" 
d="M31 332v58q21 9 65.5 40t77.5 64q57 57 57 107q0 29 -16.5 46.5t-44.5 17.5q-67 0 -68 -88l-63 14q0 61 38.5 92.5t92.5 31.5q55 0 89 -31.5t34 -82.5q0 -67 -75 -142q-37 -37 -108 -78h190v-49h-269zM119 0l464 706h71l-465 -706h-70zM469 93l59 13q12 -65 70 -65
q33 0 53 23.5t20 60.5q0 32 -19 56t-52 24q-50 0 -67 -51l-60 12l25 208h219v-50h-170l-13 -105q8 13 29.5 24.5t49.5 11.5q53 0 85 -39.5t32 -90.5q0 -57 -37 -95.5t-95 -38.5q-103 0 -129 102z" />
    <glyph glyph-name="uni2157" unicode="&#x2157;" horiz-adv-x="755" 
d="M30 450l63 12q5 -89 72 -89q35 0 54.5 19t19.5 47q0 25 -19 44.5t-61 19.5h-45v50h43q32 0 52.5 17t20.5 39q0 26 -18 41t-46 15q-35 0 -51 -22.5t-16 -53.5l-62 14q0 40 34 76t95 36q53 0 89.5 -28.5t36.5 -78.5q0 -22 -18.5 -48.5t-55.5 -31.5q42 -3 62.5 -33t20.5 -60
q0 -46 -37.5 -79t-98.5 -33q-54 0 -92.5 32.5t-42.5 94.5zM111 0l464 706h71l-465 -706h-70zM461 93l59 13q12 -65 70 -65q33 0 53 23.5t20 60.5q0 32 -19 56t-52 24q-50 0 -67 -51l-60 12l25 208h219v-50h-170l-13 -105q8 13 29.5 24.5t49.5 11.5q53 0 85 -39.5t32 -90.5
q0 -57 -37 -95.5t-95 -38.5q-103 0 -129 102z" />
    <glyph glyph-name="uni2158" unicode="&#x2158;" horiz-adv-x="769" 
d="M27 427v51l148 228h78v-230h69v-49h-69v-95h-59v95h-167zM90 476h104v169zM120 0l464 706h71l-465 -706h-70zM470 93l59 13q12 -65 70 -65q33 0 53 23.5t20 60.5q0 32 -19 56t-52 24q-50 0 -67 -51l-60 12l25 208h219v-50h-170l-13 -105q8 13 29.5 24.5t49.5 11.5
q53 0 85 -39.5t32 -90.5q0 -57 -37 -95.5t-95 -38.5q-103 0 -129 102z" />
    <glyph glyph-name="uni2159" unicode="&#x2159;" horiz-adv-x="705" 
d="M98 332v274h-69v50h22q29 0 41 10t12 40h54v-374h-60zM59 0l464 706h71l-465 -706h-70zM667 294l-60 -13q-15 52 -57 52q-75 0 -83 -132q6 19 29.5 34t54.5 15q55 0 88.5 -37.5t33.5 -92.5q0 -57 -38.5 -93t-87.5 -36q-40 0 -69 18.5t-44 48.5t-21.5 60t-6.5 61
q0 84 35.5 144t111.5 60q37 0 69 -22.5t45 -66.5zM545 41q28 0 48.5 22t20.5 60q0 35 -20.5 56t-49.5 21q-33 0 -51.5 -24t-18.5 -54q0 -37 20 -59t51 -22z" />
    <glyph glyph-name="uni215A" unicode="&#x215a;" horiz-adv-x="751" 
d="M31 425l59 13q12 -65 70 -65q33 0 53 23.5t20 60.5q0 32 -19 56t-52 24q-50 0 -67 -51l-60 12l25 208h219v-50h-170l-13 -105q8 13 29.5 24.5t49.5 11.5q53 0 85 -39.5t32 -90.5q0 -57 -37 -95.5t-95 -38.5q-103 0 -129 102zM107 0l464 706h71l-465 -706h-70zM715 294
l-60 -13q-15 52 -57 52q-75 0 -83 -132q6 19 29.5 34t54.5 15q55 0 88.5 -37.5t33.5 -92.5q0 -57 -38.5 -93t-87.5 -36q-40 0 -69 18.5t-44 48.5t-21.5 60t-6.5 61q0 84 35.5 144t111.5 60q37 0 69 -22.5t45 -66.5zM593 41q28 0 48.5 22t20.5 60q0 35 -20.5 56t-49.5 21
q-33 0 -51.5 -24t-18.5 -54q0 -37 20 -59t51 -22z" />
    <glyph glyph-name="oneeighth" unicode="&#x215b;" horiz-adv-x="706" 
d="M98 332v274h-69v50h22q29 0 41 10t12 40h54v-374h-60zM59 0l464 706h71l-465 -706h-70zM481 200q-30 10 -47 32.5t-17 51.5q0 36 32.5 67.5t90.5 31.5t90 -31.5t32 -67.5q0 -29 -17 -51.5t-47 -32.5q77 -26 77 -98q0 -43 -36 -77t-99 -34t-99.5 34t-36.5 77q0 72 77 98z
M463 104q0 -25 20.5 -44t56.5 -19t56 19t20 44q0 27 -16.5 48t-59.5 21t-60 -21t-17 -48zM476 280q0 -22 16 -39t48 -17q31 0 47 17t16 39q0 21 -16.5 37.5t-46.5 16.5q-31 0 -47.5 -16.5t-16.5 -37.5z" />
    <glyph glyph-name="threeeighths" unicode="&#x215c;" horiz-adv-x="757" 
d="M30 450l63 12q5 -89 72 -89q35 0 54.5 19t19.5 47q0 25 -19 44.5t-61 19.5h-45v50h43q32 0 52.5 17t20.5 39q0 26 -18 41t-46 15q-35 0 -51 -22.5t-16 -53.5l-62 14q0 40 34 76t95 36q53 0 89.5 -28.5t36.5 -78.5q0 -22 -18.5 -48.5t-55.5 -31.5q42 -3 62.5 -33t20.5 -60
q0 -46 -37.5 -79t-98.5 -33q-54 0 -92.5 32.5t-42.5 94.5zM111 0l464 706h71l-465 -706h-70zM533 200q-30 10 -47 32.5t-17 51.5q0 36 32.5 67.5t90.5 31.5t90 -31.5t32 -67.5q0 -29 -17 -51.5t-47 -32.5q77 -26 77 -98q0 -43 -36 -77t-99 -34t-99.5 34t-36.5 77q0 72 77 98
zM515 104q0 -25 20.5 -44t56.5 -19t56 19t20 44q0 27 -16.5 48t-59.5 21t-60 -21t-17 -48zM528 280q0 -22 16 -39t48 -17q31 0 47 17t16 39q0 21 -16.5 37.5t-46.5 16.5q-31 0 -47.5 -16.5t-16.5 -37.5z" />
    <glyph glyph-name="fiveeighths" unicode="&#x215d;" horiz-adv-x="752" 
d="M31 425l59 13q12 -65 70 -65q33 0 53 23.5t20 60.5q0 32 -19 56t-52 24q-50 0 -67 -51l-60 12l25 208h219v-50h-170l-13 -105q8 13 29.5 24.5t49.5 11.5q53 0 85 -39.5t32 -90.5q0 -57 -37 -95.5t-95 -38.5q-103 0 -129 102zM107 0l464 706h71l-465 -706h-70zM529 200
q-30 10 -47 32.5t-17 51.5q0 36 32.5 67.5t90.5 31.5t90 -31.5t32 -67.5q0 -29 -17 -51.5t-47 -32.5q77 -26 77 -98q0 -43 -36 -77t-99 -34t-99.5 34t-36.5 77q0 72 77 98zM511 104q0 -25 20.5 -44t56.5 -19t56 19t20 44q0 27 -16.5 48t-59.5 21t-60 -21t-17 -48zM524 280
q0 -22 16 -39t48 -17q31 0 47 17t16 39q0 21 -16.5 37.5t-46.5 16.5q-31 0 -47.5 -16.5t-16.5 -37.5z" />
    <glyph glyph-name="seveneighths" unicode="&#x215e;" horiz-adv-x="756" 
d="M129 332h-65q23 63 89.5 187.5t78.5 136.5h-204v50h268v-50q-19 -26 -80 -143t-87 -181zM107 0l464 706h71l-465 -706h-70zM529 200q-30 10 -47 32.5t-17 51.5q0 36 32.5 67.5t90.5 31.5t90 -31.5t32 -67.5q0 -29 -17 -51.5t-47 -32.5q77 -26 77 -98q0 -43 -36 -77
t-99 -34t-99.5 34t-36.5 77q0 72 77 98zM511 104q0 -25 20.5 -44t56.5 -19t56 19t20 44q0 27 -16.5 48t-59.5 21t-60 -21t-17 -48zM524 280q0 -22 16 -39t48 -17q31 0 47 17t16 39q0 21 -16.5 37.5t-46.5 16.5q-31 0 -47.5 -16.5t-16.5 -37.5z" />
    <glyph glyph-name="uni215F" unicode="&#x215f;" horiz-adv-x="497" 
d="M200 332v274h-69v50h22q29 0 41 10t12 40h54v-374h-60zM162 0l464 706h71l-465 -706h-70z" />
    <glyph glyph-name="uni2160" unicode="&#x2160;" horiz-adv-x="223" 
d="M78 0v706h67v-706h-67z" />
    <glyph glyph-name="uni2161" unicode="&#x2161;" horiz-adv-x="434" 
d="M78 0v706h67v-706h-67zM289 0v706h67v-706h-67z" />
    <glyph glyph-name="uni2162" unicode="&#x2162;" horiz-adv-x="645" 
d="M78 0v706h67v-706h-67zM289 0v706h67v-706h-67zM500 0v706h67v-706h-67z" />
    <glyph glyph-name="uni2163" unicode="&#x2163;" horiz-adv-x="827" 
d="M78 0v706h67v-706h-67zM473 0l-252 706h73l227 -633l237 633h70l-265 -706h-90z" />
    <glyph glyph-name="uni2164" unicode="&#x2164;" horiz-adv-x="616" 
d="M260 0l-252 706h73l227 -633l237 633h70l-265 -706h-90z" />
    <glyph glyph-name="uni2165" unicode="&#x2165;" horiz-adv-x="834" 
d="M259 0l-252 706h73l227 -633l237 633h70l-265 -706h-90zM689 0v706h67v-706h-67z" />
    <glyph glyph-name="uni2166" unicode="&#x2166;" horiz-adv-x="1044" 
d="M258 0l-252 706h73l227 -633l237 633h70l-265 -706h-90zM688 0v706h67v-706h-67zM899 0v706h67v-706h-67z" />
    <glyph glyph-name="uni2167" unicode="&#x2167;" horiz-adv-x="1254" 
d="M257 0l-252 706h73l227 -633l237 633h70l-265 -706h-90zM687 0v706h67v-706h-67zM898 0v706h67v-706h-67zM1109 0v706h67v-706h-67z" />
    <glyph glyph-name="uni2168" unicode="&#x2168;" horiz-adv-x="814" 
d="M78 0v706h67v-706h-67zM217 0l264 382l-225 324h79l187 -270l188 270h79l-225 -324l264 -382h-79l-227 327l-226 -327h-79z" />
    <glyph glyph-name="uni2169" unicode="&#x2169;" horiz-adv-x="583" 
d="M-14 0l264 382l-225 324h79l187 -270l188 270h79l-225 -324l264 -382h-79l-227 327l-226 -327h-79z" />
    <glyph glyph-name="uni216A" unicode="&#x216a;" horiz-adv-x="814" 
d="M-14 0l264 382l-225 324h79l187 -270l188 270h79l-225 -324l264 -382h-79l-227 327l-226 -327h-79zM669 0v706h67v-706h-67z" />
    <glyph glyph-name="uni216B" unicode="&#x216b;" horiz-adv-x="1025" 
d="M-14 0l264 382l-225 324h79l187 -270l188 270h79l-225 -324l264 -382h-79l-227 327l-226 -327h-79zM669 0v706h67v-706h-67zM880 0v706h67v-706h-67z" />
    <glyph glyph-name="uni216C" unicode="&#x216c;" horiz-adv-x="519" 
d="M78 0v706h67v-646h363v-60h-430z" />
    <glyph glyph-name="uni216D" unicode="&#x216d;" horiz-adv-x="674" 
d="M585 236l68 -12q-7 -39 -25.5 -77.5t-51 -77t-88 -62.5t-124.5 -24q-84 0 -148.5 31t-102 84.5t-56 117.5t-18.5 137q0 97 34.5 179t110 136.5t178.5 54.5q64 0 117 -21.5t86 -56t53 -71t29 -74.5l-68 -12q-17 68 -71 121.5t-146 53.5q-119 0 -186 -92t-67 -218
q0 -83 24.5 -150.5t84 -113.5t146.5 -46q53 0 95 19t67 50t39.5 62t19.5 62z" />
    <glyph glyph-name="uni216E" unicode="&#x216e;" horiz-adv-x="691" 
d="M145 60h139q68 0 121 16.5t85.5 43.5t53.5 66t29 79.5t8 87.5t-8 87.5t-29 79.5t-53.5 66t-85.5 43.5t-121 16.5h-139v-586zM78 0v706h206q53 0 101 -8.5t98 -33t86 -62.5t59 -102t23 -147t-23 -147t-59 -102t-86 -62.5t-98 -33t-101 -8.5h-206z" />
    <glyph glyph-name="uni216F" unicode="&#x216f;" horiz-adv-x="847" 
d="M78 0v706h108l240 -630l234 630h109v-706h-67v630l-233 -630h-86l-238 629v-629h-67z" />
    <glyph glyph-name="uni2170" unicode="&#x2170;" horiz-adv-x="190" 
d="M63 0v482h64v-482h-64zM63 628v78h64v-78h-64z" />
    <glyph glyph-name="uni2171" unicode="&#x2171;" horiz-adv-x="382" 
d="M63 0v482h64v-482h-64zM63 628v78h64v-78h-64zM255 0v482h64v-482h-64zM255 628v78h64v-78h-64z" />
    <glyph glyph-name="uni2172" unicode="&#x2172;" horiz-adv-x="574" 
d="M63 0v482h64v-482h-64zM63 628v78h64v-78h-64zM255 0v482h64v-482h-64zM255 628v78h64v-78h-64zM447 0v482h64v-482h-64zM447 628v78h64v-78h-64z" />
    <glyph glyph-name="uni2173" unicode="&#x2173;" horiz-adv-x="633" 
d="M63 0v482h64v-482h-64zM63 628v78h64v-78h-64zM370 0l-175 482h66l148 -404l153 404h65l-182 -482h-75z" />
    <glyph glyph-name="uni2174" unicode="&#x2174;" horiz-adv-x="450" 
d="M186 0l-175 482h66l148 -404l153 404h65l-182 -482h-75z" />
    <glyph glyph-name="uni2175" unicode="&#x2175;" horiz-adv-x="634" 
d="M185 0l-175 482h66l148 -404l153 404h65l-182 -482h-75zM507 0v482h64v-482h-64zM507 628v78h64v-78h-64z" />
    <glyph glyph-name="uni2176" unicode="&#x2176;" horiz-adv-x="825" 
d="M184 0l-175 482h66l148 -404l153 404h65l-182 -482h-75zM506 0v482h64v-482h-64zM506 628v78h64v-78h-64zM698 0v482h64v-482h-64zM698 628v78h64v-78h-64z" />
    <glyph glyph-name="uni2177" unicode="&#x2177;" horiz-adv-x="1016" 
d="M183 0l-175 482h66l148 -404l153 404h65l-182 -482h-75zM505 0v482h64v-482h-64zM505 628v78h64v-78h-64zM697 0v482h64v-482h-64zM697 628v78h64v-78h-64zM889 0v482h64v-482h-64zM889 628v78h64v-78h-64z" />
    <glyph glyph-name="uni2178" unicode="&#x2178;" horiz-adv-x="594" 
d="M63 0v482h64v-482h-64zM63 628v78h64v-78h-64zM195 0l157 251l-142 231h72l110 -179l115 179h72l-148 -232l152 -250h-73l-119 196l-123 -196h-73z" />
    <glyph glyph-name="uni2179" unicode="&#x2179;" horiz-adv-x="405" 
d="M6 0l157 251l-142 231h72l110 -179l115 179h72l-148 -232l152 -250h-73l-119 196l-123 -196h-73z" />
    <glyph glyph-name="uni217A" unicode="&#x217a;" horiz-adv-x="589" 
d="M6 0l157 251l-142 231h72l110 -179l115 179h72l-148 -232l152 -250h-73l-119 196l-123 -196h-73zM462 0v482h64v-482h-64zM462 628v78h64v-78h-64z" />
    <glyph glyph-name="uni217B" unicode="&#x217b;" horiz-adv-x="781" 
d="M6 0l157 251l-142 231h72l110 -179l115 179h72l-148 -232l152 -250h-73l-119 196l-123 -196h-73zM462 0v482h64v-482h-64zM462 628v78h64v-78h-64zM654 0v482h64v-482h-64zM654 628v78h64v-78h-64z" />
    <glyph glyph-name="uni217C" unicode="&#x217c;" horiz-adv-x="190" 
d="M63 0v706h64v-706h-64z" />
    <glyph glyph-name="uni217D" unicode="&#x217d;" horiz-adv-x="486" 
d="M396 167l66 -13q-5 -26 -18.5 -53t-37.5 -53.5t-62.5 -43t-86.5 -16.5q-77 0 -128.5 37.5t-72.5 92t-21 122.5q0 104 58 179t163 75q93 0 142.5 -49t61.5 -114l-66 -10q-1 14 -9 32t-22.5 38.5t-42.5 34t-64 13.5q-73 0 -113.5 -59t-40.5 -140q0 -83 38.5 -140t116.5 -57
q61 0 98 39.5t41 84.5z" />
    <glyph glyph-name="uni217E" unicode="&#x217e;" horiz-adv-x="532" 
d="M405 0v82q-12 -38 -57 -66t-97 -28q-56 0 -99.5 23.5t-68 61.5t-37 80.5t-12.5 86.5q0 65 23 121t75 94.5t124 38.5q47 0 92 -29t57 -66v307h64v-706h-64zM258 43q24 0 47.5 8.5t47.5 29t39 61.5t15 98t-14.5 98.5t-38.5 62t-46.5 29.5t-44.5 9q-74 0 -118 -55.5
t-44 -142.5q0 -79 41 -138.5t116 -59.5z" />
    <glyph glyph-name="uni217F" unicode="&#x217f;" horiz-adv-x="774" 
d="M63 0v482h64v-87q8 37 49 68t91 31q75 0 120 -61q15 -21 24 -49q11 41 52.5 75.5t99.5 34.5q74 0 119 -60q22 -30 28 -64.5t6 -120.5v-249h-64v277q0 28 -1 46t-7 42.5t-17 38.5t-32 24.5t-51 10.5q-58 0 -96 -55q-16 -24 -21.5 -48.5t-5.5 -71.5v-264h-64v277
q0 35 -3 58t-12.5 49.5t-32.5 40.5t-59 14q-59 0 -97 -55q-18 -27 -22 -55.5t-4 -98.5v-230h-64z" />
    <glyph glyph-name="uni2189" unicode="&#x2189;" horiz-adv-x="771" 
d="M179 373q42 0 65 44t23 102t-23 102t-65 44t-65 -44t-23 -102t23 -102t65 -44zM179 323q-70 0 -110 59t-40 137q0 77 40 136.5t110 59.5t110 -59.5t40 -136.5q0 -78 -40 -137t-110 -59zM124 0l464 706h71l-465 -706h-70zM469 118l63 12q5 -89 72 -89q35 0 54.5 19
t19.5 47q0 25 -19 44.5t-61 19.5h-45v50h43q32 0 52.5 17t20.5 39q0 26 -18 41t-46 15q-35 0 -51 -22.5t-16 -53.5l-62 14q0 40 34 76t95 36q53 0 89.5 -28.5t36.5 -78.5q0 -22 -18.5 -48.5t-55.5 -31.5q42 -3 62.5 -33t20.5 -60q0 -46 -37.5 -79t-98.5 -33
q-54 0 -92.5 32.5t-42.5 94.5z" />
    <glyph glyph-name="arrowleft" unicode="&#x2190;" 
d="M344 69l-42 -42l-284 284l284 284l42 -42l-216 -212h492v-60h-492z" />
    <glyph glyph-name="arrowup" unicode="&#x2191;" 
d="M80 286l-42 42l284 284l284 -284l-42 -42l-212 216v-492h-60v492z" />
    <glyph glyph-name="arrowright" unicode="&#x2192;" 
d="M342 27l-42 42l216 212h-492v60h492l-216 212l42 42l284 -284z" />
    <glyph glyph-name="arrowdown" unicode="&#x2193;" 
d="M564 336l42 -42l-284 -284l-284 284l42 42l212 -216v492h60v-492z" />
    <glyph glyph-name="uni2196" unicode="&#x2196;" 
d="M169 143h-60v402h402v-60l-303 3l348 -348l-42 -42l-348 348z" />
    <glyph glyph-name="uni2197" unicode="&#x2197;" 
d="M535 143h-60l3 303l-348 -348l-42 42l348 348l-303 -3v60h402v-402z" />
    <glyph glyph-name="uni2198" unicode="&#x2198;" 
d="M475 500h60v-402h-402v60l303 -3l-348 348l42 42l348 -348z" />
    <glyph glyph-name="uni2199" unicode="&#x2199;" 
d="M109 500h60l-3 -303l348 348l42 -42l-348 -348l303 3v-60h-402v402z" />
    <glyph glyph-name="partialdiff" unicode="&#x2202;" horiz-adv-x="508" 
d="M97 609l-27 55q67 59 161 59q93 0 166 -86t73 -241q0 -109 -25 -198.5t-82 -149.5t-139 -60q-91 0 -139.5 70.5t-48.5 170.5q0 119 61.5 192t153.5 73q105 0 153 -97q0 118 -52 194.5t-126 76.5q-29 0 -55.5 -10.5t-40 -20.5t-33.5 -28zM399 318q-14 43 -55.5 82
t-92.5 39q-61 0 -104 -62.5t-43 -145.5q0 -80 32.5 -134t87.5 -54q65 0 113.5 81t61.5 194z" />
    <glyph glyph-name="increment" unicode="&#x2206;" horiz-adv-x="619" 
d="M23 0v43l256 663h63l254 -663v-43h-573zM99 64h420l-209 543z" />
    <glyph glyph-name="product" unicode="&#x220f;" horiz-adv-x="588" 
d="M134 -60v706h-111v60h542v-60h-111v-706h-63v706h-194v-706h-63z" />
    <glyph glyph-name="summation" unicode="&#x2211;" 
d="M84 -60v40l261 345l-261 343v38h471v-60h-379l248 -321l-248 -325h379v-60h-471z" />
    <glyph glyph-name="minus" unicode="&#x2212;" 
d="M21 281v60h602v-60h-602z" />
    <glyph glyph-name="uni2215" unicode="&#x2215;" horiz-adv-x="130" 
d="M-202 0l464 706h71l-465 -706h-70z" />
    <glyph glyph-name="uni2219" unicode="&#x2219;" horiz-adv-x="317" 
d="M95 311q0 26 18.5 45t44.5 19t45 -19t19 -45t-19 -44.5t-45 -18.5t-44.5 18.5t-18.5 44.5z" />
    <glyph glyph-name="radical" unicode="&#x221a;" 
d="M317 -53l-165 474l-75 -26l-19 52l136 49l153 -436l161 699h57l-186 -812h-62z" />
    <glyph glyph-name="infinity" unicode="&#x221e;" horiz-adv-x="856" 
d="M428 289q-101 -129 -211 -129q-72 0 -126 50t-54 125q0 74 54 124.5t126 50.5q110 0 211 -129q101 129 211 129q72 0 126 -50.5t54 -124.5q0 -75 -54 -125t-126 -50q-110 0 -211 129zM392 335q-92 117 -175 117q-51 0 -85.5 -35t-34.5 -82t34.5 -82t85.5 -35
q87 0 175 117zM464 335q88 -117 175 -117q51 0 85.5 35t34.5 82t-34.5 82t-85.5 35q-83 0 -175 -117z" />
    <glyph glyph-name="integral" unicode="&#x222b;" 
d="M159 -217l16 56q20 -16 39 -16q81 0 81 171q0 81 -5.5 248t-5.5 259q0 91 33.5 154t107.5 63q30 0 59 -18l-16 -56q-20 16 -39 16q-81 0 -81 -171q0 -92 5.5 -259t5.5 -248q0 -58 -12 -104.5t-45 -79.5t-84 -33q-30 0 -59 18z" />
    <glyph glyph-name="approxequal" unicode="&#x2248;" 
d="M60 106l-41 7q22 76 68.5 110.5t102.5 34.5q53 0 106.5 -24t99 -48t79.5 -24q44 0 69.5 21t42.5 75l41 -7q-22 -76 -68.5 -110.5t-102.5 -34.5q-53 0 -106.5 24t-99 48t-79.5 24q-44 0 -69.5 -21t-42.5 -75zM60 264l-41 7q22 76 68.5 110.5t102.5 34.5q53 0 106.5 -24
t99 -48t79.5 -24q44 0 69.5 21t42.5 75l41 -7q-22 -76 -68.5 -110.5t-102.5 -34.5q-53 0 -106.5 24t-99 48t-79.5 24q-44 0 -69.5 -21t-42.5 -75z" />
    <glyph glyph-name="notequal" unicode="&#x2260;" 
d="M21 360v60h373l109 109h57l-109 -109h172v-60h-232l-98 -98h330v-59h-389l-121 -121h-57l121 121h-156v59h215l98 98h-313z" />
    <glyph glyph-name="equivalence" unicode="&#x2261;" 
d="M21 203v59h602v-59h-602zM21 360v60h602v-60h-602zM21 517v60h602v-60h-602z" />
    <glyph glyph-name="lessequal" unicode="&#x2264;" 
d="M33 362v70l565 200v-64l-498 -171l498 -171v-64zM33 0v60h564v-60h-564z" />
    <glyph glyph-name="greaterequal" unicode="&#x2265;" 
d="M611 432v-70l-565 -200v64l498 171l-498 171v64zM611 60v-60h-564v60h564z" />
    <glyph glyph-name="uni25AF" unicode="&#x25af;" horiz-adv-x="533" 
 />
    <glyph glyph-name="triagup" unicode="&#x25b2;" 
d="M323 482l240 -482h-482z" />
    <glyph glyph-name="triagrt" unicode="&#x25ba;" 
d="M563 240l-482 -240v482z" />
    <glyph glyph-name="triagdn" unicode="&#x25bc;" 
d="M323 0l-242 482h482z" />
    <glyph glyph-name="triaglf" unicode="&#x25c4;" 
d="M81 240l482 242v-482z" />
    <glyph glyph-name="lozenge" unicode="&#x25ca;" 
d="M298 -44l-200 387l202 387h46l199 -387l-201 -387h-46zM321 51l152 292l-150 292l-153 -292z" />
    <glyph glyph-name="uniFB00" unicode="&#xfb00;" horiz-adv-x="532" 
d="M360 0v427h-194v-427h-64v427h-94v55h94v93q0 70 26 106.5t91 36.5q31 0 50 -5v-57q-17 4 -36 4q-33 0 -50 -18.5t-17 -64.5v-95h194v93q0 70 26 106.5t91 36.5q31 0 50 -5v-57q-17 4 -36 4q-33 0 -50 -18.5t-17 -64.5v-95h100v-55h-100v-427h-64z" />
    <glyph glyph-name="fi" unicode="&#xfb01;" horiz-adv-x="472" 
d="M102 0v427h-94v55h94v93q0 70 26 106.5t91 36.5q31 0 50 -5v-57q-17 4 -36 4q-33 0 -50 -18.5t-17 -64.5v-95h100v-55h-100v-427h-64zM345 0v482h64v-482h-64zM345 628v78h64v-78h-64z" />
    <glyph glyph-name="fl" unicode="&#xfb02;" horiz-adv-x="472" 
d="M102 0v427h-94v55h94v93q0 70 26 106.5t91 36.5q31 0 50 -5v-57q-17 4 -36 4q-33 0 -50 -18.5t-17 -64.5v-95h100v-55h-100v-427h-64zM345 0v706h64v-706h-64z" />
    <glyph glyph-name="uniFB03" unicode="&#xfb03;" horiz-adv-x="730" 
d="M360 0v427h-194v-427h-64v427h-94v55h94v93q0 70 26 106.5t91 36.5q31 0 50 -5v-57q-17 4 -36 4q-33 0 -50 -18.5t-17 -64.5v-95h194v93q0 70 26 106.5t91 36.5q31 0 50 -5v-57q-17 4 -36 4q-33 0 -50 -18.5t-17 -64.5v-95h100v-55h-100v-427h-64zM603 0v482h64v-482h-64
zM603 628v78h64v-78h-64z" />
    <glyph glyph-name="uniFB04" unicode="&#xfb04;" horiz-adv-x="730" 
d="M360 0v427h-194v-427h-64v427h-94v55h94v93q0 70 26 106.5t91 36.5q31 0 50 -5v-57q-17 4 -36 4q-33 0 -50 -18.5t-17 -64.5v-95h194v93q0 70 26 106.5t91 36.5q31 0 50 -5v-57q-17 4 -36 4q-33 0 -50 -18.5t-17 -64.5v-95h100v-55h-100v-427h-64zM603 0v706h64v-706h-64
z" />
    <glyph glyph-name="uniFEFF" unicode="&#xfeff;" horiz-adv-x="0" 
 />
    <glyph glyph-name="i.latn_TRK" horiz-adv-x="190" 
d="M63 0v482h64v-482h-64zM63 628v78h64v-78h-64z" />
    <glyph glyph-name="Ldot.latn_CAT" horiz-adv-x="520" 
d="M78 0v706h67v-646h363v-60h-430zM280 312v86h81v-86h-81z" />
    <glyph glyph-name="ldot.latn_CAT" horiz-adv-x="261" 
d="M63 0v706h64v-706h-64zM185 308v86h81v-86h-81z" />
    <glyph glyph-name="zero.numr" horiz-adv-x="360" 
d="M180 373q42 0 65 44t23 102t-23 102t-65 44t-65 -44t-23 -102t23 -102t65 -44zM180 323q-70 0 -110 59t-40 137q0 77 40 136.5t110 59.5t110 -59.5t40 -136.5q0 -78 -40 -137t-110 -59z" />
    <glyph glyph-name="one.numr" horiz-adv-x="360" 
d="M168 332v274h-69v50h22q29 0 41 10t12 40h54v-374h-60z" />
    <glyph glyph-name="two.numr" horiz-adv-x="360" 
d="M45 332v58q21 9 65.5 40t77.5 64q57 57 57 107q0 29 -16.5 46.5t-44.5 17.5q-67 0 -68 -88l-63 14q0 61 38.5 92.5t92.5 31.5q55 0 89 -31.5t34 -82.5q0 -67 -75 -142q-37 -37 -108 -78h190v-49h-269z" />
    <glyph glyph-name="three.numr" horiz-adv-x="360" 
d="M42 450l63 12q5 -89 72 -89q35 0 54.5 19t19.5 47q0 25 -19 44.5t-61 19.5h-45v50h43q32 0 52.5 17t20.5 39q0 26 -18 41t-46 15q-35 0 -51 -22.5t-16 -53.5l-62 14q0 40 34 76t95 36q53 0 89.5 -28.5t36.5 -78.5q0 -22 -18.5 -48.5t-55.5 -31.5q42 -3 62.5 -33t20.5 -60
q0 -46 -37.5 -79t-98.5 -33q-54 0 -92.5 32.5t-42.5 94.5z" />
    <glyph glyph-name="four.numr" horiz-adv-x="360" 
d="M32 427v51l148 228h78v-230h69v-49h-69v-95h-59v95h-167zM95 476h104v169z" />
    <glyph glyph-name="five.numr" horiz-adv-x="360" 
d="M50 425l59 13q12 -65 70 -65q33 0 53 23.5t20 60.5q0 32 -19 56t-52 24q-50 0 -67 -51l-60 12l25 208h219v-50h-170l-13 -105q8 13 29.5 24.5t49.5 11.5q53 0 85 -39.5t32 -90.5q0 -57 -37 -95.5t-95 -38.5q-103 0 -129 102z" />
    <glyph glyph-name="six.numr" horiz-adv-x="360" 
d="M308 626l-60 -13q-15 52 -57 52q-75 0 -83 -132q6 19 29.5 34t54.5 15q55 0 88.5 -37.5t33.5 -92.5q0 -57 -38.5 -93t-87.5 -36q-40 0 -69 18.5t-44 48.5t-21.5 60t-6.5 61q0 84 35.5 144t111.5 60q37 0 69 -22.5t45 -66.5zM186 373q28 0 48.5 22t20.5 60q0 35 -20.5 56
t-49.5 21q-33 0 -51.5 -24t-18.5 -54q0 -37 20 -59t51 -22z" />
    <glyph glyph-name="seven.numr" horiz-adv-x="360" 
d="M149 332h-65q23 63 89.5 187.5t78.5 136.5h-204v50h268v-50q-19 -26 -80 -143t-87 -181z" />
    <glyph glyph-name="eight.numr" horiz-adv-x="360" 
d="M121 532q-30 10 -47 32.5t-17 51.5q0 36 32.5 67.5t90.5 31.5t90 -31.5t32 -67.5q0 -29 -17 -51.5t-47 -32.5q77 -26 77 -98q0 -43 -36 -77t-99 -34t-99.5 34t-36.5 77q0 72 77 98zM103 436q0 -25 20.5 -44t56.5 -19t56 19t20 44q0 27 -16.5 48t-59.5 21t-60 -21t-17 -48
zM116 612q0 -22 16 -39t48 -17q31 0 47 17t16 39q0 21 -16.5 37.5t-46.5 16.5q-31 0 -47.5 -16.5t-16.5 -37.5z" />
    <glyph glyph-name="nine.numr" horiz-adv-x="360" 
d="M50 415l62 14q12 -56 57 -56q42 0 64 46q9 18 14.5 49.5t5.5 45.5q-6 -19 -29.5 -34t-54.5 -15q-55 0 -88.5 36.5t-33.5 89.5q0 55 38 89.5t88 34.5q40 0 69 -18.5t43.5 -48.5t21 -60t6.5 -60q0 -83 -32 -139q-39 -66 -115 -66q-36 0 -70.5 24t-45.5 68zM175 515
q31 0 50 24.5t19 48.5q0 33 -20 55t-50 22q-28 0 -48 -22t-20 -55q0 -31 20.5 -52t48.5 -21z" />
    <glyph glyph-name="zero.dnom" horiz-adv-x="360" 
d="M180 41q42 0 65 44t23 102t-23 102t-65 44t-65 -44t-23 -102t23 -102t65 -44zM180 -9q-70 0 -110 59t-40 137q0 77 40 136.5t110 59.5t110 -59.5t40 -136.5q0 -78 -40 -137t-110 -59z" />
    <glyph glyph-name="one.dnom" horiz-adv-x="360" 
d="M168 0v274h-69v50h22q29 0 41 10t12 40h54v-374h-60z" />
    <glyph glyph-name="two.dnom" horiz-adv-x="360" 
d="M45 0v58q21 9 65.5 40t77.5 64q57 57 57 107q0 29 -16.5 46.5t-44.5 17.5q-67 0 -68 -88l-63 14q0 61 38.5 92.5t92.5 31.5q55 0 89 -31.5t34 -82.5q0 -67 -75 -142q-37 -37 -108 -78h190v-49h-269z" />
    <glyph glyph-name="three.dnom" horiz-adv-x="360" 
d="M42 118l63 12q5 -89 72 -89q35 0 54.5 19t19.5 47q0 25 -19 44.5t-61 19.5h-45v50h43q32 0 52.5 17t20.5 39q0 26 -18 41t-46 15q-35 0 -51 -22.5t-16 -53.5l-62 14q0 40 34 76t95 36q53 0 89.5 -28.5t36.5 -78.5q0 -22 -18.5 -48.5t-55.5 -31.5q42 -3 62.5 -33t20.5 -60
q0 -46 -37.5 -79t-98.5 -33q-54 0 -92.5 32.5t-42.5 94.5z" />
    <glyph glyph-name="four.dnom" horiz-adv-x="360" 
d="M32 95v51l148 228h78v-230h69v-49h-69v-95h-59v95h-167zM95 144h104v169z" />
    <glyph glyph-name="five.dnom" horiz-adv-x="360" 
d="M50 93l59 13q12 -65 70 -65q33 0 53 23.5t20 60.5q0 32 -19 56t-52 24q-50 0 -67 -51l-60 12l25 208h219v-50h-170l-13 -105q8 13 29.5 24.5t49.5 11.5q53 0 85 -39.5t32 -90.5q0 -57 -37 -95.5t-95 -38.5q-103 0 -129 102z" />
    <glyph glyph-name="six.dnom" horiz-adv-x="360" 
d="M308 294l-60 -13q-15 52 -57 52q-75 0 -83 -132q6 19 29.5 34t54.5 15q55 0 88.5 -37.5t33.5 -92.5q0 -57 -38.5 -93t-87.5 -36q-40 0 -69 18.5t-44 48.5t-21.5 60t-6.5 61q0 84 35.5 144t111.5 60q37 0 69 -22.5t45 -66.5zM186 41q28 0 48.5 22t20.5 60q0 35 -20.5 56
t-49.5 21q-33 0 -51.5 -24t-18.5 -54q0 -37 20 -59t51 -22z" />
    <glyph glyph-name="seven.dnom" horiz-adv-x="360" 
d="M149 0h-65q23 63 89.5 187.5t78.5 136.5h-204v50h268v-50q-19 -26 -80 -143t-87 -181z" />
    <glyph glyph-name="eight.dnom" horiz-adv-x="360" 
d="M121 200q-30 10 -47 32.5t-17 51.5q0 36 32.5 67.5t90.5 31.5t90 -31.5t32 -67.5q0 -29 -17 -51.5t-47 -32.5q77 -26 77 -98q0 -43 -36 -77t-99 -34t-99.5 34t-36.5 77q0 72 77 98zM103 104q0 -25 20.5 -44t56.5 -19t56 19t20 44q0 27 -16.5 48t-59.5 21t-60 -21t-17 -48
zM116 280q0 -22 16 -39t48 -17q31 0 47 17t16 39q0 21 -16.5 37.5t-46.5 16.5q-31 0 -47.5 -16.5t-16.5 -37.5z" />
    <glyph glyph-name="nine.dnom" horiz-adv-x="360" 
d="M50 83l62 14q12 -56 57 -56q42 0 64 46q9 18 14.5 49.5t5.5 45.5q-6 -19 -29.5 -34t-54.5 -15q-55 0 -88.5 36.5t-33.5 89.5q0 55 38 89.5t88 34.5q40 0 69 -18.5t43.5 -48.5t21 -60t6.5 -60q0 -83 -32 -139q-39 -66 -115 -66q-36 0 -70.5 24t-45.5 68zM175 183
q31 0 50 24.5t19 48.5q0 33 -20 55t-50 22q-28 0 -48 -22t-20 -55q0 -31 20.5 -52t48.5 -21z" />
    <glyph glyph-name="space.frac" horiz-adv-x="42" 
 />
    <glyph glyph-name="zero.tf" 
d="M322 43q60 0 104 46t64.5 114.5t20.5 147.5q0 124 -50.5 218t-138.5 94t-138.5 -94t-50.5 -218q0 -79 20.5 -147.5t64.5 -114.5t104 -46zM322 -17q-81 0 -140.5 55.5t-87.5 137.5t-28 175t28 176t88 139.5t140 56.5t140 -56.5t88 -139.5t28 -176t-28 -175t-87.5 -137.5
t-140.5 -55.5z" />
    <glyph glyph-name="one.tf" 
d="M112 0v55h185v500h-123v55h16q62 0 90.5 19.5t28.5 76.5h49v-651h185v-55h-431z" />
    <glyph glyph-name="two.tf" 
d="M88 0v81q40 24 79.5 50.5t98 74t101 93t73.5 103t31 109.5q0 68 -38 110t-108 42q-66 0 -106.5 -43t-44.5 -137l-70 16q4 104 66 164t155 60q101 0 157 -59.5t56 -152.5q0 -54 -26 -111t-64.5 -104t-92.5 -95t-99.5 -81t-95.5 -65h394v-55h-466z" />
    <glyph glyph-name="three.tf" 
d="M84 209l72 12q6 -90 49.5 -134t109.5 -44q74 0 121.5 44t47.5 108q0 63 -46.5 104t-123.5 41h-87v60h83q66 0 111 42t45 94q0 59 -42 93t-107 34q-40 0 -69.5 -15.5t-45.5 -40.5t-24 -49.5t-9 -49.5l-70 17q1 26 12.5 57t35 64t68 55t102.5 22q97 0 156.5 -50.5
t59.5 -136.5q0 -51 -39 -101.5t-108 -61.5q80 -15 122.5 -64t42.5 -113q0 -89 -61 -151t-175 -62q-94 0 -158.5 60.5t-72.5 165.5z" />
    <glyph glyph-name="four.tf" 
d="M69 194v71l276 441h103v-457h128v-55h-128v-194h-67v194h-312zM133 249h248v402z" />
    <glyph glyph-name="five.tf" 
d="M95 166l72 13q34 -136 147 -136q80 0 124 52.5t44 140.5q0 70 -42 120.5t-106 50.5q-113 0 -155 -108l-75 14l46 393h375v-60h-316l-33 -261q16 28 60.5 55t104.5 27q92 0 150 -69t58 -162q0 -111 -63 -182t-172 -71q-85 0 -141.5 49.5t-77.5 133.5z" />
    <glyph glyph-name="six.tf" 
d="M542 567l-73 -15q-17 60 -45.5 85.5t-74.5 25.5q-54 0 -93 -35.5t-57.5 -91t-26.5 -105t-8 -96.5q15 51 64.5 87t117.5 36q86 0 148 -65.5t62 -163.5q0 -111 -64 -178.5t-154 -67.5q-61 0 -106.5 24t-70.5 60t-40.5 86.5t-20 93t-4.5 90.5q0 68 12.5 131.5t40 123
t79 95.5t121.5 36q64 0 117 -39.5t76 -116.5zM338 43q62 0 106.5 50t44.5 136q0 75 -44.5 122t-108.5 47q-44 0 -77 -20t-49 -50t-23 -56t-7 -46q0 -82 44 -132.5t114 -50.5z" />
    <glyph glyph-name="seven.tf" 
d="M241 0h-68q52 132 149 328.5t167 317.5h-403l2 60h467v-66q-77 -128 -168.5 -316t-145.5 -324z" />
    <glyph glyph-name="eight.tf" 
d="M240 377q-55 14 -91.5 61.5t-36.5 101.5q0 68 55 125.5t155 57.5t155 -57.5t55 -125.5q0 -55 -35 -101.5t-93 -61.5q65 -10 108.5 -62t43.5 -133q0 -78 -63 -138.5t-171 -60.5q-60 0 -107 20t-73.5 51.5t-40 65t-13.5 64.5q0 79 43.5 129.5t108.5 63.5zM155 182
q0 -51 43.5 -95t123.5 -44t123.5 44t43.5 95q0 75 -40.5 119t-126.5 44q-85 0 -126 -46.5t-41 -116.5zM179 540q0 -46 35.5 -89t107.5 -43t107.5 43t35.5 89t-38.5 85.5t-104.5 39.5t-104.5 -39.5t-38.5 -85.5z" />
    <glyph glyph-name="nine.tf" 
d="M102 139l73 15q17 -60 45.5 -85.5t74.5 -25.5q34 0 61.5 14t45.5 33t32 53t21.5 58.5t13 67.5t7 61.5t4.5 56.5q-17 -52 -65 -87.5t-117 -35.5q-91 0 -150.5 64t-59.5 159q0 103 64.5 169.5t153.5 66.5q59 0 103.5 -23.5t70.5 -59t42 -85t21 -93.5t5 -93
q0 -68 -12 -130.5t-39 -123t-79 -96.5t-123 -36q-61 0 -115.5 40t-77.5 116zM308 324q74 0 115 54t41 109q0 71 -42 123.5t-116 52.5q-65 0 -108 -52t-43 -124q0 -69 44.5 -116t108.5 -47z" />
    <glyph glyph-name="uni2007.tf" 
 />
    <glyph glyph-name="parenleft.case" horiz-adv-x="235" 
d="M210 -53h-46q-126 225 -126 406t126 406h46q-99 -224 -99 -406t99 -406z" />
    <glyph glyph-name="parenright.case" horiz-adv-x="235" 
d="M71 -53h-46q99 224 99 406t-99 406h46q126 -225 126 -406t-126 -406z" />
    <glyph glyph-name="hyphen.case" horiz-adv-x="395" 
d="M56 314v67h283v-67h-283z" />
    <glyph glyph-name="bracketleft.case" horiz-adv-x="267" 
d="M78 -53v812h170v-53h-109v-706h109v-53h-170z" />
    <glyph glyph-name="bracketright.case" horiz-adv-x="267" 
d="M19 -53v53h109v706h-109v53h170v-812h-170z" />
    <glyph glyph-name="braceleft.case" horiz-adv-x="265" 
d="M247 -19v-34q-51 4 -76 12t-46 32q-22 27 -28 59t-6 91v24q0 94 -11 119q-7 17 -17.5 28.5t-18 15.5t-22.5 10v30q15 6 22.5 10t18 15.5t17.5 28.5q11 25 11 119v24q0 59 6 91t28 59q22 24 47 32t75 12v-34q-66 -21 -83 -62q-12 -27 -12 -97v-11q0 -86 -3.5 -113.5
t-20.5 -49.5q-20 -27 -57 -39q37 -12 57 -39q17 -22 20.5 -49.5t3.5 -113.5v-11q0 -70 12 -97q17 -41 83 -62z" />
    <glyph glyph-name="braceright.case" horiz-adv-x="265" 
d="M18 -53v34q66 21 83 62q12 27 12 97v11q0 86 3.5 113.5t20.5 49.5q20 27 57 39q-37 12 -57 39q-17 22 -20.5 49.5t-3.5 113.5v11q0 70 -12 97q-17 41 -83 62v34q50 -4 75 -12t47 -32q22 -27 28 -59t6 -91v-24q0 -94 11 -119q7 -17 17.5 -28.5t18 -15.5t22.5 -10v-30
q-15 -6 -22.5 -10t-18 -15.5t-17.5 -28.5q-11 -25 -11 -119v-24q0 -59 -6 -91t-28 -59q-21 -24 -46.5 -32t-75.5 -12z" />
    <glyph glyph-name="guillemotleft.case" horiz-adv-x="428" 
d="M41 324v58l165 136v-71l-115 -94l115 -94v-71zM201 324v58l165 136v-71l-115 -94l115 -94v-71z" />
    <glyph glyph-name="uni00AD.case" horiz-adv-x="395" 
d="M56 319v67h283v-67h-283z" />
    <glyph glyph-name="guillemotright.case" horiz-adv-x="428" 
d="M62 188v71l115 94l-115 94v71l165 -136v-58zM222 188v71l115 94l-115 94v71l165 -136v-58z" />
    <glyph glyph-name="gravecomb.case" horiz-adv-x="0" 
d="M-198 764l-80 165h74l63 -165h-57z" />
    <glyph glyph-name="acutecomb.case" horiz-adv-x="0" 
d="M-278 764l63 165h74l-80 -165h-57z" />
    <glyph glyph-name="uni0302.case" horiz-adv-x="0" 
d="M-365 764l128 165h54l128 -165h-63l-92 122l-92 -122h-63z" />
    <glyph glyph-name="tildecomb.case" horiz-adv-x="0" 
d="M-351 778v74q37 35 74 35q26 0 78 -21q43 -15 53 -15q38 0 77 53v-74q-39 -37 -77 -37q-26 0 -78 21q-43 15 -53 15q-37 0 -74 -51z" />
    <glyph glyph-name="uni0304.case" horiz-adv-x="0" 
d="M-351 810v59h282v-59h-282z" />
    <glyph glyph-name="uni0306.case" horiz-adv-x="0" 
d="M-349 894v25h55v-25q0 -41 21.5 -66t62.5 -25t63 25t22 66v25h55v-25q0 -62 -40.5 -100t-99.5 -38t-99 38t-40 100z" />
    <glyph glyph-name="uni0307.case" horiz-adv-x="0" 
d="M-250 799v86h81v-86h-81z" />
    <glyph glyph-name="uni0308.case" horiz-adv-x="0" 
d="M-353 799v86h81v-86h-81zM-148 799v86h81v-86h-81z" />
    <glyph glyph-name="uni030A.case" horiz-adv-x="0" 
d="M-210 797q23 0 39.5 16.5t16.5 39.5t-16.5 39.5t-39.5 16.5t-39.5 -16.5t-16.5 -39.5t16.5 -39.5t39.5 -16.5zM-210 760q-38 0 -65.5 27.5t-27.5 65.5t27.5 65.5t65.5 27.5t65.5 -27.5t27.5 -65.5t-27.5 -65.5t-65.5 -27.5z" />
    <glyph glyph-name="uni030B.case" horiz-adv-x="0" 
d="M-338 764l63 165h74l-80 -165h-57zM-219 764l63 165h74l-80 -165h-57z" />
    <glyph glyph-name="uni030C.case" horiz-adv-x="0" 
d="M-237 764l-128 165h63l92 -122l92 122h63l-128 -165h-54z" />
    <glyph glyph-name="uni0323.case" horiz-adv-x="0" 
d="M-290 -144v86h81v-86h-81z" />
    <glyph glyph-name="uni0326.case" horiz-adv-x="0" 
d="M-265 -223l38 165h72l-61 -165h-49z" />
    <glyph glyph-name="uni0327.case" horiz-adv-x="0" 
d="M-314 -223v42h26q55 0 55 43q0 42 -55 42h-26v100h47v-60q37 -2 59 -24t22 -58q0 -40 -29 -62.5t-73 -22.5h-26z" />
    <glyph glyph-name="uni0328.case" horiz-adv-x="0" 
d="M-167 -223h-26q-54 0 -93 39t-39 94q0 58 40 96h92v-6q-36 0 -60.5 -26t-24.5 -64t24.5 -64.5t60.5 -26.5h26v-42z" />
    <glyph glyph-name="uni032E.case" horiz-adv-x="0" 
d="M-389 -81v25h55v-25q0 -41 21.5 -66t62.5 -25t63 25t22 66v25h55v-25q0 -62 -40.5 -100t-99.5 -38t-99 38t-40 100z" />
    <glyph glyph-name="uni0331.case" horiz-adv-x="0" 
d="M-351 -115v59h282v-59h-282z" />
    <glyph glyph-name="endash.case" horiz-adv-x="493" 
d="M56 314v67h381v-67h-381z" />
    <glyph glyph-name="emdash.case" horiz-adv-x="765" 
d="M56 314v67h653v-67h-653z" />
    <glyph glyph-name="guilsinglleft.case" horiz-adv-x="268" 
d="M41 324v58l165 136v-71l-115 -94l115 -94v-71z" />
    <glyph glyph-name="guilsinglright.case" horiz-adv-x="268" 
d="M62 188v71l115 94l-115 94v71l165 -136v-58z" />
    <glyph glyph-name="zero.zero" horiz-adv-x="598" 
d="M299 -17q-81 0 -140.5 55.5t-87.5 137.5t-28 175t28 176t88 139.5t140 56.5t140 -56.5t88 -139.5t28 -176t-28 -175t-87.5 -137.5t-140.5 -55.5zM110 351q0 -113 40 -196l269 442q-51 66 -120 66q-88 0 -138.5 -94t-50.5 -218zM299 43q60 0 104 46t64.5 114.5t20.5 147.5
q0 113 -40 197l-269 -442q50 -63 120 -63z" />
    <glyph glyph-name="cedilla.ss01" horiz-adv-x="302" 
d="M50 -203l15 30q34 -18 65 -18q27 0 46.5 12t19.5 37q0 23 -16.5 32.5t-36.5 9.5q-21 0 -43 -10l-15 13l63 101h36l-47 -76l2 -2q13 6 38 6q26 0 50.5 -16.5t24.5 -55.5q0 -30 -26 -56.5t-87 -26.5q-38 0 -89 20z" />
    <glyph glyph-name="Ccedilla.ss01" horiz-adv-x="674" 
d="M245 -203l15 30q34 -18 65 -18q27 0 46.5 12t19.5 37q0 23 -16.5 32.5t-36.5 9.5t-43 -10l-15 13l51 82q-76 6 -134 38.5t-91.5 84.5t-50 113.5t-16.5 131.5q0 97 34.5 179t110 136.5t178.5 54.5q64 0 117 -21.5t86 -56t53 -71t29 -74.5l-68 -12q-17 68 -71 121.5
t-146 53.5q-119 0 -186 -92t-67 -218q0 -83 24.5 -150.5t84 -113.5t146.5 -46q53 0 95 19t67 50t39.5 62t19.5 62l68 -12q-7 -39 -25.5 -77.5t-51 -77t-87.5 -62.5t-123 -24l-34 -55l2 -2q13 6 38 6q26 0 50.5 -16.5t24.5 -55.5q0 -30 -26 -56.5t-87 -26.5q-38 0 -89 20z
" />
    <glyph glyph-name="ccedilla.ss01" horiz-adv-x="486" 
d="M147 -203l15 30q34 -18 65 -18q27 0 46.5 12t19.5 37q0 23 -16.5 32.5t-36.5 9.5t-43 -10l-15 13l53 86q-101 8 -150.5 79.5t-49.5 171.5q0 104 58 179t163 75q93 0 142.5 -49t61.5 -114l-66 -10q-1 14 -9 32t-22.5 38.5t-42.5 34t-64 13.5q-73 0 -113.5 -59t-40.5 -140
q0 -83 38.5 -140t116.5 -57q61 0 98 39.5t41 84.5l66 -13q-4 -25 -17.5 -51t-35.5 -51.5t-58 -43t-80 -20.5l-37 -60l2 -2q13 6 38 6q26 0 50.5 -16.5t24.5 -55.5q0 -30 -26 -56.5t-87 -26.5q-38 0 -89 20z" />
    <glyph glyph-name="Scedilla.ss01" horiz-adv-x="602" 
d="M198 -203l15 30q34 -18 65 -18q27 0 46.5 12t19.5 37q0 23 -16.5 32.5t-36.5 9.5q-21 0 -43 -10l-15 13l50 80q-102 4 -173 64.5t-79 164.5l70 8q6 -85 63.5 -131t132.5 -46q93 0 148 40t55 104q0 27 -9.5 48.5t-21.5 33.5t-36.5 22.5t-41 15t-48.5 12.5l-48 11
q-49 11 -76.5 19t-65.5 23.5t-57.5 34t-34 48t-14.5 68.5q0 90 67 145t188 55q106 0 169.5 -53.5t82.5 -144.5l-74 -10q-15 76 -63.5 112t-114.5 36q-79 0 -132 -35t-53 -105q0 -23 11.5 -41.5t26 -30t45.5 -23t50.5 -16.5t59.5 -15l47 -11q107 -24 160 -67t53 -132
q0 -87 -69.5 -142t-181.5 -61l-34 -56l2 -2q13 6 38 6q26 0 50.5 -16.5t24.5 -55.5q0 -30 -26 -56.5t-87 -26.5q-38 0 -89 20z" />
    <glyph glyph-name="scedilla.ss01" horiz-adv-x="452" 
d="M123 -203l15 30q34 -18 65 -18q27 0 46.5 12t19.5 37q0 23 -16.5 32.5t-36.5 9.5t-43 -10l-15 13l53 86q-48 3 -86 21.5t-58 44.5t-30 51.5t-10 47.5l72 14q0 -56 33.5 -90.5t94.5 -34.5q53 0 89 22.5t36 67.5q0 28 -19.5 46t-38.5 24t-47 11q-2 0 -3.5 0.5t-3.5 0.5
l-27 5q-23 5 -34 7.5t-32.5 8.5t-32.5 12t-26.5 17t-23 23.5t-13.5 30.5t-6 40q0 60 48 97.5t130 37.5q72 0 125 -41t62 -114l-70 -10q-9 110 -119 110q-58 0 -84.5 -26t-26.5 -54q0 -59 103 -77l39 -7q36 -6 60 -13t52 -22t42.5 -42t14.5 -65q0 -62 -50 -100t-124 -44
l-37 -61l2 -2q13 6 38 6q26 0 50.5 -16.5t24.5 -55.5q0 -30 -26 -56.5t-87 -26.5q-38 0 -89 20z" />
    <glyph glyph-name="uni0162.ss01" horiz-adv-x="544" 
d="M238 0v646h-227v60h522v-60h-228v-646h-4l-44 -72l2 -2q13 6 38 6q26 0 50.5 -16.5t24.5 -55.5q0 -30 -26 -56.5t-87 -26.5q-38 0 -89 20l15 30q34 -18 65 -18q27 0 46.5 12t19.5 37q0 23 -16.5 32.5t-36.5 9.5q-21 0 -43 -10l-15 13l60 97h-27z" />
    <glyph glyph-name="uni0163.ss01" horiz-adv-x="286" 
d="M78 -203l15 30q34 -18 65 -18q27 0 46.5 12t19.5 37q0 23 -16.5 32.5t-36.5 9.5q-21 0 -43 -10l-15 13l59 95q-72 16 -72 110v319h-93v55h93v159h64v-159h106v-55h-106v-316q0 -36 14 -49t43 -13q22 0 49 5v-51q-25 -9 -64 -9l-41 -66l2 -2q13 6 38 6q26 0 50.5 -16.5
t24.5 -55.5q0 -30 -26 -56.5t-87 -26.5q-38 0 -89 20z" />
    <glyph glyph-name="uni0327.ss01" horiz-adv-x="0" 
d="M-351 -203l15 30q34 -18 65 -18q27 0 46.5 12t19.5 37q0 23 -16.5 32.5t-36.5 9.5t-43 -10l-15 13l63 101h36l-47 -76l2 -2q13 6 38 6q26 0 50.5 -16.5t24.5 -55.5q0 -30 -26 -56.5t-87 -26.5q-38 0 -89 20z" />
    <glyph glyph-name="uni0327.case.ss01" horiz-adv-x="0" 
d="M-351 -203l15 30q34 -18 65 -18q27 0 46.5 12t19.5 37q0 23 -16.5 32.5t-36.5 9.5t-43 -10l-15 13l63 101h36l-47 -76l2 -2q13 6 38 6q26 0 50.5 -16.5t24.5 -55.5q0 -30 -26 -56.5t-87 -26.5q-38 0 -89 20z" />
    <glyph glyph-name="Aogonek.ss02" horiz-adv-x="637" 
d="M642 -174l8 -40q-21 -9 -47 -9q-44 0 -73.5 21.5t-29.5 68.5q0 38 21 75.5t46 57.5h-9l-82 219h-316l-82 -219h-75l268 706h98l264 -706h-19q-20 -20 -38.5 -54.5t-18.5 -57.5q0 -64 65 -64q6 0 20 2zM182 279h272l-136 371z" />
    <glyph glyph-name="aogonek.ss02" horiz-adv-x="470" 
d="M436 -174l8 -40q-21 -9 -47 -9q-44 0 -73.5 21.5t-29.5 68.5q0 38 21 75.5t46 57.5h-9q-6 30 -6 77q-41 -89 -154 -89q-74 0 -116.5 39t-42.5 98q0 33 11 58.5t27 40.5t44.5 27t52.5 18t61 13q38 6 58 10q28 5 41.5 16t15.5 20.5t2 28.5q0 10 -3.5 21.5t-13.5 26.5
t-34.5 24.5t-59.5 9.5q-110 0 -120 -110l-69 11q7 48 30 82q47 72 159 72q83 0 129 -34t46 -118v-238q0 -69 7 -104h-9q-20 -20 -38.5 -54.5t-18.5 -57.5q0 -64 65 -64q6 0 20 2zM100 125q0 -36 28.5 -59t67.5 -23q22 0 45 6t48 19.5t41 43t16 70.5v75q-30 -12 -88 -23
l-30 -6q-42 -8 -65.5 -16t-43 -30t-19.5 -57z" />
    <glyph glyph-name="Eogonek.ss02" horiz-adv-x="568" 
d="M78 0v706h444v-60h-377v-250h364v-60h-364v-276h386v-60h-36q-20 -20 -38.5 -54.5t-18.5 -57.5q0 -64 65 -64q6 0 20 2l8 -40q-21 -9 -47 -9q-44 0 -73.5 21.5t-29.5 68.5q0 38 21 75.5t46 57.5h-370z" />
    <glyph glyph-name="eogonek.ss02" horiz-adv-x="491" 
d="M313 -174l8 -40q-21 -9 -47 -9q-44 0 -73.5 21.5t-29.5 68.5q0 65 56 123q-95 9 -143.5 79.5t-48.5 170.5q0 106 56 180t155 74q103 0 157 -72.5t54 -187.5v-6h-355q0 -46 13.5 -85.5t50 -69.5t91.5 -30q56 0 89.5 35t40.5 77l66 -12q-11 -53 -59.5 -101t-119.5 -53
q-46 -63 -46 -101q0 -64 65 -64q6 0 20 2zM104 282h282q0 60 -37 108.5t-103 48.5q-67 0 -104.5 -45t-37.5 -112z" />
    <glyph glyph-name="Iogonek.ss02" horiz-adv-x="223" 
d="M78 0v706h67v-706h-10q-20 -20 -38.5 -54.5t-18.5 -57.5q0 -64 65 -64q6 0 20 2l8 -40q-21 -9 -47 -9q-44 0 -73.5 21.5t-29.5 68.5q0 38 21 75.5t46 57.5h-10z" />
    <glyph glyph-name="iogonek.ss02" horiz-adv-x="190" 
d="M63 0v482h64v-482h-8q-20 -20 -38.5 -54.5t-18.5 -57.5q0 -64 65 -64q6 0 20 2l8 -40q-21 -9 -47 -9q-44 0 -73.5 21.5t-29.5 68.5q0 38 21 75.5t46 57.5h-9zM63 628v78h64v-78h-64z" />
    <glyph glyph-name="Uogonek.ss02" horiz-adv-x="676" 
d="M404 -174l8 -40q-21 -9 -47 -9q-44 0 -73.5 21.5t-29.5 68.5q0 60 51 117q-121 8 -181 80.5t-60 176.5v465h67v-465q0 -88 53 -143t147 -55q95 0 146.5 53t51.5 145v465h67v-465q0 -118 -65.5 -184.5t-177.5 -72.5q-42 -56 -42 -96q0 -64 65 -64q6 0 20 2z" />
    <glyph glyph-name="uogonek.ss02" horiz-adv-x="498" 
d="M455 -174l8 -40q-21 -9 -47 -9q-44 0 -73.5 21.5t-29.5 68.5q0 38 21 75.5t46 57.5h-9v87q-8 -38 -50 -68.5t-98 -30.5q-82 0 -129 59q-24 30 -30 64.5t-6 121.5v249h64v-249q0 -73 4.5 -102.5t18.5 -47.5q28 -40 95 -40q37 0 60 13.5t43 41.5q21 28 25 57.5t4 115.5v211
h63v-482h-8q-20 -20 -38.5 -54.5t-18.5 -57.5q0 -64 65 -64q6 0 20 2z" />
    <glyph glyph-name="uni01EA.ss02" horiz-adv-x="717" 
d="M424 -174l8 -40q-21 -9 -47 -9q-44 0 -73.5 21.5t-29.5 68.5q0 60 51 117q-74 5 -132 37.5t-92.5 84.5t-52 114t-17.5 130q0 71 19 136t57 119t101 86t144 32q80 0 142.5 -32t100 -86t56.5 -119t19 -136q0 -93 -30 -171.5t-99 -134t-168 -60.5q-42 -56 -42 -96
q0 -64 65 -64q6 0 20 2zM360 43q82 0 140 45.5t83 113t25 148.5q0 128 -63.5 220.5t-184.5 92.5q-63 0 -112.5 -27t-79 -72t-44.5 -99.5t-15 -114.5t15 -113.5t44.5 -97.5t79 -70t112.5 -26z" />
    <glyph glyph-name="uni01EB.ss02" horiz-adv-x="515" 
d="M324 -174l8 -40q-21 -9 -47 -9q-44 0 -73.5 21.5t-29.5 68.5q0 64 56 122q-95 8 -149.5 82t-54.5 169q0 100 60.5 177t163.5 77t163 -77t60 -177q0 -93 -52 -166t-143 -84q-47 -65 -47 -102q0 -64 65 -64q6 0 20 2zM258 43q75 0 115.5 59t40.5 138t-41 139t-115 60
q-75 0 -116 -59.5t-41 -139.5q0 -79 41 -138t116 -59z" />
    <glyph glyph-name="ogonek.ss02" horiz-adv-x="250" 
d="M192 -174l8 -40q-21 -9 -47 -9q-44 0 -73.5 21.5t-29.5 68.5q0 40 24.5 80t50.5 59h46q-20 -15 -42 -54t-22 -64q0 -64 65 -64q6 0 20 2z" />
    <glyph glyph-name="uni0328.ss02" horiz-adv-x="0" 
d="M-183 -174l8 -40q-21 -9 -47 -9q-44 0 -73.5 21.5t-29.5 68.5q0 40 24.5 80t50.5 59h46q-20 -15 -42 -54t-22 -64q0 -64 65 -64q6 0 20 2z" />
    <glyph glyph-name="uni0328.case.ss02" horiz-adv-x="0" 
d="M-183 -174l8 -40q-21 -9 -47 -9q-44 0 -73.5 21.5t-29.5 68.5q0 40 24.5 80t50.5 59h46q-20 -15 -42 -54t-22 -64q0 -64 65 -64q6 0 20 2z" />
    <glyph glyph-name="Adieresis.ss03" horiz-adv-x="648" 
d="M95 620v86h81v-86h-81zM474 620v86h81v-86h-81zM8 0l268 706h98l264 -706h-75l-82 219h-316l-82 -219h-75zM187 279h272l-136 371z" />
    <glyph glyph-name="Odieresis.ss03" horiz-adv-x="768" 
d="M44 620v86h81v-86h-81zM642 620v86h81v-86h-81zM385 43q82 0 140 45.5t83 113t25 148.5q0 128 -63.5 220.5t-184.5 92.5q-63 0 -112.5 -27t-79 -72t-44.5 -99.5t-15 -114.5t15 -113.5t44.5 -97.5t79 -70t112.5 -26zM385 -17q-81 0 -144 31t-101 84t-57 117t-19 135
t19 136t57 119t101 86t144 32q80 0 142.5 -32t100 -86t56.5 -119t19 -136t-19 -135.5t-56.5 -117t-100 -83.5t-142.5 -31z" />
    <glyph glyph-name="Udieresis.ss03" horiz-adv-x="676" 
d="M226 620v86h81v-86h-81zM371 620v86h81v-86h-81zM72 241v465h67v-465q0 -88 53 -143t147 -55q95 0 146.5 53t51.5 145v465h67v-465q0 -124 -72.5 -191t-192.5 -67q-134 0 -200.5 74t-66.5 184z" />
    <glyph glyph-name="one.ss04" horiz-adv-x="456" 
d="M18 0v55h185v500h-123v55h16q62 0 90.5 19.5t28.5 76.5h49v-651h185v-55h-431z" />
    <glyph glyph-name="orn001" 
d="M10 353q0 129 91.5 220.5t220.5 91.5t220.5 -91.5t91.5 -220.5t-91.5 -220.5t-220.5 -91.5t-220.5 91.5t-91.5 220.5z" />
    <glyph glyph-name="orn002" 
d="M10 353q0 129 91.5 220.5t220.5 91.5t220.5 -91.5t91.5 -220.5t-91.5 -220.5t-220.5 -91.5t-220.5 91.5t-91.5 220.5zM42 353q0 -116 82 -198t198 -82t198 82t82 198t-82 198t-198 82t-198 -82t-82 -198z" />
    <glyph glyph-name="orn003" 
d="M22 53v600h600v-600h-600z" />
    <glyph glyph-name="orn004" 
d="M22 53v600h600v-600h-600zM54 621v-536h536v536h-536z" />
    <glyph glyph-name="orn005" 
d="M171 -98v902l301 -451z" />
    <glyph glyph-name="orn006" horiz-adv-x="922" 
d="M912 0h-902l451 301z" />
    <glyph glyph-name="orn007" 
d="M171 -98v902h301v-902h-301z" />
    <glyph glyph-name="orn008" horiz-adv-x="922" 
d="M912 0h-902v301h902v-301z" />
    <glyph glyph-name="orn009" 
d="M284 -98v902h75v-902h-75z" />
    <glyph glyph-name="orn010" horiz-adv-x="922" 
d="M912 0h-902v75h902v-75z" />
    </font>
</defs>
</svg>
